<svg xmlns="http://www.w3.org/2000/svg" width="70" height="70" fill="none" viewBox="0 0 70 70"><circle cx="35" cy="35" r="33.9" stroke="#fff" stroke-width="2.2"/><path fill="#fff" stroke="#fff" stroke-width=".7" d="M35.718 20.956a6.318 6.318 0 0 1-6.312-6.31 6.319 6.319 0 0 1 6.312-6.312 6.318 6.318 0 0 1 6.31 6.312 6.318 6.318 0 0 1-6.31 6.31Zm0-11.667a5.377 5.377 0 0 0-5.37 5.365 5.377 5.377 0 0 0 5.37 5.37 5.377 5.377 0 0 0 5.37-5.37 5.376 5.376 0 0 0-5.37-5.37v.005ZM44.557 62.612a4.266 4.266 0 0 1-3.958-2.64l-4.88-11.793-4.892 11.795a4.258 4.258 0 0 1-5.583 2.305 4.246 4.246 0 0 1-2.322-2.307 4.253 4.253 0 0 1 0-3.273l6.972-16.807v-6.418l-11.639-1.637a3.615 3.615 0 0 1-2.49-1.59 4.5 4.5 0 0 1-.715-3.181 4.145 4.145 0 0 1 3.902-3.732c.163.002.326.014.488.037l12.595 1.771H39.4l12.584-1.771c.162-.023.326-.035.49-.037h.038a4.145 4.145 0 0 1 3.863 3.723 4.568 4.568 0 0 1-.6 3 3.65 3.65 0 0 1-2.6 1.77l-11.641 1.64v6.415L48.499 56.7a4.287 4.287 0 0 1-2.319 5.587 4.147 4.147 0 0 1-1.623.326Zm-8.838-16.896 5.755 13.888a3.333 3.333 0 0 0 5.438 1.086 3.333 3.333 0 0 0 .725-3.636L40.6 40.074v-7.418l12.402-1.744h.048a2.665 2.665 0 0 0 1.769-1.075 3.545 3.545 0 0 0 .628-2.626 3.202 3.202 0 0 0-2.973-2.929 2.843 2.843 0 0 0-.31.02h-.019l-12.678 1.78h-7.5L19.3 24.301h-.046a2.876 2.876 0 0 0-.304-.02 3.198 3.198 0 0 0-2.961 2.92c-.124.825.04 1.667.465 2.385a2.728 2.728 0 0 0 1.93 1.32l12.45 1.75v7.418l-7.039 16.988a3.347 3.347 0 0 0 1.794 4.352c.403.172.837.26 1.275.258a3.333 3.333 0 0 0 3.095-2.061l5.758-13.895h.002Z"/></svg>