<svg width="60" height="60" viewBox="0 0 60 60" fill="none" xmlns="http://www.w3.org/2000/svg">
<path d="M44.6994 22.1076L49.6929 13.8709C49.7809 13.7299 49.833 13.5584 49.833 13.3755C49.833 12.8287 49.3688 12.3866 48.7946 12.3866C48.4125 12.3866 48.0784 12.5829 47.8984 12.8763L47.8964 12.8801L42.8409 21.2198C39.0657 19.5678 34.6504 18.6037 29.999 18.6037C25.3476 18.6037 20.9323 19.5678 16.9611 21.296L17.1571 21.2198L12.1016 12.8782C11.9196 12.581 11.5835 12.3828 11.2014 12.3828C10.6272 12.3828 10.163 12.8248 10.163 13.3717C10.163 13.5546 10.2151 13.7242 10.3051 13.8709L10.3031 13.8671L15.2966 22.1038C6.72202 26.6137 0.820246 34.8638 0.00600184 44.4801L0 44.5791H60C59.1798 34.8638 53.278 26.6137 44.8555 22.1762L44.7034 22.1038L44.6994 22.1076ZM16.1869 36.4415C14.8064 36.4415 13.6881 35.3764 13.6881 34.0617C13.6881 32.747 14.8064 31.6819 16.1869 31.6819C17.5673 31.6819 18.6856 32.747 18.6856 34.0617C18.6836 35.3745 17.5673 36.4396 16.1869 36.4415ZM43.8031 36.4415C42.4227 36.4415 41.3044 35.3764 41.3044 34.0617C41.3044 32.747 42.4227 31.6819 43.8031 31.6819C45.1836 31.6819 46.3019 32.747 46.3019 34.0617C46.2999 35.3745 45.1836 36.4396 43.8031 36.4415Z" fill="black"/>
</svg>
