<svg width="60" height="60" viewBox="0 0 60 60" fill="none" xmlns="http://www.w3.org/2000/svg">
<path d="M20.8359 22.8793C22.9983 29.4918 23.8175 41.288 30.1406 41.288C30.6221 41.288 31.1084 41.2409 31.5967 41.148C25.8487 39.8078 25.1674 28.14 21.66 22.0977C21.385 22.3476 21.1119 22.6081 20.8359 22.8793Z" fill="black"/>
<path d="M21.6641 22.1018C25.1715 28.1441 25.8528 39.8119 31.6008 41.1522C32.0523 41.0692 32.5049 40.9437 32.9584 40.7855C27.799 38.2574 26.3728 26.9274 22.3897 21.4727C22.1484 21.6734 21.9063 21.8838 21.6641 22.1018Z" fill="black"/>
<path d="M26.7059 18.5039C26.2254 18.5039 25.7381 18.551 25.2489 18.6439C23.9694 18.8851 22.6697 19.436 21.3594 20.2697C21.7173 20.6229 22.0579 21.0271 22.3783 21.4681C23.7108 20.3623 25.0347 19.5451 26.3538 19.0539C26.8487 18.8706 27.3419 18.7326 27.8368 18.6419C27.4798 18.5511 27.1035 18.5039 26.7059 18.5039Z" fill="black"/>
<path d="M36.9815 38.4488C37.5093 38.0291 38.0381 37.5649 38.5678 37.0584C36.3707 30.4767 35.5843 18.5117 29.2168 18.5117C28.7614 18.5117 28.3021 18.5542 27.8438 18.6391C33.6439 20.0817 34.3869 32.7008 36.9815 38.4488Z" fill="black"/>
<path d="M27.8496 18.6418C27.4926 18.5511 27.1163 18.5039 26.7188 18.5039L29.2227 18.5131C28.7673 18.5131 28.308 18.5555 27.8496 18.6415" fill="black"/>
<path d="M36.8775 39.85C36.6285 39.6126 36.3922 39.3521 36.1596 39.0742C35.0885 39.8326 34.0213 40.4077 32.9609 40.7821C33.3382 40.9665 33.7338 41.1035 34.1536 41.1884C34.4787 41.2548 34.8155 41.2887 35.1696 41.2887C36.3594 41.2887 37.3001 41.1479 38.101 40.7638C37.6601 40.5254 37.2557 40.2167 36.8775 39.85Z" fill="black"/>
<path d="M26.3672 19.0585C31.5623 21.7757 32.0139 34.0803 36.1592 39.0767C36.4371 38.8808 36.7121 38.6733 36.9871 38.4543C34.3924 32.7063 33.6504 20.0861 27.8512 18.6445C27.3562 18.7372 26.8622 18.8743 26.3672 19.0585Z" fill="black"/>
<path d="M22.3906 21.4679C26.3738 26.9226 27.7999 38.2527 32.9593 40.7807C34.0198 40.4063 35.087 39.8313 36.158 39.0728C32.0128 34.0765 31.5612 21.7719 26.3661 19.0547C25.047 19.5449 23.7232 20.3621 22.3906 21.4679Z" fill="black"/>
<path d="M18.2987 22.7238C17.6744 24.1355 17.0366 25.991 16.2656 28.413C17.7989 26.2525 19.3273 24.3912 20.847 22.8831C20.6377 22.2394 20.4128 21.646 20.1707 21.1172C19.5492 21.5929 18.923 22.1285 18.2987 22.7238Z" fill="black"/>
<path d="M20.7169 20.707C20.5336 20.8383 20.3493 20.9724 20.1641 21.1142C20.4062 21.643 20.6301 22.2365 20.8395 22.88C21.1154 22.6098 21.3894 22.3484 21.6635 22.0984C21.3692 21.5928 21.0566 21.1258 20.7169 20.707Z" fill="black"/>
<path d="M21.3651 20.2695C21.1471 20.4076 20.93 20.5532 20.7109 20.7057C21.0506 21.1244 21.3632 21.5915 21.6585 22.0981C21.9007 21.879 22.1429 21.6677 22.3841 21.468C22.0637 21.027 21.7232 20.6227 21.3651 20.2695Z" fill="black"/>
<path d="M56.8065 18.0027C53.8683 29.3336 47.7314 38.4347 42.5865 40.7293H42.5768C42.4832 40.7718 42.3905 40.8104 42.2989 40.8479C42.2863 40.8556 42.2748 40.8565 42.2651 40.8611C42.238 40.872 42.213 40.8804 42.1859 40.8912C42.1733 40.8989 42.1619 40.9014 42.1503 40.906C42.1069 40.9214 42.0644 40.9345 42.022 40.9515C42.0036 40.9591 41.9863 40.9639 41.9688 40.97C41.9495 40.9777 41.9273 40.9848 41.9051 40.9909C41.8859 40.9985 41.8656 41.0041 41.8434 41.0125C41.825 41.0201 41.8057 41.0234 41.7884 41.031C41.7508 41.0419 41.7161 41.0511 41.6784 41.0642C41.663 41.0642 41.6486 41.0726 41.6321 41.0766C41.609 41.0843 41.5829 41.0898 41.5578 41.0967C41.5404 41.1044 41.526 41.1068 41.5076 41.1107C41.4815 41.1183 41.4526 41.1254 41.4265 41.1315C41.3918 41.1392 41.3609 41.1462 41.3281 41.1531C41.5607 41.239 41.8029 41.2824 42.0644 41.2824C46.943 41.2824 51.862 32.5394 60.0011 18H56.8054L56.8065 18.0027Z" fill="black"/>
<path d="M15.1981 18.9686C15.2011 18.9686 15.2049 18.9609 15.2069 18.9609C15.2107 18.9609 15.2166 18.9609 15.2185 18.9533H15.2246C15.2516 18.9441 15.2767 18.9332 15.3037 18.9232C15.3106 18.9232 15.3143 18.9232 15.3192 18.9155C15.3261 18.9155 15.3328 18.9079 15.3395 18.9069C15.3685 18.8978 15.3974 18.8869 15.4244 18.8768H15.429C15.4937 18.8575 15.5535 18.8336 15.6162 18.8112C15.625 18.8112 15.6336 18.8036 15.6442 18.8036C15.6703 18.7952 15.6973 18.7858 15.7243 18.7796C15.7369 18.772 15.7494 18.772 15.7609 18.768C15.7889 18.7596 15.816 18.7502 15.842 18.7441C15.8536 18.7441 15.8642 18.7364 15.8728 18.7356C15.9626 18.711 16.0514 18.6878 16.1411 18.6662C16.1537 18.6662 16.1643 18.6585 16.1778 18.6578C16.2038 18.6501 16.228 18.6461 16.2559 18.6423C16.2676 18.6346 16.281 18.6346 16.2945 18.6306C16.3205 18.623 16.3456 18.6222 16.3736 18.6159H16.392C16.446 18.605 16.501 18.5958 16.5551 18.5858H16.5879C16.6139 18.5781 16.6371 18.5774 16.6631 18.5726C16.6775 18.5726 16.6921 18.565 16.7056 18.565C16.7297 18.565 16.7538 18.5573 16.7779 18.5541C16.7905 18.5541 16.803 18.5541 16.8175 18.5464C16.8744 18.5388 16.9333 18.5357 16.9931 18.5309C16.8243 18.5147 16.6506 18.5039 16.474 18.5039C10.9798 18.5039 3.41001 28.6982 0 41.9002H0.657109C1.74843 39.954 2.72878 38.1129 3.62519 36.3847C6.01336 27.0338 10.8775 20.6566 15.1984 18.9671" fill="black"/>
<path d="M18.2969 22.7182C18.9212 22.1229 19.5474 21.5874 20.1688 21.1117C20.027 20.801 19.8803 20.5135 19.723 20.25C19.2203 20.8598 18.761 21.6646 18.2969 22.7182Z" fill="black"/>
<path d="M18.7414 19.0435C19.1003 19.3445 19.4216 19.7585 19.7159 20.2545C19.8085 20.1406 19.9022 20.0354 19.9996 19.937C19.5915 19.5559 19.1505 19.2432 18.6719 19.0078C18.6912 19.0185 18.7105 19.0271 18.7305 19.0356C18.7305 19.0356 18.7382 19.0433 18.7414 19.0433" fill="black"/>
<path d="M3.625 36.3787C8.63484 26.7247 11.0085 20.6148 15.1982 18.9609C10.8783 20.6515 6.01317 27.0286 3.625 36.3787Z" fill="black"/>
<path d="M20.0024 19.9336C19.905 20.033 19.8124 20.1372 19.7188 20.2511C19.8761 20.5145 20.0227 20.8011 20.1655 21.1127C20.3508 20.9709 20.5351 20.8368 20.7184 20.7055C20.4917 20.4257 20.2524 20.1662 20.0024 19.9336Z" fill="black"/>
<path d="M5.89363 41.8582C5.86276 41.8658 5.83188 41.8658 5.80293 41.8691H5.78556C5.75946 41.8691 5.73245 41.8767 5.70836 41.8767H5.69579C5.6331 41.8843 5.57131 41.8843 5.51149 41.8891H5.49219C10.5628 41.7472 12.8805 39.2085 14.0307 35.5264C14.9049 32.7349 15.6229 30.3834 16.252 28.4102C14.1282 31.3995 11.9948 34.9629 9.84975 38.9548C8.81536 40.8788 7.24255 41.6825 5.89359 41.8544" fill="black"/>
<path d="M5.89844 41.856C7.24739 41.6842 8.8202 40.8814 9.85459 38.9564C11.9996 34.9655 14.134 31.4011 16.2558 28.4118C17.0278 25.9889 17.6646 24.1344 18.2899 22.7227C14.0607 26.7483 9.81503 33.442 5.89844 41.8541" fill="black"/>
<path d="M3.62433 36.3828C2.72796 38.111 1.74761 39.9521 0.65625 41.8983H2.56779C2.8206 39.9655 3.17955 38.1225 3.62433 36.3837" fill="black"/>
<path d="M16.8222 18.5489C16.8067 18.5489 16.7952 18.5566 16.7817 18.5566C16.7585 18.5642 16.7344 18.5642 16.7103 18.5667C16.6959 18.5667 16.6823 18.5667 16.6678 18.5743C16.6417 18.582 16.6176 18.5827 16.5925 18.5875C16.5809 18.5875 16.5694 18.5875 16.5597 18.5952C16.5047 18.6043 16.4507 18.6145 16.3967 18.6237H16.3783C16.3504 18.6314 16.3252 18.6354 16.2992 18.6392C16.2856 18.6469 16.2722 18.6469 16.2596 18.6499C16.2336 18.6576 16.2075 18.6608 16.1824 18.6654C16.1688 18.673 16.1583 18.673 16.1457 18.6738C16.056 18.6954 15.9672 18.7186 15.8775 18.7433C15.8679 18.7433 15.8582 18.7509 15.8466 18.7525C15.8196 18.7601 15.7935 18.7679 15.7656 18.7764C15.7539 18.784 15.7405 18.784 15.7289 18.7871C15.7019 18.7947 15.6748 18.8026 15.6488 18.811C15.6383 18.811 15.6295 18.8187 15.6199 18.8187C15.5581 18.8418 15.4973 18.865 15.4336 18.8843C15.4066 18.8927 15.3777 18.9036 15.3487 18.9136C15.3371 18.9213 15.3265 18.923 15.3131 18.9283C15.286 18.9367 15.259 18.9476 15.2339 18.9577C15.2244 18.9653 15.2146 18.9661 15.2079 18.9701C11.0182 20.624 8.64455 26.7338 3.63471 36.3878C3.18988 38.1266 2.82997 39.9696 2.57812 41.9023H2.84637C3.6019 41.9023 3.81515 41.8947 4.68454 41.8947H4.72892H4.85822H4.90261H4.91518H4.95957H4.98466H5.00203H5.03677H5.14484H5.25291H5.34361H5.3677H5.52691C5.58673 41.887 5.64849 41.887 5.71121 41.8822H5.72279C5.74888 41.8822 5.7749 41.8746 5.79998 41.8746H5.81828C5.84622 41.8746 5.8781 41.8669 5.90898 41.8637C9.82557 33.4516 14.0712 26.7579 18.3004 22.7323C18.7655 21.6786 19.2239 20.8738 19.7256 20.265C19.4323 19.7691 19.111 19.3541 18.752 19.053C18.752 19.053 18.7423 19.053 18.7415 19.0454C18.7212 19.037 18.702 19.0268 18.6817 19.0168C18.6614 19.0059 18.644 18.9975 18.6229 18.9867C18.6045 18.9791 18.5833 18.9689 18.565 18.9589C18.5399 18.9513 18.5196 18.9404 18.4974 18.9303C18.4791 18.9227 18.4627 18.9149 18.4443 18.9072C18.4066 18.8925 18.3691 18.8771 18.3334 18.8609C18.3169 18.8532 18.3016 18.8492 18.286 18.8431C18.26 18.8337 18.2301 18.8215 18.2031 18.8099C18.1895 18.8023 18.1741 18.8007 18.1587 18.7952C18.1191 18.782 18.0805 18.7682 18.0438 18.7558H18.0343C17.9899 18.7411 17.9465 18.7303 17.9011 18.718C17.8906 18.7103 17.8818 18.7103 17.8712 18.7088C17.8316 18.6979 17.7969 18.6872 17.7593 18.6772C17.7497 18.6772 17.7409 18.6695 17.7333 18.6695C17.6426 18.6456 17.549 18.6263 17.4544 18.6085C17.4447 18.6085 17.4351 18.6009 17.4255 18.6009C17.385 18.5932 17.3454 18.5862 17.3049 18.5816C17.2951 18.5739 17.2894 18.5739 17.2808 18.5739C17.2325 18.5663 17.1853 18.5607 17.138 18.5554H17.1129C17.0743 18.5477 17.0386 18.547 17.0029 18.543C16.9421 18.5506 16.8842 18.5539 16.8273 18.5592" fill="black"/>
<path d="M45.3379 24.275C44.374 27.3628 43.5933 29.9101 42.9141 32.0059C45.5589 28.3663 48.1642 23.7877 50.645 18.5039C47.7512 19.4128 46.2073 21.4932 45.3379 24.275Z" fill="black"/>
<path d="M42.9971 40.5337C42.862 40.6024 42.7269 40.6677 42.5938 40.7266C47.7387 38.4321 53.8756 29.331 56.8138 18H56.2184C49.4678 30.0585 47.2968 38.131 42.9971 40.5337Z" fill="black"/>
<path d="M39.6219 39.5206C40.7412 38.1543 41.653 35.8318 42.8978 32.0039C41.462 33.9762 40.0166 35.6716 38.5701 37.0543C38.5701 37.0619 38.5701 37.0619 38.5625 37.0667C38.8781 38.0123 39.2244 38.8469 39.6191 39.5204" fill="black"/>
<path d="M39.626 39.5195C39.2449 39.9846 38.8416 40.3388 38.3929 40.6012C38.2945 40.6584 38.1951 40.7122 38.0938 40.7614C38.5676 41.0171 39.0847 41.1879 39.6636 41.2564C39.7485 41.2648 39.8325 41.2726 39.9203 41.2788H39.9358C39.9752 41.2788 40.0169 41.2788 40.0593 41.2864H40.0763H40.2028H40.3389H40.3813H40.4778C40.4933 41.2864 40.5095 41.2864 40.5249 41.2788C40.555 41.2788 40.5867 41.2788 40.6175 41.2711H40.6284H40.6631C40.6948 41.2711 40.7295 41.2635 40.7635 41.2602H40.7711C40.7813 41.2602 40.792 41.2526 40.802 41.2526C40.8375 41.2449 40.8746 41.2417 40.9092 41.2363H40.9408C40.9802 41.2287 41.0209 41.2239 41.0614 41.2163H41.069H41.0807C41.1618 41.2008 41.2409 41.1854 41.3209 41.1653C40.6571 40.9222 40.1013 40.349 39.6227 39.5327" fill="black"/>
<path d="M30.1406 41.2879C30.6222 41.2879 31.1085 41.2408 31.5967 41.147C32.0483 41.065 32.5008 40.9395 32.9543 40.7812C33.3316 40.9656 33.7272 41.1026 34.146 41.1875C34.4712 41.2539 34.8089 41.2879 35.1631 41.2879H30.1406Z" fill="black"/>
<path d="M35.1675 41.2866C36.3562 41.2866 37.298 41.1458 38.0979 40.7617C38.5717 41.0174 39.0889 41.1882 39.6678 41.2568C39.7527 41.2652 39.8367 41.273 39.9245 41.2791H39.94C39.9794 41.2791 40.0211 41.2791 40.0635 41.2868H40.0813H40.2077H35.1641L35.1675 41.2866Z" fill="black"/>
<path d="M40.2031 41.2918H40.3402H40.3826H40.4782C40.4944 41.2918 40.5098 41.2918 40.5253 41.2842C40.5554 41.2842 40.587 41.2842 40.6189 41.2766H40.629H40.6645C40.6962 41.2766 40.7309 41.2689 40.764 41.2658H40.7724C40.7825 41.2658 40.7924 41.2582 40.8025 41.2582C40.838 41.2506 40.875 41.2475 40.9095 41.242C40.9212 41.242 40.9304 41.242 40.9427 41.2343C40.9821 41.2267 41.0229 41.2226 41.0634 41.215H41.071H41.0827C41.1638 41.1995 41.2429 41.1841 41.3229 41.1641C41.5554 41.2499 41.7977 41.2934 42.0591 41.2934L40.2046 41.301L40.2031 41.2918Z" fill="black"/>
<path d="M38.5636 37.0741V37.0664C38.0339 37.573 37.5051 38.0371 36.9773 38.4568C36.7013 38.6759 36.4263 38.8833 36.1484 39.0792C36.3809 39.3571 36.6174 39.6176 36.8663 39.855C37.2446 40.2216 37.6488 40.5305 38.0898 40.7688C38.1902 40.7194 38.2905 40.6655 38.388 40.6086C38.8376 40.3461 39.241 39.992 39.6221 39.5269C39.2274 38.8534 38.8811 38.0187 38.5655 37.0731" fill="black"/>
<path d="M54.3241 18H51.8211H51.5721H51.3367H51.3275C51.1654 18.0076 51.0082 18.0132 50.8528 18.0232C50.7794 18.1805 50.7042 18.3378 50.6318 18.4961C48.151 23.7799 45.5457 28.3584 42.9009 31.9981C41.6571 35.8259 40.7443 38.1485 39.625 39.5148C40.1036 40.3311 40.6604 40.9052 41.3223 41.1484C41.3416 41.1407 41.357 41.1407 41.3744 41.1367H41.3851C41.3968 41.1367 41.4092 41.1291 41.4218 41.1291C41.4488 41.1214 41.4777 41.1166 41.5048 41.1082C41.5221 41.1006 41.5366 41.0998 41.554 41.0943C41.5791 41.0866 41.6051 41.0811 41.6283 41.075C41.6438 41.0673 41.6591 41.0648 41.6746 41.0618C41.7132 41.0493 41.7479 41.0402 41.7846 41.0286C41.802 41.0209 41.8203 41.0146 41.8396 41.01C41.8609 41.0024 41.8821 40.9968 41.9014 40.9876C41.9236 40.98 41.9458 40.976 41.9651 40.9676C41.9825 40.9599 42.0007 40.9552 42.0172 40.9483C42.0605 40.9328 42.103 40.9197 42.1465 40.9027C42.1581 40.9027 42.1696 40.892 42.1822 40.8895C42.2082 40.8786 42.2352 40.8702 42.2613 40.8586C42.2709 40.851 42.2826 40.8502 42.2951 40.8462C42.3858 40.8084 42.4794 40.7698 42.573 40.7276H42.5827C42.7159 40.6689 42.851 40.6031 42.9851 40.5346C47.2857 38.132 49.4568 30.0595 56.2074 18.0009H54.3219L54.3241 18Z" fill="black"/>
<path d="M16.9922 18.5295C17.0029 18.5295 17.0125 18.5295 17.0231 18.5371C17.0491 18.5371 17.0752 18.5371 17.1012 18.5456H17.1273C17.1746 18.5532 17.2219 18.5572 17.2701 18.5641C17.2789 18.5641 17.2865 18.5641 17.2942 18.5717C17.3337 18.5794 17.3743 18.5857 17.4148 18.5918C17.4236 18.5918 17.4351 18.5995 17.4448 18.5995C17.5374 18.618 17.632 18.6373 17.7227 18.6612C17.7313 18.6612 17.7401 18.6689 17.7478 18.6689C17.7863 18.678 17.8211 18.6897 17.8597 18.7005C17.8713 18.7005 17.8799 18.7081 17.8906 18.7099C17.9359 18.7215 17.9784 18.733 18.0228 18.7477C18.0247 18.7477 18.0273 18.7477 18.0325 18.7553C18.0701 18.7668 18.1087 18.7816 18.1483 18.7947C18.1638 18.8023 18.1782 18.8056 18.1927 18.8094C18.2197 18.8211 18.2496 18.8326 18.2757 18.8434C18.2911 18.8434 18.3065 18.8541 18.3229 18.8596C18.3586 18.8759 18.3962 18.8905 18.4329 18.9059C18.4522 18.9136 18.4686 18.9222 18.4869 18.9291C18.5082 18.94 18.5303 18.9499 18.5535 18.9577C18.5728 18.9668 18.594 18.9769 18.6123 18.9854C18.6326 18.9963 18.6518 19.0047 18.6712 19.0155C19.1498 19.251 19.5908 19.5646 19.9989 19.9448C20.1494 19.7865 20.3067 19.6447 20.4698 19.5173C19.5772 18.8843 18.566 18.5234 17.3994 18.5234C17.2643 18.5234 17.1293 18.5311 16.9922 18.5412" fill="black"/>
<path d="M20 19.9392C20.2499 20.1717 20.4892 20.4313 20.716 20.7112C20.935 20.5587 21.1521 20.412 21.3702 20.275C21.0846 19.9894 20.7835 19.7327 20.4699 19.5117C20.3068 19.6382 20.1505 19.781 20 19.9392Z" fill="black"/>
<path d="M16.9879 18.5352C17.1249 18.5236 17.26 18.5188 17.3951 18.5188C18.5617 18.5188 19.5729 18.8797 20.4654 19.5117C21.4072 18.7687 22.5458 18.5092 24.1273 18.5092H16.4688C16.6453 18.5092 16.818 18.5198 16.9879 18.5352Z" fill="black"/>
<path d="M24.1306 18.5037C22.5491 18.5037 21.4105 18.7633 20.4688 19.5063C20.7814 19.7272 21.0824 19.9839 21.3681 20.2695C22.6794 19.4358 23.9782 18.8839 25.2586 18.6427C25.7468 18.551 26.2341 18.5037 26.7147 18.5037H24.1306Z" fill="black"/>
<path d="M42.9048 32.0042C43.5851 29.9065 44.3637 27.3601 45.3296 24.2713C46.2 21.4885 47.741 19.4082 50.6347 18.5002C50.7112 18.3448 50.7834 18.1847 50.8577 18.0273C46.1402 18.3101 43.9353 20.7098 42.8257 24.2636C40.8852 30.468 39.71 34.4898 38.5781 37.0526C40.0236 35.6709 41.469 33.9746 42.9048 32.0042Z" fill="black"/>
</svg>
