<svg xmlns="http://www.w3.org/2000/svg" width="72" height="76" fill="none" viewBox="0 0 72 76"><path fill="#fff" stroke="#fff" stroke-width=".1" d="M28.628 26.316H15.055v29.887H57.01V26.316H43.436V22.58c0-2.117-1.604-3.736-3.702-3.736H32.33c-2.097 0-3.701 1.619-3.701 3.736v3.736ZM17.523 53.712V41.836h4.936v3.736h7.404v-3.736h12.34v3.736h7.403v-3.736h4.936v11.876h-37.02Zm7.404-10.63V38.1h2.468v4.982h-2.468Zm19.743 0V38.1h2.468v4.982H44.67Zm9.872-3.736h-4.936V35.61h-7.404v3.736h-12.34V35.61H22.46v3.736h-4.936v-10.54h37.02v10.54ZM32.33 21.334h7.404c.74 0 1.234.498 1.234 1.246v3.736h-9.872V22.58c0-.747.494-1.246 1.234-1.246Z"/><path fill="#fff" stroke="#fff" stroke-width=".1" d="M34.8 7.387v12.61h2.468V7.388c1.48-.498 2.468-1.868 2.468-3.487 0-2.117-1.604-3.736-3.702-3.736S32.332 1.783 32.332 3.9c0 1.619.987 2.989 2.468 3.487Zm1.234-4.732c.74 0 1.234.498 1.234 1.245 0 .747-.494 1.245-1.234 1.245S34.8 4.647 34.8 3.9c0-.747.494-1.245 1.234-1.245ZM3.468 7.387v5.23h17.276v14.67h2.468v-17.16H5.936v-2.74c1.48-.498 2.468-1.868 2.468-3.487C8.404 1.783 6.8.164 4.702.164S1 1.783 1 3.9c0 1.619.987 2.989 2.468 3.487Zm1.234-4.732c.74 0 1.234.498 1.234 1.245 0 .747-.494 1.245-1.234 1.245S3.468 4.647 3.468 3.9c0-.747.494-1.245 1.234-1.245ZM69.138 7.387v5.23H51.862v14.67h-2.468v-17.16H66.67v-2.74c-1.481-.498-2.468-1.868-2.468-3.487 0-2.117 1.604-3.736 3.701-3.736 2.098 0 3.703 1.619 3.703 3.736 0 1.619-.988 2.989-2.468 3.487Zm-1.235-4.732c-.74 0-1.234.498-1.234 1.245 0 .747.494 1.245 1.234 1.245s1.234-.498 1.234-1.245c0-.747-.493-1.245-1.234-1.245ZM34.8 68.357v-12.61h2.468v12.61c1.48.498 2.468 1.868 2.468 3.487 0 2.117-1.604 3.736-3.702 3.736s-3.702-1.619-3.702-3.736c0-1.619.987-2.989 2.468-3.487Zm1.234 4.733c.74 0 1.234-.499 1.234-1.246s-.494-1.245-1.234-1.245-1.234.498-1.234 1.245c0 .747.494 1.246 1.234 1.246ZM3.468 68.357v-5.23h17.276v-9.203h2.468v11.694H5.936v2.74c1.48.497 2.468 1.867 2.468 3.486 0 2.117-1.604 3.736-3.702 3.736S1 73.961 1 71.844c0-1.619.987-2.989 2.468-3.487Zm1.234 4.733c.74 0 1.234-.499 1.234-1.246S5.442 70.6 4.702 70.6s-1.234.498-1.234 1.245c0 .747.494 1.246 1.234 1.246ZM69.138 68.357v-5.23H51.862v-9.203h-2.468v11.694H66.67v2.74c-1.481.497-2.468 1.867-2.468 3.486 0 2.117 1.604 3.736 3.701 3.736 2.098 0 3.703-1.619 3.703-3.736 0-1.619-.988-2.989-2.468-3.487Zm-1.235 4.733c-.74 0-1.234-.499-1.234-1.246s.494-1.245 1.234-1.245 1.234.498 1.234 1.245c0 .747-.493 1.246-1.234 1.246Z"/></svg>