<svg width="60" height="60" viewBox="0 0 60 60" fill="none" xmlns="http://www.w3.org/2000/svg">
<path d="M20.6364 59.9958C17.0387 58.441 13.672 54.4885 13.6641 50.4445C13.6544 46.0354 16.4487 42.2922 19.9239 39.832C19.5061 41.4105 19.2781 42.8543 20.3132 44.266C21.2756 45.5788 22.9607 46.2167 24.5519 45.8705C28.2703 45.0567 28.4407 40.969 26.2364 38.5877C24.0571 36.2295 21.9487 33.5656 22.7782 30.1455C23.1936 28.4313 24.2463 26.8255 25.5797 25.6776C24.5549 28.3712 27.4674 31.0278 29.3867 32.351C32.7157 34.6468 36.368 36.3817 39.4291 39.0728C42.649 41.901 45.0267 45.7255 44.5464 50.1607C44.0262 54.9682 40.2059 58.3118 35.9211 60C44.9758 58.0013 54.3318 50.9739 54.5234 40.9314C54.6823 32.6699 49.0149 26.3119 41.9941 22.6718L41.6273 22.4717C41.8201 22.9392 41.8832 23.337 41.8759 23.6929C41.939 23.4304 41.9814 23.1605 41.9935 22.8822C41.9905 23.2284 41.9462 23.5553 41.865 23.8621L41.8759 23.6929C41.7704 24.1386 41.5933 24.5528 41.3562 24.9318L41.4593 24.8208C40.0585 27.1439 36.2668 27.6484 34.3936 25.2429C31.3823 21.3735 34.4567 17.2015 34.8866 13.1041C35.4251 7.96859 32.2045 2.98345 28.2115 0C30.4108 3.5577 27.5135 8.26451 25.1953 10.8956C22.9474 13.4467 20.2138 15.5764 17.7324 17.894C15.0667 20.3832 12.5041 23.0053 10.3132 25.9269C5.93144 31.7743 3.24876 39.1286 5.22014 46.4241C7.1903 53.7141 13.5053 58.3549 20.6364 59.9958Z" fill="black"/>
</svg>
