<svg width="60" height="60" viewBox="0 0 60 60" fill="none" xmlns="http://www.w3.org/2000/svg">
<g clip-path="url(#clip0_5765_9468)">
<path d="M28.6852 0H31.0069C37.0622 0.250781 43.0481 2.29219 47.902 5.94187C52.5 9.35859 56.0925 14.1155 58.0866 19.4916C59.2308 22.4855 59.8041 25.6697 60 28.8628V30.8367C59.8059 36.1303 58.2825 41.393 55.4391 45.8752C52.2511 50.9822 47.5069 55.1236 41.9733 57.5133C38.3507 59.0841 34.4551 59.929 30.5072 60H29.5022C24.0014 59.9105 18.5287 58.2844 13.8942 55.3162C8.64609 51.982 4.46578 46.9795 2.16234 41.1989C0.886406 38.0578 0.206719 34.6969 0 31.3181V28.9945C0.23625 22.2492 2.79047 15.5841 7.22344 10.4808C10.86 6.23906 15.7031 3.0375 21.0408 1.37672C23.5181 0.595312 26.0981 0.192188 28.6852 0ZM11.8083 17.5889C11.7942 23.2856 11.8031 28.9819 11.8031 34.6767C12.4734 34.6819 13.1438 34.6819 13.8155 34.6819C13.7803 29.7914 13.8628 24.9023 13.7658 20.0133C13.9908 20.4384 14.1961 20.8758 14.4525 21.2822C17.3602 25.7391 20.2055 30.2344 23.1136 34.6875C23.9283 34.6767 24.743 34.6767 25.5577 34.6894C25.5562 28.9894 25.5544 23.2894 25.5595 17.5894C24.8955 17.5829 24.2314 17.581 23.5673 17.5837C23.6025 22.4212 23.5036 27.2587 23.6259 32.0911C20.5758 27.2386 17.4848 22.4137 14.3939 17.5856C13.532 17.5803 12.6701 17.5814 11.8083 17.5889ZM30.0164 17.5837C29.9559 23.2838 30.0145 28.9837 29.9944 34.6819C33.0267 34.6748 36.0591 34.6931 39.0928 34.6725C39.0819 34.055 39.0857 33.4373 39.1041 32.82C36.7547 32.8125 34.4039 32.8233 32.0527 32.8106C32.018 30.8372 32.0508 28.8609 32.0339 26.887C34.0941 26.8505 36.1542 26.8927 38.212 26.865C38.2069 26.2664 38.2069 25.6678 38.2031 25.0688C36.1467 25.1348 34.0908 25.0434 32.0325 25.0744C32.0381 23.1886 32.0419 21.3009 32.0419 19.4128C34.2445 19.4128 36.4472 19.4034 38.648 19.4184C38.6442 18.8086 38.648 18.1969 38.6555 17.5875C35.775 17.58 32.8945 17.5837 30.0164 17.5837ZM40.6111 17.6091C40.613 18.2025 40.613 18.7941 40.6148 19.3856C42.2498 19.3669 43.883 19.4367 45.518 19.402C45.5072 24.4941 45.5198 29.5823 45.5128 34.6711C46.1972 34.6912 46.8862 34.6875 47.5706 34.6289C47.5144 31.8202 47.6259 29.0095 47.4975 26.2022C47.5289 24.937 47.4647 23.6737 47.5523 22.41C47.602 21.4069 47.4225 20.4052 47.5359 19.402C49.1841 19.4241 50.8336 19.4091 52.4813 19.4091C52.4738 18.8101 52.4855 18.211 52.5164 17.6128C48.5466 17.5636 44.5772 17.5688 40.6111 17.6091ZM6.35156 32.3878C5.42484 32.8144 5.36438 34.2736 6.28172 34.7442C7.08797 35.2973 8.29969 34.5703 8.26313 33.6145C8.32547 32.6752 7.18969 31.8858 6.35156 32.3878ZM20.0531 39.5545C18.0483 41.1806 18.0722 44.8022 20.2875 46.2342C21.5381 47.0288 23.1478 46.8642 24.4697 46.335C24.4753 46.0439 24.4823 45.7542 24.4931 45.4631C23.2411 46.117 21.4884 46.2506 20.4267 45.1772C19.0369 43.6598 19.35 40.8323 21.1828 39.7978C22.2192 39.2522 23.483 39.4116 24.5044 39.9098C24.5011 39.6005 24.5025 39.2911 24.5044 38.9817C23.0527 38.4666 21.2597 38.4942 20.0531 39.5545ZM28.1189 40.8248C27.233 40.928 26.3573 41.3967 25.9472 42.2152C25.3598 43.3852 25.4273 44.9653 26.3522 45.9464C27.3061 47.0231 29.1389 47.0339 30.1866 46.0856C31.3233 45.0037 31.4517 43.0537 30.5414 41.79C30.0033 41.0264 29.0072 40.7663 28.1189 40.8248ZM36.5034 42.1012C35.7253 43.4527 35.8791 45.4997 37.2525 46.4189C38.2758 46.9908 39.5648 46.8089 40.5684 46.2745C40.5666 45.9853 40.5703 45.6956 40.583 45.4083C39.7922 45.9098 38.7375 46.2783 37.8586 45.7725C37.245 45.4341 37.0598 44.7145 36.9614 44.0733C38.3091 44.055 39.6548 44.0348 41.0044 44.0386C40.9692 43.1817 40.9491 42.2133 40.3247 41.5505C39.2939 40.4114 37.2103 40.7738 36.5034 42.1012ZM32.5594 41.0063V46.635C32.865 46.635 33.1744 46.635 33.4842 46.6369C33.495 45.608 33.4655 44.5772 33.495 43.5459C33.5025 42.9506 33.742 42.3469 34.1906 41.9456C34.5661 41.662 35.0733 41.8191 35.5036 41.8303C35.498 41.5322 35.4942 41.235 35.4928 40.9388C34.6523 40.7522 33.9291 41.2444 33.5044 41.9311C33.495 41.6344 33.4856 41.3377 33.4805 41.0433C33.173 41.032 32.865 41.0194 32.5594 41.0063Z" fill="black"/>
<path d="M27.5406 41.8207C28.315 41.4433 29.4264 41.6285 29.8586 42.4301C30.3508 43.3146 30.34 44.4846 29.7944 45.3415C29.0819 46.413 27.2036 46.1786 26.7367 44.9936C26.2642 43.9352 26.4475 42.4235 27.5406 41.8207ZM37.0478 43.3165C37.0694 42.5786 37.5841 41.846 38.3256 41.6852C38.7831 41.6083 39.3086 41.6885 39.6255 42.0569C39.9405 42.3916 40.0066 42.8604 40.0849 43.2944C39.0724 43.3001 38.0603 43.2799 37.0478 43.3165Z" fill="black"/>
</g>
<defs>
<clipPath id="clip0_5765_9468">
<rect width="60" height="60" fill="white"/>
</clipPath>
</defs>
</svg>
