<svg xmlns="http://www.w3.org/2000/svg" width="72" height="72" fill="none" viewBox="0 0 72 72"><path fill="#fff" stroke="#fff" stroke-width=".6" d="M67.326 71.116H4.793a3.708 3.708 0 0 1-3.792-3.79V4.793a3.71 3.71 0 0 1 3.792-3.792h62.533a3.709 3.709 0 0 1 3.79 3.792v62.533a3.796 3.796 0 0 1-3.79 3.79ZM2.13 15.371v52.064a2.666 2.666 0 0 0 2.662 2.662h62.533a2.775 2.775 0 0 0 2.771-2.771V15.37H2.131ZM4.793 2.02A2.777 2.777 0 0 0 2.02 4.793v9.56h67.966V4.674a2.664 2.664 0 0 0-2.66-2.663L4.793 2.02Z"/><path fill="#fff" stroke="#fff" stroke-width=".6" d="M29.271 11.14a2.862 2.862 0 0 1-3.012-2.9 3.073 3.073 0 0 1 3.012-3.125 2.982 2.982 0 0 1 3.013 3.013 3.053 3.053 0 0 1-3.012 3.013Zm0-4.783A1.91 1.91 0 0 0 27.39 8.24a1.91 1.91 0 0 0 2.61 1.75 1.844 1.844 0 0 0 1.157-1.75 1.841 1.841 0 0 0-1.884-1.883ZM19.037 11.14a2.982 2.982 0 0 1-3.013-3.012 3.055 3.055 0 0 1 3.013-3.013 2.982 2.982 0 0 1 3.013 3.013 3.053 3.053 0 0 1-3.013 3.013Zm0-4.783a1.84 1.84 0 0 0-1.883 1.883 1.842 1.842 0 0 0 1.883 1.882 1.84 1.84 0 0 0 1.882-1.882 1.84 1.84 0 0 0-1.882-1.883ZM8.796 11.14a2.862 2.862 0 0 1-3.012-2.9 3.073 3.073 0 0 1 3.012-3.125 2.982 2.982 0 0 1 3.013 3.013 3.053 3.053 0 0 1-3.013 3.013Zm0-4.783A1.992 1.992 0 0 0 6.803 8.24a1.992 1.992 0 0 0 1.993 1.882 1.91 1.91 0 0 0 1.751-2.61 1.839 1.839 0 0 0-1.75-1.155Z"/><path fill="#fff" stroke="#fff" stroke-width=".5" d="m52.069 35.867-5.032-6.934a1.199 1.199 0 0 0-.787-.486 1.201 1.201 0 0 0-.898.224l-2.148 1.613c-.415.31-.573.845-.442 1.325l-1.155.866c-.09.07-.504.288-1.975.213a3.074 3.074 0 0 0-2.059.658l-5.068 3.937a1.13 1.13 0 0 0-.43.764c-.037.304.041.609.23.85a2.947 2.947 0 0 0 3.472.924l.72-.305a1.221 1.221 0 0 1 1.197.15l5.51 4.135c.241.181.399.46.435.764a.961.961 0 0 1-.189.72.99.99 0 0 1-.614.359.983.983 0 0 1-.714-.176l-1.182-.887-1.46-1.1a.385.385 0 0 0-.552.085.402.402 0 0 0 .079.56l1.366 1.026 1.255.946c.005.005.016.005.02.01l1.172.877c.436.326.525.95.205 1.394a.965.965 0 0 1-1.37.208l-1.188-.892-3.33-2.5a.39.39 0 0 0-.551.086.406.406 0 0 0 .084.56l3.335 2.5c.43.327.525.952.205 1.395a.965.965 0 0 1-1.371.208l-1.187-.892-2.495-1.87a.39.39 0 0 0-.551.086.415.415 0 0 0-.074.299.394.394 0 0 0 .158.262l2.495 1.875c.21.16.346.39.383.652.037.261-.026.529-.179.742a.965.965 0 0 1-1.37.209l-2.064-1.55c.488-.726.399-1.73-.258-2.34a1.759 1.759 0 0 0-.919-.448l.068-.08a1.826 1.826 0 0 0-.115-2.543 1.742 1.742 0 0 0-1.276-.465c-.473.021-.909.23-1.224.587l-.074.08a1.783 1.783 0 0 0-.52-.886 1.746 1.746 0 0 0-1.875-.326 1.777 1.777 0 0 0-.556-1.117 1.744 1.744 0 0 0-2.159-.17l-.147-.92a3.247 3.247 0 0 0-.735-1.602l-.825-.967.914-1.261 3.63-5 1.706 1.282a5.993 5.993 0 0 0 2.563 1.116l3.488.664a.395.395 0 0 0 .456-.326.4.4 0 0 0-.32-.464l-3.482-.664a5.253 5.253 0 0 1-2.232-.973l-1.707-1.282a1.239 1.239 0 0 0-.258-1.704l-1.796-1.346a1.198 1.198 0 0 0-1.686.256l-5.425 7.469c-.19.261-.268.587-.22.913.047.326.215.61.477.801l1.797 1.347c.215.16.467.24.714.24.336 0 .662-.15.898-.416l.725.849c.289.342.483.759.551 1.202l.231 1.47-.278.309c-.31.347-.478.823-.457 1.293.021.443.205.87.52 1.191.32.326.751.502 1.213.502h.042c.09 0 .179-.021.268-.032-.005.075-.016.15-.01.225.02.449.204.87.52 1.191.32.326.75.502 1.213.502h.042c.078 0 .157-.016.23-.032-.046.561.153 1.1.568 1.49.336.31.767.465 1.192.465.1 0 .2-.016.294-.032a1.77 1.77 0 0 0-.01.166c.02.449.205.87.52 1.192.32.325.75.502 1.213.502h.042a1.872 1.872 0 0 0 1.355-.63l.594-.663 2.106 1.581a1.75 1.75 0 0 0 2.474-.38c.21-.288.325-.63.34-.982h.006a1.75 1.75 0 0 0 2.474-.38c.215-.299.325-.64.341-.983l.005.006a1.75 1.75 0 0 0 2.474-.38 1.825 1.825 0 0 0-.373-2.516l-.005-.005c.3-.112.562-.3.767-.556.294-.368.42-.838.362-1.325a1.942 1.942 0 0 0-.75-1.308l-5.51-4.136a2.008 2.008 0 0 0-1.97-.245l-.72.304a2.165 2.165 0 0 1-2.547-.678.344.344 0 0 1 .063-.48l5.069-3.938a2.345 2.345 0 0 1 1.544-.492c1.875.096 2.337-.256 2.484-.368l1.092-.818 2.3 3.168 2.301 3.168-2.21 1.662c-.547.411-2.197 1.94-2.507 2.555a.402.402 0 0 0 .168.54c.194.101.43.026.53-.171.356-.369 1.83-1.941 2.276-2.278l2.279-1.71c.2.129.42.204.651.204.247 0 .5-.08.715-.24l2.148-1.614c.257-.193.43-.481.478-.802a1.195 1.195 0 0 0-.221-.908Zm-30.362 2.88L19.91 37.4a.422.422 0 0 1-.163-.277.422.422 0 0 1 .078-.316l5.42-7.468a.42.42 0 0 1 .584-.091l1.796 1.346a.43.43 0 0 1 .09.593l-2.71 3.735-2.485 3.419-.231.315a.414.414 0 0 1-.583.09Zm3.676 6.485a.89.89 0 0 1-.683-.267 1.001 1.001 0 0 1-.031-1.378l.63-.7a.965.965 0 0 1 1.387-.064c.399.369.425 1.004.063 1.405l-.252.283-.326.363c-.21.22-.494.348-.788.358Zm2.033 1.88a.942.942 0 0 1-.683-.266 1 1 0 0 1-.032-1.378l.048-.054c.005-.005.01-.005.01-.01l.326-.364.64-.71a.965.965 0 0 1 1.387-.064c.384.357.42.956.1 1.362l-1.04 1.154c-.2.203-.473.326-.756.33Zm1.355 1.673a1.01 1.01 0 0 1-.063-1.41l.047-.054c.01-.01.026-.021.042-.037l.961-1.074.032-.048 1.024-1.143a.958.958 0 0 1 .677-.326h.048c.246 0 .478.09.656.262.4.368.43 1.004.063 1.41l-1.024 1.143c-.01.01-.026.022-.042.038l-1.03 1.143-.03.048a.965.965 0 0 1-1.361.048Zm3.498 1.715c-.205.23-.494.363-.793.369a.934.934 0 0 1-.683-.267 1 1 0 0 1-.068-1.336l.01-.01 1.087-1.214a.967.967 0 0 1 .641-.288h.047a.96.96 0 0 1 .662.262c.4.368.425 1.004.063 1.405L32.27 50.5Zm19.08-13.564-2.148 1.613a.412.412 0 0 1-.583-.086l-2.515-3.467-2.516-3.467a.426.426 0 0 1 .09-.593l2.147-1.613a.42.42 0 0 1 .31-.08.4.4 0 0 1 .273.165l5.032 6.935a.422.422 0 0 1-.09.593Z"/></svg>