<svg width="60" height="60" viewBox="0 0 60 60" fill="none" xmlns="http://www.w3.org/2000/svg">
<path d="M55.1644 13.8348L31.7181 0.339802C31.3298 0.0970862 30.7958 0 30.2133 0C29.6307 0 29.0968 0.145629 28.7084 0.339802L5.40775 13.8833C4.58252 14.3688 4 15.5823 4 16.5046V43.5431C4 44.0771 4.09709 44.7082 4.48543 45.2421L56.3294 15.1454C56.0382 14.5629 55.6013 14.126 55.1644 13.8348Z" fill="black"/>
<path d="M4.34375 45.1944C4.58647 45.5827 4.92627 45.9225 5.26607 46.1167L28.6638 59.6602C29.0522 59.9029 29.5861 60 30.1687 60C30.7512 60 31.2852 59.8544 31.6735 59.6602L54.9742 46.1167C55.7994 45.6312 56.3819 44.4177 56.3819 43.4954V16.4569C56.3819 16.02 56.3334 15.5345 56.0907 15.0977L4.34375 45.1944Z" fill="black"/>
<path d="M40.5533 35.8724C38.5144 39.4646 34.631 41.8918 30.2136 41.8918C23.6603 41.8918 18.3205 36.552 18.3205 29.9987C18.3205 23.4454 23.6603 18.1057 30.2136 18.1057C34.631 18.1057 38.5144 20.5328 40.5533 24.1736L46.8639 20.5328C43.5629 14.7562 37.3494 10.8242 30.2136 10.8242C19.6312 10.8242 11.0391 19.4163 11.0391 29.9987C11.0391 40.5811 19.6312 49.1732 30.2136 49.1732C37.3009 49.1732 43.5144 45.2898 46.8153 39.5617L40.5533 35.8724ZM46.2328 31.0667L46.6697 28.9793H44.6309V26.6978H47.1066L47.6891 23.6881H50.0677L49.4852 26.6493H51.3298L51.9123 23.6881H54.2424L53.6599 26.6493H54.8249V28.9308H53.223L52.7861 31.0181H54.8249V33.2997H52.3492L51.7667 36.2122H49.3881L49.9706 33.2997H48.126L47.5435 36.2122H45.2134L45.7959 33.2997H44.6309V31.0181H46.2328V31.0667ZM48.5629 31.0667H50.4075L50.8444 28.9793H48.9997L48.5629 31.0667Z" fill="white"/>
</svg>
