<svg xmlns="http://www.w3.org/2000/svg" width="80" height="76" fill="none" viewBox="0 0 80 76"><path fill="#fff" stroke="#fff" stroke-width=".4" d="M79.145 38.3a.922.922 0 0 0-.829-.816c-4.85-.458-9.392-1.622-13.575-3.44v-6.138c0-1.498-1.175-2.723-2.623-2.723H59.26v-3.465h2.858c1.448 0 2.623-1.225 2.623-2.722V3.886c0-1.497-1.175-2.722-2.623-2.722H3.623C2.176 1.164 1 2.39 1 3.886v15.11c0 1.497 1.176 2.722 2.623 2.722h2.859v3.465H3.623C2.176 25.183 1 26.408 1 27.906v15.109c0 1.497 1.176 2.722 2.623 2.722h2.859v3.453H3.623C2.176 49.19 1 50.415 1 51.925v15.109c0 1.497 1.176 2.722 2.623 2.722h49.103c2.264 2.03 4.9 3.812 7.92 5.31a.99.99 0 0 0 .408.098.946.946 0 0 0 .408-.099c18.34-9.108 19.082-24.427 17.683-36.765ZM2.856 18.996V3.886c0-.482.347-.866.767-.866h58.495c.42 0 .767.396.767.866v15.11c0 .482-.346.866-.767.866H3.623c-.42 0-.767-.384-.767-.866Zm5.482 2.722h49.053v3.465H8.338v-3.465Zm-5.47 21.297v-15.11c0-.47.347-.866.768-.866h58.482c.42 0 .767.384.767.866v5.272a36.173 36.173 0 0 1-1.373-.705.947.947 0 0 0-.891 0c-5.024 2.747-10.68 4.43-16.805 5a.922.922 0 0 0-.829.816 55.432 55.432 0 0 0-.384 5.593H3.623c-.42 0-.754-.383-.754-.866Zm5.47 2.722h34.253c.025 1.176.087 2.34.198 3.453H8.339v-3.453Zm-5.47 21.297v-15.11c0-.482.347-.878.768-.878h39.376c.965 6.707 3.576 12.325 7.82 16.842H3.623c-.42.012-.754-.384-.754-.854Zm58.198 6.162C48.494 66.763 43.012 55.34 44.744 39.254c5.915-.644 11.397-2.29 16.322-4.9.755.396 1.535.767 2.314 1.126.037.025.087.037.124.062 4.27 1.93 8.922 3.18 13.872 3.712 1.213 11.496.223 25.504-16.31 33.944Z"/><path fill="#fff" stroke="#fff" stroke-width=".4" d="m72.314 50.015-1.819-.223a9.169 9.169 0 0 0-.915-2.153l1.113-1.46a.927.927 0 0 0-.086-1.225l-2.116-2.092a.94.94 0 0 0-1.225-.074l-1.448 1.126a9.985 9.985 0 0 0-2.166-.89l-.247-1.807a.932.932 0 0 0-.916-.805l-2.97.013a.923.923 0 0 0-.916.816l-.222 1.82a9.48 9.48 0 0 0-2.166.915l-1.46-1.114a.927.927 0 0 0-1.225.087l-2.092 2.116a.94.94 0 0 0-.074 1.225l1.126 1.448a9.983 9.983 0 0 0-.89 2.165l-1.807.248a.935.935 0 0 0-.805.928l.013 2.97c0 .47.346.854.816.916l1.807.222c.21.755.52 1.473.916 2.166l-1.102 1.435a.927.927 0 0 0 .087 1.226l2.116 2.09a.926.926 0 0 0 1.225.075l1.448-1.126c.693.384 1.41.68 2.166.89l.247 1.808a.931.931 0 0 0 .916.804l2.97-.013c.47 0 .854-.346.915-.816l.223-1.82a9.485 9.485 0 0 0 2.166-.915l1.46 1.114a.927.927 0 0 0 1.225-.087l2.091-2.116a.94.94 0 0 0 .075-1.225l-1.127-1.448c.384-.693.681-1.41.891-2.165l1.807-.248a.935.935 0 0 0 .805-.928l-.013-2.97a.941.941 0 0 0-.817-.903Zm-2.672 3.304a.935.935 0 0 0-.792.73 7.964 7.964 0 0 1-1.127 2.747.93.93 0 0 0 .05 1.077l1.015 1.299-.94.953-1.313-1.002a.95.95 0 0 0-1.076-.038 7.724 7.724 0 0 1-2.735 1.151.935.935 0 0 0-.73.792l-.198 1.634-1.337.012-.222-1.633a.933.933 0 0 0-.743-.792 7.826 7.826 0 0 1-2.747-1.127.933.933 0 0 0-1.076.05l-1.3 1.015-.953-.94 1.003-1.313a.93.93 0 0 0 .037-1.076 7.723 7.723 0 0 1-1.151-2.735.935.935 0 0 0-.792-.73l-1.633-.198-.013-1.349 1.634-.222a.933.933 0 0 0 .792-.743 7.73 7.73 0 0 1 1.126-2.747.93.93 0 0 0-.05-1.077l-1.015-1.3.941-.952 1.312 1.002a.91.91 0 0 0 1.076.038 7.721 7.721 0 0 1 2.735-1.151.935.935 0 0 0 .73-.792l.198-1.634 1.337-.012.222 1.633c.05.396.347.706.743.792.977.198 1.893.57 2.747 1.126a.93.93 0 0 0 1.077-.05l1.299-1.014.953.94-1.003 1.312a.93.93 0 0 0-.037 1.077 7.723 7.723 0 0 1 1.151 2.735c.087.383.396.68.792.73l1.633.198v1.336l-1.62.248Z"/><path fill="#fff" stroke="#fff" stroke-width=".4" d="M61.094 47.063h-.025a5.434 5.434 0 0 0-5.432 5.407 5.398 5.398 0 0 0 1.572 3.849 5.435 5.435 0 0 0 3.836 1.608h.024a5.434 5.434 0 0 0 5.433-5.407 5.398 5.398 0 0 0-1.572-3.849 5.333 5.333 0 0 0-3.836-1.608Zm2.487 7.956c-.68.669-1.633 1.027-2.524 1.04a3.53 3.53 0 0 1-2.524-1.064 3.515 3.515 0 0 1-1.028-2.525 3.59 3.59 0 0 1 1.052-2.524 3.55 3.55 0 0 1 2.512-1.04h.013a3.53 3.53 0 0 1 2.524 1.065 3.515 3.515 0 0 1 1.027 2.524 3.448 3.448 0 0 1-1.052 2.524ZM22.099 16.495c.507 0 .928-.42.928-.928V7.276a.935.935 0 0 0-.928-.928H7.745a.935.935 0 0 0-.929.928v8.29c0 .508.421.929.929.929h14.354ZM8.673 8.204h12.486v6.435H8.672V8.204ZM30.772 9.632H59.74c.507 0 .928-.421.928-.929a.935.935 0 0 0-.928-.928H30.77a.935.935 0 0 0-.927.928c0 .508.42.929.928.929ZM30.772 15.067H59.74c.507 0 .928-.42.928-.928a.935.935 0 0 0-.928-.928H30.77a.935.935 0 0 0-.927.928c0 .507.42.928.928.928ZM22.099 30.39H7.745a.935.935 0 0 0-.929.929v8.29c0 .508.421.929.929.929h14.342c.507 0 .928-.421.928-.928v-8.291a.909.909 0 0 0-.916-.928Zm-.928 8.292H8.673v-6.435h12.486v6.435h.012ZM30.772 33.675h15.43c.508 0 .929-.421.929-.928a.935.935 0 0 0-.928-.929H30.772a.935.935 0 0 0-.928.928c0 .508.42.928.928.928ZM37.516 37.254h-6.744a.935.935 0 0 0-.928.928c0 .507.42.928.928.928h6.744a.927.927 0 1 0 0-1.856ZM22.099 54.416H7.745a.935.935 0 0 0-.929.928v8.291c0 .507.421.928.929.928h14.342c.507 0 .928-.42.928-.928v-8.29a.909.909 0 0 0-.916-.929Zm-.928 8.291H8.673v-6.435h12.486v6.435h.012ZM30.772 57.688h7.722c.507 0 .928-.42.928-.928a.935.935 0 0 0-.928-.928h-7.722a.935.935 0 0 0-.928.928c0 .508.42.928.928.928ZM42.07 61.266H30.772a.935.935 0 0 0-.928.928c0 .507.42.928.928.928H42.07a.927.927 0 1 0 0-1.856Z"/></svg>