<svg width="60" height="60" viewBox="0 0 60 60" fill="none" xmlns="http://www.w3.org/2000/svg">
<path d="M29.5612 56.0777C23.3135 56.0788 17.3213 53.598 12.9027 49.1811C8.48413 44.7641 6.00115 38.7728 6 32.5251C5.99885 26.2775 8.47962 20.2852 12.8966 15.8666C17.3135 11.4481 23.3049 8.96509 29.5525 8.96394H29.5699C30.6912 8.95039 31.8115 9.03585 32.9177 9.21931L33.0353 9.23762L33.1008 9.24822L33.4776 9.30604L33.6203 8.95333C34.4467 6.90493 35.9603 5.20799 37.9012 4.15364C39.8422 3.0993 42.0896 2.75329 44.2578 3.17496C46.4261 3.59664 48.38 4.75973 49.7843 6.46467C51.1886 8.16961 51.9559 10.3101 51.9544 12.519C51.9544 14.0002 51.1835 16.4653 49.6579 19.843L49.5529 20.0753L49.6859 20.2921C51.8636 23.8621 53.0507 27.948 53.1248 32.1292C53.1989 36.3104 52.1575 40.4358 50.1077 44.0808C48.0578 47.7258 45.0737 50.7587 41.4624 52.8673C37.851 54.9759 33.743 56.0841 29.5612 56.0777ZM29.9235 42.9821V55.353L30.4671 55.2826C34.1869 54.8008 37.5646 51.3604 39.7348 45.8385L39.8987 45.4231L39.4959 45.2304C36.6601 43.8633 33.5701 43.1034 30.4237 42.9995L29.9235 42.9821ZM29.1989 42.9821L28.6997 43.0014C25.553 43.1055 22.4627 43.8653 19.6265 45.2323L19.2247 45.4251L19.3875 45.8404C21.5587 51.3594 24.9365 54.8027 28.6553 55.2845L29.1979 55.3549L29.1989 42.9821ZM40.5598 45.7855L40.3516 46.3039C39.3247 49.0706 37.6785 51.5656 35.539 53.5981L35.9938 54.4211C39.2592 53.4634 42.268 51.7848 44.7981 49.5092L45.198 49.1516L44.799 48.7912C43.6425 47.7561 42.3832 46.8419 41.0406 46.063L40.5598 45.7855ZM18.5636 45.7855L18.0818 46.0669C16.7392 46.8458 15.4799 47.7599 14.3234 48.7951L13.9254 49.1545L14.3243 49.5121C16.8153 51.7423 19.7636 53.4013 22.9628 54.3729L23.0592 54.3989H23.0727L23.1334 54.4172L23.5902 53.5942C21.4502 51.5617 19.804 49.0663 18.7775 46.2991L18.5694 45.7816L18.5636 45.7855ZM42.8032 32.8817L42.7936 33.3539C42.7484 37.2112 42.1231 41.0398 40.9385 44.711L40.8123 45.0878L41.1572 45.2805C42.6679 46.1388 44.0787 47.1621 45.3637 48.3315L45.7107 48.6476L46.0354 48.3094C49.9139 44.2812 52.1744 38.9668 52.3861 33.379L52.4044 32.8788L42.8032 32.8817ZM6.71795 32.8817L6.73626 33.3819C6.94776 38.9694 9.20835 44.2837 13.087 48.3113L13.4117 48.6496L13.7586 48.3335C15.044 47.1643 16.4551 46.1413 17.9661 45.2834L18.3111 45.0907L18.1849 44.7139C17.0012 41.0424 16.3759 37.214 16.3298 33.3568L16.3201 32.8846L6.71795 32.8817ZM29.9226 32.8817V42.2401L30.388 42.2565C33.5986 42.3582 36.7536 43.1213 39.6558 44.498L40.1512 44.7331L40.3198 44.2118C41.4261 40.7024 42.0147 37.0505 42.067 33.3713L42.0776 32.8798L29.9226 32.8817ZM17.0429 32.8817L17.0535 33.3732C17.1065 37.0527 17.695 40.7048 18.8007 44.2147L18.9703 44.7351L19.4656 44.4999C22.3674 43.1228 25.5221 42.359 28.7324 42.2565L29.1969 42.2401V32.8817H17.0429ZM49.2137 20.8452L48.8041 21.6875C47.373 24.6277 45.4958 28.0883 43.5183 31.4304L43.0885 32.157H52.3996L52.3804 31.6578C52.2515 28.1636 51.3214 24.7458 49.6618 21.6682L49.2137 20.8452ZM36.1653 21.8513L35.7799 21.9554C34.0204 22.4337 32.2113 22.706 30.389 22.7668L29.9235 22.7823V32.1522H41.7971L41.3693 31.4304C39.4968 28.2656 37.7073 24.992 36.3427 22.2127L36.1653 21.8513ZM19.005 20.3017L18.8334 20.8192C17.7119 24.3274 17.1144 27.9819 17.0602 31.6646L17.0496 32.156H29.1979V22.7938L28.7334 22.7774C25.5318 22.6751 22.3859 21.9116 19.4936 20.5349L19.0011 20.3017H19.005ZM13.4156 16.3853L13.0908 16.7207C9.19281 20.7386 6.92907 26.063 6.74011 31.6578L6.72084 32.157H16.3278L16.3375 31.6848C16.389 27.8278 17.0275 24.0012 18.2311 20.3364L18.3603 19.9567L18.0104 19.764C16.4822 18.9062 15.0553 17.8792 13.7567 16.7023L13.4156 16.3853ZM42.4428 3.72533C41.1091 3.72307 39.7926 4.02581 38.5938 4.61041C37.3951 5.195 36.3459 6.04596 35.5264 7.09824C34.7296 8.08424 34.1687 9.2394 33.8868 10.4754C33.6048 11.7114 33.6093 12.9955 33.8997 14.2295L33.9142 14.2902C35.1188 19.1173 39.9854 27.6653 42.0275 31.1162L42.4418 31.8197L42.8572 31.1172C44.8222 27.7876 51.2336 16.605 51.2336 12.518C51.2313 10.1871 50.3044 7.95226 48.6564 6.30386C47.0084 4.65547 44.7737 3.72814 42.4428 3.72533ZM29.1979 9.68188L28.6534 9.75416C24.9634 10.2427 21.5973 13.6841 19.4184 19.1983L19.2536 19.6146L19.6564 19.8074C22.4811 21.1775 25.5611 21.942 28.6987 22.0518L29.1969 22.0701L29.1979 9.68188ZM29.9226 9.68188V22.0682L30.4218 22.0499C32.0635 21.9944 33.6945 21.7621 35.2865 21.357L35.8493 21.2124L35.6016 20.6862C34.5896 18.6526 33.7779 16.5254 33.1779 14.3346C32.9322 13.4387 32.8612 12.504 32.9688 11.5813C32.9746 11.5196 32.9823 11.456 32.9919 11.3886L33.0006 11.3163C33.0064 11.27 33.0122 11.2199 33.017 11.1766V11.1554C33.0237 11.0937 33.0305 11.0349 33.0391 10.9819L33.0989 10.6282L32.778 10.4692C32.0511 10.1071 31.2698 9.86652 30.4651 9.75705L29.9226 9.68188ZM23.2278 10.5849C19.919 11.5305 16.8711 13.2224 14.3186 15.5305L13.9157 15.889L14.3176 16.2494C15.4881 17.2943 16.7638 18.2151 18.1242 18.9969L18.606 19.2735L18.8132 18.7589C19.8503 15.9696 21.5139 13.4556 23.676 11.4107L23.2278 10.5849Z" fill="white" stroke="white" stroke-width="0.2"/>
<path d="M42.4428 17.3047C41.4308 17.3051 40.4415 17.0054 39.5998 16.4435C38.7582 15.8817 38.102 15.0829 37.7142 14.1482C37.3265 13.2135 37.2246 12.1848 37.4214 11.1921C37.6183 10.1995 38.105 9.28752 38.8201 8.57149C39.5352 7.85545 40.4465 7.36752 41.4389 7.16937C42.4313 6.97122 43.4601 7.07176 44.3954 7.45827C45.3306 7.84478 46.1302 8.49991 46.6932 9.34084C47.2561 10.1818 47.5571 11.1707 47.5581 12.1827C47.5578 13.5399 47.019 14.8415 46.06 15.8018C45.1009 16.7621 43.8 17.3026 42.4428 17.3047ZM42.4428 7.79597C41.5739 7.79521 40.7243 8.05224 40.0015 8.53454C39.2787 9.01683 38.7152 9.70271 38.3824 10.5054C38.0495 11.308 37.9623 12.1914 38.1317 13.0436C38.3011 13.8959 38.7195 14.6788 39.334 15.2931C39.9485 15.9075 40.7315 16.3257 41.5837 16.4949C42.436 16.6642 43.3194 16.5767 44.122 16.2437C44.9246 15.9107 45.6103 15.3471 46.0924 14.6242C46.5746 13.9013 46.8314 13.0516 46.8305 12.1827C46.8292 11.0195 46.3665 9.90429 45.5439 9.08188C44.7213 8.25946 43.606 7.79699 42.4428 7.79597Z" fill="white" stroke="white" stroke-width="0.2"/>
</svg>
