<svg width="60" height="60" viewBox="0 0 60 60" fill="none" xmlns="http://www.w3.org/2000/svg">
<path d="M52.5416 55.6357H52.5274C52.4491 55.6328 52.3738 55.6049 52.3125 55.5561C52.2512 55.5073 52.2071 55.4401 52.1867 55.3645L49.3839 44.3106V22.221C49.3847 21.862 49.4562 21.5067 49.5944 21.1754C49.7325 20.844 49.9346 20.5432 50.1891 20.29C50.4419 20.0355 50.7424 19.8334 51.0734 19.6952C51.4044 19.5571 51.7594 19.4856 52.1181 19.4849H53.0146C53.3635 19.4845 53.7092 19.5524 54.032 19.6847C54.5335 19.889 54.9619 20.2394 55.2616 20.6903C55.5613 21.1412 55.7185 21.6719 55.7127 22.2134V44.3097L52.8319 55.3655L52.8243 55.4007C52.8125 55.4675 52.7773 55.528 52.725 55.5713C52.6727 55.6145 52.6067 55.6377 52.5388 55.6367L52.5416 55.6357ZM50.092 44.52L52.5978 54.0226L54.9999 44.52H50.092ZM50.0768 25.8126V43.8281H55.0979V25.8126H50.0768ZM52.1115 20.1025C51.6972 20.1082 51.2942 20.2382 50.9548 20.4758C50.6154 20.7134 50.3552 21.0476 50.2081 21.4349C50.1119 21.6888 50.0666 21.9591 50.0749 22.2305V25.2778H55.0979V22.2153C55.0946 21.6546 54.8703 21.1178 54.4737 20.7216C54.0771 20.3253 53.5401 20.1015 52.9794 20.0987H52.1115V20.1025Z" fill="white" stroke="white" stroke-width="0.3"/>
<path d="M7.43728 55.6385C6.96951 55.6385 6.51161 55.5039 6.11825 55.2508C5.72489 54.9976 5.41268 54.6367 5.21889 54.2109C5.08483 53.919 5.01041 53.6032 5 53.2821V14.5597C5.03365 13.9234 5.31031 13.3242 5.77286 12.8859C6.23542 12.4476 6.84858 12.2036 7.48581 12.2043H14.8652V9.82507C14.8624 9.78784 14.868 9.75046 14.8814 9.71562C14.8944 9.67998 14.9148 9.64753 14.9413 9.62045C14.9686 9.59417 15.001 9.57376 15.0365 9.5605C15.0669 9.54909 15.0992 9.54329 15.1317 9.54337H18.6282V8.53267C18.6784 7.57878 19.0928 6.68054 19.7859 6.02323C20.479 5.36591 21.3979 4.99965 22.3531 5C22.414 5 22.4664 5 22.5149 5H28.8179C28.8655 5 28.9179 5 28.9788 5C29.934 4.99987 30.8529 5.36618 31.5461 6.02342C32.2393 6.68067 32.6539 7.57878 32.7046 8.53267V9.62045H36.2735C36.3446 9.6199 36.4131 9.64763 36.4638 9.69754C36.4904 9.72458 36.5109 9.75704 36.5238 9.79271C36.5371 9.82759 36.5429 9.86487 36.5409 9.90215V12.2852H43.9279H44.045C44.6749 12.2867 45.2799 12.532 45.733 12.9697C46.1861 13.4074 46.4522 14.0035 46.4756 14.633V53.2811C46.441 53.9167 46.1643 54.5149 45.7024 54.9529C45.2404 55.3908 44.6282 55.6351 43.9917 55.6356H7.55624L7.43728 55.6385ZM7.59145 55.0998H43.887C43.9241 55.0998 43.9593 55.0998 43.9936 55.0998C44.3826 55.0995 44.762 54.9787 45.0795 54.7539C45.3971 54.5291 45.6371 54.2114 45.7666 53.8445H45.9426V14.6006V14.5759C45.8941 14.1133 45.6755 13.6852 45.3293 13.3745C44.9831 13.0638 44.5339 12.8927 44.0688 12.8943C44.0332 12.8943 43.9977 12.8943 43.9622 12.8943H36.6132V15.6713C36.6152 15.7084 36.6094 15.7456 36.5961 15.7804C36.5828 15.8151 36.5624 15.8467 36.5361 15.8731C36.5122 15.8978 36.4835 15.9174 36.4517 15.9308C36.42 15.9442 36.3859 15.9511 36.3515 15.9511H15.205C15.1725 15.9513 15.1402 15.9455 15.1098 15.934C15.0741 15.9206 15.0417 15.8998 15.0146 15.8731C14.9878 15.8462 14.9673 15.8137 14.9547 15.7779C14.9414 15.743 14.9355 15.7057 14.9375 15.6684V12.8971H7.59431C7.55814 12.8971 7.52198 12.8971 7.48581 12.8971C7.02235 12.8971 6.57527 13.0686 6.2307 13.3786C5.88613 13.6885 5.66843 14.115 5.61955 14.5759V14.6006V53.3982V53.4229C5.66976 53.9051 5.9056 54.3488 6.27717 54.6601C6.61605 54.9454 7.04477 55.1017 7.48772 55.1017C7.52325 55.1023 7.55878 55.1017 7.59431 55.0998H7.59145ZM15.5571 10.2362V15.4143H35.9994V10.2362H15.5571ZM22.4264 5.61194C21.6426 5.61172 20.8874 5.90647 20.311 6.43757C19.7346 6.96867 19.3791 7.69724 19.3153 8.47843V9.54432H32.1631V8.47843C32.1002 7.69656 31.7452 6.96706 31.1686 6.43516C30.5921 5.90327 29.8364 5.60799 29.0521 5.60813C28.9807 5.60813 28.916 5.60813 28.8551 5.61384H22.6234C22.5634 5.61384 22.4968 5.61194 22.4264 5.61194Z" fill="white" stroke="white" stroke-width="0.3"/>
<path d="M18.8956 30.588H9.53575C9.45443 30.5881 9.37641 30.5559 9.31876 30.4985C9.29017 30.4699 9.26754 30.436 9.25218 30.3985C9.23682 30.3611 9.22905 30.321 9.2293 30.2806V20.8589C9.22697 20.822 9.23249 20.785 9.24548 20.7504C9.25885 20.7147 9.27961 20.6823 9.30639 20.6552C9.33324 20.6284 9.36576 20.6079 9.40156 20.5953C9.43198 20.5838 9.46423 20.578 9.49673 20.5781H18.8509C18.9326 20.5782 19.011 20.6107 19.0688 20.6685C19.1263 20.7265 19.1585 20.8049 19.1583 20.8865C19.1583 20.9678 19.1262 21.0458 19.0688 21.1035C19.0108 21.1609 18.9325 21.193 18.8509 21.1929H9.84409V29.9732H18.5444V27.1495C18.5444 27.0683 18.5767 26.9903 18.6342 26.9329C18.6917 26.8754 18.7696 26.8431 18.8509 26.8431C18.9322 26.8431 19.0101 26.8754 19.0676 26.9329C19.125 26.9903 19.1573 27.0683 19.1573 27.1495V30.3082C19.1601 30.3454 19.1546 30.3828 19.1411 30.4176C19.1224 30.4676 19.0888 30.5107 19.045 30.5411C19.0011 30.5716 18.949 30.5879 18.8956 30.588Z" fill="white" stroke="white" stroke-width="0.3"/>
<path d="M13.8764 27.9555C13.8622 27.9555 13.848 27.9533 13.8345 27.9488L13.766 27.927H13.6861C13.6642 27.9256 13.6433 27.9176 13.6261 27.9041C13.6075 27.891 13.5935 27.8724 13.5861 27.8508L13.5766 27.8251L12.0682 24.7217L12.0472 24.6969C12.03 24.6702 12.019 24.64 12.0149 24.6084C12.0095 24.5766 12.0118 24.544 12.0216 24.5132C12.0312 24.4839 12.0471 24.4569 12.0682 24.4343C12.0895 24.4114 12.1159 24.3938 12.1453 24.3829L12.1862 24.3657L12.2243 24.341C12.2507 24.3237 12.2806 24.3123 12.3118 24.3077C12.322 24.3068 12.3321 24.3068 12.3423 24.3077C12.3639 24.3074 12.3854 24.3107 12.406 24.3172C12.4364 24.3265 12.4644 24.3424 12.4879 24.3638C12.5114 24.3838 12.5306 24.4084 12.544 24.4362L13.9011 27.1589L19.1611 23.3646L19.1878 23.336C19.2027 23.3187 19.2213 23.3048 19.2422 23.2954C19.2631 23.286 19.2857 23.2814 19.3086 23.2818C19.4395 23.2985 19.5606 23.36 19.6512 23.4559C19.6847 23.5206 19.697 23.5942 19.6865 23.6662C19.6745 23.7473 19.6349 23.8216 19.5742 23.8766L13.9992 27.8841L13.9716 27.9146C13.9593 27.9275 13.9445 27.9377 13.9282 27.9447C13.9118 27.9518 13.8942 27.9554 13.8764 27.9555Z" fill="white" stroke="white" stroke-width="0.3"/>
<path d="M35.2885 48.6682H34.1931C33.8139 48.6678 33.4457 48.5412 33.1464 48.3084C32.8471 48.0756 32.6338 47.7499 32.54 47.3825L32.4448 47.0247H31.2961C31.2148 47.0246 31.1369 46.9925 31.0792 46.9352C31.0363 46.8922 31.0072 46.8375 30.9954 46.778C30.9836 46.7185 30.9896 46.6568 31.0129 46.6007C31.0361 46.5446 31.0753 46.4967 31.1258 46.4629C31.1762 46.4291 31.2355 46.411 31.2961 46.4108H32.4762V44.831H30.3425C30.2447 44.8307 30.1478 44.8116 30.057 44.7749C29.9631 44.7366 29.8777 44.6799 29.806 44.6082C29.7342 44.5364 29.6775 44.451 29.6392 44.3571C29.6008 44.2632 29.5817 44.1625 29.5831 44.0611V41.0766C29.5815 40.9752 29.6006 40.8744 29.6392 40.7806C29.6774 40.6865 29.7341 40.6009 29.8058 40.529C29.8776 40.4571 29.963 40.4003 30.057 40.3619C30.1478 40.3254 30.2447 40.3067 30.3425 40.3067H31.2942L31.2219 39.768C30.9707 37.9216 30.1279 36.2063 28.8198 34.8792C27.9656 33.9883 27.312 32.9249 26.9029 31.7604C26.4938 30.5959 26.3388 29.3573 26.4482 28.1279C26.6113 26.1271 27.4843 24.2506 28.9096 22.837C30.3349 21.4233 32.2186 20.5658 34.2207 20.4192C34.3406 20.4145 34.4634 20.4116 34.5842 20.4116C35.69 20.4123 36.7847 20.632 37.8051 21.058C38.8255 21.4839 39.7515 22.1078 40.5295 22.8934C41.3076 23.6791 41.9224 24.6111 42.3384 25.6356C42.7544 26.6602 42.9634 27.7569 42.9534 28.8626V28.8683C42.9607 31.0656 42.1397 33.185 40.6541 34.804C39.3569 36.1643 38.5197 37.8977 38.2606 39.7595L38.1835 40.3019H39.1352C39.2351 40.3017 39.3341 40.3212 39.4264 40.3594C39.5187 40.3977 39.6025 40.4538 39.6729 40.5246C39.7449 40.5962 39.8015 40.6817 39.8395 40.7759C39.8776 40.8702 39.8967 40.9711 39.8956 41.0728V44.0345C39.8782 44.2394 39.7888 44.4315 39.6434 44.5769C39.498 44.7223 39.3059 44.8117 39.1009 44.8291H37.0044V46.4108H38.1845C38.2452 46.4108 38.3047 46.4288 38.3552 46.4625C38.4058 46.4962 38.4452 46.5441 38.4685 46.6003C38.4918 46.6564 38.498 46.7181 38.4862 46.7778C38.4745 46.8374 38.4453 46.8922 38.4024 46.9352C38.3444 46.9926 38.2661 47.0248 38.1845 47.0247H37.0329L36.9378 47.3825C36.844 47.7497 36.6308 48.0753 36.3317 48.3081C36.0326 48.5409 35.6646 48.6676 35.2856 48.6682H35.2885ZM33.1691 44.7549V46.8686C33.1635 47.1631 33.2694 47.4488 33.4657 47.6683C33.662 47.8879 33.9341 48.0252 34.2273 48.0525H35.3694H35.4141C35.7074 48.0252 35.9794 47.8879 36.1757 47.6683C36.372 47.4488 36.478 47.1631 36.4724 46.8686V44.7549H33.1691ZM30.116 40.8406V44.141H39.2865V40.8406H30.116ZM34.7869 31.3028C34.8194 31.3026 34.8517 31.3084 34.8821 31.3199C34.9171 31.3329 34.9489 31.3534 34.9754 31.3798C35.0018 31.4063 35.0223 31.4381 35.0353 31.4731C35.0486 31.508 35.0545 31.5453 35.0525 31.5826V40.3057H37.6744L37.7191 39.8794C37.9389 37.813 38.829 35.8754 40.2534 34.3624L40.2582 34.3567C41.6292 32.857 42.3982 30.904 42.4176 28.8721C42.4286 26.8196 41.6294 24.8457 40.1936 23.379C38.7577 21.9123 36.8011 21.0713 34.7489 21.0388H34.2492H34.2264C32.7402 21.1797 31.3237 21.7363 30.139 22.6448C28.9544 23.5534 28.0496 24.7771 27.5281 26.176C27.0066 27.5749 26.8896 29.0923 27.1904 30.5546C27.4913 32.0168 28.1978 33.3649 29.2291 34.4443L29.2357 34.4519C30.6932 35.9154 31.6117 37.8296 31.8415 39.8822L31.8881 40.3057H34.4339V31.6111C34.4341 31.5299 34.4665 31.4521 34.5239 31.3947C34.5813 31.3373 34.6591 31.3049 34.7403 31.3047H34.7869V31.3028Z" fill="white" stroke="white" stroke-width="0.3"/>
<path d="M34.6632 28.7095C34.5815 28.7093 34.5031 28.6768 34.4453 28.619C34.3878 28.5618 34.3553 28.4841 34.3549 28.403V26.2884C34.3547 26.2481 34.3625 26.2081 34.3778 26.1709C34.3932 26.1337 34.4158 26.0998 34.4443 26.0714C34.4728 26.0426 34.5068 26.0198 34.5442 26.0043C34.5816 25.9888 34.6218 25.9808 34.6623 25.981C34.7026 25.9809 34.7426 25.9889 34.7798 26.0044C34.8171 26.0199 34.8509 26.0427 34.8792 26.0714C34.9079 26.0997 34.9306 26.1335 34.9459 26.1708C34.9613 26.2081 34.969 26.248 34.9687 26.2884V28.403C34.9689 28.4433 34.9611 28.4832 34.9457 28.5205C34.9304 28.5577 34.9078 28.5915 34.8792 28.62C34.8218 28.677 34.7442 28.7092 34.6632 28.7095Z" fill="white" stroke="white" stroke-width="0.3"/>
<path d="M32.7378 30.0142C32.6779 30.0698 32.5985 30.0995 32.5168 30.0967C32.4357 30.094 32.359 30.0594 32.3033 30.0004L30.8611 28.4538C30.8335 28.4245 30.812 28.39 30.7978 28.3522C30.7837 28.3145 30.7771 28.2744 30.7786 28.2341C30.7798 28.1936 30.7891 28.1538 30.8059 28.1169C30.8226 28.0801 30.8466 28.0469 30.8763 28.0194C30.9058 27.9918 30.9404 27.9704 30.9783 27.9563C31.0161 27.9423 31.0563 27.9359 31.0966 27.9375C31.1369 27.9387 31.1766 27.948 31.2132 27.9647C31.2499 27.9815 31.2828 28.0055 31.3101 28.0352L32.7522 29.5817C32.7799 29.6111 32.8014 29.6456 32.8155 29.6833C32.8297 29.721 32.8363 29.7612 32.8348 29.8014C32.8317 29.8823 32.7968 29.9588 32.7378 30.0142Z" fill="white" stroke="white" stroke-width="0.3"/>
<path d="M36.5873 30.015C36.6468 30.0705 36.7259 30.1001 36.8072 30.0974C36.8885 30.0947 36.9655 30.0598 37.0211 30.0005L38.4627 28.4546C38.518 28.395 38.5474 28.3158 38.5444 28.2345C38.5414 28.1532 38.5064 28.0764 38.4468 28.0209C38.4174 27.9933 38.3827 27.9719 38.3449 27.9578C38.3071 27.9438 38.2668 27.9374 38.2265 27.939C38.1861 27.94 38.1464 27.9491 38.1096 27.9658C38.0728 27.9825 38.0398 28.0064 38.0124 28.036L36.5715 29.5812C36.5441 29.6106 36.5229 29.6452 36.5089 29.6829C36.495 29.7206 36.4887 29.7607 36.4903 29.8009C36.4931 29.8822 36.528 29.9592 36.5873 30.015Z" fill="white" stroke="white" stroke-width="0.3"/>
<path d="M24.9569 35.127H9.14556C9.10548 35.1276 9.06567 35.1202 9.02844 35.1054C8.9912 35.0905 8.95727 35.0684 8.92858 35.0404C8.90006 35.012 8.87746 34.9781 8.86211 34.9409C8.84675 34.9036 8.83894 34.8637 8.83912 34.8234V34.7939C8.83679 34.757 8.8423 34.7201 8.8553 34.6854C8.86867 34.6498 8.88943 34.6173 8.91621 34.5903C8.94305 34.5634 8.97557 34.5429 9.01138 34.5303C9.0418 34.5189 9.07405 34.5131 9.10655 34.5132H24.9569C25.0386 34.513 25.1169 34.5452 25.1749 34.6026C25.2324 34.6606 25.2645 34.739 25.2643 34.8206C25.2644 34.9019 25.2322 34.9799 25.1749 35.0376C25.1169 35.095 25.0385 35.1271 24.9569 35.127Z" fill="white" stroke="white" stroke-width="0.3"/>
<path d="M24.9569 40.5275H9.14556C9.06462 40.529 8.98634 40.4986 8.92763 40.4428C8.87014 40.3849 8.83797 40.3065 8.83817 40.2249C8.83799 40.1846 8.8458 40.1447 8.86116 40.1075C8.87651 40.0702 8.8991 40.0364 8.92763 40.0079C8.95622 39.9793 8.99021 39.9567 9.02763 39.9413C9.06504 39.926 9.10512 39.9182 9.14556 39.9185H24.9569C24.9972 39.9183 25.0371 39.9261 25.0744 39.9414C25.1116 39.9568 25.1455 39.9794 25.1739 40.0079C25.2027 40.0362 25.2256 40.07 25.2411 40.1072C25.2567 40.1445 25.2645 40.1845 25.2643 40.2249C25.2645 40.2653 25.2567 40.3053 25.2411 40.3426C25.2256 40.3798 25.2027 40.4136 25.1739 40.4419C25.1156 40.4978 25.0377 40.5285 24.9569 40.5275Z" fill="white" stroke="white" stroke-width="0.3"/>
<path d="M24.9569 45.9284H9.14556C9.06462 45.9299 8.98634 45.8995 8.92763 45.8437C8.87014 45.7858 8.83797 45.7074 8.83817 45.6258C8.83799 45.5855 8.8458 45.5456 8.86116 45.5083C8.87651 45.4711 8.8991 45.4373 8.92763 45.4088C8.95622 45.3802 8.99021 45.3576 9.02763 45.3422C9.06504 45.3269 9.10512 45.3191 9.14556 45.3193H24.9569C24.9972 45.3192 25.0371 45.327 25.0744 45.3423C25.1116 45.3577 25.1455 45.3803 25.1739 45.4088C25.2027 45.4371 25.2256 45.4709 25.2411 45.5081C25.2567 45.5454 25.2645 45.5854 25.2643 45.6258C25.2645 45.6662 25.2567 45.7062 25.2411 45.7434C25.2256 45.7807 25.2027 45.8145 25.1739 45.8428C25.1156 45.8986 25.0377 45.9294 24.9569 45.9284Z" fill="white" stroke="white" stroke-width="0.3"/>
<path d="M42.3776 51.4093H9.14556C9.06434 51.4103 8.98603 51.3792 8.92762 51.3227C8.86978 51.2649 8.83726 51.1865 8.83721 51.1048C8.83715 51.0644 8.84512 51.0245 8.86064 50.9872C8.87616 50.95 8.89893 50.9162 8.92762 50.8878C8.95622 50.8592 8.99021 50.8366 9.02762 50.8212C9.06503 50.8059 9.10512 50.7981 9.14556 50.7983H42.3329C42.3733 50.7981 42.4134 50.8059 42.4508 50.8212C42.4882 50.8366 42.5222 50.8592 42.5508 50.8878C42.5793 50.9163 42.6019 50.9501 42.6173 50.9873C42.6326 51.0246 42.6405 51.0645 42.6403 51.1048V51.1333C42.6423 51.1706 42.6365 51.2079 42.6231 51.2428C42.6105 51.2786 42.59 51.3111 42.5632 51.338C42.536 51.3643 42.5036 51.3847 42.468 51.3979C42.4387 51.4068 42.4082 51.4106 42.3776 51.4093Z" fill="white" stroke="white" stroke-width="0.3"/>
</svg>
