<svg width="60" height="60" viewBox="0 0 60 60" fill="none" xmlns="http://www.w3.org/2000/svg">
<path d="M37.5043 56.8142H5.68999C5.20624 56.8125 4.74294 56.6189 4.40175 56.276C4.06056 55.933 3.86936 55.4687 3.8701 54.985V13.165C3.86961 12.6813 4.06089 12.2172 4.40202 11.8743C4.74316 11.5314 5.20632 11.3377 5.68999 11.3358H14.6315L17.5276 9.99047V8.07809C17.5105 7.0182 17.8992 5.99185 18.6144 5.20936C19.3295 4.42686 20.3167 3.94746 21.3739 3.86937C21.4374 3.86937 21.5056 3.86377 21.5822 3.86377C22.6619 3.86525 23.6969 4.29493 24.4601 5.05855C25.2234 5.82217 25.6526 6.85736 25.6536 7.93702V9.99233L28.5609 11.3376H37.5043C37.9882 11.3394 38.4516 11.5329 38.7929 11.8758C39.1343 12.2187 39.3257 12.683 39.3252 13.1669V27.554L39.5438 27.5615C41.5755 27.6589 43.5328 28.3559 45.1688 29.5645L45.4248 29.7514L45.8797 28.4434L45.6929 28.35C45.3488 28.1853 45.0616 27.9218 44.8678 27.5932C44.674 27.2647 44.5825 26.8858 44.6048 26.505C44.6272 26.1242 44.7624 25.7586 44.9933 25.455C45.2242 25.1513 45.5402 24.9233 45.9012 24.7999C46.0922 24.7364 46.2923 24.7049 46.4935 24.7065C46.8977 24.7067 47.292 24.8317 47.6224 25.0645C47.9528 25.2973 48.2033 25.6264 48.3396 26.0069C48.4373 26.2963 48.4647 26.6048 48.4196 26.9069C48.3745 27.209 48.2581 27.496 48.0801 27.7442C47.9021 27.9924 47.6676 28.1947 47.3959 28.3343C47.1242 28.4739 46.8233 28.5469 46.5178 28.5471H46.4814L46.4179 28.5406L46.2422 28.5322L45.7284 30.0157L45.847 30.1194C47.7556 31.774 48.9946 34.0682 49.3316 36.5715C49.6685 39.0748 49.0803 41.615 47.6772 43.7153L47.5614 43.8798L48.9039 45.1522L49.0617 44.9859L56.033 50.4502L56.0423 50.4577L56.061 50.4717L56.0769 50.4848C56.3439 50.7061 56.563 50.9796 56.7207 51.2884C56.8785 51.5973 56.9716 51.9351 56.9945 52.2812C57.0173 52.6272 56.9693 52.9743 56.8535 53.3012C56.7376 53.6281 56.5564 53.928 56.3207 54.1825C56.0791 54.4348 55.7891 54.6359 55.4681 54.7737C55.1471 54.9116 54.8016 54.9835 54.4523 54.985C54.1061 54.986 53.7635 54.915 53.4463 54.7763C53.1291 54.6377 52.8443 54.4345 52.6099 54.1797L46.6822 47.4859L46.913 47.2439L45.6051 46.0033L45.4463 46.1285C43.7666 47.4707 41.7024 48.2418 39.554 48.3295L39.328 48.336V54.9812C39.3287 55.2214 39.2821 55.4593 39.1908 55.6814C39.0996 55.9035 38.9654 56.1054 38.796 56.2757C38.6267 56.4459 38.4254 56.5811 38.2038 56.6735C37.9822 56.7659 37.7445 56.8137 37.5043 56.8142ZM5.68999 11.7029C5.30361 11.7046 4.9337 11.8595 4.66136 12.1336C4.38903 12.4077 4.23651 12.7786 4.23726 13.165V54.985C4.23676 55.3711 4.38942 55.7417 4.66175 56.0154C4.93408 56.2891 5.30386 56.4437 5.68999 56.4452H37.5043C37.8905 56.4437 38.2602 56.2891 38.5326 56.0154C38.8049 55.7417 38.9576 55.3711 38.9571 54.985V48.3519L38.731 48.3454C37.9452 48.3133 37.165 48.1993 36.4029 48.0053L36.1105 47.9287V53.5192H7.20999V14.6261H13.1405V13.1977C13.1456 12.7943 13.2762 12.4024 13.5142 12.0766L13.8057 11.7029H5.68999ZM53.0537 54.0937C53.4441 54.4199 53.9389 54.5947 54.4476 54.5861C54.7446 54.5892 55.0392 54.5329 55.3142 54.4206C55.5892 54.3083 55.839 54.1422 56.0489 53.9321L56.0535 53.9265C56.2547 53.7082 56.4092 53.4513 56.5076 53.1713C56.6061 52.8913 56.6464 52.5942 56.6262 52.2981C56.6071 52.0071 56.5294 51.723 56.3975 51.4629C56.2657 51.2028 56.0826 50.9721 55.8592 50.7847L55.8424 50.7697L49.1112 45.4782L47.1933 47.5027L52.8482 53.8854L52.8865 53.9274L53.0416 54.1021L53 54.5L53.0537 54.0937ZM7.57901 14.9942V53.1595H35.7424V47.8203L35.5854 47.7652C34.1978 47.2646 32.9264 46.4871 31.8485 45.4801C30.0558 43.7731 28.9264 41.4857 28.6609 39.0245L28.6394 38.8153H26.0535V31.1723C27.2432 30.399 28.3777 29.5437 29.4485 28.6125L29.7511 28.3481L29.7269 33.1529L30.1622 32.4578C31.4222 30.4356 33.3333 28.9028 35.5808 28.1118L35.7377 28.0567V14.9942H30.0548V16.3227H13.1405V14.9942H7.57901ZM39.0767 27.8894C37.6744 27.8936 36.2879 28.1849 35.0025 28.7453C33.7172 29.3058 32.5602 30.1235 31.6028 31.148C30.6725 32.1444 29.9595 33.3233 29.5092 34.61C29.0589 35.8966 28.881 37.2628 28.9869 38.6219C29.1708 41.1549 30.3012 43.526 32.1533 45.2637C34.0054 47.0014 36.4436 47.9785 38.9832 48.0007C41.5751 47.9931 44.0665 46.9974 45.9498 45.2166C46.9175 44.2954 47.6869 43.1862 48.2106 41.9571C48.7835 40.5974 49.0731 39.1351 49.0617 37.6596V37.6522C49.0195 36.328 48.7163 35.0252 48.1695 33.8185C47.6226 32.6118 46.8429 31.5249 45.8751 30.6202L45.6069 30.3642L43.7693 35.6707L43.9412 35.7641C44.2133 35.9158 44.4444 36.1315 44.6145 36.3925C44.7846 36.6536 44.8885 36.9521 44.9174 37.2623C44.9463 37.5726 44.8991 37.8852 44.7801 38.1731C44.6611 38.461 44.4738 38.7157 44.2343 38.915C43.9948 39.1143 43.7104 39.2523 43.4057 39.3171C43.1009 39.3818 42.785 39.3714 42.4851 39.2867C42.1853 39.2021 41.9106 39.0456 41.6848 38.831C41.4589 38.6164 41.2888 38.35 41.189 38.0548C41.0782 37.7297 41.0585 37.3804 41.132 37.0449L41.1731 36.8581L39.6783 36.1807L39.569 36.3536C39.3375 36.7186 38.986 36.9915 38.575 37.1253C38.3873 37.191 38.19 37.2251 37.9911 37.2262C37.8194 37.2249 37.6486 37.2016 37.4829 37.157L37.3025 37.1112L36.0124 39.6234L36.1749 39.7411C36.4605 39.9424 36.6839 40.2197 36.8198 40.5415C36.9557 40.8634 36.9987 41.2169 36.9438 41.5619C36.8926 41.8989 36.7528 42.2162 36.5385 42.4812C36.3242 42.7463 36.0432 42.9495 35.7245 43.0701C35.4057 43.1907 35.0606 43.2243 34.7245 43.1675C34.3885 43.1107 34.0736 42.9655 33.8122 42.7467C33.5508 42.528 33.3523 42.2437 33.2371 41.9229C33.1219 41.6022 33.0941 41.2565 33.1566 40.9215C33.219 40.5864 33.3696 40.274 33.5927 40.0164C33.8157 39.7587 34.1034 39.565 34.426 39.4552C34.6133 39.3925 34.8096 39.3609 35.0071 39.3618C35.1723 39.3621 35.3368 39.3831 35.4967 39.4244L35.677 39.4702L36.9681 36.9646L36.8093 36.8459C36.4988 36.6145 36.2664 36.2937 36.1432 35.9266C35.9807 35.4443 36.0155 34.9173 36.2401 34.4605C36.4646 34.0037 36.8606 33.6543 37.3418 33.4883C37.5347 33.4251 37.7367 33.3935 37.9397 33.3949C38.3425 33.3953 38.7353 33.5198 39.0649 33.7513C39.3945 33.9827 39.6449 34.3101 39.782 34.6888C39.8863 35.0024 39.9085 35.3376 39.8465 35.6622L39.81 35.8435L41.316 36.5283L41.4272 36.3648C41.6608 36.0163 42.002 35.7538 42.3988 35.6174C42.5899 35.5533 42.7904 35.5217 42.992 35.524C43.0719 35.5239 43.1518 35.5286 43.2312 35.538L43.418 35.5604L45.3014 30.1213L45.1707 30.0185C43.4366 28.6437 41.2896 27.8936 39.0767 27.8894ZM47.354 44.1796L47.1933 44.3777C46.8576 44.816 46.4823 45.2226 46.0722 45.5922L45.8853 45.7613L47.1652 46.9758L48.6516 45.4072L47.3502 44.175L47.354 44.1796ZM35.0454 39.7206C34.7982 39.7206 34.5546 39.7795 34.3347 39.8924C34.1147 40.0053 33.9249 40.1689 33.7808 40.3698C33.6367 40.5707 33.5426 40.803 33.5061 41.0475C33.4697 41.292 33.492 41.5417 33.5712 41.7759C33.6808 42.083 33.8825 42.3489 34.1489 42.537C34.4153 42.7251 34.7333 42.8264 35.0595 42.8269C35.2243 42.8272 35.3882 42.8004 35.5443 42.7475C35.8932 42.6293 36.1887 42.3911 36.3783 42.0753C36.5679 41.7595 36.6392 41.3867 36.5795 41.0232C36.5198 40.6598 36.333 40.3293 36.0524 40.0908C35.7718 39.8522 35.4156 39.721 35.0473 39.7206H35.0454ZM43.0051 35.8837C42.8401 35.8831 42.6762 35.9102 42.5202 35.964C42.325 36.03 42.1448 36.1341 41.99 36.2703C41.8353 36.4064 41.709 36.5719 41.6187 36.7572C41.5278 36.9389 41.4738 37.1368 41.4601 37.3395C41.4463 37.5423 41.4729 37.7457 41.5384 37.938C41.6479 38.2447 41.8495 38.5102 42.1155 38.6981C42.3815 38.886 42.699 38.9873 43.0247 38.9881C43.1893 38.9886 43.3528 38.9617 43.5087 38.9087C43.857 38.7899 44.1519 38.5513 44.3408 38.2353C44.5296 37.9193 44.6002 37.5466 44.5398 37.1835C44.4795 36.8204 44.2922 36.4905 44.0113 36.2526C43.7304 36.0147 43.3741 35.8843 43.006 35.8846L43.0051 35.8837ZM29.3859 29.1572L29.0047 29.4683C28.2143 30.1129 27.3109 30.7818 26.5252 31.304L26.4206 31.3741V38.4491H28.603L28.5974 38.209C28.5799 36.7709 28.842 35.3431 29.369 34.0049L29.3859 33.9619V29.16V29.1572ZM37.9649 33.7536C37.7577 33.7485 37.5517 33.7849 37.3588 33.8607C37.1659 33.9365 36.9901 34.0501 36.8418 34.1948C36.6935 34.3395 36.5756 34.5125 36.4951 34.7034C36.4147 34.8944 36.3732 35.0995 36.3732 35.3068C36.3732 35.514 36.4147 35.7191 36.4951 35.9101C36.5756 36.1011 36.6935 36.274 36.8418 36.4187C36.9901 36.5635 37.1659 36.6771 37.3588 36.7528C37.5517 36.8286 37.7577 36.865 37.9649 36.8599C38.133 36.8603 38.3 36.8328 38.4591 36.7787C38.8078 36.6605 39.1032 36.4223 39.2926 36.1066C39.4821 35.7909 39.5532 35.4182 39.4934 35.0549C39.4336 34.6916 39.2468 34.3614 38.9661 34.123C38.6855 33.8847 38.3294 33.7538 37.9612 33.7536H37.9649ZM46.5234 25.0652C46.2762 25.0653 46.0326 25.1242 45.8126 25.2371C45.5927 25.35 45.4029 25.5136 45.2588 25.7145C45.1147 25.9154 45.0205 26.1477 44.9841 26.3922C44.9476 26.6367 44.97 26.8864 45.0492 27.1206C45.1585 27.4276 45.3599 27.6934 45.6259 27.8817C45.892 28.07 46.2096 28.1715 46.5356 28.1725C46.7002 28.1726 46.8637 28.1454 47.0195 28.0922C47.3683 27.974 47.6639 27.7358 47.8535 27.42C48.043 27.1042 48.1144 26.7314 48.0547 26.3679C47.995 26.0045 47.8082 25.674 47.5276 25.4354C47.247 25.1969 46.8917 25.0657 46.5234 25.0652ZM29.3859 11.7038L29.6764 12.0775C29.9141 12.4035 30.0447 12.7952 30.0501 13.1986V14.6271H36.1058V27.9492L36.3963 27.8745C37.1553 27.6674 37.937 27.5557 38.7235 27.5419H38.9524V13.165C38.953 12.9734 38.9158 12.7836 38.8428 12.6064C38.7699 12.4293 38.6627 12.2683 38.5273 12.1327C38.3931 11.9966 38.233 11.8886 38.0566 11.8149C37.8802 11.7413 37.6908 11.7036 37.4997 11.7038H29.3859ZM21.5775 4.22999C21.5037 4.22999 21.4468 4.22999 21.3907 4.22999C20.4314 4.31334 19.5387 4.75493 18.8904 5.46682C18.242 6.17871 17.8856 7.10868 17.892 8.07155V10.2343C16.9447 10.7332 16.1459 11.0676 15.563 11.3124C14.2373 11.8729 13.5076 12.1784 13.5076 13.1986V15.9546H29.4541V15.7267H29.6876V13.1977C29.6878 12.96 29.6301 12.7259 29.5194 12.5156C29.4087 12.3052 29.2484 12.1251 29.0523 11.9907L29.0617 11.9701L28.8384 11.8664L25.2883 10.2231V7.93609C25.2932 7.44778 25.2005 6.9634 25.0157 6.5114C24.8308 6.0594 24.5575 5.64887 24.2119 5.30391C23.8662 4.95895 23.4552 4.68651 23.0028 4.50258C22.5504 4.31864 22.0658 4.22692 21.5775 4.23279V4.22999Z" fill="white" stroke="white" stroke-width="0.5"/>
<path d="M21.5981 9.62816C21.2351 9.62816 20.8803 9.5205 20.5785 9.31881C20.2768 9.11711 20.0416 8.83044 19.9028 8.49506C19.7639 8.15968 19.7277 7.79066 19.7987 7.43468C19.8696 7.07871 20.0446 6.75178 20.3013 6.49525C20.5581 6.23871 20.8853 6.06411 21.2413 5.99353C21.5973 5.92294 21.9663 5.95954 22.3016 6.0987C22.6368 6.23786 22.9232 6.47333 23.1246 6.77531C23.326 7.07729 23.4333 7.43222 23.4329 7.7952C23.432 8.28135 23.2383 8.74728 22.8943 9.09087C22.5504 9.43445 22.0843 9.62767 21.5981 9.62816ZM21.5981 6.32658C21.3078 6.3264 21.024 6.4123 20.7826 6.57341C20.5411 6.73453 20.3528 6.96363 20.2416 7.23174C20.1303 7.49986 20.1011 7.79494 20.1575 8.07968C20.214 8.36442 20.3536 8.62602 20.5587 8.83141C20.7638 9.0368 21.0253 9.17675 21.3099 9.23356C21.5946 9.29037 21.8897 9.26149 22.158 9.15058C22.4262 9.03967 22.6556 8.8517 22.817 8.61044C22.9784 8.36918 23.0647 8.08548 23.0649 7.7952C23.0663 7.60208 23.0294 7.41059 22.9563 7.23186C22.8831 7.05313 22.7752 6.89072 22.6387 6.75407C22.5022 6.61743 22.3399 6.50927 22.1613 6.43588C21.9827 6.36249 21.7912 6.32534 21.5981 6.32658Z" fill="white" stroke="white" stroke-width="0.5"/>
<path d="M13.9037 38.8129H10.2098V36.3204L10.3826 36.3129C11.5641 36.2592 12.7405 36.1253 13.9037 35.9121V38.8082V38.8129ZM13.5357 36.3512L13.2657 36.3932C12.4249 36.524 11.5962 36.6147 10.7974 36.6604L10.5769 36.6735V38.4486H13.5357V36.3512Z" fill="white" stroke="white" stroke-width="0.5"/>
<path d="M19.1859 38.8145H15.492V35.5923L15.633 35.5587C16.7997 35.2993 17.9499 34.9708 19.0775 34.5749L19.1476 34.5506L19.1859 34.5366V38.8145ZM18.8178 35.0551L18.5123 35.1532C17.6024 35.4512 16.8653 35.6381 16.0385 35.8408L15.8591 35.8838V38.4408H18.8178V35.0551Z" fill="white" stroke="white" stroke-width="0.5"/>
<path d="M24.469 38.8125H20.775V33.9218C20.9918 33.8284 21.174 33.7499 21.3505 33.6761L21.387 33.6611C22.4354 33.225 23.4543 32.721 24.4372 32.1523L24.4494 34.9065L24.4578 36.7749C24.4578 37.6746 24.4671 38.2786 24.469 38.6495V38.8125ZM24.1009 32.7624L23.7571 32.9492C23.1723 33.2631 22.5286 33.5817 21.2842 34.1124L21.1422 34.1731V38.4444H24.1009V32.7624Z" fill="white" stroke="white" stroke-width="0.5"/>
<path d="M10.4873 33.9917C10.4434 33.9894 10.4017 33.9717 10.3696 33.9417C10.3375 33.9118 10.3169 33.8715 10.3116 33.8279C10.3062 33.7842 10.3164 33.7401 10.3403 33.7033C10.3643 33.6665 10.4004 33.6392 10.4424 33.6264C13.6295 32.7752 16.6596 31.4189 19.4176 29.6092C21.697 28.1828 23.7573 26.4331 25.534 24.4149C26.3216 23.5495 27.0351 22.6195 27.6669 21.6346L27.7911 21.4477L26.1926 20.3519C26.1638 20.3305 26.1418 20.3014 26.1291 20.2678C26.1164 20.2343 26.1137 20.1978 26.1212 20.1627C26.1286 20.1277 26.1461 20.0955 26.1713 20.0701C26.1966 20.0446 26.2286 20.027 26.2636 20.0193L31.7569 18.9916C31.7684 18.9904 31.78 18.9904 31.7915 18.9916C31.8343 18.9921 31.8756 19.0071 31.9086 19.0343C31.9415 19.0615 31.9642 19.0992 31.9727 19.1411L33.0088 24.5485L33.0228 24.5774C33.0363 24.6053 33.0427 24.636 33.0413 24.6669C33.04 24.6978 33.031 24.7279 33.0152 24.7545C32.9993 24.7811 32.9772 24.8033 32.9506 24.8192C32.9241 24.8351 32.894 24.8441 32.8631 24.8455H32.8378C32.8029 24.8446 32.7689 24.834 32.7397 24.8147L31.0385 23.6693L30.9021 23.8179C29.9551 24.8815 28.9214 25.8646 27.8117 26.757L27.7995 26.7673C23.7188 30.4706 16.4458 33.5087 10.505 33.9917H10.4873ZM31.6458 19.3887L26.7681 20.2996L28.1433 21.2403C28.1821 21.2677 28.209 21.3089 28.2185 21.3554C28.2281 21.4019 28.2196 21.4503 28.1947 21.4907C27.4985 22.6141 26.7021 23.6723 25.8152 24.6522L25.8068 24.6624C22.9415 27.7827 19.5052 30.3254 15.6835 32.1531L13 33.5L15.8479 32.5885C18.0799 31.9382 20.2442 31.0747 22.3109 30.01C24.2046 29.0599 25.9705 27.8743 27.5669 26.4814C28.7575 25.5201 29.8625 24.4573 30.8694 23.305C30.8994 23.2723 30.94 23.2514 30.984 23.2459C31.028 23.2405 31.0724 23.2508 31.1095 23.2751L32.5772 24.2626L31.643 19.3896L31.6458 19.3887Z" fill="white" stroke="white" stroke-width="0.5"/>
<path d="M25.8844 14.0824H17.3147V13.7144H25.8844V14.0815V14.0824Z" fill="white" stroke="white" stroke-width="0.5"/>
<path d="M24.6334 12.184H18.5637V11.8159H24.6362V12.1831L24.6334 12.184Z" fill="white" stroke="white" stroke-width="0.5"/>
<path d="M32.609 49.8764H10.6274V49.5083H32.6099V49.8755L32.609 49.8764Z" fill="white" stroke="white" stroke-width="0.5"/>
<path d="M23.8216 46.6137H10.6274V46.2456H23.8216V46.6128V46.6137Z" fill="white" stroke="white" stroke-width="0.5"/>
<path d="M23.8216 43.35H10.6274V42.9819H23.8216V43.3491V43.35Z" fill="white" stroke="white" stroke-width="0.5"/>
</svg>
