<svg width="77" height="77" viewBox="0 0 77 77" fill="none" xmlns="http://www.w3.org/2000/svg">
<path d="M55.1982 76C51.9363 75.9887 48.7222 75.1888 45.8128 73.6642C42.9034 72.1396 40.3794 69.9325 38.4426 67.2195L38.3564 67.0997L15.9404 58.6074V75.3552C15.9402 75.4657 15.8976 75.5716 15.822 75.6498C15.7464 75.7279 15.6439 75.7719 15.537 75.7722H10.2371C10.1301 75.7719 10.0277 75.7279 9.95208 75.6498C9.87648 75.5716 9.83389 75.4657 9.83364 75.3552V58.4292H8.47103C6.45121 58.3097 4.55209 57.3962 3.16298 55.8759C1.77387 54.3555 1 52.3436 1 50.2524C1 48.1612 1.77387 46.1492 3.16298 44.6289C4.55209 43.1086 6.45121 42.1951 8.47103 42.0756H15.4594L16.8374 41.5804L15.7536 41.0693C11.8138 39.175 8.60233 35.9699 6.63274 31.9664C4.66316 27.963 4.04924 23.3925 4.88916 18.9859C5.58817 15.1576 7.36909 11.6293 10.007 8.84662C12.6449 6.06393 16.0214 4.15169 19.7101 3.35141C20.9642 3.09068 22.24 2.95798 23.5191 2.95523C27.2579 2.95081 30.9106 4.11541 33.9974 6.29607C35.2584 7.18691 36.7513 7.66111 38.2788 7.65597C40.4193 7.62306 42.4759 6.79027 44.0684 5.31154C47.1159 2.52395 51.0474 0.989737 55.1168 1.00005C56.0095 1.00109 56.901 1.07128 57.7836 1.21003C60.878 1.75054 63.7735 3.1456 66.1638 5.24759C68.554 7.34958 70.3501 10.0803 71.362 13.1509C72.374 16.2215 72.5641 19.5177 71.9122 22.6908C71.2604 25.8639 69.7908 28.7959 67.6591 31.1765C67.3247 31.5544 67.0689 31.9992 66.9077 32.4834C66.7465 32.9676 66.6833 33.4809 66.7219 33.9914C66.7951 35.0308 67.2163 36.0115 67.913 36.7647L67.8804 36.7935L68.2906 37.1431C71.4455 39.842 73.7796 43.4249 75.0127 47.4615C76.2459 51.4981 76.3255 55.8168 75.2422 59.899C74.1588 63.9812 71.9585 67.6535 68.9055 70.4748C65.8524 73.2961 62.0764 75.1465 58.0308 75.8039C57.0919 75.935 56.1456 76.0005 55.1982 76ZM41.6536 68.3556L41.1458 69.1707C44.8867 73.0112 49.9449 75.1673 55.2174 75.169C60.1456 75.1723 64.9002 73.2884 68.5633 69.8808C72.2265 66.4732 74.5384 61.7837 75.0528 56.7176L75.1161 56.165H75.0911C75.4121 52.7157 74.9133 49.2376 73.6381 46.0329C72.363 42.8281 70.35 39.9938 67.7741 37.776C67.2344 37.3176 66.7906 36.7505 66.4695 36.1093C66.1485 35.4681 65.9569 34.766 65.9065 34.0459C65.8601 33.422 65.9382 32.7949 66.136 32.2035C66.3338 31.6121 66.6471 31.0691 67.0564 30.608C69.0881 28.3382 70.4889 25.5433 71.1107 22.5185C71.7326 19.4938 71.5525 16.3516 70.5893 13.4239C69.6262 10.4963 67.9159 7.89194 65.639 5.88605C63.3622 3.88016 60.6034 2.54725 57.6542 2.02815C56.8141 1.89642 55.9656 1.8302 55.1158 1.83006C51.2406 1.81921 47.4964 3.27984 44.5945 5.93455C42.856 7.54764 40.6118 8.45633 38.2759 8.49292C36.5855 8.49452 34.9343 7.96725 33.5393 6.98048C30.5852 4.89745 27.0904 3.78703 23.5143 3.79514C22.2897 3.79666 21.0682 3.92239 19.8673 4.17053C16.336 4.93699 13.1039 6.7686 10.5798 9.43374C8.0556 12.0989 6.3527 15.4779 5.68641 19.1434C4.85234 23.7415 5.63137 28.4964 7.88364 32.5543C10.0991 36.5584 13.6617 39.5806 17.8933 41.0455L18.0524 41.101L41.8922 32.0689C41.9387 32.0519 41.9876 32.0431 42.0369 32.0432C42.1195 32.0427 42.2002 32.0686 42.2679 32.1175C42.322 32.1558 42.3663 32.207 42.397 32.2669C42.4277 32.3267 42.4439 32.3934 42.4442 32.4612V42.9987L42.8601 43.0572C44.4865 43.3714 45.9554 44.2637 47.0124 45.5794C48.0694 46.8952 48.648 48.5516 48.648 50.2618C48.648 51.972 48.0694 53.6284 47.0124 54.9442C45.9554 56.2599 44.4865 57.1522 42.8601 57.4664L42.4442 57.5239V68.0624C42.4439 68.1303 42.4276 68.1971 42.3968 68.257C42.3659 68.3169 42.3213 68.3681 42.2669 68.4061C42.2004 68.4542 42.121 68.4798 42.0398 68.4794C41.9941 68.479 41.9489 68.4709 41.9057 68.4556L41.6536 68.3556ZM10.6501 58.5193V74.9372H15.1403V58.5193H10.6501ZM41.6354 33.0475L35.1683 35.5059L35.3514 35.9783C35.3677 36.0186 35.3771 36.0615 35.3791 36.1051V65.0841L41.6364 67.4563L41.6354 33.0475ZM34.5704 35.7406L15.9491 42.7947V57.7269L33.9265 64.5364L34.0884 64.0808H34.5675L34.5704 35.7406ZM8.48061 42.9106C6.67759 43.0331 4.98714 43.8598 3.75207 45.2231C2.51701 46.5864 1.82979 48.3842 1.82979 50.2519C1.82979 52.1196 2.51701 53.9174 3.75207 55.2807C4.98714 56.644 6.67759 57.4707 8.48061 57.5932H15.1413V42.9106H8.48061ZM42.4432 43.8159V56.6919L43.0086 56.5839C44.3712 56.3124 45.5918 55.5379 46.4429 54.4049C47.334 53.2179 47.8176 51.7583 47.8176 50.2558C47.8176 48.7534 47.334 47.2938 46.4429 46.1068C45.5919 44.9737 44.3712 44.1993 43.0086 43.9278L42.4432 43.8159Z" fill="white" stroke="white" stroke-width="0.4"/>
<path d="M54.8715 27.3532C52.9401 27.3532 51.052 26.7612 49.4461 25.652C47.8402 24.5428 46.5885 22.9663 45.8495 21.1219C45.1104 19.2774 44.917 17.2478 45.2939 15.2898C45.6708 13.3317 46.6009 11.5332 47.9667 10.1216C49.3325 8.70999 51.0727 7.74872 52.967 7.35936C54.8614 6.97 56.8249 7.17003 58.6092 7.93416C60.3936 8.69829 61.9187 9.9922 62.9916 11.6522C64.0645 13.3123 64.6371 15.2639 64.6369 17.2603C64.6344 19.9365 63.6047 22.5023 61.7738 24.3945C59.943 26.2867 57.4606 27.3508 54.8715 27.3532ZM54.8629 8.00049C53.0912 8.0003 51.3593 8.54315 49.8861 9.56041C48.4129 10.5777 47.2647 12.0236 46.5865 13.7155C45.9084 15.4073 45.7309 17.269 46.0764 19.0651C46.4219 20.8612 47.275 22.511 48.5277 23.806C49.7804 25.101 51.3765 25.9829 53.1141 26.3402C54.8517 26.6976 56.6528 26.5143 58.2896 25.8135C59.9265 25.1128 61.3255 23.926 62.3098 22.4034C63.2941 20.8808 63.8195 19.0906 63.8195 17.2594C63.817 14.8047 62.8726 12.4514 61.1934 10.7156C59.5143 8.97982 57.2377 8.00338 54.8629 8.00049Z" fill="white" stroke="white" stroke-width="0.4"/>
<path d="M51.7617 21.3944C51.6856 21.3954 51.6108 21.3737 51.5461 21.332C51.4873 21.2949 51.4387 21.2426 51.4051 21.1803C51.3716 21.118 51.3541 21.0478 51.3545 20.9765V13.6738C51.3542 13.6026 51.3717 13.5326 51.4052 13.4705C51.4388 13.4083 51.4874 13.3562 51.5461 13.3192C51.6072 13.2805 51.6776 13.2602 51.7493 13.2608C51.8157 13.261 51.8811 13.2765 51.9409 13.3063L59.0012 16.9562L59.0117 16.9611C59.0766 16.9949 59.1308 17.0469 59.1681 17.1113C59.2054 17.1756 59.2243 17.2496 59.2225 17.3246V17.4098C59.2097 17.4704 59.184 17.5273 59.1474 17.5764C59.1108 17.6256 59.0641 17.6657 59.0108 17.6941L51.9448 21.3459C51.888 21.376 51.8255 21.3926 51.7617 21.3944ZM52.1565 14.3513V20.294L57.9117 17.3226L52.1565 14.3513Z" fill="white" stroke="white" stroke-width="0.4"/>
<path d="M21.7264 31.0297H17.3109C17.204 31.0295 17.1015 30.9855 17.0259 30.9073C16.9503 30.8292 16.9077 30.7233 16.9075 30.6128V18.745C16.9077 18.6345 16.9503 18.5286 17.0259 18.4504C17.1015 18.3723 17.204 18.3283 17.3109 18.328H21.7264C21.8307 18.3298 21.9302 18.3733 22.004 18.4495C22.0778 18.5256 22.1202 18.6283 22.1222 18.7361L22.1528 19.6037L22.859 19.1353C23.0162 19.0328 23.1618 18.9125 23.2931 18.7767L23.2998 18.7688C24.0377 17.8306 24.3958 16.6338 24.2993 15.4289V15.3101C24.2332 13.761 24.1498 11.8336 25.2518 10.646C25.6158 10.2952 26.0458 10.0254 26.5149 9.85353C26.984 9.68161 27.4823 9.61118 27.9789 9.64661C28.4367 9.62795 28.8925 9.71715 29.312 9.90745C29.7316 10.0977 30.1037 10.3842 30.4003 10.745C31.4841 12.101 31.4898 14.3771 31.3969 15.6132L31.3566 16.1411L31.8693 16.146C32.9979 16.1291 34.0953 16.5295 34.9634 17.2752C35.5542 17.7831 35.9984 18.4492 36.2475 19.2006V19.2125C36.2561 19.2478 36.2596 19.2841 36.258 19.3205V27.2264C36.258 29.0201 34.3856 29.8818 33.2789 30.1086L33.2463 30.1165H22.1308V30.6118C22.1308 30.7226 22.0882 30.8289 22.0124 30.9073C21.9365 30.9857 21.8337 31.0297 21.7264 31.0297ZM17.7153 19.1719V30.2047H21.323V19.1719H17.7153ZM27.9789 10.4816C27.5928 10.4484 27.2043 10.4972 26.8371 10.6249C26.47 10.7527 26.132 10.9567 25.8439 11.2244C24.993 12.1475 25.063 13.8719 25.1186 15.2566V15.3903C25.1755 16.1016 25.0964 16.8175 24.8856 17.4971C24.6748 18.1767 24.3365 18.8067 23.8901 19.3512C23.5085 19.7617 23.0231 20.0533 22.4892 20.1931L22.1318 20.2921V29.2954H33.162L33.2204 29.2796C33.7436 29.1409 35.4521 28.5863 35.4521 27.2392V26.744H35.4425V19.3908L35.4061 19.3007C35.1094 18.5801 34.6048 17.9717 33.9612 17.5585C33.3176 17.1453 32.5663 16.9475 31.8099 16.9919C31.511 16.9932 31.2125 17.0167 30.9168 17.0622C30.8999 17.0633 30.8829 17.0633 30.866 17.0622C30.8113 17.0626 30.757 17.0518 30.7064 17.0304C30.6557 17.0089 30.6097 16.9774 30.5709 16.9374C30.5254 16.888 30.4918 16.8281 30.473 16.7627C30.4542 16.6973 30.4506 16.6282 30.4626 16.561C30.4885 16.4125 31.0845 12.8963 29.7775 11.2809C29.5581 11.0127 29.2814 10.8009 28.9693 10.6622C28.6572 10.5235 28.3181 10.4616 27.9789 10.4816Z" fill="white" stroke="white" stroke-width="0.4"/>
<path d="M64.5592 64.8336C64.4834 64.8345 64.4089 64.8128 64.3446 64.7712C60.4158 62.2455 58.416 60.3884 58.416 57.2437C58.4294 56.3595 58.7815 55.517 59.3952 54.9009C60.0089 54.2847 60.8339 53.9454 61.6893 53.9573C62.1641 53.9551 62.6338 54.0585 63.0665 54.2605C63.4992 54.4625 63.8848 54.7584 64.197 55.1281L64.5621 55.5619L64.9234 55.1261C65.2061 54.7852 65.5518 54.5062 65.9404 54.3055C66.3289 54.1048 66.7523 53.9864 67.1858 53.9573H67.4301C68.2852 53.9454 69.11 54.2845 69.7236 54.9002C70.3372 55.5158 70.6895 56.3579 70.7034 57.2417C70.7034 60.3884 68.7065 62.2465 64.7739 64.7692C64.7097 64.8114 64.6353 64.8338 64.5592 64.8336ZM61.6845 54.7824C61.0443 54.7712 60.4258 55.0227 59.9644 55.4817C59.5031 55.9408 59.2364 56.57 59.2228 57.2318C59.2228 59.6376 60.457 61.2204 64.3015 63.7481L64.5583 63.9165L64.8151 63.7481C68.6605 61.2214 69.8937 59.6376 69.8937 57.2318C69.8799 56.5696 69.6128 55.9401 69.1508 55.481C68.6889 55.0219 68.0698 54.7707 67.4291 54.7824C66.7882 54.7702 66.1687 55.0212 65.7066 55.4803C65.2444 55.9395 64.9772 56.5693 64.9636 57.2318C64.9634 57.3426 64.9207 57.4487 64.8449 57.5271C64.7691 57.6054 64.6664 57.6495 64.5592 57.6498C64.4522 57.6495 64.3496 57.6054 64.2739 57.527C64.1983 57.4487 64.1558 57.3425 64.1558 57.2318C64.142 56.5693 63.8746 55.9394 63.4123 55.4803C62.9499 55.0211 62.3304 54.7702 61.6893 54.7824H61.6845Z" fill="white" stroke="white" stroke-width="0.4"/>
<path d="M57.2824 50.2168H53.5194C53.4125 50.2165 53.31 50.1725 53.2344 50.0944C53.1588 50.0162 53.1162 49.9103 53.116 49.7998C53.116 49.6891 53.1584 49.583 53.2341 49.5046C53.3097 49.4263 53.4123 49.3821 53.5194 49.3818H57.2824C57.3894 49.3821 57.492 49.4263 57.5677 49.5046C57.6433 49.583 57.6858 49.6891 57.6858 49.7998C57.6855 49.9103 57.6429 50.0162 57.5673 50.0944C57.4917 50.1725 57.3893 50.2165 57.2824 50.2168Z" fill="white" stroke="white" stroke-width="0.4"/>
<path d="M51.7535 40.1617C51.7002 40.1635 51.647 40.1538 51.5975 40.1331C51.548 40.1125 51.5032 40.0814 51.466 40.0418C51.428 40.0031 51.398 39.9568 51.3777 39.9057C51.3575 39.8546 51.3474 39.7999 51.3482 39.7447C51.3474 39.6895 51.3575 39.6347 51.3777 39.5837C51.398 39.5326 51.428 39.4863 51.466 39.4475L53.9833 36.8446H53.9919L54.1328 36.699C54.1704 36.6598 54.2152 36.6289 54.2646 36.6079C54.314 36.587 54.3669 36.5766 54.4203 36.5772C54.4736 36.5766 54.5266 36.587 54.576 36.6079C54.6253 36.6289 54.6702 36.6598 54.7077 36.699C54.7458 36.7377 54.7758 36.7841 54.7961 36.8351C54.8163 36.8862 54.8264 36.941 54.8256 36.9961C54.8264 37.0513 54.8163 37.1061 54.7961 37.1572C54.7758 37.2082 54.7458 37.2545 54.7077 37.2933L52.0467 40.0369C51.9683 40.1161 51.8632 40.1609 51.7535 40.1617Z" fill="white" stroke="white" stroke-width="0.4"/>
<path d="M54.4212 62.0821C54.3678 62.0839 54.3147 62.0742 54.2652 62.0535C54.2157 62.0329 54.1709 62.0018 54.1337 61.9622L51.4746 59.2137C51.4369 59.1747 51.4071 59.1284 51.387 59.0774C51.367 59.0263 51.357 58.9716 51.3577 58.9165C51.357 58.8614 51.367 58.8068 51.387 58.7557C51.4071 58.7047 51.4369 58.6583 51.4746 58.6194C51.5124 58.5805 51.5572 58.5496 51.6065 58.5287C51.6559 58.5078 51.7087 58.4972 51.7621 58.4976C51.8154 58.4971 51.8683 58.5077 51.9177 58.5286C51.967 58.5495 52.0119 58.5804 52.0495 58.6194L52.1894 58.765H52.199L54.7096 61.3759C54.7475 61.4147 54.7774 61.461 54.7977 61.5121C54.8179 61.5631 54.8281 61.6178 54.8275 61.673C54.8274 61.7811 54.7865 61.8849 54.7134 61.9622C54.6344 62.0393 54.5298 62.0822 54.4212 62.0821Z" fill="white" stroke="white" stroke-width="0.4"/>
</svg>
