<svg width="77" height="77" viewBox="0 0 77 77" fill="none" xmlns="http://www.w3.org/2000/svg">
<path d="M60.6036 34.0538L60.0882 31.051L58.9616 30.9818C58.4369 30.9493 57.9195 30.8974 57.4237 30.8272C57.435 30.5963 57.4443 30.399 57.4505 30.2047C58.0645 30.2972 58.6846 30.3451 59.3058 30.3481C60.0405 30.3471 60.7738 30.2859 61.4983 30.165C63.5902 29.8149 65.5644 28.9672 67.2499 27.6953C68.9339 26.4207 70.2763 24.7589 71.16 22.8548C72.0438 20.9508 72.442 18.8622 72.32 16.7714C72.198 14.6805 71.5595 12.6509 70.4602 10.8595C69.3608 9.06806 67.8341 7.56929 66.013 6.49387C64.1918 5.42068 62.1331 4.80133 60.015 4.68937C59.7789 4.67818 59.5511 4.67208 59.3378 4.67208C57.4449 4.67476 55.575 5.08253 53.8572 5.86728C52.0609 6.69326 50.4781 7.91094 49.2281 9.42848C48.3557 8.55719 47.4279 7.74178 46.4502 6.98721L46.6254 6.7441L49.1704 8.52928L50.0146 7.69722C51.2938 6.49348 52.8077 5.55906 54.4643 4.95079L55.5374 4.53475L55.021 1.50351L58.0102 1L58.5462 4.12991L59.68 4.18281C61.4616 4.24736 63.2138 4.65005 64.841 5.36886L65.8934 5.85202L67.7014 3.35481L70.1752 5.08404L68.3652 7.59651L69.2094 8.4296C70.4342 9.69335 71.3862 11.1893 72.0079 12.8269L72.4305 13.8838L75.4908 13.3752L76 16.3251L72.95 16.8337L72.8933 17.9526C72.8261 19.711 72.4174 21.4404 71.6894 23.0467L71.207 24.0853L73.7344 25.8592L71.9821 28.3005L69.431 26.5164L68.5868 27.3494C67.3087 28.5603 65.7939 29.5014 64.1349 30.1152L63.064 30.5322L63.5794 33.5523L60.6046 34.0538H60.6036Z" fill="white" stroke="white" stroke-width="0.4"/>
<path d="M17.1654 75.9997L14.1484 75.6244L14.5411 72.5565L13.4145 72.2056C11.7328 71.6658 10.1834 70.7866 8.86469 69.624L7.98649 68.8631L5.5374 70.7388L3.68204 68.3779L6.14864 66.4971L5.58585 65.4626C4.77713 63.9045 4.2994 62.1997 4.18195 60.4529L4.09228 59.3177L1 58.9363L1.3855 55.9681L4.39738 56.3414L4.78082 55.2815C5.35651 53.6171 6.25133 52.0776 7.41648 50.7468L8.18851 49.8822L6.2847 47.4633L6.52281 47.2812C7.32278 48.2083 8.1814 49.0845 9.09352 49.9046C7.09713 51.6214 5.6794 53.8988 5.02987 56.4322C4.38034 58.9656 4.52997 61.6343 5.45875 64.0815C6.38753 66.5287 8.0512 68.6379 10.2273 70.1269C12.4035 71.6159 14.9884 72.4139 17.6365 72.4141C20.8041 72.4144 23.8628 71.2732 26.2379 69.205C28.6131 67.1368 30.1413 64.2839 30.5354 61.1822C30.7107 59.8342 30.6697 58.4672 30.4137 57.1318C30.6261 57.1165 30.8508 57.0992 31.0827 57.0768C31.1765 57.5724 31.2357 58.0737 31.26 58.5772L31.3198 59.7449L34.4399 60.1325L34.0606 63.0976L30.9868 62.7162L30.6075 63.7791C30.0341 65.4427 29.1418 66.9819 27.9791 68.3128L27.2071 69.1784L29.1129 71.5943L26.7195 73.4252L24.8033 70.99L23.7581 71.5465C22.1804 72.3422 20.4548 72.8123 18.6868 72.9278L17.5478 73.0204L17.1654 75.9997Z" fill="white" stroke="white" stroke-width="0.4"/>
<path d="M70.5278 74.3785C69.8915 74.3799 69.2612 74.2567 68.6735 74.0161C68.0857 73.7755 67.5521 73.4223 67.1037 72.9768L48.3284 54.4608C48.2112 54.345 48.1453 54.1881 48.1453 54.0244C48.1453 53.8608 48.2112 53.7038 48.3284 53.588L48.819 53.1049L45.0382 49.3738L44.7887 49.5538C39.9949 53.027 34.0986 54.6896 28.169 54.2402C22.2395 53.7908 16.6695 51.2592 12.4693 47.1044C7.83537 42.4818 5.24419 36.2368 5.26205 29.7345C5.27992 23.2321 7.90538 17.0011 12.5646 12.4033C17.2239 7.80553 23.538 5.2148 30.1271 5.19735C36.7162 5.17991 43.0443 7.73718 47.7285 12.3103C51.9631 16.4431 54.5447 21.9449 54.9992 27.8052C55.4536 33.6655 53.7504 39.4909 50.2023 44.2115L50.0188 44.4577L53.8017 48.1898L54.2975 47.7005C54.4183 47.5916 54.576 47.5312 54.7397 47.5312C54.9033 47.5312 55.0611 47.5916 55.1819 47.7005L73.9531 66.2196C74.6297 66.8883 75.0904 67.7399 75.2768 68.6668C75.4633 69.5938 75.3672 70.5544 75.0006 71.4275C74.6341 72.3006 74.0136 73.0468 73.2175 73.5721C72.4214 74.0973 71.4855 74.3779 70.5278 74.3785ZM54.7356 49.0096L49.6539 54.0244L67.987 72.1071C68.6705 72.754 69.5808 73.1152 70.5278 73.1152C71.4749 73.1152 72.3852 72.754 73.0687 72.1071C73.4027 71.7781 73.6677 71.3874 73.8485 70.9572C74.0293 70.527 74.1223 70.0659 74.1223 69.6002C74.1223 69.1345 74.0293 68.6734 73.8485 68.2432C73.6677 67.8131 73.4027 67.4223 73.0687 67.0933L54.7356 49.0096ZM30.0994 6.34135C26.9898 6.33947 23.9104 6.94263 21.0372 8.1163C18.1641 9.28998 15.5536 11.0111 13.3551 13.1813C11.1567 15.3515 9.41335 17.9282 8.2249 20.7639C7.03645 23.5996 6.42619 26.6387 6.42903 29.7073C6.42497 32.7765 7.03437 35.8163 8.22235 38.6527C9.41033 41.4891 11.1536 44.0664 13.3522 46.2371C15.5509 48.4078 18.1618 50.1292 21.0355 51.3028C23.9093 52.4764 26.9893 53.0791 30.0994 53.0764C34.7846 53.08 39.3655 51.7115 43.2622 49.1444C47.1588 46.5772 50.1959 42.9267 51.9889 38.6551C53.782 34.3836 54.2503 29.683 53.3346 25.1486C52.419 20.6143 50.1605 16.45 46.8451 13.183C44.6509 11.0066 42.0411 9.28125 39.1667 8.10687C36.2923 6.9325 33.2104 6.33241 30.0994 6.34135ZM49.2571 45.4546L49.0035 45.7475C48.7974 45.9886 48.2067 46.6345 47.7285 47.1055C47.2502 47.5764 46.5874 48.1664 46.3411 48.3729L46.0442 48.6231L49.7013 52.2321L52.9142 49.0636L49.2571 45.4546Z" fill="white"/>
<path d="M45.9411 30.2502C45.9411 32.1768 45.7081 33.8695 45.2422 35.3283C44.7763 36.7871 44.1276 37.9258 43.2959 38.7445C42.4643 39.557 41.4999 39.9632 40.4027 39.9632C39.3011 39.9632 38.3345 39.5539 37.5028 38.7353C36.6712 37.9166 36.0224 36.7779 35.5566 35.3191C35.095 33.8603 34.8643 32.1706 34.8643 30.2502C34.8643 28.3236 35.0972 26.6339 35.5631 25.1813C36.029 23.7225 36.6777 22.5837 37.5094 21.7651C38.341 20.9464 39.3054 20.5371 40.4027 20.5371C41.4999 20.5371 42.4643 20.9464 43.2959 21.7651C44.1276 22.5776 44.7763 23.7132 45.2422 25.1721C45.7081 26.6309 45.9411 28.3236 45.9411 30.2502ZM45.5231 30.2502C45.5231 28.4405 45.3075 26.8525 44.8765 25.486C44.4454 24.1133 43.8446 23.0454 43.0739 22.2821C42.3076 21.5127 41.4172 21.128 40.4027 21.128C39.3925 21.128 38.5021 21.5096 37.7314 22.2729C36.9651 23.03 36.3642 24.0949 35.9288 25.4675C35.4978 26.834 35.2823 28.4282 35.2823 30.2502C35.2823 32.0475 35.4956 33.6325 35.9223 35.0051C36.349 36.3716 36.9455 37.4426 37.7118 38.2182C38.4825 38.9876 39.3794 39.3723 40.4027 39.3723C41.4172 39.3723 42.3097 38.9907 43.0804 38.2274C43.8511 37.458 44.452 36.3901 44.883 35.0236C45.3141 33.651 45.5274 32.0598 45.5231 30.2502Z" fill="white" stroke="white" stroke-width="0.5"/>
<path d="M24.8811 39.705V20.7959H32.0131V21.3868H25.2991V29.955H31.6212V30.5459H25.2991V39.1141H32.196V39.705H24.8811Z" fill="white" stroke="white" stroke-width="0.5"/>
<path d="M20.7783 25.5227C20.713 24.2301 20.3625 23.1683 19.7268 22.3374C19.0954 21.5064 18.2616 21.0909 17.2253 21.0909C16.5461 21.0909 15.9387 21.2756 15.4032 21.6449C14.8676 22.0142 14.4453 22.522 14.1361 23.1683C13.827 23.8085 13.6724 24.544 13.6724 25.375C13.6724 25.8551 13.729 26.2983 13.8422 26.7045C13.9554 27.1108 14.1274 27.4832 14.3582 27.8217C14.5933 28.1541 14.8872 28.4557 15.2399 28.7266C15.5969 28.9912 16.0149 29.2282 16.4939 29.4375L18.0091 30.1023C18.5882 30.3546 19.0889 30.6378 19.5112 30.9517C19.9336 31.2656 20.2819 31.6196 20.5562 32.0135C20.8349 32.4013 21.0417 32.8352 21.1767 33.3153C21.3116 33.7893 21.3791 34.3187 21.3791 34.9034C21.3791 35.8883 21.2006 36.7654 20.8436 37.5348C20.4865 38.3042 19.988 38.9074 19.348 39.3445C18.7079 39.7815 17.9655 40 17.1208 40C16.3066 40 15.5947 39.8 14.9852 39.3999C14.3756 38.9936 13.8923 38.4366 13.5353 37.7287C13.1826 37.0147 12.9845 36.196 12.9409 35.2727H13.3589C13.4025 36.0852 13.5831 36.8023 13.901 37.424C14.2188 38.0457 14.6499 38.532 15.1942 38.8828C15.7428 39.2337 16.385 39.4091 17.1208 39.4091C17.8872 39.4091 18.5577 39.2214 19.1324 38.8459C19.7115 38.4643 20.16 37.9349 20.4778 37.2578C20.8 36.5807 20.9611 35.7959 20.9611 34.9034C20.9611 34.2263 20.8566 33.6323 20.6476 33.1214C20.4387 32.6044 20.1099 32.1489 19.6614 31.755C19.213 31.361 18.6274 31.0071 17.9046 30.6932L16.3894 30.0284C15.34 29.5606 14.5541 28.942 14.0316 28.1726C13.5135 27.4032 13.2544 26.4706 13.2544 25.375C13.2544 24.4455 13.4264 23.6146 13.7704 22.8821C14.1143 22.1435 14.5846 21.5618 15.1811 21.1371C15.782 20.7124 16.4634 20.5 17.2253 20.5C17.9917 20.5 18.6644 20.7154 19.2435 21.1463C19.8225 21.5772 20.2819 22.1712 20.6215 22.9283C20.9611 23.6854 21.1527 24.5502 21.1963 25.5227H20.7783Z" fill="white" stroke="white" stroke-width="0.5"/>
</svg>
