<svg width="60" height="60" viewBox="0 0 60 60" fill="none" xmlns="http://www.w3.org/2000/svg">
<path d="M29.958 20.79C29.8254 20.79 29.6982 20.7374 29.6045 20.6436C29.5107 20.5498 29.458 20.4226 29.458 20.29C29.458 20.1574 29.5107 20.0303 29.6045 19.9365C29.6982 19.8427 29.8254 19.79 29.958 19.79C30.0906 19.79 30.2178 19.8427 30.3116 19.9365C30.4053 20.0303 30.458 20.1574 30.458 20.29C30.458 20.4226 30.4053 20.5498 30.3116 20.6436C30.2178 20.7374 30.0906 20.79 29.958 20.79Z" fill="white" stroke="white" stroke-width="0.1"/>
<path d="M35.3536 16.79C35.2209 16.79 35.0938 16.7374 35 16.6436C34.9062 16.5498 34.8536 16.4226 34.8536 16.29C34.8536 16.1574 34.9062 16.0303 35 15.9365C35.0938 15.8427 35.2209 15.79 35.3536 15.79C35.4862 15.79 35.6133 15.8427 35.7071 15.9365C35.8009 16.0303 35.8536 16.1574 35.8536 16.29C35.8536 16.4226 35.8009 16.5498 35.7071 16.6436C35.6133 16.7374 35.4862 16.79 35.3536 16.79Z" fill="white" stroke="white" stroke-width="0.1"/>
<path d="M24.6464 27.6768C24.5138 27.6768 24.3867 27.6241 24.2929 27.5303C24.1991 27.4365 24.1464 27.3094 24.1464 27.1768C24.1464 27.0441 24.1991 26.917 24.2929 26.8232C24.3867 26.7294 24.5138 26.6768 24.6464 26.6768C24.7791 26.6768 24.9062 26.7294 25 26.8232C25.0938 26.917 25.1464 27.0441 25.1464 27.1768C25.1464 27.3094 25.0938 27.4365 25 27.5303C24.9062 27.6241 24.7791 27.6768 24.6464 27.6768Z" fill="white" stroke="white" stroke-width="0.1"/>
<path d="M19.958 49.79C19.8254 49.79 19.6982 49.7374 19.6045 49.6436C19.5107 49.5498 19.458 49.4226 19.458 49.29C19.458 49.1574 19.5107 49.0303 19.6045 48.9365C19.6982 48.8427 19.8254 48.79 19.958 48.79C20.0906 48.79 20.2178 48.8427 20.3116 48.9365C20.4053 49.0303 20.458 49.1574 20.458 49.29C20.458 49.4226 20.4053 49.5498 20.3116 49.6436C20.2178 49.7374 20.0906 49.79 19.958 49.79Z" fill="white" stroke="white" stroke-width="0.1"/>
<path d="M38.5 49.354H23.288C23.1848 49.354 23.0859 49.313 23.0129 49.2401C22.94 49.1671 22.899 49.0682 22.899 48.965C22.899 48.8618 22.94 48.7629 23.0129 48.6899C23.0859 48.617 23.1848 48.576 23.288 48.576H26.9V44.019H4.168C3.59325 44.0182 3.04228 43.7895 2.63587 43.3831C2.22946 42.9767 2.00079 42.4257 2 41.851V7.168C2.00079 6.59325 2.22946 6.04228 2.63587 5.63587C3.04228 5.22946 3.59325 5.00079 4.168 5H55.747C56.3217 5.00079 56.8727 5.22946 57.2791 5.63587C57.6855 6.04228 57.9142 6.59325 57.915 7.168V41.851C57.9142 42.4257 57.6855 42.9767 57.2791 43.3831C56.8727 43.7895 56.3217 44.0182 55.747 44.019H44L43.62 43.241H55.744C56.1126 43.2407 56.466 43.0942 56.7266 42.8336C56.9872 42.573 57.1337 42.2196 57.134 41.851V40.461H42.5L42.12 39.683H57.137V28.011H50.524C50.4729 28.011 50.4223 28.0009 50.3751 27.9814C50.3279 27.9618 50.2851 27.9332 50.2489 27.8971C50.2128 27.8609 50.1842 27.8181 50.1646 27.7709C50.1451 27.7237 50.135 27.6731 50.135 27.622C50.135 27.5709 50.1451 27.5203 50.1646 27.4731C50.1842 27.4259 50.2128 27.3831 50.2489 27.3469C50.2851 27.3108 50.3279 27.2822 50.3751 27.2626C50.4223 27.2431 50.4729 27.233 50.524 27.233H57.137V24.454H47.856C47.7528 24.454 47.6539 24.413 47.5809 24.3401C47.508 24.2671 47.467 24.1682 47.467 24.065C47.467 23.9618 47.508 23.8629 47.5809 23.7899C47.6539 23.717 47.7528 23.676 47.856 23.676H57.137V20.9H50.524C50.4207 20.9 50.3216 20.859 50.2486 20.7859C50.1755 20.7129 50.1345 20.6138 50.1345 20.5105C50.1345 20.4072 50.1755 20.3081 50.2486 20.2351C50.3216 20.162 50.4207 20.121 50.524 20.121H57.137V7.168C57.1367 6.79943 56.9902 6.44603 56.7296 6.18541C56.469 5.9248 56.1156 5.77826 55.747 5.778H4.168C3.79943 5.77826 3.44603 5.9248 3.18541 6.18541C2.9248 6.44603 2.77826 6.79943 2.778 7.168V20.118L10.443 20.2212C10.5463 20.2212 10.6454 20.2622 10.7184 20.3353C10.7915 20.4083 10.8325 20.5074 10.8325 20.6107C10.8325 20.714 10.7915 20.813 10.7184 20.8861C10.6454 20.9591 10.5463 21.0002 10.443 21.0002L2.779 20.897V23.675L13.111 23.7782C13.2142 23.7782 13.3131 23.8192 13.3861 23.8921C13.459 23.9651 13.5 24.064 13.5 24.1672C13.5 24.2703 13.459 24.3693 13.3861 24.4422C13.3131 24.5152 13.2142 24.5562 13.111 24.5562L2.779 24.453V27.232L10.443 27.3352C10.5462 27.3352 10.6451 27.3762 10.7181 27.4491C10.791 27.5221 10.832 27.621 10.832 27.7242C10.832 27.8273 10.791 27.9263 10.7181 27.9992C10.6451 28.0722 10.5462 28.1132 10.443 28.1132L2.779 28.01V39.682H34.475C34.4632 39.9416 34.4715 40.2017 34.5 40.46H2.779V41.85C2.77926 42.2186 2.9258 42.572 3.18641 42.8326C3.44703 43.0932 3.80043 43.2397 4.169 43.24H32.269L33.018 44.829V48.575H38.503V49.352L38.5 49.354ZM27.679 44.019V48.576H32.237V44.019H27.679Z" fill="white" stroke="white" stroke-width="0.1"/>
<path d="M42.483 55.5799C42.0785 55.5753 41.6836 55.4563 41.3438 55.2367C41.0041 55.0171 40.7334 54.7058 40.563 54.3389L34.216 40.8569C34.0181 40.4052 33.9707 39.9018 34.0807 39.421C34.1907 38.9403 34.4524 38.5076 34.827 38.1869L35.135 37.9349L34.096 35.8269L33.696 35.9399C30.39 36.8768 26.8529 36.5405 23.7826 34.9974C20.7124 33.4543 18.332 30.8166 17.1112 27.6046C15.8903 24.3925 15.9177 20.8396 17.1879 17.6468C18.4581 14.454 20.8788 11.8532 23.9725 10.3576C27.0661 8.86201 30.608 8.58027 33.8992 9.56795C37.1904 10.5556 39.9919 12.741 41.7508 15.6929C43.5098 18.6447 44.0985 22.1487 43.4008 25.5133C42.7031 28.8779 40.7697 31.8589 37.982 33.8679L37.639 34.1149L38.69 36.2489L39.07 36.1699C39.2048 36.141 39.3422 36.126 39.48 36.1249C39.878 36.1302 40.2663 36.2481 40.5999 36.4651C40.9336 36.6821 41.1988 36.9893 41.365 37.3509L47.906 50.7829C48.1598 51.2946 48.2036 51.8852 48.0279 52.4287C47.8523 52.9722 47.4712 53.4255 46.966 53.6919L43.399 55.3629L43.385 55.3689C43.1049 55.5086 42.796 55.5809 42.483 55.5799ZM39.483 36.9039C39.2909 36.904 39.1015 36.9492 38.93 37.0359L35.537 38.6469L35.523 38.6529C35.2087 38.8357 34.9733 39.1287 34.8625 39.475C34.7516 39.8214 34.7732 40.1965 34.923 40.5279L41.27 54.0069C41.3784 54.2405 41.5507 54.4388 41.7669 54.5787C41.9831 54.7187 42.2345 54.7947 42.492 54.7979C42.6874 54.7982 42.8801 54.753 43.055 54.6659L46.623 52.9939L46.637 52.9879C46.9561 52.8127 47.1944 52.5201 47.3014 52.1721C47.4084 51.8241 47.3756 51.4481 47.21 51.1239L40.665 37.6899C40.5634 37.4591 40.3978 37.2622 40.1878 37.1225C39.9778 36.9829 39.7322 36.9063 39.48 36.9019L39.483 36.9039ZM36.983 34.5419L36.525 34.7909C36.141 34.9999 35.739 35.1909 35.325 35.3699L34.839 35.5769L35.852 37.6339L38 36.6149L36.983 34.5419ZM29.96 23.2319C30.0633 23.2319 30.1623 23.2729 30.2354 23.3458C30.3085 23.4187 30.3497 23.5176 30.35 23.6209V35.6829L30.886 35.6449C32.1531 35.5551 33.3999 35.2784 34.586 34.8239L34.906 34.7009V18.2849C34.906 18.1816 34.947 18.0825 35.0201 18.0095C35.0931 17.9364 35.1922 17.8954 35.2955 17.8954C35.3988 17.8954 35.4979 17.9364 35.5709 18.0095C35.644 18.0825 35.685 18.1816 35.685 18.2849V34.3739L36.436 33.9379C38.3702 32.8145 39.9837 31.2134 41.122 29.2879C42.2789 27.3209 42.8955 25.083 42.9093 22.801C42.9231 20.519 42.3336 18.2739 41.2005 16.293C40.0675 14.3121 38.4311 12.6658 36.4571 11.5208C34.4831 10.3758 32.2416 9.77276 29.9595 9.77276C27.6775 9.77276 25.4359 10.3758 23.4619 11.5208C21.4879 12.6658 19.8515 14.3121 18.7185 16.293C17.5854 18.2739 16.996 20.519 17.0097 22.801C17.0235 25.083 17.6401 27.3209 18.797 29.2879C19.9355 31.2136 21.5493 32.8147 23.484 33.9379L24.229 34.3739V29.4019C24.229 29.2986 24.27 29.1995 24.3431 29.1265C24.4161 29.0534 24.5152 29.0124 24.6185 29.0124C24.7218 29.0124 24.8209 29.0534 24.8939 29.1265C24.967 29.1995 25.008 29.2986 25.008 29.4019V34.2719V34.2959V34.3199L24.981 34.6899L25.328 34.8229C26.5166 35.279 27.7661 35.5567 29.036 35.6469L29.571 35.6849V23.6199C29.5713 23.5172 29.6121 23.4187 29.6845 23.3458C29.757 23.273 29.8553 23.2317 29.958 23.2309L29.96 23.2319Z" fill="white" stroke="white" stroke-width="0.1"/>
</svg>
