<svg xmlns="http://www.w3.org/2000/svg" width="72" height="72" fill="none" viewBox="0 0 72 72"><path fill="#fff" stroke="#fff" stroke-width=".4" d="M67.215 70.999H4.787a3.701 3.701 0 0 1-3.786-3.784V4.787a3.704 3.704 0 0 1 3.786-3.786h62.428a3.702 3.702 0 0 1 3.784 3.786v62.428a3.79 3.79 0 0 1-3.784 3.784ZM2.129 15.347v51.977a2.661 2.661 0 0 0 2.658 2.658h62.428a2.77 2.77 0 0 0 2.767-2.767V15.347H2.129ZM4.787 2.018a2.773 2.773 0 0 0-2.769 2.769v9.543h67.853V4.669a2.66 2.66 0 0 0-2.656-2.658l-62.428.007Z"/><path fill="#fff" stroke="#fff" stroke-width=".4" d="M29.223 11.124a2.86 2.86 0 0 1-3.008-2.897 3.068 3.068 0 0 1 3.008-3.118 2.977 2.977 0 0 1 3.008 3.007 3.048 3.048 0 0 1-3.008 3.008Zm0-4.776a1.907 1.907 0 0 0-1.88 1.88 1.907 1.907 0 0 0 2.606 1.748 1.84 1.84 0 0 0 1.155-1.749 1.837 1.837 0 0 0-1.881-1.879ZM19.008 11.124A2.976 2.976 0 0 1 16 8.116a3.05 3.05 0 0 1 3.008-3.007 2.977 2.977 0 0 1 3.008 3.007 3.048 3.048 0 0 1-3.008 3.008Zm0-4.776a1.837 1.837 0 0 0-1.88 1.88 1.839 1.839 0 0 0 1.88 1.879 1.838 1.838 0 0 0 1.88-1.88 1.838 1.838 0 0 0-1.88-1.879ZM8.782 11.124a2.86 2.86 0 0 1-3.008-2.897A3.068 3.068 0 0 1 8.782 5.11a2.977 2.977 0 0 1 3.007 3.007 3.048 3.048 0 0 1-3.007 3.008Zm0-4.776a1.989 1.989 0 0 0-1.991 1.88 1.989 1.989 0 0 0 1.99 1.879 1.907 1.907 0 0 0 1.749-2.605 1.837 1.837 0 0 0-1.748-1.154Z"/><path fill="#fff" d="M10.426 42.75c0 4.107 1.065 7.98 2.936 11.357.01.02.02.03.03.049 4.131 7.445 12.195 12.51 21.433 12.51 2.34 0 4.629-.333 6.849-.967a9.529 9.529 0 0 0 5.744 1.932c5.196 0 9.427-4.147 9.427-9.24a8.9 8.9 0 0 0-.836-3.777c2.1-3.6 3.215-7.679 3.215-11.855 0-4.108-1.065-7.982-2.937-11.358-.01-.02-.02-.03-.03-.049-4.13-7.455-12.194-12.519-21.432-12.519-9.238 0-17.302 5.064-21.443 12.51-.01.019-.02.029-.03.048a23.465 23.465 0 0 0-2.926 11.358Zm46.777-.977H45.576c-.06-3.24-.388-6.284-.946-9.045h10.134c1.424 2.742 2.3 5.796 2.44 9.045ZM39.942 52.77H35.82v-9.045h7.755a50.233 50.233 0 0 1-.528 6.47 9.595 9.595 0 0 0-3.105 2.575Zm-27.495-9.045h11.627c.06 3.24.388 6.284.945 9.045H14.896a21.44 21.44 0 0 1-2.45-9.045Zm13.628 0h7.754v9.045H27.05c-.567-2.673-.916-5.708-.975-9.045Zm7.754 10.997v9.816c-2.439-.77-4.838-4.332-6.31-9.816h6.31Zm6.202 9.387c-.12.029-.229.048-.348.078.07-.078.15-.156.219-.244.05.058.09.117.13.166Zm-1.214-1.952c-.747.995-1.772 2-2.997 2.39v-9.825h2.947a9.009 9.009 0 0 0-.777 3.659c0 1.346.3 2.625.827 3.776Zm4.758-20.384H35.82v-9.045h6.78c.567 2.673.915 5.708.975 9.045ZM35.82 30.776V20.96c2.44.771 4.838 4.333 6.312 9.816H35.82Zm-1.99-9.816v9.816h-6.312c1.473-5.483 3.872-9.035 6.311-9.816Zm0 11.768v9.045h-7.755c.06-3.337.408-6.372.975-9.045h6.78Zm-9.756 9.045H12.447a21.587 21.587 0 0 1 2.449-9.045h10.123c-.557 2.761-.885 5.806-.945 9.045ZM16.05 54.722h9.417c1.046 4.088 2.609 7.386 4.52 9.474a22.495 22.495 0 0 1-13.937-9.474ZM47.418 65.67c-4.102 0-7.437-3.269-7.437-7.29 0-4.02 3.335-7.288 7.437-7.288 4.101 0 7.436 3.269 7.436 7.289s-3.345 7.289-7.436 7.289Zm0-16.53c-.777 0-1.523.098-2.25.274.229-1.845.368-3.747.398-5.69h11.637a21.504 21.504 0 0 1-2.389 8.958 9.448 9.448 0 0 0-7.396-3.542Zm6.181-18.364h-9.417c-1.045-4.088-2.618-7.386-4.52-9.474A22.494 22.494 0 0 1 53.6 30.776Zm-23.612-9.474c-1.911 2.088-3.474 5.386-4.52 9.474H16.05a22.494 22.494 0 0 1 13.937-9.474Z"/><path fill="#fff" d="M50.54 54.486c-.337-.423-.881-.423-1.218 0l-1.885 2.363-1.885-2.363c-.337-.423-.882-.423-1.219 0-.337.423-.337 1.106 0 1.528l1.885 2.363-1.885 2.363c-.337.423-.337 1.105 0 1.528a.77.77 0 0 0 .614.314c.225 0 .44-.108.614-.314l1.885-2.363 1.884 2.363a.77.77 0 0 0 .614.314c.225 0 .441-.108.614-.314.337-.423.337-1.105 0-1.528l-1.885-2.363 1.885-2.363c.32-.412.32-1.105-.017-1.528Z"/></svg>