<svg xmlns="http://www.w3.org/2000/svg" width="72" height="73" fill="none" viewBox="0 0 72 73"><path fill="#fff" stroke="#fff" stroke-width=".3" d="M62.23 69.03 44.876 51.685a.91.91 0 0 1 0-1.288l.217-.218-3.056-3.057a23.244 23.244 0 0 1-13.764 4.522 23.345 23.345 0 0 1-16.539-6.848c-9.113-9.115-9.113-23.945 0-33.06 4.413-4.412 10.283-6.842 16.53-6.842 6.246 0 12.116 2.43 16.53 6.843 8.185 8.186 9.106 21.077 2.315 30.31l3.058 3.058.223-.222a.938.938 0 0 1 1.288 0L69.03 62.227a4.807 4.807 0 0 1 0 6.803 4.807 4.807 0 0 1-6.802 0ZM43.505 13.026a21.412 21.412 0 0 0-15.241-6.31 21.41 21.41 0 0 0-15.242 6.31c-8.403 8.404-8.403 22.078 0 30.482 8.404 8.402 22.041 8.43 30.483 0 8.456-8.461 8.387-22.094 0-30.482Zm2.484 30.48c-.215.252-.762.857-1.196 1.291-.425.425-1.05.991-1.3 1.205l2.888 2.89 2.498-2.497-2.89-2.89Zm21.753 20.01-16.708-16.7-4.226 4.226 16.709 16.7c1.129 1.129 3.098 1.128 4.225-.001a2.985 2.985 0 0 0 0-4.225Z"/><path fill="#fff" stroke="#fff" stroke-width=".4" d="m56.178 32.714-.486-2.871-.777-.049a18.1 18.1 0 0 1-1.75-.194c.026-.441.043-.854.05-1.26.673.126 1.356.191 2.04.195.66-.002 1.32-.057 1.97-.168A11.688 11.688 0 1 0 45.97 9.782a26.492 26.492 0 0 0-3.052-2.721l.54-.762L45.853 8l.583-.583a12.45 12.45 0 0 1 4.23-2.65l.73-.287-.487-2.898L54.329 1l.506 2.993.777.037c1.69.064 3.353.452 4.897 1.143l.723.334 1.702-2.384 2.826 2.01-1.702 2.394.583.583a12.493 12.493 0 0 1 2.667 4.232l.29.732 2.89-.49.583 3.422-2.885.487-.039.778a13.27 13.27 0 0 1-1.143 4.896l-.334.729 2.383 1.695-2.008 2.826-2.394-1.703-.584.583a12.449 12.449 0 0 1-4.23 2.665l-.734.29.49 2.89-3.419.583.004-.011ZM16.59 71.996l-3.442-.434.37-2.929-.778-.247a12.17 12.17 0 0 1-4.323-2.484l-.604-.53-2.31 1.792-2.126-2.74 2.321-1.791-.389-.723a12.453 12.453 0 0 1-1.331-4.82l-.062-.794L1 55.931l.431-3.44 2.85.357.262-.737c.55-1.6 1.4-3.08 2.506-4.36l.53-.602-1.794-2.31.737-.572a26.576 26.576 0 0 0 2.836 2.925A11.662 11.662 0 0 0 7.515 63.41a11.681 11.681 0 0 0 20.821-5.706c.174-1.354.111-2.727-.184-4.059.421-.025.855-.06 1.288-.105.125.576.202 1.16.23 1.75l.04.814 2.938.37-.434 3.438-2.904-.366-.26.739a13.235 13.235 0 0 1-2.496 4.36l-.53.602 1.791 2.31-2.738 2.126-1.802-2.321-.721.389c-1.5.765-3.14 1.218-4.82 1.331l-.778.064L16.598 72l-.008-.003Z"/><path fill="#fff" d="M13.36 30.72c0 .5.075.924.226 1.27.15.347.347.632.59.854.255.208.55.368.887.479a3.73 3.73 0 0 0 1.042.145 5.3 5.3 0 0 0 .782-.062 2.59 2.59 0 0 0 .782-.291c.243-.14.445-.327.608-.563.162-.25.243-.561.243-.936 0-.403-.11-.729-.33-.979a2.437 2.437 0 0 0-.834-.624 7.419 7.419 0 0 0-1.182-.437c-.44-.125-.885-.264-1.337-.416a11.58 11.58 0 0 1-1.355-.5 4.714 4.714 0 0 1-1.182-.791 3.727 3.727 0 0 1-.85-1.187c-.21-.485-.314-1.068-.314-1.748 0-.764.134-1.423.4-1.978a4.318 4.318 0 0 1 1.077-1.415c.44-.375.938-.652 1.494-.833a5.376 5.376 0 0 1 1.668-.27c.649 0 1.268.09 1.859.27a4.194 4.194 0 0 1 1.598.833 4.01 4.01 0 0 1 1.095 1.498c.277.597.416 1.326.416 2.186h-2.64c-.023-.444-.104-.812-.243-1.103a1.685 1.685 0 0 0-.522-.687 2.035 2.035 0 0 0-.764-.354 3.8 3.8 0 0 0-.92-.104c-.22 0-.44.028-.66.083a1.7 1.7 0 0 0-.609.292 1.736 1.736 0 0 0-.434.52c-.116.208-.174.472-.174.791 0 .292.046.527.139.708.093.18.272.347.539.5.277.152.654.305 1.129.457.486.153 1.117.347 1.893.583.232.056.55.16.956.313.417.138.828.367 1.233.686.406.32.753.75 1.043 1.291.3.527.451 1.207.451 2.04 0 .68-.11 1.312-.33 1.894-.22.583-.55 1.09-.99 1.52-.428.416-.967.742-1.616.978-.637.236-1.378.354-2.223.354a6.5 6.5 0 0 1-1.998-.312 4.652 4.652 0 0 1-1.703-.937c-.486-.43-.874-.978-1.164-1.644-.29-.666-.428-1.457-.417-2.373h2.641ZM22.783 20.791h9.277v2.748h-6.55v3.185h6.012v2.54H25.51v3.642h6.688v2.748h-9.416V20.791ZM36.237 28.285c0 .625.058 1.235.174 1.832.128.583.325 1.11.59 1.582.267.472.615.854 1.043 1.145.429.277.95.416 1.564.416.614 0 1.135-.139 1.563-.416a3.357 3.357 0 0 0 1.043-1.145c.266-.472.457-1 .573-1.582a8.749 8.749 0 0 0 .191-1.832c0-.652-.064-1.284-.191-1.894a5.28 5.28 0 0 0-.573-1.624 3.12 3.12 0 0 0-1.043-1.145c-.428-.291-.95-.437-1.563-.437-.614 0-1.135.146-1.564.437a3.12 3.12 0 0 0-1.042 1.145 5.617 5.617 0 0 0-.59 1.624c-.117.61-.175 1.242-.175 1.894Zm-2.727 0c0-1.11.139-2.137.417-3.08.278-.958.677-1.79 1.199-2.498a5.672 5.672 0 0 1 1.91-1.666c.765-.402 1.622-.604 2.572-.604.961 0 1.818.202 2.57.604a5.67 5.67 0 0 1 1.912 1.665c.521.708.92 1.54 1.199 2.498.278.944.417 1.971.417 3.081 0 1.083-.14 2.096-.417 3.04-.278.93-.678 1.741-1.2 2.435a5.764 5.764 0 0 1-1.91 1.644c-.753.389-1.61.583-2.571.583-.95 0-1.807-.194-2.571-.583a5.766 5.766 0 0 1-1.911-1.644c-.522-.694-.921-1.506-1.2-2.436a10.708 10.708 0 0 1-.416-3.039Z"/></svg>