<svg xmlns="http://www.w3.org/2000/svg" width="72" height="72" fill="none" viewBox="0 0 72 72"><path fill="#fff" d="M53.243 32.06a.843.843 0 0 1-.076-1.088l2.677-2.954a.81.81 0 0 1 1.071-.078.843.843 0 0 1 .077 1.088l-2.678 2.954c-.306.389-.765.389-1.07.078ZM46.97 28.484c-.383-.233-.536-.7-.306-1.01L48.5 23.82c.23-.389.688-.544.995-.311.382.233.535.7.306 1.01l-1.837 3.654c-.152.311-.611.467-.994.311ZM40.926 25.686c-.382-.078-.688-.545-.535-.933l.994-4.12c0-.39.46-.622.842-.545.382.078.688.544.535.933l-.994 4.12c0 .389-.46.622-.842.545ZM34.5 24.753c-.459 0-.765-.311-.765-.778v-4.198c0-.466.306-.777.765-.777s.765.311.765.777v4.198c0 .467-.306.778-.765.778ZM27.156 25.141l-.995-4.12c-.076-.389.153-.855.536-.933.459-.077.918.156.994.544l.995 4.12c.076.39-.153.856-.536.934-.459.077-.918-.156-.994-.545ZM21.035 28.173 19.2 24.52c-.23-.388-.077-.855.306-1.01.382-.233.841-.078.994.31l1.836 3.655c.23.388.077.855-.306 1.01-.383.156-.841 0-.995-.31ZM14.686 32.06l-2.678-2.954c-.306-.31-.23-.777.077-1.088.306-.311.765-.233 1.07.077l2.678 2.954c.306.311.23.778-.076 1.089a.81.81 0 0 1-1.071-.078ZM12.085 54.06a.843.843 0 0 1-.077-1.088l2.678-2.954a.81.81 0 0 1 1.07-.078.843.843 0 0 1 .077 1.088l-2.677 2.954c-.306.311-.765.389-1.071.078ZM19.811 58.647c-.152 0-.229 0-.382-.078-.383-.233-.536-.7-.306-1.01l1.836-3.654c.23-.39.689-.545.995-.311.382.233.535.7.306 1.01l-1.837 3.654c-.076.233-.305.389-.611.389ZM26.773 61.912c-.382-.078-.688-.544-.535-.933l.994-4.12c.077-.389.536-.7.918-.544.383.077.689.544.536.932l-.995 4.12c-.076.39-.459.622-.918.545ZM34.5 63c-.459 0-.765-.311-.765-.777v-4.198c0-.467.306-.778.765-.778s.765.311.765.778v4.198c0 .466-.306.777-.765.777ZM41.309 61.367l-.995-4.12c-.076-.388.153-.855.536-.932.382-.078.841.155.918.544l.994 4.12c.077.389-.153.855-.535.933-.383.077-.842-.156-.918-.544ZM48.5 58.258l-1.836-3.654c-.23-.389-.077-.855.306-1.01.383-.234.842-.078.995.31l1.835 3.654c.23.389.077.855-.305 1.01-.306.234-.765.079-.995-.31ZM55.844 53.982l-2.677-2.954c-.306-.31-.23-.777.076-1.088.306-.311.765-.233 1.071.078l2.678 2.954c.306.31.23.777-.077 1.088-.306.311-.765.233-1.07-.078ZM34.5 54.993c-13.311 0-23.869-12.982-24.328-13.527a.828.828 0 0 1 0-1.01c.46-.467 11.017-13.449 24.328-13.449 13.312 0 23.869 12.982 24.328 13.527.23.31.23.7 0 1.01-.46.467-11.017 13.449-24.328 13.449ZM11.779 41C13.844 43.332 23.33 53.438 34.5 53.438c11.17 0 20.656-10.106 22.721-12.438C55.156 38.668 45.67 28.562 34.5 28.562c-11.17 0-20.656 10.106-22.721 12.438Z"/><path fill="#fff" d="M34.5 51.261c-5.585 0-10.098-4.586-10.098-10.261 0-5.675 4.513-10.262 10.098-10.262 5.585 0 10.098 4.587 10.098 10.262 0 5.675-4.513 10.261-10.098 10.261Zm0-18.968c-4.743 0-8.568 3.887-8.568 8.707s3.825 8.707 8.568 8.707c4.743 0 8.568-3.887 8.568-8.707s-3.825-8.707-8.568-8.707Z"/><path fill="#fff" d="M34.5 46.209c-1.3 0-2.601-.545-3.672-1.555-1.99-2.022-1.99-5.364 0-7.385 1.147-1.166 2.83-1.71 4.437-1.477.306.077.535.233.612.544.076.31 0 .544-.153.777-.306.311-.459.778-.459 1.244 0 1.01.765 1.788 1.76 1.788.459 0 .918-.156 1.224-.467.23-.233.535-.233.765-.155.306.078.459.31.535.622a4.977 4.977 0 0 1-1.453 4.509c-.995 1.088-2.295 1.554-3.596 1.554Zm-.612-8.785c-.765.156-1.377.467-1.913 1.01-1.377 1.4-1.377 3.732 0 5.21 1.377 1.398 3.672 1.398 5.126 0 .536-.545.842-1.245.995-1.944-.306.077-.689.155-.995.155-1.836 0-3.29-1.477-3.29-3.343-.076-.466 0-.777.077-1.088Z"/><path stroke="#fff" stroke-width=".5" d="M53.243 32.06a.843.843 0 0 1-.076-1.088l2.677-2.954a.81.81 0 0 1 1.071-.078.843.843 0 0 1 .077 1.088l-2.678 2.954c-.306.389-.765.389-1.07.078ZM46.97 28.484c-.383-.233-.536-.7-.306-1.01L48.5 23.82c.23-.389.688-.544.995-.311.382.233.535.7.306 1.01l-1.837 3.654c-.152.311-.611.467-.994.311ZM40.926 25.686c-.382-.078-.688-.545-.535-.933l.994-4.12c0-.39.46-.622.842-.545.382.078.688.544.535.933l-.994 4.12c0 .389-.46.622-.842.545ZM34.5 24.753c-.459 0-.765-.311-.765-.778v-4.198c0-.466.306-.777.765-.777s.765.311.765.777v4.198c0 .467-.306.778-.765.778ZM27.156 25.141l-.995-4.12c-.076-.389.153-.855.536-.933.459-.077.918.156.994.544l.995 4.12c.076.39-.153.856-.536.934-.459.077-.918-.156-.994-.545ZM21.035 28.173 19.2 24.52c-.23-.388-.077-.855.306-1.01.382-.233.841-.078.994.31l1.836 3.655c.23.388.077.855-.306 1.01-.383.156-.841 0-.995-.31ZM14.686 32.06l-2.678-2.954c-.306-.31-.23-.777.077-1.088.306-.311.765-.233 1.07.077l2.678 2.954c.306.311.23.778-.076 1.089a.81.81 0 0 1-1.071-.078ZM12.085 54.06a.843.843 0 0 1-.077-1.088l2.678-2.954a.81.81 0 0 1 1.07-.078.843.843 0 0 1 .077 1.088l-2.677 2.954c-.306.311-.765.389-1.071.078ZM19.811 58.647c-.152 0-.229 0-.382-.078-.383-.233-.536-.7-.306-1.01l1.836-3.654c.23-.39.689-.545.995-.311.382.233.535.7.306 1.01l-1.837 3.654c-.076.233-.305.389-.611.389ZM26.773 61.912c-.382-.078-.688-.544-.535-.933l.994-4.12c.077-.389.536-.7.918-.544.383.077.689.544.536.932l-.995 4.12c-.076.39-.459.622-.918.545ZM34.5 63c-.459 0-.765-.311-.765-.777v-4.198c0-.467.306-.778.765-.778s.765.311.765.778v4.198c0 .466-.306.777-.765.777ZM41.309 61.367l-.995-4.12c-.076-.388.153-.855.536-.932.382-.078.841.155.918.544l.994 4.12c.077.389-.153.855-.535.933-.383.077-.842-.156-.918-.544ZM48.5 58.258l-1.836-3.654c-.23-.389-.077-.855.306-1.01.383-.234.842-.078.995.31l1.835 3.654c.23.389.077.855-.305 1.01-.306.234-.765.079-.995-.31ZM55.844 53.982l-2.677-2.954c-.306-.31-.23-.777.076-1.088.306-.311.765-.233 1.071.078l2.678 2.954c.306.31.23.777-.077 1.088-.306.311-.765.233-1.07-.078ZM34.5 54.993c-13.311 0-23.869-12.982-24.328-13.527a.828.828 0 0 1 0-1.01c.46-.467 11.017-13.449 24.328-13.449 13.312 0 23.869 12.982 24.328 13.527.23.31.23.7 0 1.01-.46.467-11.017 13.449-24.328 13.449ZM11.779 41C13.844 43.332 23.33 53.438 34.5 53.438c11.17 0 20.656-10.106 22.721-12.438C55.156 38.668 45.67 28.562 34.5 28.562c-11.17 0-20.656 10.106-22.721 12.438Z"/><path stroke="#fff" stroke-width=".5" d="M34.5 51.261c-5.585 0-10.098-4.586-10.098-10.261 0-5.675 4.513-10.262 10.098-10.262 5.585 0 10.098 4.587 10.098 10.262 0 5.675-4.513 10.261-10.098 10.261Zm0-18.968c-4.743 0-8.568 3.887-8.568 8.707s3.825 8.707 8.568 8.707c4.743 0 8.568-3.887 8.568-8.707s-3.825-8.707-8.568-8.707Z"/><path stroke="#fff" stroke-width=".5" d="M34.5 46.209c-1.3 0-2.601-.545-3.672-1.555-1.99-2.022-1.99-5.364 0-7.385 1.147-1.166 2.83-1.71 4.437-1.477.306.077.535.233.612.544.076.31 0 .544-.153.777-.306.311-.459.778-.459 1.244 0 1.01.765 1.788 1.76 1.788.459 0 .918-.156 1.224-.467.23-.233.535-.233.765-.155.306.078.459.31.535.622a4.977 4.977 0 0 1-1.453 4.509c-.995 1.088-2.295 1.554-3.596 1.554Zm-.612-8.785c-.765.156-1.377.467-1.913 1.01-1.377 1.4-1.377 3.732 0 5.21 1.377 1.398 3.672 1.398 5.126 0 .536-.545.842-1.245.995-1.944-.306.077-.689.155-.995.155-1.836 0-3.29-1.477-3.29-3.343-.076-.466 0-.777.077-1.088Z"/><path fill="#fff" stroke="#fff" stroke-width=".4" d="M67.215 70.999H4.787a3.701 3.701 0 0 1-3.786-3.784V4.787a3.704 3.704 0 0 1 3.786-3.786h62.428a3.702 3.702 0 0 1 3.784 3.786v62.428a3.79 3.79 0 0 1-3.784 3.784ZM2.129 15.347v51.977a2.661 2.661 0 0 0 2.658 2.658h62.428a2.77 2.77 0 0 0 2.767-2.767V15.347H2.129ZM4.787 2.018a2.773 2.773 0 0 0-2.769 2.769v9.543h67.853V4.669a2.66 2.66 0 0 0-2.656-2.658l-62.428.007Z"/><path fill="#fff" stroke="#fff" stroke-width=".4" d="M29 10.996a2.853 2.853 0 0 1-3-2.887A3.057 3.057 0 0 1 29 5a2.97 2.97 0 0 1 3 2.998 3.037 3.037 0 0 1-3 2.998Zm0-4.76a1.902 1.902 0 0 0-1.874 1.873A1.9 1.9 0 0 0 29 9.982a1.835 1.835 0 0 0 1.876-1.873A1.83 1.83 0 0 0 29 6.236ZM19 11a2.968 2.968 0 0 1-3-3 3.041 3.041 0 0 1 3-3 2.97 2.97 0 0 1 3 3 3.04 3.04 0 0 1-3 3Zm0-4.764a1.832 1.832 0 0 0-1.874 1.875A1.833 1.833 0 0 0 19 9.985a1.833 1.833 0 0 0 1.874-1.874A1.83 1.83 0 0 0 19 6.236ZM9 10.996A2.853 2.853 0 0 1 6 8.11 3.057 3.057 0 0 1 9 5a2.97 2.97 0 0 1 3 2.998 3.037 3.037 0 0 1-3 2.998Zm0-4.76a1.984 1.984 0 0 0-1.985 1.873A1.982 1.982 0 0 0 9 9.982a1.902 1.902 0 0 0 1.743-2.597A1.832 1.832 0 0 0 9 6.235Z"/></svg>