<svg width="60" height="60" viewBox="0 0 60 60" fill="none" xmlns="http://www.w3.org/2000/svg">
<g clip-path="url(#clip0_5770_9544)">
<path d="M12.6183 0.119513C13.348 -0.144669 14.1646 0.037103 14.7134 0.585844L23.028 8.90052C22.9805 8.973 22.9371 9.04944 22.8983 9.12964L8 39.9537L12.6183 0.119513Z" fill="black"/>
<path d="M8.34375 47.7608L28.2675 59.7152C28.8035 60.0368 29.4589 60.0892 30.0393 59.8568L50.0393 51.8568C50.8741 51.5232 51.3837 50.6728 51.2841 49.7792L47.2841 13.7792C47.2017 13.0361 46.7117 12.4011 46.0137 12.133C45.3157 11.865 44.5265 12.0085 43.9677 12.5052L37.3475 18.3899L8.34375 47.7608Z" fill="black"/>
<path d="M35.0513 15.024L30.9623 8.8906C30.5754 8.31028 29.9142 7.97344 29.2173 8.00164C28.5204 8.02984 27.8886 8.41904 27.5499 9.02872L26.3107 11.2592L14.3672 35.97L35.0513 15.024Z" fill="black"/>
</g>
<defs>
<clipPath id="clip0_5770_9544">
<rect width="60" height="60" fill="white"/>
</clipPath>
</defs>
</svg>
