<svg width="60" height="60" viewBox="0 0 60 60" fill="none" xmlns="http://www.w3.org/2000/svg">
<path d="M4.91735 0C4.3659 0 3.95503 0.449378 4.00395 0.998619L8.65295 53.1448C8.70188 53.694 9.17652 54.2641 9.70811 54.4117L29.4361 59.8893C29.9674 60.0368 30.8369 60.0368 31.3685 59.8897L51.1564 54.4031C51.6878 54.2557 52.1631 53.6856 52.212 53.1366L56.8686 0.998619C56.9179 0.449378 56.5066 0 55.9552 0H4.91735ZM46.968 11.9596C46.9241 12.4494 46.8481 13.2999 46.7992 13.8491L46.6767 15.2173C46.6273 15.7663 46.5572 16.5516 46.5201 16.9621C46.4832 17.3728 46.4481 17.7086 46.4416 17.7086C46.4354 17.7086 45.979 17.7086 45.4276 17.7086H31.4389C30.8875 17.7086 30.4317 17.7086 30.4256 17.7086C30.4196 17.7086 29.9634 17.7086 29.412 17.7086H22.0447C21.4932 17.7086 21.0823 18.158 21.1313 18.7073L21.561 23.5109C21.6099 24.0599 22.1014 24.5095 22.6529 24.5095H29.4122C29.9636 24.5095 30.4198 24.5095 30.4258 24.5095C30.4319 24.5095 30.8877 24.5095 31.4391 24.5095H43.0574C43.6088 24.5095 44.4623 24.5095 44.9537 24.5095C45.4448 24.5095 45.8106 24.9103 45.7661 25.4002C45.7214 25.8901 45.645 26.7407 45.596 27.2898L44.2142 42.776C44.1649 43.3252 44.1025 44.0269 44.0756 44.3353C44.0482 44.6435 43.5912 45.0163 43.0598 45.1636L31.4026 48.3959C30.8712 48.5431 30.4297 48.665 30.4214 48.6668C30.4132 48.6686 29.9719 48.5493 29.4403 48.4019L17.7707 45.1638C17.2393 45.0165 16.7644 44.4464 16.7155 43.8971L15.9643 35.466C15.9154 34.9168 16.3267 34.4674 16.8781 34.4674H17.9431C18.4946 34.4674 19.3969 34.4674 19.9484 34.4674H21.5365C22.088 34.4674 22.5791 34.9168 22.6284 35.466L22.923 38.7665C22.9719 39.3157 23.4473 39.8826 23.9799 40.0264L29.4385 41.5004C29.9707 41.6442 30.4082 41.7619 30.4106 41.7619C30.413 41.7619 30.8504 41.644 31.3828 41.5002L36.8511 40.0226C37.3833 39.8788 37.8591 39.3117 37.9085 38.7627L38.5014 32.1501C38.5508 31.6009 38.1399 31.1515 37.5884 31.1515H31.4391C30.8877 31.1515 30.4319 31.1515 30.4258 31.1515C30.4198 31.1515 29.9636 31.1515 29.4122 31.1515H16.5807C16.0293 31.1515 15.5382 30.7019 15.4893 30.1529L14.0343 13.8489C13.9853 13.2997 13.9093 12.4494 13.8654 11.9594C13.8219 11.4695 14.2372 11.0686 14.7886 11.0686H29.4122C29.9636 11.0686 30.4198 11.0686 30.4258 11.0686C30.4319 11.0686 30.8877 11.0686 31.4391 11.0686H46.045C46.5963 11.0686 47.0117 11.4695 46.968 11.9596Z" fill="black"/>
</svg>
