<svg xmlns="http://www.w3.org/2000/svg" width="59" height="73" fill="none" viewBox="0 0 59 73"><path fill="#fff" stroke="#fff" stroke-width=".5" d="M49.793 72H31.078a.497.497 0 0 1-.361-.158.593.593 0 0 1-.16-.406V65.41a1.906 1.906 0 0 0-.935-1.682l-2.972-1.802a6.412 6.412 0 0 1-2.293-2.1 6.445 6.445 0 0 1-1.041-2.935l-.455-6.471v-.037a5.247 5.247 0 0 1 1.465-3.96 5.207 5.207 0 0 1 3.902-1.58h.59v-7.51l-.384-.148a10.072 10.072 0 0 1-4.86-4.027l-.297-.47-8.416 4.482.159.483c.26.787.393 1.612.394 2.442a7.407 7.407 0 0 1-2.058 5.249 7.346 7.346 0 0 1-5.147 2.262 7.473 7.473 0 0 1-5.113-2.296A7.535 7.535 0 0 1 1 40.093c0-1.945.751-3.815 2.096-5.216a7.472 7.472 0 0 1 5.113-2.296 7.128 7.128 0 0 1 3.314.853 7.163 7.163 0 0 1 2.54 2.3l.303.442 8.42-4.494-.186-.493a10.664 10.664 0 0 1 1.712-10.42l.33-.403-7.83-8.565-.425.284a5.018 5.018 0 0 1-2.776.842 5.296 5.296 0 0 1-3.72-1.634 5.34 5.34 0 0 1-1.48-3.795 5.34 5.34 0 0 1 1.482-3.793 5.296 5.296 0 0 1 3.716-1.634 5.296 5.296 0 0 1 3.719 1.633 5.34 5.34 0 0 1 1.481 3.793 5.542 5.542 0 0 1-.963 3.144l-.27.394 7.826 8.562.439-.343a9.56 9.56 0 0 1 6.018-2.126c2.34.006 4.598.86 6.36 2.406l.423.366 7.89-7.906-.275-.411a6.88 6.88 0 0 1-1.16-3.843 6.505 6.505 0 0 1 1.794-4.75A6.454 6.454 0 0 1 51.545 1 6.432 6.432 0 0 1 56.2 2.99a6.485 6.485 0 0 1 1.795 4.75 6.627 6.627 0 0 1-1.84 4.701 6.572 6.572 0 0 1-4.61 2.024 6.217 6.217 0 0 1-3.863-1.344l-.416-.326-7.89 7.906.313.418a10.536 10.536 0 0 1 2.044 5.242l.055.54h6.536l.106-.47c.2-.973.726-1.847 1.49-2.479a4.322 4.322 0 0 1 2.707-.993 4.48 4.48 0 0 1 3.076 1.372 4.518 4.518 0 0 1 0 6.267 4.481 4.481 0 0 1-3.076 1.373 4.323 4.323 0 0 1-2.711-.991 4.355 4.355 0 0 1-1.49-2.481l-.105-.47h-6.538l-.055.538a10.446 10.446 0 0 1-1.779 4.867 10.39 10.39 0 0 1-3.893 3.404l-.343.172v4.733l.871-.445c.473-.242.995-.37 1.525-.371a3.453 3.453 0 0 1 2.965 1.719l.313.515.514-.314a3.11 3.11 0 0 1 1.626-.468 3.22 3.22 0 0 1 1.79.568c.528.363.937.876 1.174 1.472l.224.542.546-.212a2.978 2.978 0 0 1 1.09-.208 3.23 3.23 0 0 1 2.265 1c.593.62.917 1.452.9 2.313v12.752a7.793 7.793 0 0 1-.968 3.85 1.984 1.984 0 0 0-.233.956v6.024a.546.546 0 0 1-.522.564ZM31.6 65.972v4.899h17.672v-4.899H31.6ZM28.82 45.95l-.611.014a4.141 4.141 0 0 0-3.113 1.24 4.176 4.176 0 0 0-1.192 3.14v.025l.455 6.442c.096.867.4 1.697.89 2.419a5.33 5.33 0 0 0 1.912 1.72l2.972 1.8a2.976 2.976 0 0 1 1.323 1.68l.13.423h17.703l.13-.423a3.01 3.01 0 0 1 .226-.536 6.552 6.552 0 0 0 .827-3.283V47.852a2.167 2.167 0 0 0-.612-1.534 2.149 2.149 0 0 0-1.513-.652 2.077 2.077 0 0 0-1.4.548l-.196.172v4.908a.524.524 0 0 1-.52.523.52.52 0 0 1-.521-.523v-5.54a2.24 2.24 0 0 0-.632-1.578 2.22 2.22 0 0 0-1.554-.674 2.172 2.172 0 0 0-1.812.996l-.1.152v4.962a.524.524 0 0 1-.52.522.52.52 0 0 1-.52-.522v-5.086a2.47 2.47 0 0 0-.622-1.619 2.45 2.45 0 0 0-4.207 1.014l-.02.076v5.023a.525.525 0 0 1-.73.523.521.521 0 0 1-.31-.523V27.698a2.429 2.429 0 0 0-.683-1.752 2.409 2.409 0 0 0-1.725-.73 2.4 2.4 0 0 0-1.726.73 2.42 2.42 0 0 0-.682 1.752V53.02a.523.523 0 0 1-.52.522.519.519 0 0 1-.52-.522l-.007-7.07ZM8.202 33.707a6.35 6.35 0 0 0-4.38 1.933 6.403 6.403 0 0 0-1.8 4.453c0 1.662.645 3.26 1.8 4.452a6.35 6.35 0 0 0 4.38 1.933 6.352 6.352 0 0 0 4.349-1.95 6.404 6.404 0 0 0 1.782-4.435 6.404 6.404 0 0 0-1.782-4.436 6.352 6.352 0 0 0-4.349-1.95ZM31.86 18.247a9.026 9.026 0 0 0-6.338 2.764 9.102 9.102 0 0 0-2.546 6.45 9.34 9.34 0 0 0 1.335 4.835 9.288 9.288 0 0 0 3.64 3.438l.87.443v-8.482a3.482 3.482 0 0 1 .954-2.55 3.452 3.452 0 0 1 2.495-1.07 3.44 3.44 0 0 1 2.495 1.07 3.47 3.47 0 0 1 .954 2.55v8.147l.931-.622a9.397 9.397 0 0 0 3.005-3.37 9.441 9.441 0 0 0 1.091-4.389 9.103 9.103 0 0 0-2.545-6.45 9.03 9.03 0 0 0-6.341-2.764Zm20.761 5.844a3.354 3.354 0 0 0-1.894.523 3.392 3.392 0 0 0-.613 5.21 3.362 3.362 0 0 0 3.678.776 3.368 3.368 0 0 0 1.526-1.243 3.39 3.39 0 0 0 .574-1.887 3.343 3.343 0 0 0-.936-2.372 3.316 3.316 0 0 0-2.333-1.014l-.002.007ZM51.542 2.149a5.49 5.49 0 0 0-3.856 1.678 5.536 5.536 0 0 0-1.55 3.923 5.454 5.454 0 0 0 1.513 3.966 5.412 5.412 0 0 0 3.893 1.66 5.391 5.391 0 0 0 3.893-1.66A5.437 5.437 0 0 0 56.95 7.75a5.537 5.537 0 0 0-1.547-3.927 5.49 5.49 0 0 0-3.858-1.681l-.002.007Zm-37.93 1.046a4.22 4.22 0 0 0-2.963 1.287 4.255 4.255 0 0 0-1.195 3.01 4.192 4.192 0 0 0 1.174 3.03 4.157 4.157 0 0 0 2.983 1.267 4.146 4.146 0 0 0 2.983-1.266 4.177 4.177 0 0 0 1.175-3.03 4.255 4.255 0 0 0-1.195-3.011 4.22 4.22 0 0 0-2.963-1.287Z"/></svg>