<svg width="60" height="60" viewBox="0 0 60 60" fill="none" xmlns="http://www.w3.org/2000/svg">
<path d="M0.275632 22.1491V43.273H5.249V22.1491H0.275632ZM21.773 18.4241C26.8722 18.4241 30.1478 22.4987 30.1478 28.8742C30.1478 35.2996 26.8722 39.3742 21.773 39.3742C16.6238 39.3742 13.3722 35.2996 13.3722 28.8742C13.3722 22.4987 16.6218 18.4241 21.773 18.4241ZM48.8728 14.0499C42.6232 14.0499 38.1731 17.4993 38.1731 22.6245C38.1731 26.6991 40.6977 29.2497 45.9987 30.474L49.7237 31.3748C53.3489 32.1997 54.8229 33.4001 54.8229 35.4754C54.8229 37.8762 52.3981 39.5759 48.9487 39.5759C45.4234 39.5759 42.773 37.8502 42.4993 35.2017H37.5C37.6997 40.5027 42.0499 43.7523 48.6491 43.7523C55.6238 43.7523 60 40.3269 60 34.8782C60 30.6039 57.4993 28.1791 51.7011 26.8529L48.3755 26.1019C44.8502 25.251 43.4001 24.1265 43.4001 22.227C43.4001 19.8262 45.5992 18.2264 48.8509 18.2264C52.1265 18.2264 54.3755 19.8522 54.6252 22.5266H59.5246C59.3988 17.4774 55.2244 14.0519 48.8748 14.0519L48.8728 14.0499ZM21.773 14.0499C13.3742 14.0499 8.12317 19.7743 8.12317 28.8742C8.12317 38.0499 13.3722 43.7483 21.773 43.7483C30.1238 43.7483 35.3968 38.0479 35.3968 28.8742C35.3968 19.7743 30.1218 14.0499 21.771 14.0499H21.773ZM2.74834 14C2.73435 14 2.71638 14 2.7004 14C1.20839 14 0 15.2084 0 16.7004C0 18.1924 1.20839 19.4008 2.7004 19.4008C2.71838 19.4008 2.73435 19.4008 2.75233 19.4008C2.7743 19.4008 2.79827 19.4028 2.82423 19.4028C4.31625 19.4028 5.52463 18.1944 5.52463 16.7024C5.52463 15.2104 4.31625 14.002 2.82423 14.002C2.79827 14.002 2.7723 14.002 2.74634 14.004H2.75033L2.74834 14Z" fill="black"/>
</svg>
