<svg width="60" height="60" viewBox="0 0 60 60" fill="none" xmlns="http://www.w3.org/2000/svg">
<path d="M24.494 44.9936L45.1693 33.1932L35.7765 27.7852L15.115 39.6824L24.494 44.9936ZM46.1201 20.8572L36.7173 15.4492V26.1565L46.1221 31.5665L46.1201 20.8572ZM47.059 8.41245L37.6582 13.8205L47.059 19.2285L56.4577 13.8185L47.059 8.41245ZM18.1056 35.7885L23.561 32.6477V9.0588L14.1563 14.4708V38.0596L18.1056 35.7885ZM13.2155 2.02405L3.81469 7.43403L13.2155 12.844L22.6103 7.43403L13.2155 2.02405ZM2.87185 9.06078V45.5332L23.5551 57.4363V46.6223L12.7391 40.5027C12.7035 40.477 12.6758 40.4493 12.6383 40.4256C12.6106 40.3999 12.579 40.3802 12.5513 40.3584L12.5493 40.3525C12.5197 40.3228 12.494 40.2912 12.4722 40.2556L12.4703 40.2537C12.4426 40.228 12.4209 40.1983 12.4011 40.1647L12.3991 40.1627H12.3932C12.3774 40.1331 12.3616 40.0936 12.3457 40.054L12.3438 40.0461C12.3299 40.0165 12.3141 39.9829 12.3003 39.9453L12.2983 39.9394C12.2904 39.8999 12.2825 39.8504 12.2785 39.801V39.7971C12.2726 39.7674 12.2667 39.7318 12.2627 39.6963V39.6943V14.4747L6.81321 11.3319L2.87185 9.06078ZM46.1221 45.5312V34.814L25.4388 46.6223V57.4344L46.1221 45.5312ZM57.3966 26.1565V15.4492L47.9959 20.8592V31.5665L57.3966 26.1565ZM59.2467 13.5754C59.2685 13.6505 59.2823 13.7355 59.2823 13.8244V26.6981C59.2823 27.046 59.0945 27.3484 58.8139 27.5105L58.8099 27.5124L48.0018 33.7368V46.0728C48.0018 46.4187 47.814 46.7211 47.5353 46.8852L47.5314 46.8872L24.9664 59.8735C24.919 59.8992 24.8636 59.9229 24.8063 59.9387L24.8004 59.9407L24.7411 59.9664C24.6699 59.9881 24.5869 60 24.5019 60C24.4169 60 24.3339 59.9881 24.2548 59.9644L24.2607 59.9664C24.2311 59.9585 24.2074 59.9486 24.1837 59.9348L24.1856 59.9368C24.1244 59.915 24.073 59.8952 24.0236 59.8715L24.0315 59.8755L1.47241 46.8891C1.18778 46.7231 1 46.4207 1 46.0748V7.43601C1 7.34904 1.01384 7.26404 1.03756 7.18498L1.03558 7.19091C1.04349 7.16126 1.06127 7.14149 1.07116 7.11184C1.08895 7.05452 1.10871 7.00708 1.13046 6.96162L1.12848 6.96755C1.14429 6.93593 1.16406 6.90825 1.1858 6.88453L1.26882 6.77187L1.36172 6.70466C1.3973 6.67501 1.42892 6.64536 1.4645 6.61967H1.46648L12.749 0.126503C12.8834 0.0474386 13.0455 0 13.2174 0C13.3894 0 13.5515 0.0474386 13.6898 0.12848L13.6859 0.126503L24.9723 6.61967C25.0099 6.64536 25.0415 6.67304 25.0731 6.70268L25.168 6.76989C25.1996 6.80547 25.2174 6.845 25.251 6.88256C25.2747 6.90628 25.2945 6.93395 25.3123 6.9636L25.3143 6.96557C25.334 7.00511 25.3538 7.05255 25.3716 7.10196L25.3736 7.10987L25.4052 7.18893C25.4269 7.25811 25.4408 7.33915 25.4408 7.42217C25.4408 7.42612 25.4408 7.43008 25.4408 7.43403V31.5645L34.8415 26.1545V13.8185C34.8415 13.8165 34.8415 13.8145 34.8415 13.8145C34.8415 13.7295 34.8534 13.6465 34.8751 13.5675L34.8732 13.5734C34.8811 13.5477 34.8989 13.524 34.9048 13.4943C34.9246 13.435 34.9443 13.3876 34.968 13.3401L34.9641 13.348C34.9819 13.3184 35.0096 13.2986 35.0273 13.265C35.057 13.2275 35.0807 13.1899 35.1104 13.1583C35.138 13.1326 35.1677 13.1089 35.1993 13.0891L35.2013 13.0871C35.2369 13.0614 35.2665 13.0298 35.3041 13.0081H35.306L46.5885 6.51293C46.7229 6.43387 46.885 6.38643 47.057 6.38643C47.229 6.38643 47.391 6.43387 47.5294 6.51491L47.5254 6.51293L58.8079 13.0081C58.8475 13.0338 58.8751 13.0614 58.9127 13.0852C58.9423 13.1109 58.9759 13.1306 59.0036 13.1543C59.0352 13.1899 59.059 13.2295 59.0886 13.265C59.1104 13.2888 59.1301 13.3164 59.1479 13.3441L59.1499 13.3461C59.1736 13.3896 59.1934 13.439 59.2092 13.4904L59.2112 13.4963C59.227 13.52 59.2388 13.5457 59.2487 13.5734L59.2467 13.5754Z" fill="black"/>
</svg>
