<svg xmlns="http://www.w3.org/2000/svg" width="71" height="80" fill="none" viewBox="0 0 71 80"><path fill="#fff" d="M51.147 79.447h-6.353a.3.3 0 0 1-.3-.3v-3.375l-.292-.134a9.85 9.85 0 0 1-2.419-1.574l-.284-.249-.677.437-.039.213c-.346 1.907-2.727 3.063-4.664 3.7a31.254 31.254 0 0 1-9.358 1.285c-7 0-14.08-1.875-14.08-5.458V47.178c.002-3.584 7.085-5.459 14.082-5.459 6.997 0 14.08 1.875 14.08 5.46v8.686l.659.423.284-.248a9.851 9.851 0 0 1 2.417-1.574l.292-.134v-3.375a.3.3 0 0 1 .3-.3h6.353a.301.301 0 0 1 .3.3v3.374l.292.133a9.91 9.91 0 0 1 2.417 1.58l.285.25 2.55-1.66a.3.3 0 0 1 .43.114l3.242 6.313a.3.3 0 0 1-.1.39l-2.629 1.706.041.312a12.2 12.2 0 0 1 0 3.168l-.041.313 2.629 1.705a.3.3 0 0 1 .1.39l-3.243 6.314a.3.3 0 0 1-.43.114l-2.549-1.66-.285.25a9.867 9.867 0 0 1-2.417 1.574l-.292.134v3.374a.298.298 0 0 1-.185.28.302.302 0 0 1-.116.022Zm-9.427-8.023.431.456a8.366 8.366 0 0 0 3.388 2.207l.606.2v3.18h3.651V74.29l.611-.2a8.357 8.357 0 0 0 3.384-2.2l.432-.457 2.46 1.586 1.785-3.474-2.435-1.58.155-.738a10.187 10.187 0 0 0 0-4.348l-.156-.743 2.432-1.58-1.781-3.473-2.46 1.6-.431-.456a8.365 8.365 0 0 0-3.39-2.208l-.606-.2v-3.184h-3.651v3.18l-.608.2a8.345 8.345 0 0 0-3.384 2.2l-.433.456-2.459-1.6-1.785 3.474 2.434 1.58-.156.74a10.216 10.216 0 0 0 0 4.347l.157.743-2.434 1.58 1.785 3.484 2.458-1.6v.005ZM14.334 67.82v6.23l.014.06c.256 1.034 2.715 1.9 3.462 2.146a29.22 29.22 0 0 0 8.952 1.212c6.91 0 10.313-1.666 11.191-2.177l.41-.238-2.88-5.623-.384.1c-2.625.654-5.32.985-8.024.986h-.312c-4.793 0-9.161-.849-11.684-2.27l-.745-.426Zm0-8.949v6.241l.014.06c.256 1.034 2.715 1.904 3.462 2.146a29.2 29.2 0 0 0 8.941 1.212 24.887 24.887 0 0 0 10.877-1.999l.332-.14-.03-.36-.019-.223v-.01c-.023-.262-.045-.509-.045-.746 0-.53.033-1.06.1-1.586l.04-.312L35.15 61.3l.405-.789-1.04.232c-2.462.55-4.977.828-7.5.83h-.26c-4.8 0-9.167-.853-11.683-2.279l-.738-.424Zm0-8.929v6.233l.014.06c.256 1.034 2.715 1.9 3.462 2.146 2.9.866 5.92 1.275 8.946 1.212a28.005 28.005 0 0 0 9.927-1.573l.188-.066 1.8-3.5.522.345v-4.853l-.733.413a1.014 1.014 0 0 0-.07.034c-.318.176-.645.335-.979.477l-.148.06-.019.006c-.044.017-.087.033-.125.05-.286.116-.561.218-.842.312-.143.048-.288.092-.425.134-.281.087-.572.17-.865.247l-.027.007-.026.007c-.126.034-.245.065-.369.094-.372.09-.754.172-1.137.246l-.223.046c-.456.083-.932.16-1.413.225l-.422.05a33.501 33.501 0 0 1-1.572.16c-.4.03-.736.051-1.061.067l-.468.023c-.543.021-1.033.031-1.5.031-.467 0-.958-.01-1.5-.03l-.469-.024a43.149 43.149 0 0 1-1.568-.112c-.329-.029-.68-.067-1.071-.116l-.42-.049c-.473-.064-.948-.14-1.412-.224l-.217-.046h-.013c-.38-.073-.763-.156-1.139-.247-.132-.03-.264-.066-.391-.1l-.031-.008c-.29-.075-.581-.158-.865-.247-.117-.036-.27-.083-.42-.132-.267-.09-.541-.192-.839-.31-.049-.022-.1-.04-.149-.059-.049-.018-.1-.04-.149-.06a11.09 11.09 0 0 1-.976-.474.645.645 0 0 0-.072-.036l-.734-.419Zm12.429-6.243a29.3 29.3 0 0 0-8.922 1.2c-1.976.637-3.282 1.432-3.494 2.125l-.042.138.038.14c.232.85 2 1.6 2.75 1.881 2.22.78 4.54 1.24 6.89 1.364a38.907 38.907 0 0 0 4.188.076h.012l.171-.01h.014c.068-.006.133-.01.19-.01h.022c.285-.013.619-.027.931-.049.114-.009.222-.019.329-.03h.042l.168-.015.228-.02h.056c.14-.012.285-.024.427-.039.092-.01.18-.022.268-.033l.277-.036.094-.012.075-.009c.149-.018.3-.037.442-.057.142-.02.277-.044.432-.07l.112-.02.2-.032h.023l.307-.053c.144-.026.277-.055.378-.076l.061-.013.1-.02.139-.029h.024c.1-.02.2-.039.29-.06.15-.035.287-.07.438-.11l.076-.02.067-.017.057-.014a11.967 11.967 0 0 0 .657-.185l.033-.01.053-.016.109-.03.056-.018.152-.047c.134-.04.256-.083.37-.123l.17-.06a5.254 5.254 0 0 0 .438-.167l.05-.02.113-.047.083-.033c.051-.02.1-.04.149-.062.1-.042.18-.082.261-.12l.093-.045.183-.087c.118-.054.215-.11.308-.164l.038-.02.019-.01.028-.017.086-.049c.071-.043.127-.082.176-.117l.055-.039.037-.023.028-.018c.029-.019.058-.038.088-.06.063-.046.125-.1.166-.134l.018-.016.006-.005a.171.171 0 0 1 .02-.015l.019-.047c.022-.018.049-.04.082-.07.05-.05.098-.101.142-.156l.008-.009.012-.01c.018-.019.047-.05.076-.089l.016-.023c.03-.045.057-.093.08-.143.021-.04.04-.081.056-.124l.06-.164-.054-.166c-.33-1.009-2.931-2.182-6.185-2.79l-.12-.019-.273-.044-.05-.008-.611-.1c-.065-.01-.134-.019-.2-.027h-.02a4.175 4.175 0 0 1-.166-.02l-.162-.023a20.99 20.99 0 0 0-.608-.076l-.32-.03h-.049l-.114-.012-.108-.009-.207-.02h-.043c-.131-.012-.267-.025-.409-.035-.2-.014-.405-.025-.606-.034l-.111-.005-.14-.006-.159-.01a35.488 35.488 0 0 0-1.737-.044Z"/><path fill="#fff" d="M47.968 70.508c-.311.001-.621-.032-.925-.1a4.625 4.625 0 0 1-2.45-1.475 5.7 5.7 0 0 1-1.331-2.808 6.137 6.137 0 0 1 .279-3.182 5.35 5.35 0 0 1 1.784-2.45 4.385 4.385 0 0 1 2.643-.9 4.5 4.5 0 0 1 3.378 1.577 5.892 5.892 0 0 1 1.422 3.881 5.979 5.979 0 0 1-.824 3.055 4.967 4.967 0 0 1-2.161 2 4.277 4.277 0 0 1-1.815.402Zm0-8.937c-.21 0-.42.023-.625.07a3.071 3.071 0 0 0-1.623.97 3.6 3.6 0 0 0-.842 1.771 3.81 3.81 0 0 0 .175 1.981 3.41 3.41 0 0 0 1.144 1.564c.51.388 1.132.6 1.773.6a3.03 3.03 0 0 0 2.249-1.035c.589-.675.91-1.543.9-2.439a3.735 3.735 0 0 0-.517-1.91 3.232 3.232 0 0 0-1.408-1.3 2.88 2.88 0 0 0-1.226-.272ZM69.5 29.07H55.595a.5.5 0 0 1-.5-.5V1.78a1.5 1.5 0 0 1 1.5-1.5H68.5a1.5 1.5 0 0 1 1.5 1.5v26.79a.5.5 0 0 1-.5.5Zm-12.754-5.959v3.98h11.6v-3.98h-11.6Zm1.5-20.853a1.5 1.5 0 0 0-1.5 1.5v17.375h11.6V3.758a1.5 1.5 0 0 0-1.5-1.5h-8.6Z"/><path fill="#fff" d="M62.724 26.08a1.069 1.069 0 0 0-.173-.258 1.1 1.1 0 0 1-.262-.718c0-.262.09-.517.254-.723.046-.042.086-.082.135-.122a.501.501 0 0 1 .111-.062l.038-.014.033-.019a.27.27 0 0 1 .085-.032h.013a.692.692 0 0 1 .155-.02c.077 0 .153.013.225.037a.826.826 0 0 1 .342.225c.167.207.259.465.26.73a1.1 1.1 0 0 1-.258.714c-.3.148-.625.237-.958.262ZM36.902 43.4h-1.651v-5.964H12.495V28.5h1.651v6.958H61.76V28.5h1.652v8.937h-26.51V43.4Z"/><path fill="#fff" d="M21.208 29.07H6.3v-1.979h2.653v-3.98H1.5a.5.5 0 0 1-.5-.5V1.28a1 1 0 0 1 1-1h23.51a1 1 0 0 1 1 1v21.333a.5.5 0 0 1-.5.5h-7.454v3.98h2.651v1.977l.001.001ZM10.6 23.111v3.98h6.3v-3.98h-6.3Zm-6.949-5.958a1 1 0 0 0-1 1v1.98a1 1 0 0 0 1 1h20.207a1 1 0 0 0 1-1v-1.98a1 1 0 0 0-1-1H3.651Zm.5-14.895a1.5 1.5 0 0 0-1.5 1.5v9.921a1.5 1.5 0 0 0 1.5 1.5h19.208a1.5 1.5 0 0 0 1.5-1.5V3.76a1.5 1.5 0 0 0-1.5-1.5H4.151Z"/><path stroke="#F3F3F3" stroke-width=".5" d="M51.147 79.447h-6.353a.3.3 0 0 1-.3-.3v-3.375l-.292-.134a9.85 9.85 0 0 1-2.419-1.574l-.284-.249-.677.437-.039.213c-.346 1.907-2.727 3.063-4.664 3.7a31.254 31.254 0 0 1-9.358 1.285c-7 0-14.08-1.875-14.08-5.458V47.178c.002-3.584 7.085-5.459 14.082-5.459 6.997 0 14.08 1.875 14.08 5.46v8.686l.659.423.284-.248a9.851 9.851 0 0 1 2.417-1.574l.292-.134v-3.375a.3.3 0 0 1 .3-.3h6.353a.301.301 0 0 1 .3.3v3.374l.292.133a9.91 9.91 0 0 1 2.417 1.58l.285.25 2.55-1.66a.3.3 0 0 1 .43.114l3.242 6.313a.3.3 0 0 1-.1.39l-2.629 1.706.041.312a12.2 12.2 0 0 1 0 3.168l-.041.313 2.629 1.705a.3.3 0 0 1 .1.39l-3.243 6.314a.3.3 0 0 1-.43.114l-2.549-1.66-.285.25a9.867 9.867 0 0 1-2.417 1.574l-.292.134v3.374a.298.298 0 0 1-.185.28.302.302 0 0 1-.116.022Zm-9.427-8.023.431.456a8.366 8.366 0 0 0 3.388 2.207l.606.2v3.18h3.651V74.29l.611-.2a8.357 8.357 0 0 0 3.384-2.2l.432-.457 2.46 1.586 1.785-3.474-2.435-1.58.155-.738a10.187 10.187 0 0 0 0-4.348l-.156-.743 2.432-1.58-1.781-3.473-2.46 1.6-.431-.456a8.365 8.365 0 0 0-3.39-2.208l-.606-.2v-3.184h-3.651v3.18l-.608.2a8.345 8.345 0 0 0-3.384 2.2l-.433.456-2.459-1.6-1.785 3.474 2.434 1.58-.156.74a10.216 10.216 0 0 0 0 4.347l.157.743-2.434 1.58 1.785 3.484 2.458-1.6v.005ZM14.334 67.82v6.23l.014.06c.256 1.034 2.715 1.9 3.462 2.146a29.22 29.22 0 0 0 8.952 1.212c6.91 0 10.313-1.666 11.191-2.177l.41-.238-2.88-5.623-.384.1c-2.625.654-5.32.985-8.024.986h-.312c-4.793 0-9.161-.849-11.684-2.27l-.745-.426Zm0-8.949v6.241l.014.06c.256 1.034 2.715 1.904 3.462 2.146a29.2 29.2 0 0 0 8.941 1.212 24.887 24.887 0 0 0 10.877-1.999l.332-.14-.03-.36-.019-.223v-.01c-.023-.262-.045-.509-.045-.746 0-.53.033-1.06.1-1.586l.04-.312L35.15 61.3l.405-.789-1.04.232c-2.462.55-4.977.828-7.5.83h-.26c-4.8 0-9.167-.853-11.683-2.279l-.738-.424Zm0-8.929v6.233l.014.06c.256 1.034 2.715 1.9 3.462 2.146 2.9.866 5.92 1.275 8.946 1.212a28.005 28.005 0 0 0 9.927-1.573l.188-.066 1.8-3.5.522.345v-4.853l-.733.413a1.014 1.014 0 0 0-.07.034c-.318.176-.645.335-.979.477l-.148.06-.019.006c-.044.017-.087.033-.125.05-.286.116-.561.218-.842.312-.143.048-.288.092-.425.134-.281.087-.572.17-.865.247l-.027.007-.026.007c-.126.034-.245.065-.369.094-.372.09-.754.172-1.137.246l-.223.046c-.456.083-.932.16-1.413.225l-.422.05a33.501 33.501 0 0 1-1.572.16c-.4.03-.736.051-1.061.067l-.468.023c-.543.021-1.033.031-1.5.031-.467 0-.958-.01-1.5-.03l-.469-.024a43.149 43.149 0 0 1-1.568-.112c-.329-.029-.68-.067-1.071-.116l-.42-.049c-.473-.064-.948-.14-1.412-.224l-.217-.046h-.013c-.38-.073-.763-.156-1.139-.247-.132-.03-.264-.066-.391-.1l-.031-.008c-.29-.075-.581-.158-.865-.247-.117-.036-.27-.083-.42-.132-.267-.09-.541-.192-.839-.31-.049-.022-.1-.04-.149-.059-.049-.018-.1-.04-.149-.06a11.09 11.09 0 0 1-.976-.474.645.645 0 0 0-.072-.036l-.734-.419Zm12.429-6.243a29.3 29.3 0 0 0-8.922 1.2c-1.976.637-3.282 1.432-3.494 2.125l-.042.138.038.14c.232.85 2 1.6 2.75 1.881 2.22.78 4.54 1.24 6.89 1.364a38.907 38.907 0 0 0 4.188.076h.012l.171-.01h.014c.068-.006.133-.01.19-.01h.022c.285-.013.619-.027.931-.049.114-.009.222-.019.329-.03h.042l.168-.015.228-.02h.056c.14-.012.285-.024.427-.039.092-.01.18-.022.268-.033l.277-.036.094-.012.075-.009c.149-.018.3-.037.442-.057.142-.02.277-.044.432-.07l.112-.02.2-.032h.023l.307-.053c.144-.026.277-.055.378-.076l.061-.013.1-.02.139-.029h.024c.1-.02.2-.039.29-.06.15-.035.287-.07.438-.11l.076-.02.067-.017.057-.014a11.967 11.967 0 0 0 .657-.185l.033-.01.053-.016.109-.03.056-.018.152-.047c.134-.04.256-.083.37-.123l.17-.06a5.254 5.254 0 0 0 .438-.167l.05-.02.113-.047.083-.033c.051-.02.1-.04.149-.062.1-.042.18-.082.261-.12l.093-.045.183-.087c.118-.054.215-.11.308-.164l.038-.02.019-.01.028-.017.086-.049c.071-.043.127-.082.176-.117l.055-.039.037-.023.028-.018c.029-.019.058-.038.088-.06.063-.046.125-.1.166-.134l.018-.016.006-.005a.171.171 0 0 1 .02-.015l.019-.047c.022-.018.049-.04.082-.07.05-.05.098-.101.142-.156l.008-.009.012-.01c.018-.019.047-.05.076-.089l.016-.023c.03-.045.057-.093.08-.143.021-.04.04-.081.056-.124l.06-.164-.054-.166c-.33-1.009-2.931-2.182-6.185-2.79l-.12-.019-.273-.044-.05-.008-.611-.1c-.065-.01-.134-.019-.2-.027h-.02a4.175 4.175 0 0 1-.166-.02l-.162-.023a20.99 20.99 0 0 0-.608-.076l-.32-.03h-.049l-.114-.012-.108-.009-.207-.02h-.043c-.131-.012-.267-.025-.409-.035-.2-.014-.405-.025-.606-.034l-.111-.005-.14-.006-.159-.01a35.488 35.488 0 0 0-1.737-.044Z"/><path stroke="#F3F3F3" stroke-width=".5" d="M47.968 70.508c-.311.001-.621-.032-.925-.1a4.625 4.625 0 0 1-2.45-1.475 5.7 5.7 0 0 1-1.331-2.808 6.137 6.137 0 0 1 .279-3.182 5.35 5.35 0 0 1 1.784-2.45 4.385 4.385 0 0 1 2.643-.9 4.5 4.5 0 0 1 3.378 1.577 5.892 5.892 0 0 1 1.422 3.881 5.979 5.979 0 0 1-.824 3.055 4.967 4.967 0 0 1-2.161 2 4.277 4.277 0 0 1-1.815.402Zm0-8.937c-.21 0-.42.023-.625.07a3.071 3.071 0 0 0-1.623.97 3.6 3.6 0 0 0-.842 1.771 3.81 3.81 0 0 0 .175 1.981 3.41 3.41 0 0 0 1.144 1.564c.51.388 1.132.6 1.773.6a3.03 3.03 0 0 0 2.249-1.035c.589-.675.91-1.543.9-2.439a3.735 3.735 0 0 0-.517-1.91 3.232 3.232 0 0 0-1.408-1.3 2.88 2.88 0 0 0-1.226-.272ZM69.5 29.07H55.595a.5.5 0 0 1-.5-.5V1.78a1.5 1.5 0 0 1 1.5-1.5H68.5a1.5 1.5 0 0 1 1.5 1.5v26.79a.5.5 0 0 1-.5.5Zm-12.754-5.959v3.98h11.6v-3.98h-11.6Zm1.5-20.853a1.5 1.5 0 0 0-1.5 1.5v17.375h11.6V3.758a1.5 1.5 0 0 0-1.5-1.5h-8.6Z"/><path stroke="#F3F3F3" stroke-width=".5" d="M62.724 26.08a1.069 1.069 0 0 0-.173-.258 1.1 1.1 0 0 1-.262-.718c0-.262.09-.517.254-.723.046-.042.086-.082.135-.122a.501.501 0 0 1 .111-.062l.038-.014.033-.019a.27.27 0 0 1 .085-.032h.013a.692.692 0 0 1 .155-.02c.077 0 .153.013.225.037a.826.826 0 0 1 .342.225c.167.207.259.465.26.73a1.1 1.1 0 0 1-.258.714c-.3.148-.625.237-.958.262ZM36.902 43.4h-1.651v-5.964H12.495V28.5h1.651v6.958H61.76V28.5h1.652v8.937h-26.51V43.4Z"/><path stroke="#F3F3F3" stroke-width=".5" d="M21.208 29.07H6.3v-1.979h2.653v-3.98H1.5a.5.5 0 0 1-.5-.5V1.28a1 1 0 0 1 1-1h23.51a1 1 0 0 1 1 1v21.333a.5.5 0 0 1-.5.5h-7.454v3.98h2.651v1.977l.001.001ZM10.6 23.111v3.98h6.3v-3.98h-6.3Zm-6.949-5.958a1 1 0 0 0-1 1v1.98a1 1 0 0 0 1 1h20.207a1 1 0 0 0 1-1v-1.98a1 1 0 0 0-1-1H3.651Zm.5-14.895a1.5 1.5 0 0 0-1.5 1.5v9.921a1.5 1.5 0 0 0 1.5 1.5h19.208a1.5 1.5 0 0 0 1.5-1.5V3.76a1.5 1.5 0 0 0-1.5-1.5H4.151Z"/></svg>