<svg xmlns="http://www.w3.org/2000/svg" width="69" height="70" fill="none" viewBox="0 0 69 70"><rect width="38" height="67" x="1" y="1.279" stroke="#fff" stroke-width="2" rx="5"/><path fill="#fff" stroke="#fff" stroke-width=".2" d="M11.367 24.293a5.678 5.678 0 0 1-5.672-5.672 5.678 5.678 0 0 1 5.672-5.672 5.678 5.678 0 0 1 5.672 5.672 5.678 5.678 0 0 1-5.672 5.672Zm0-9.815a4.147 4.147 0 0 0-4.142 4.143 4.147 4.147 0 0 0 4.142 4.142 4.147 4.147 0 0 0 4.142-4.142 4.147 4.147 0 0 0-4.142-4.143Z"/><path fill="#fff" stroke="#fff" stroke-width=".2" d="M10.653 20.51a.762.762 0 0 1-.54-.224l-.827-.826a.764.764 0 1 1 1.082-1.081l.285.285 1.707-1.708a.765.765 0 0 1 1.082 1.082l-2.248 2.248a.762.762 0 0 1-.541.224ZM10.653 34.53a.762.762 0 0 1-.54-.223l-.827-.826a.764.764 0 1 1 1.082-1.081l.285.285 1.707-1.707a.765.765 0 0 1 1.082 1.081l-2.248 2.248a.763.763 0 0 1-.541.224ZM10.653 48.55a.762.762 0 0 1-.54-.223l-.827-.826a.764.764 0 1 1 1.082-1.081l.285.285 1.707-1.708a.765.765 0 0 1 1.082 1.082l-2.248 2.248a.763.763 0 0 1-.541.224Z"/><path fill="#fff" stroke="#fff" stroke-width=".2" d="M11.367 38.312a5.678 5.678 0 0 1-5.672-5.672 5.678 5.678 0 0 1 5.672-5.671 5.678 5.678 0 0 1 5.672 5.671 5.678 5.678 0 0 1-5.672 5.672Zm0-9.814a4.147 4.147 0 0 0-4.142 4.142 4.147 4.147 0 0 0 4.142 4.143 4.147 4.147 0 0 0 4.142-4.143 4.147 4.147 0 0 0-4.142-4.142ZM11.367 52.334a5.678 5.678 0 0 1-5.672-5.672 5.678 5.678 0 0 1 5.672-5.672 5.678 5.678 0 0 1 5.672 5.672 5.678 5.678 0 0 1-5.672 5.672Zm0-9.815a4.147 4.147 0 0 0-4.142 4.143 4.147 4.147 0 0 0 4.142 4.142 4.147 4.147 0 0 0 4.142-4.142 4.147 4.147 0 0 0-4.142-4.142ZM33.724 17.514h-14.49a.765.765 0 0 1 0-1.53h14.49a.765.765 0 1 1 0 1.53ZM33.724 21.258h-14.49a.765.765 0 0 1 0-1.53h14.49a.765.765 0 1 1 0 1.53ZM33.724 31.533h-14.49a.765.765 0 0 1 0-1.53h14.49a.765.765 0 1 1 0 1.53ZM33.724 35.277h-14.49a.765.765 0 1 1 0-1.529h14.49a.765.765 0 1 1 0 1.53ZM33.724 45.555h-14.49a.765.765 0 1 1 0-1.53h14.49a.765.765 0 1 1 0 1.53ZM33.724 49.299h-14.49a.765.765 0 1 1 0-1.53h14.49a.765.765 0 1 1 0 1.53Z"/><path fill="#fff" stroke="#fff" stroke-width=".4" d="M55.767 36.153c-5.459 0-9.9-4.414-9.9-9.84 0-5.424 4.441-9.838 9.9-9.838 5.46 0 9.9 4.413 9.9 9.839 0 5.425-4.44 9.84-9.9 9.84Zm0-18.303c-4.696 0-8.516 3.797-8.516 8.464s3.82 8.464 8.516 8.464c4.697 0 8.517-3.797 8.517-8.464s-3.82-8.464-8.517-8.464Z"/><path fill="#fff" stroke="#fff" stroke-width=".4" d="M55.77 36.153a.69.69 0 0 1-.692-.688v-2.273c0-.38.31-.688.692-.688a.69.69 0 0 1 .692.688v2.273a.69.69 0 0 1-.692.688ZM60.376 34.926a.692.692 0 0 1-.6-.343l-1.144-1.97a.685.685 0 0 1 .253-.938.694.694 0 0 1 .945.251l1.144 1.969a.685.685 0 0 1-.598 1.031ZM63.742 31.577a.693.693 0 0 1-.345-.093l-1.98-1.136a.685.685 0 0 1-.254-.94.694.694 0 0 1 .945-.251l1.981 1.137c.331.19.445.61.253.939a.692.692 0 0 1-.6.344ZM64.98 27.002h-2.288a.69.69 0 0 1-.692-.687c0-.38.31-.688.692-.688h2.287a.69.69 0 0 1 .692.688.69.69 0 0 1-.692.687ZM61.763 23.563a.692.692 0 0 1-.6-.344.685.685 0 0 1 .253-.94l1.981-1.136a.694.694 0 0 1 .945.252.685.685 0 0 1-.253.94l-1.98 1.136a.693.693 0 0 1-.346.092ZM59.23 21.044a.685.685 0 0 1-.599-1.032l1.145-1.969a.694.694 0 0 1 .945-.251c.33.19.444.61.253.939L59.83 20.7a.692.692 0 0 1-.6.344ZM55.77 20.123a.69.69 0 0 1-.692-.688v-2.273c0-.38.31-.687.692-.687a.69.69 0 0 1 .692.687v2.274a.69.69 0 0 1-.692.687ZM52.305 21.044a.692.692 0 0 1-.6-.344l-1.143-1.97a.685.685 0 0 1 .253-.938.694.694 0 0 1 .945.251l1.144 1.969a.685.685 0 0 1-.599 1.032ZM49.774 23.563a.692.692 0 0 1-.346-.092l-1.98-1.137a.685.685 0 0 1-.254-.94.694.694 0 0 1 .946-.25l1.98 1.136c.331.19.445.61.254.939a.692.692 0 0 1-.6.344ZM48.846 27.002H46.56a.69.69 0 0 1-.692-.687c0-.38.31-.688.692-.688h2.288a.69.69 0 0 1 .691.688.69.69 0 0 1-.691.687ZM47.794 31.577a.692.692 0 0 1-.6-.344.685.685 0 0 1 .254-.94l1.98-1.136a.694.694 0 0 1 .946.251.685.685 0 0 1-.254.94l-1.98 1.137a.692.692 0 0 1-.346.092ZM51.16 34.926a.685.685 0 0 1-.599-1.032l1.144-1.968a.694.694 0 0 1 .946-.251c.33.19.444.61.253.939l-1.144 1.969a.692.692 0 0 1-.6.343ZM55.764 28.386a2.08 2.08 0 0 1-2.084-2.072 2.08 2.08 0 0 1 2.084-2.072c1.15 0 2.085.93 2.085 2.072a2.08 2.08 0 0 1-2.085 2.072Zm0-2.877a.808.808 0 0 0-.81.805c0 .444.364.805.81.805.447 0 .81-.361.81-.805a.808.808 0 0 0-.81-.805Z"/><path fill="#fff" stroke="#fff" stroke-width=".4" d="M55.77 25.509a.635.635 0 0 1-.637-.634v-3.302c0-.35.285-.634.637-.634.352 0 .638.284.638.634v3.302c0 .35-.286.634-.638.634ZM53.551 30.764a.636.636 0 0 1-.551-.95l1.493-2.571a.64.64 0 0 1 .87-.232c.306.175.41.562.234.865l-1.493 2.571a.638.638 0 0 1-.553.317Z"/><path fill="#fff" stroke="#fff" stroke-width=".4" d="M42.974 40.049a.632.632 0 0 1-.604-.838l2.187-6.372a12.823 12.823 0 0 1-1.78-6.525c0-7.12 5.828-12.912 12.992-12.912 7.163 0 12.991 5.792 12.991 12.912 0 7.119-5.828 12.911-12.992 12.911-2.627 0-5.143-.77-7.3-2.231l-5.176 2.97a.636.636 0 0 1-.318.085Zm12.795-25.38c-6.46 0-11.717 5.224-11.717 11.645 0 2.167.604 4.282 1.746 6.117a.63.63 0 0 1 .061.538l-1.734 5.054 4.058-2.329a.64.64 0 0 1 .694.037 11.676 11.676 0 0 0 6.892 2.227c6.46 0 11.717-5.224 11.717-11.644 0-6.421-5.257-11.645-11.717-11.645Z"/></svg>