<svg xmlns="http://www.w3.org/2000/svg" width="70" height="71" fill="none" viewBox="0 0 70 71"><path fill="#fff" d="M57.45 37.246a6.542 6.542 0 0 0-1.993-.219l-1.546-5.78a3.935 3.935 0 0 0-3.852-2.915v-4.36c0-1.228-.497-2.291-1.439-3.077l-4.528-3.777V2.347c0-1.14-.926-2.068-2.065-2.068H14.49c-.835 0-1.584.316-2.168.913L6.832 6.814a2.98 2.98 0 0 0-.865 2.123v8.182l-4.528 3.777A3.893 3.893 0 0 0 0 23.972v22.33a4.006 4.006 0 0 0 4 4.004h15.737a6.22 6.22 0 0 0 .068 2.945 6.203 6.203 0 0 0 2.91 3.789 6.217 6.217 0 0 0 3.118.843c.46 0 .922-.055 1.379-.159.308.521.746.957 1.285 1.269a3.55 3.55 0 0 0 2.465.414l2.455 9.173c.158.59.536 1.085 1.067 1.39a2.274 2.274 0 0 0 1.736.23l2.39-.64A2.273 2.273 0 0 0 40 68.49a2.28 2.28 0 0 0 .229-1.738l-2.453-9.165.108-.029 15.265.682c.34.58.825 1.065 1.424 1.412a3.911 3.911 0 0 0 5.361-1.438 3.91 3.91 0 0 0 .396-2.983l-1.549-5.785a6.615 6.615 0 0 0 3.32-4.134 6.552 6.552 0 0 0-.657-4.998 6.542 6.542 0 0 0-3.995-3.07ZM35.025 41.98l11.632-7.436 5.745 21.463-13.788-.616-3.59-13.41Zm12.837-17.43v4.494a3.951 3.951 0 0 0-1.674 3.191l-7.156 4.575-4.137-4.49 12.967-7.77Zm-.794-2.086-2.977 1.784V19.98l2.977 2.484Zm-5.174 3.1-15.94 9.551a1.732 1.732 0 0 1-1.852 0l-15.94-9.552V9.098h4.479a2.137 2.137 0 0 0 2.132-2.135V2.477h27.121v23.086ZM2.2 46.387c-.001-.029-.004-.057-.004-.087v-21.75L15.16 32.32 2.2 46.388ZM12.58 4.075v2.824h-2.76l2.76-2.824ZM5.966 24.247 2.99 22.464l2.977-2.484v4.267Zm14.72 23.86H3.998c-.123 0-.244-.013-.361-.037l13.45-14.597 5.889 3.529a3.986 3.986 0 0 0 2.053.577c.706 0 1.41-.192 2.054-.577l5.888-3.529 4.182 4.539-3.843 2.456-6.68 1.792a3.576 3.576 0 0 0-2.643 3.405 6.216 6.216 0 0 0-3.301 2.442Zm1.238 4.575a4.055 4.055 0 0 1 2.503-4.845l2.085 7.789a4.05 4.05 0 0 1-4.588-2.944Zm7.03 3.576-2.695-10.07-.032-.122a1.366 1.366 0 0 1 .138-1.04c.184-.32.48-.547.831-.642l5.784-1.551 3.438 12.843-.27.072h-.001l-5.514 1.48a1.371 1.371 0 0 1-1.679-.97Zm9.153 11.064a.089.089 0 0 1-.01.07.09.09 0 0 1-.055.043l-2.392.642a.089.089 0 0 1-.07-.01.089.089 0 0 1-.043-.056l-2.452-9.164 2.57-.69 2.452 9.165Zm19.925-10.207a1.72 1.72 0 0 1-2.361.634 1.72 1.72 0 0 1-.809-1.05l-6.42-23.985a1.736 1.736 0 0 1 1.226-2.124 1.733 1.733 0 0 1 2.12 1.226l6.419 23.985c.12.444.057.91-.175 1.314Zm1.947-12.372a4.405 4.405 0 0 1-1.788 2.502l-2.145-8.015c.28.02.558.065.834.14a4.353 4.353 0 0 1 2.66 2.044 4.363 4.363 0 0 1 .439 3.33Zm5.139-4.788 3.5-.938a1.099 1.099 0 0 1 .568 2.124l-3.5.938a1.099 1.099 0 0 1-.568-2.124Zm1.12-5.066-2.563 2.565a1.097 1.097 0 0 1-1.553 0 1.1 1.1 0 0 1 0-1.555l2.561-2.565a1.1 1.1 0 0 1 1.554 1.555Zm3.724 12.365a1.099 1.099 0 0 1-1.344.777l-3.5-.938a1.1 1.1 0 0 1 .568-2.124l3.5.939a1.1 1.1 0 0 1 .776 1.346ZM17.182 6.6c0-.607.492-1.099 1.098-1.099h20.36a1.099 1.099 0 0 1 0 2.198H18.28A1.099 1.099 0 0 1 17.183 6.6ZM39.739 22.51c0 .607-.492 1.099-1.098 1.099H11.418a1.099 1.099 0 0 1 0-2.198h27.221c.607-.001 1.099.49 1.099 1.099Zm0-5.304c0 .607-.492 1.1-1.098 1.1H11.418a1.099 1.099 0 0 1 0-2.199h27.221c.607 0 1.099.492 1.099 1.1ZM35.62 27.811c0 .607-.491 1.1-1.098 1.1H15.536a1.099 1.099 0 0 1 0-2.199h18.986c.607 0 1.098.492 1.098 1.1Zm4.118-15.908c0 .607-.492 1.099-1.098 1.099H11.418a1.099 1.099 0 0 1 0-2.198h27.221c.607 0 1.099.492 1.099 1.099Z"/></svg>