<svg xmlns="http://www.w3.org/2000/svg" width="69" height="71" fill="none" viewBox="0 0 69 71"><path fill="#fff" fill-rule="evenodd" d="M25.807.28c.286-.01.563.087.776.271l12.22 11.159a1.088 1.088 0 0 1 .327.811v12.04h26.992a2.65 2.65 0 0 1 1.861.76c.493.485.768 1.143.768 1.828v40.542c0 .684-.275 1.342-.768 1.828a2.65 2.65 0 0 1-1.86.76H31.64a2.65 2.65 0 0 1-1.86-.76 2.569 2.569 0 0 1-.768-1.828V50.196H4.905a4.944 4.944 0 0 1-3.473-1.419A4.801 4.801 0 0 1-.002 45.36V5.117c0-1.28.516-2.51 1.435-3.418A4.944 4.944 0 0 1 4.906.28h20.901ZM4.906 2.385c-.711 0-1.394.279-1.899.776a2.642 2.642 0 0 0-.789 1.881V45.36c0 .707.285 1.383.79 1.881a2.703 2.703 0 0 0 1.898.776h29.317c.71 0 1.394-.278 1.898-.776.505-.498.79-1.174.79-1.88V14.074h-9.144c-.9 0-1.763-.353-2.398-.98a3.313 3.313 0 0 1-.99-2.358V2.385H4.905Zm30.823 9.586-9.13-8.384v7.225c0 .31.124.605.344.821.22.217.516.338.824.338h7.962ZM13.943 24.319c.292-.01.576.093.79.286l.005.004a1.093 1.093 0 0 1 .372.777 1.072 1.072 0 0 1-.317.8L9.881 31.27l4.885 5.056a1.075 1.075 0 0 1-.168 1.397 1.12 1.12 0 0 1-1.442.062l-5.598-5.822a1.078 1.078 0 0 1 0-1.462l5.617-5.842c.2-.208.475-.331.768-.341Zm11.309.13c.26-.009.516.074.72.231l5.599 5.822a1.079 1.079 0 0 1 0 1.461l-5.638 5.79-.018.025a1.102 1.102 0 0 1-.794.46 1.128 1.128 0 0 1-.874-.289 1.091 1.091 0 0 1-.352-.831 1.074 1.074 0 0 1 .407-.807l.02-.017 4.925-5.098-4.884-5.057a1.074 1.074 0 0 1 .167-1.396 1.12 1.12 0 0 1 .722-.294Zm41.28 2.29H39.13v5.615h27.401V26.74Zm0 7.795H39.13v5.09h20.536c.297 0 .58.115.787.32.208.205.323.482.323.769v8.393c0 .287-.115.564-.323.769a1.12 1.12 0 0 1-.787.32H38.09a1.127 1.127 0 0 1-.537-.127 1.103 1.103 0 0 1-.408-.365l-.209-.313-.33.183a4.964 4.964 0 0 1-2.385.623h-2.99V68.1h35.3V34.534Zm-7.975 7.269H39.13v6.212l19.426.078v-6.29ZM37.233 54.857a1.12 1.12 0 0 1 .786-.321h20.963c.296 0 .58.116.787.321a1.08 1.08 0 0 1 0 1.537 1.12 1.12 0 0 1-.787.322H38.02a1.12 1.12 0 0 1-.786-.322 1.08 1.08 0 0 1 0-1.537Zm0 6.52a1.12 1.12 0 0 1 .786-.321h20.963c.296 0 .58.116.787.32a1.08 1.08 0 0 1 0 1.538 1.12 1.12 0 0 1-.787.321H38.02a1.12 1.12 0 0 1-.786-.321 1.08 1.08 0 0 1 0-1.537Z" clip-rule="evenodd"/><path stroke="#fff" stroke-linecap="round" stroke-width="2.2" d="M20.453 23.186 17.181 37.91"/></svg>