<svg xmlns="http://www.w3.org/2000/svg" width="70" height="72" fill="none" viewBox="0 0 70 72"><path fill="#EAEAEA" d="M35 .28a34.711 34.711 0 0 0-19.445 5.967A35.325 35.325 0 0 0 2.665 22.14 35.799 35.799 0 0 0 .672 42.6a35.542 35.542 0 0 0 9.578 18.13 34.875 34.875 0 0 0 17.92 9.692 34.622 34.622 0 0 0 20.223-2.015A35.091 35.091 0 0 0 64.1 55.365 35.709 35.709 0 0 0 70 35.69c0-9.392-3.688-18.399-10.251-25.04C53.185 4.011 44.283.28 35 .28Zm0 68.61a32.542 32.542 0 0 1-18.23-5.595 33.118 33.118 0 0 1-12.085-14.9 33.562 33.562 0 0 1-1.867-19.18 33.32 33.32 0 0 1 8.98-16.999 32.696 32.696 0 0 1 16.8-9.086 32.458 32.458 0 0 1 18.959 1.89 32.899 32.899 0 0 1 14.726 12.227 33.477 33.477 0 0 1 5.53 18.444c0 8.805-3.457 17.249-9.611 23.475-6.154 6.226-14.5 9.724-23.202 9.724Z"/><path fill="#EAEAEA" d="M60.155 31.265a4.342 4.342 0 0 0-2.67.932c-.765.6-1.31 1.44-1.552 2.388h-2.34V17.986c0-.294-.116-.575-.321-.783a1.088 1.088 0 0 0-.773-.324H36.092v-2.368a4.376 4.376 0 0 0 2.528-1.801 4.467 4.467 0 0 0-.73-5.806A4.346 4.346 0 0 0 35 5.799a4.346 4.346 0 0 0-2.893 1.105 4.468 4.468 0 0 0-.729 5.806 4.376 4.376 0 0 0 2.528 1.801v2.368H17.499c-.29 0-.569.117-.774.324-.205.208-.32.49-.32.783v16.6h-2.34a4.426 4.426 0 0 0-1.781-2.558 4.335 4.335 0 0 0-5.739.738 4.457 4.457 0 0 0-1.092 2.926c0 1.077.388 2.118 1.092 2.926a4.336 4.336 0 0 0 5.738.737 4.426 4.426 0 0 0 1.781-2.556h2.34v16.599c0 .293.116.575.321.782.205.208.483.324.774.324h16.406v2.369c-1.031.269-1.93.91-2.527 1.801a4.468 4.468 0 0 0 .728 5.806A4.346 4.346 0 0 0 35 65.585a4.346 4.346 0 0 0 2.892-1.105 4.467 4.467 0 0 0 .729-5.806 4.376 4.376 0 0 0-2.528-1.801v-2.369H52.5c.29 0 .568-.116.773-.324.205-.207.32-.489.32-.782v-16.6h2.34c.206.803.629 1.53 1.222 2.102.594.57 1.333.962 2.136 1.128a4.327 4.327 0 0 0 2.402-.186 4.378 4.378 0 0 0 1.94-1.445 4.472 4.472 0 0 0 .46-4.663 4.408 4.408 0 0 0-1.619-1.805 4.337 4.337 0 0 0-2.318-.664ZM32.81 10.24c0-.438.128-.866.369-1.23.24-.364.582-.648.981-.815a2.164 2.164 0 0 1 2.384.48 2.238 2.238 0 0 1 .474 2.412c-.165.404-.445.75-.805.993a2.17 2.17 0 0 1-2.762-.275 2.226 2.226 0 0 1-.64-1.565ZM9.842 37.905a2.17 2.17 0 0 1-1.215-.373 2.208 2.208 0 0 1-.806-.993 2.237 2.237 0 0 1 .475-2.412 2.164 2.164 0 0 1 2.384-.48c.4.168.74.451.981.815a2.232 2.232 0 0 1-.272 2.795c-.41.415-.966.648-1.547.648Zm27.344 23.24c0 .437-.128.865-.369 1.229-.24.364-.582.647-.981.815a2.164 2.164 0 0 1-2.384-.48 2.237 2.237 0 0 1-.474-2.412c.165-.404.445-.75.805-.993a2.17 2.17 0 0 1 2.762.275c.41.415.641.978.641 1.565Zm14.219-8.854H18.592V19.093h32.813V52.29Zm8.75-14.386a2.17 2.17 0 0 1-1.215-.373 2.209 2.209 0 0 1-.806-.993 2.238 2.238 0 0 1 .474-2.412 2.164 2.164 0 0 1 2.384-.48c.4.168.741.451.982.815a2.232 2.232 0 0 1-.272 2.795c-.41.415-.967.648-1.547.648Z"/><path fill="#EAEAEA" d="M29.531 45.651c0 .294.116.575.32.783.206.208.484.324.774.324h2.188c.29 0 .568-.116.773-.324a1.113 1.113 0 0 0 0-1.565 1.087 1.087 0 0 0-.773-.324h-2.188c-.29 0-.568.116-.773.324-.206.208-.32.489-.32.782ZM26.25 44.545h-2.188c-.29 0-.568.116-.773.324a1.113 1.113 0 0 0 0 1.565c.205.208.483.324.773.324h2.188c.29 0 .568-.116.773-.324a1.113 1.113 0 0 0 0-1.565 1.087 1.087 0 0 0-.773-.324ZM37.188 44.545c-.29 0-.569.116-.774.324a1.113 1.113 0 0 0 0 1.565c.205.208.483.324.773.324h2.188c.29 0 .568-.116.773-.324a1.113 1.113 0 0 0 0-1.565 1.087 1.087 0 0 0-.773-.324h-2.188ZM45.938 44.545H43.75c-.29 0-.568.116-.773.324a1.113 1.113 0 0 0 0 1.565c.205.208.483.324.773.324h2.188c.29 0 .568-.116.773-.324a1.113 1.113 0 0 0 0-1.565 1.087 1.087 0 0 0-.773-.324ZM40.656 37.406a1.1 1.1 0 0 0 .908.498 1.02 1.02 0 0 0 .601-.188l6.563-4.427a1.103 1.103 0 0 0 .484-.918 1.117 1.117 0 0 0-.484-.919l-6.563-4.426a1.082 1.082 0 0 0-1.428.364 1.117 1.117 0 0 0 .225 1.473l5.195 3.508-5.195 3.508a1.117 1.117 0 0 0-.306 1.527ZM22.366 33.29l6.563 4.426c.176.125.387.19.602.188.233-.002.46-.08.647-.221a1.118 1.118 0 0 0-.046-1.804l-5.195-3.508 5.195-3.508a1.117 1.117 0 0 0 .226-1.473 1.082 1.082 0 0 0-1.429-.364l-6.563 4.426a1.102 1.102 0 0 0-.483.919 1.117 1.117 0 0 0 .483.918ZM32.398 40.028c.13.062.272.092.416.088.216-.001.426-.067.605-.189.18-.122.319-.295.401-.497l5.469-13.28a1.115 1.115 0 0 0-.549-1.54 1.083 1.083 0 0 0-1.245.299c-.1.117-.174.253-.219.4l-5.469 13.28c-.108.27-.107.573.003.842.11.27.322.484.588.597Z"/></svg>