<svg width="60" height="60" viewBox="0 0 60 60" fill="none" xmlns="http://www.w3.org/2000/svg">
<path d="M42.3122 23.8536C39.1469 9.91938 31.681 5.34063 30.8791 3.58882C30.2225 2.56631 29.6059 1.38591 29.0972 0.15037L29.0421 0C29.0421 0.0476171 29.0421 0.077691 29.0295 0.122802V0.155382V0.253122V0.290715V0.355875V0.421035V0.451109C29.0295 0.451109 29.0295 0.473664 29.0295 0.483689V0.481183V0.533812C29.0295 0.541331 29.032 0.551355 29.032 0.56138C29.032 0.571405 29.032 0.578923 29.0295 0.588948V0.639071V0.719268L29.007 0.844576V0.869638V0.884675C29.007 0.884675 29.007 0.894699 29.007 0.899712V1.00246H28.9944V1.04256H28.9042V1.18541H28.8892V1.3007H28.829V1.39593V1.40345C28.829 1.40345 28.829 1.40846 28.829 1.41097V1.43603V1.44856C28.829 1.44856 28.829 1.45608 28.829 1.46109L28.7714 1.5037L28.7589 1.52124V1.57638H28.7463V1.62149H28.7313V1.73426H28.7163V1.78188H28.7037V1.82699H28.6912V1.88213H28.5784V1.91972H28.5659V1.96734H28.5534V2.00493H28.5383V2.06257H28.5258V2.07761V2.08513C28.5258 2.08513 28.5258 2.09014 28.5258 2.09515C28.4782 2.11771 28.4381 2.14778 28.403 2.18036C28.3955 2.18788 28.388 2.1954 28.3804 2.20542V2.35078H28.3679V2.33073H28.3554V2.35579H28.3428V2.37584H28.3303V2.43098H28.1774V2.45604H28.1524V2.50616H28.0772V2.53122H28.0647V2.54626H28.0396V2.57132H27.9644V2.58636H27.9519V2.73172H27.9368V2.75678H27.9243V2.77181H27.9118V2.78685C27.9018 2.80189 27.8892 2.81442 27.8767 2.82695L27.8466 2.85201C27.8115 2.87707 27.779 2.90464 27.7489 2.93221C27.7288 2.94725 27.7113 2.95978 27.6937 2.97481L27.5709 3.07255L27.3855 3.22794C27.2426 3.34572 27.0923 3.47855 26.9193 3.62642C26.4958 3.99733 25.9921 4.4735 25.4156 5.04991L25.3781 5.08751C19.7793 11.0371 16.2631 19.0042 16.0326 27.7908V27.8359C16.0125 28.2244 16 28.678 16 29.1341C16 29.6855 16.0175 30.2343 16.0501 30.7782L16.0476 30.703V30.7255C16.3283 35.1489 17.6215 39.2189 19.6966 42.7752L19.6264 42.6448C20.3983 43.9982 21.1652 45.1485 22.0023 46.2412L21.9471 46.166C23.7691 48.5794 25.8442 50.6646 28.1699 52.4389L28.2476 52.4966C28.8867 54.4163 29.2576 56.6242 29.2576 58.9198C29.2576 59.1103 29.2551 59.3008 29.2501 59.4887V59.4612L30.864 60C30.7964 59.2406 30.7563 58.3585 30.7563 57.4688C30.7563 56.133 30.844 54.8173 31.0119 53.5291L30.9969 53.682C31.1598 53.0379 31.463 52.479 31.874 52.0179L31.8715 52.0229C32.6184 51.4891 33.2725 50.9603 33.8915 50.3914L33.8764 50.4064C33.9216 50.3588 33.9466 50.3162 33.9867 50.2711C39.5679 45.0332 43.044 37.6125 43.044 29.3772C43.044 27.3698 42.8385 25.4125 42.445 23.5203L42.4776 23.7058L42.3122 23.8536Z" fill="black"/>
</svg>
