<svg width="60" height="60" viewBox="0 0 60 60" fill="none" xmlns="http://www.w3.org/2000/svg">
<path d="M37.6116 28.0119L25.5917 31.9325L15.1416 36.5475L12.2138 37.3209C11.4711 38.0254 10.6849 38.7427 9.84509 39.4727C8.92363 40.2742 8.05577 41.0017 7.39721 41.5275C6.66208 42.1121 5.57215 43.1969 5.01315 43.8912C4.18357 44.9249 3.53268 46.0276 3.25445 46.8725C2.7516 48.3964 2.99664 49.9407 3.96661 51.3675C5.20459 53.1875 7.66523 55.0381 10.5317 56.2965C11.9918 56.9397 14.4575 57.7668 16.3081 58.2339C19.389 59.0124 25.3441 59.8573 28.6215 59.9823C29.2878 60.0079 30.1709 60.0053 30.2118 59.9772C30.2832 59.9287 30.7937 58.9639 31.3859 57.754C33.4024 53.6367 34.8599 49.7773 35.6436 46.482C36.1183 44.4859 36.4885 41.8236 36.7284 38.6687C36.7948 37.7855 36.8203 34.8373 36.7692 33.8342C36.685 32.2031 36.5421 30.8732 36.3123 29.5715C36.2791 29.38 36.2664 29.2115 36.2842 29.1962C36.3174 29.1681 36.4323 29.1324 37.9077 28.701L37.6116 28.0119ZM34.865 29.6225C34.9748 29.6225 35.2658 32.4073 35.3398 34.1762C35.3551 34.5514 35.3526 34.7914 35.3296 34.7914C35.2581 34.7914 33.7904 33.9286 32.749 33.2752C31.8403 32.7034 30.1173 31.5599 29.8417 31.3429C29.7549 31.274 29.7651 31.2714 30.5079 31.0162C31.7714 30.5797 34.768 29.6199 34.8625 29.6199L34.865 29.6225ZM28.7415 31.6339C28.8181 31.6339 29.0299 31.7513 29.5302 32.0627C31.4064 33.2369 33.9436 34.651 35.031 35.1258C35.3679 35.2738 35.4062 35.2151 34.6302 35.7435C32.9736 36.8691 30.9163 37.9744 28.3867 39.0975C27.9451 39.2941 27.5724 39.4523 27.5571 39.4523C27.5418 39.4523 27.5903 39.2277 27.6643 38.9546C28.2769 36.6905 28.6215 34.4034 28.6317 32.5681C28.6369 31.662 28.6369 31.6569 28.7236 31.6339C28.7287 31.6339 28.7338 31.6313 28.739 31.6313L28.7415 31.6339ZM27.4831 32.1138C27.5367 32.1674 27.4984 34.1992 27.4321 34.7531C27.2738 36.0804 27.0134 37.3107 26.5974 38.707C26.4978 39.0414 26.4059 39.3298 26.3906 39.3451C26.3549 39.3859 25.1118 38.176 24.6983 37.6962C23.9912 36.8768 23.4348 36.0651 23.0264 35.2636C22.8196 34.8577 22.4904 34.0512 22.521 34.0307C22.6614 33.9286 27.4474 32.078 27.4831 32.1138ZM21.5459 34.4545C21.5561 34.4545 21.5663 34.4596 21.5714 34.4647C21.5893 34.4851 21.6531 34.6331 21.7118 34.7939C22.0003 35.5801 22.6512 36.7492 23.2178 37.4945C23.8355 38.3113 24.6396 39.1792 25.3135 39.7561C25.5304 39.9424 25.7321 40.1134 25.7601 40.1389C25.8189 40.19 25.8367 40.1823 24.3563 40.7439C22.6384 41.3948 20.7674 42.0482 18.6207 42.7425C17.8013 43.008 17.1096 43.2301 17.0841 43.2403C17.0024 43.2709 17.0279 43.2199 17.2653 42.8472C18.3323 41.1804 19.948 37.9233 20.8516 35.6184C21.0073 35.2177 21.1579 34.8195 21.1835 34.7276C21.2217 34.5948 21.2626 34.5514 21.3851 34.4953C21.454 34.4647 21.5127 34.4493 21.5459 34.4545ZM19.726 35.2049C19.7489 35.2253 19.2895 36.1978 18.8351 37.0836C17.957 38.7989 16.9871 40.4861 15.7006 42.546C15.4785 42.9008 15.2743 43.2275 15.2463 43.2658C15.2003 43.3322 15.1824 43.3092 15.0421 43.031C14.7332 42.4184 14.4754 41.6449 14.3427 40.9277C14.2099 40.2155 14.2329 38.9852 14.3912 38.2194C14.5086 37.6528 14.5035 37.6655 14.7715 37.5277C15.9278 36.9355 19.6877 35.1717 19.726 35.2049ZM35.396 35.8405V36.2259C35.3934 38.2526 35.179 41.0272 34.8625 43.0514C34.8063 43.4062 34.7604 43.6997 34.7553 43.7023C34.7502 43.7048 34.4949 43.6308 34.1861 43.5338C32.823 43.1101 31.3425 42.4771 30.0101 41.747C29.1269 41.2621 27.8481 40.4784 27.8839 40.4427C27.8941 40.4325 28.2693 40.2334 28.7211 39.9986C30.5053 39.072 32.2078 38.0739 33.6909 37.0836C34.2473 36.7134 35.0794 36.111 35.2632 35.9477L35.3934 35.8328L35.396 35.8405ZM12.8647 38.5283C12.9005 38.5257 12.8928 38.5972 12.8341 38.9316C12.7933 39.1639 12.7473 39.6029 12.732 39.9067C12.658 41.234 12.875 42.2142 13.5335 43.5568C13.7173 43.9295 13.8602 44.2409 13.8526 44.246C13.7862 44.3021 7.77754 46.0583 5.88867 46.5764C5.32966 46.7296 4.83957 46.8649 4.79873 46.8776C4.73237 46.8981 4.72726 46.8827 4.75023 46.7296C4.95699 45.3972 5.9729 43.6487 7.39466 42.1784C8.3391 41.2008 9.09465 40.6239 10.3811 39.8888C11.3051 39.363 12.7371 38.5717 12.8418 38.5308C12.8494 38.5283 12.8545 38.5283 12.8622 38.5283H12.8647ZM27.0364 41.0655C27.0415 41.0579 27.2636 41.1778 27.5316 41.331C29.4715 42.4541 32.1798 43.5057 34.4898 44.0341L34.6991 44.0826L34.4132 44.2434C33.2059 44.9122 29.2341 46.5662 25.1782 48.0875C24.586 48.3096 24.0091 48.5266 23.8942 48.5725C23.7794 48.6185 23.69 48.6491 23.69 48.6389C23.69 48.6287 23.8585 48.3071 24.0627 47.9242C25.2011 45.7954 26.3396 43.2071 26.9216 41.4101C26.9803 41.2263 27.0339 41.0732 27.039 41.0655H27.0364ZM25.5917 41.5377C25.5968 41.5428 25.5279 41.7343 25.4334 41.9589C24.6421 43.8733 23.6058 45.9613 22.281 48.3071C21.9441 48.9044 21.6608 49.3919 21.6506 49.3893C21.6404 49.3868 21.3672 49.226 21.0431 49.0269C19.1159 47.8476 17.4108 46.3952 16.2928 44.9837L16.132 44.7846L16.9616 44.5574C19.9251 43.7457 22.4367 42.8778 24.9357 41.8006C25.2905 41.6475 25.584 41.5275 25.5891 41.5352L25.5917 41.5377ZM34.5664 44.6722C34.5715 44.6722 34.5715 44.6774 34.5715 44.6799C34.5715 44.8816 34.112 46.75 33.7317 48.1029C33.4126 49.2387 33.1421 50.1245 32.6443 51.6968C32.4248 52.3911 32.2359 52.9578 32.2232 52.9552C32.2104 52.9527 32.1594 52.9425 32.1057 52.9323C29.4077 52.4447 26.9879 51.7632 24.7238 50.8519C24.0908 50.5967 23.1744 50.1908 23.1259 50.1449C23.1106 50.1296 23.6569 49.8718 24.3409 49.5731C28.476 47.7685 32.7617 45.7137 34.2269 44.8331C34.403 44.7284 34.5332 44.6646 34.5638 44.6722H34.5664ZM13.85 45.3819C13.873 45.4023 12.7141 47.0589 11.0984 49.3204C10.5368 50.1066 9.87572 51.0332 9.63323 51.3803C9.39074 51.7275 9.02063 52.2737 8.81132 52.5979L8.42844 53.1875L8.02258 52.8455C7.54526 52.4447 6.71058 51.5947 6.33025 51.1225C5.54918 50.15 5.0208 49.1264 4.81405 48.1871C4.71705 47.7532 4.7145 47.5336 4.80639 47.5056C4.93912 47.4647 7.36403 46.8955 9.64089 46.3671C10.9044 46.0736 12.367 45.7315 12.8903 45.6039C13.4135 45.4763 13.8475 45.3793 13.8526 45.3844L13.85 45.3819ZM15.014 45.826L15.3075 46.1527C16.617 47.6102 17.9468 48.6976 19.5702 49.6369C19.8561 49.8028 20.0757 49.9458 20.0578 49.9585C19.9914 49.9994 14.4422 51.9725 11.8769 52.8684C10.4296 53.3738 9.24014 53.7822 9.23504 53.7822C9.22993 53.7822 9.1457 53.7286 9.05381 53.6623L8.88534 53.5423L9.14825 53.1645C10.0008 51.9317 11.0703 50.5763 13.411 47.7583L15.0165 45.826H15.014ZM22.2632 51.0076C22.2708 51 22.6741 51.1429 23.1668 51.3267C24.3511 51.7683 25.2777 52.0567 26.5361 52.3732C28.0804 52.7587 30.3088 53.1467 31.631 53.2564C31.8326 53.2743 31.9373 53.2973 31.9041 53.3177C31.8428 53.356 30.5053 53.8027 29.5226 54.1115C27.963 54.6016 23.1923 56.0106 19.3022 57.1312C18.5799 57.3379 17.9647 57.514 17.9315 57.5217C17.8447 57.5396 17.541 57.4604 17.541 57.4196C17.541 57.3992 17.758 57.1235 18.0234 56.807C19.3303 55.2423 20.6296 53.4964 21.7144 51.8449C22.0105 51.3931 22.2555 51.0153 22.2632 51.0076ZM20.6576 51.0536C20.6704 51.0663 20.0246 52.0976 18.8913 53.8818C18.4114 54.6348 17.8703 55.4924 17.6839 55.7885C17.4976 56.0846 17.2245 56.5313 17.079 56.7866L16.8135 57.2511L16.6782 57.2154C16.3515 57.1261 14.0542 56.3169 13.4493 56.0744C12.6963 55.7758 11.9126 55.4159 11.3358 55.1019C10.6134 54.7114 9.69705 54.1319 9.76852 54.109C9.78894 54.1013 11.032 53.7618 12.5278 53.3534C16.5098 52.2686 18.7126 51.6458 20.1573 51.194C20.4279 51.1097 20.6525 51.0485 20.6576 51.0536ZM31.9679 53.7057C31.9756 53.7031 31.9807 53.7031 31.9807 53.7057C32.019 53.8001 30.5436 57.8816 30.005 59.1757C29.885 59.4667 29.8391 59.5357 29.7778 59.5331C29.6247 59.5254 27.4882 59.2268 26.1941 59.0303C23.93 58.6857 20.1369 58.0246 19.1797 57.805L18.9576 57.7565L20.3156 57.4502C23.2255 56.7942 24.6217 56.442 26.0384 56.0106C27.8251 55.4644 29.5966 54.7803 31.3834 53.9507C31.6667 53.818 31.9066 53.7184 31.9679 53.7057ZM25.2241 0.000335579C25.0225 -0.0226372 21.7961 1.13877 19.7234 1.9811C16.9156 3.12209 14.7358 4.21457 13.3906 5.15901C12.8903 5.51126 12.2598 6.14173 12.1679 6.38422C12.1322 6.47612 12.1168 6.58077 12.1168 6.69053L13.337 7.84172L16.2315 8.76574L23.1285 9.99861L31.0107 11.354L31.0898 10.6776C31.0669 10.6725 31.0439 10.6699 31.0184 10.6674L29.9795 10.504L29.7676 10.1339C28.6956 8.24247 27.5112 5.90435 26.8246 4.32178C26.2911 3.09656 25.7806 1.68246 25.4972 0.661442C25.3288 0.0539383 25.3109 0.0156506 25.2165 0.00288793L25.2241 0.000335579ZM25.0735 0.46745C25.0812 0.464897 25.0863 0.464897 25.0863 0.46745C25.0914 0.475107 25.1297 0.727807 25.1654 1.03156C25.3211 2.30017 25.6044 3.53304 26.0486 4.85781C26.383 5.85585 26.3881 5.79714 25.9899 5.68738C25.0633 5.42958 20.9103 4.71487 17.906 4.2988C17.421 4.23244 17.0177 4.17118 17.0126 4.16607C16.9743 4.12778 19.1797 2.97149 20.1573 2.51714C21.4106 1.9326 24.8259 0.513395 25.0735 0.46745ZM16.3183 4.53364L16.6706 4.65361C18.6003 5.30961 23.4348 6.23362 26.1073 6.4557C26.4085 6.48122 26.6612 6.50675 26.6688 6.5144C26.6765 6.52206 26.4213 6.65735 26.0996 6.81816C24.8106 7.46395 23.3914 8.25013 22.4087 8.86529C22.1202 9.04652 21.8573 9.19201 21.8216 9.18946C21.7859 9.18691 21.597 9.15628 21.3979 9.1231L21.0354 9.06439L20.1241 8.17866C18.5212 6.62927 17.2704 5.42958 16.788 4.97523L16.3183 4.53364ZM15.961 4.81952L17.2372 6.41486C17.9392 7.29293 18.6462 8.16334 18.8019 8.34968C18.9576 8.53601 19.0802 8.69682 19.0725 8.70193C19.0368 8.72745 17.2219 8.3752 16.2596 8.15313C15.2718 7.92596 14.8634 7.81875 14.2533 7.6222L13.7556 7.46139L13.7581 7.33887C13.7632 6.72626 14.5367 5.82267 15.8461 4.89865L15.961 4.81952ZM26.8399 6.99173C26.8782 6.99428 26.919 7.07341 27.0313 7.32101C27.3402 7.99998 28.305 9.84036 28.5399 10.1952C28.6164 10.3126 28.739 10.3202 27.4576 10.1135C24.3818 9.61573 23.3863 9.44982 23.3863 9.43195C23.3863 9.41919 23.4782 9.36048 23.5905 9.29667C24.5426 8.76574 25.5049 8.09953 26.36 7.37971C26.5642 7.20614 26.7607 7.04278 26.7965 7.01215C26.8118 6.99939 26.8246 6.99173 26.8373 6.99428L26.8399 6.99173ZM12.2241 6.2617C12.2241 6.2617 12.025 6.57822 12.2138 7.04788C12.3313 7.33887 12.681 7.68857 13.0664 8.05869C13.0664 8.05869 17.1045 11.9972 17.5971 12.569C19.8332 15.1496 20.8057 17.692 20.895 21.2017C20.9537 23.453 20.5172 25.4338 19.463 27.7336C17.5716 31.856 13.5897 36.4046 7.43805 41.4612L8.34165 41.1625C8.92108 40.7286 9.70981 40.264 11.5706 39.2456C15.8512 36.9023 20.6602 34.748 26.5667 32.5298C35.0641 29.3366 49.0444 25.5895 56.9981 24.3719L57.8276 24.2443L57.7 24.0452C56.9725 22.9144 56.4773 22.2176 55.8801 21.4799C54.1367 19.323 52.0232 17.5618 49.4349 16.1145C45.8792 14.1235 41.2668 12.5767 35.4368 11.4178C34.3341 11.1983 31.9194 10.7848 29.9565 10.4785C25.7959 9.83015 23.1132 9.39111 20.1471 8.8755C19.0853 8.69172 17.4976 8.4237 16.4434 8.19652C15.8946 8.07911 14.8506 7.83151 14.0415 7.55073C13.3727 7.28782 12.4283 7.03257 12.2292 6.26426L12.2241 6.2617ZM14.5647 8.53346C14.5698 8.52835 14.723 8.5743 14.9068 8.63811C15.2463 8.75298 15.6981 8.88826 16.2213 9.03631C16.5889 9.13841 16.9922 9.24562 17.4185 9.35538C17.9647 9.49576 18.4165 9.61573 18.4216 9.62084C18.4829 9.68976 19.3992 12.6175 19.7132 13.7406C19.8332 14.1695 19.9225 14.5268 19.9148 14.5345C19.9072 14.5421 19.8051 14.3839 19.6902 14.1848C18.6284 12.3189 16.9488 10.4198 15.0038 8.89337C14.7613 8.70193 14.5647 8.54112 14.5647 8.53346ZM19.0368 9.76889C19.0827 9.76633 19.2844 9.79952 19.5243 9.85312C21.0711 10.1952 23.8355 10.7286 25.6121 11.0273C25.9082 11.0783 26.1507 11.1319 26.1507 11.1473C26.1507 11.1626 26.0409 11.234 25.9056 11.3004C25.607 11.451 24.3996 12.1734 23.9963 12.4439C22.9881 13.1178 22.0819 13.8402 21.4234 14.4962C21.1579 14.7591 20.9359 14.9761 20.9282 14.9761C20.9205 14.9761 20.8746 14.8229 20.8261 14.634C20.4968 13.3705 19.8127 11.5021 19.2027 10.1875C19.1031 9.97564 19.024 9.78931 19.024 9.77399C19.024 9.77144 19.0266 9.77144 19.0342 9.76889H19.0368ZM26.9062 11.2647C26.9573 11.2825 27.0568 11.5888 27.2304 12.2729C27.5622 13.5875 27.7179 15.0654 27.6669 16.431C27.6516 16.8113 27.6286 17.1636 27.6133 17.2172L27.5852 17.3116L27.1155 17.1585C26.1481 16.8496 24.5656 16.3825 23.2102 16.0073C22.4393 15.7929 21.8088 15.604 21.8088 15.5861C21.8088 15.53 22.9319 14.4068 23.4144 13.9806C24.3358 13.1638 26.8195 11.234 26.9062 11.2647ZM27.5316 11.354C27.5597 11.3285 31.2915 11.9743 32.9864 12.2984C34.2499 12.5409 36.08 12.9238 36.1898 12.9698C36.2434 12.9927 36.0545 13.0948 35.447 13.368C33.0451 14.4502 31.266 15.4176 29.4971 16.602C29.0299 16.9134 28.6445 17.1687 28.6369 17.1687C28.6292 17.1687 28.6215 16.9083 28.6215 16.5918C28.619 14.8663 28.2769 13.1255 27.6439 11.6552C27.575 11.497 27.5239 11.3617 27.5316 11.354ZM37.1802 13.2633C37.2083 13.2914 37.0857 14.0291 36.9811 14.463C36.6518 15.8158 35.7763 17.8247 34.6966 19.711C34.5051 20.0428 34.3367 20.3211 34.3162 20.3262C34.2958 20.3313 34.0508 20.2036 33.77 20.0403C32.7133 19.4226 31.5187 18.838 30.2067 18.2969C29.8416 18.1463 29.5277 18.011 29.5124 17.9957C29.4537 17.9396 32.3712 16.0073 33.918 15.0807C35.156 14.3379 37.147 13.2276 37.1827 13.2633H37.1802ZM37.8694 13.3705C37.9536 13.3705 39.6076 13.8223 40.4653 14.0776C42.5967 14.7157 45.0573 15.6142 46.6501 16.3391L47.3138 16.6403L46.8466 16.7475C42.9438 17.6435 39.5974 18.6798 36.3761 19.9867C36.1081 20.0964 35.8758 20.1858 35.858 20.1858C35.8401 20.1858 35.9269 19.979 36.0469 19.7263C37.0143 17.669 37.6422 15.5095 37.803 13.6768C37.8183 13.5109 37.8489 13.3756 37.8694 13.3756V13.3705ZM21.4183 17.1534C21.4438 17.1278 22.7048 17.4214 23.3914 17.6154C24.4252 17.9064 26.6229 18.6415 26.6229 18.6977C26.6229 18.7079 26.3804 18.9197 26.0843 19.1673C24.8974 20.1603 23.7513 21.2017 22.378 22.5265C21.9722 22.9195 21.625 23.2386 21.6072 23.2386C21.5893 23.2386 21.5816 23.1799 21.5919 23.111C21.7986 21.5846 21.7552 19.6242 21.4668 17.6307C21.431 17.378 21.4081 17.1636 21.4183 17.1534ZM47.9442 17.1763C47.9621 17.1942 47.3597 18.1386 46.9845 18.6772C46.4357 19.4609 45.6418 20.4921 43.8321 22.7689C42.8825 23.9635 41.8105 25.3164 41.448 25.7733C41.0856 26.2302 40.7844 26.6054 40.7742 26.6054C40.7639 26.6054 40.6491 26.442 40.5163 26.2429C39.4953 24.7191 38.2854 23.3816 36.8407 22.1793C36.5701 21.9547 36.2664 21.7096 36.1668 21.6331C36.0673 21.5565 35.983 21.4876 35.983 21.4774C35.983 21.4518 37.5248 20.7907 38.7015 20.3109C40.7512 19.4762 43.5513 18.4781 45.6469 17.8349C46.7522 17.4954 47.9264 17.1585 47.9442 17.1763ZM48.6411 17.3601C48.6743 17.3525 48.8938 17.4597 49.1592 17.6103C51.3672 18.8738 53.5292 20.4997 55.2317 22.1691C55.7167 22.6439 56.8985 23.8742 56.8806 23.8844C56.8755 23.887 56.4671 23.9201 55.9719 23.9559C52.1457 24.2443 47.255 25.056 42.5482 26.1893C42.2291 26.2659 41.9509 26.3297 41.933 26.3297C41.9151 26.3297 42.2648 25.9775 42.7115 25.5512C45.4759 22.894 46.7394 21.2145 48.2225 18.2152C48.4445 17.7685 48.6309 17.3831 48.6385 17.3601C48.6385 17.3576 48.6411 17.3576 48.6436 17.3576L48.6411 17.3601ZM28.4224 19.4328C28.5475 19.4609 29.7268 20.0097 30.6176 20.4564C31.4319 20.8648 32.6648 21.5208 32.726 21.5769C32.7337 21.5846 32.2997 21.8117 31.7612 22.0798C30.0535 22.9349 28.5909 23.7389 27.0645 24.6731C26.628 24.9386 26.2655 25.1581 26.2528 25.1581C26.2145 25.1581 26.2298 25.1249 26.4723 24.6782C27.2866 23.1901 27.94 21.411 28.3178 19.6753C28.351 19.5196 28.3918 19.4251 28.4199 19.4328H28.4224ZM27.233 19.6446C27.2585 19.6702 26.9522 20.7933 26.7582 21.3931C26.3855 22.5443 25.7576 23.9916 25.1526 25.0815C25.0097 25.3368 24.7927 25.712 24.6702 25.9137L24.4456 26.2812L23.9351 25.7886C23.3429 25.2143 22.8605 24.8595 22.2453 24.5404C22.0028 24.4153 21.8063 24.3005 21.8063 24.2826C21.8037 24.2086 23.3557 22.797 24.5502 21.7862C25.4053 21.0613 27.21 19.6191 27.2304 19.6421L27.233 19.6446ZM34.4541 22.6132L34.8982 22.9017C35.9141 23.5602 37.1164 24.4485 38.0353 25.2143C38.5483 25.6431 39.5489 26.5365 39.7531 26.7535L39.8629 26.8683L39.1278 27.0725C34.9671 28.2263 31.7509 29.2549 28.0013 30.6333C27.5852 30.7865 27.2253 30.9141 27.1998 30.9141C27.1487 30.9141 27.0977 30.9626 28.0319 30.0998C30.4313 27.8919 32.5499 25.4593 34.135 23.0931L34.4541 22.6132ZM32.5575 23.0906C32.578 23.111 31.3272 24.8646 30.5844 25.855C29.6936 27.0393 28.111 29.0176 27.0211 30.3066C26.5667 30.8452 26.1762 31.2919 26.1532 31.2995C26.1303 31.3072 26.1149 31.1744 26.1149 30.9677C26.1124 29.8675 25.8342 28.6934 25.3441 27.6979C25.1373 27.2767 25.1016 27.1772 25.145 27.1363C25.316 26.9806 27.963 25.4721 29.6323 24.5787C30.7784 23.9635 32.5371 23.0701 32.5601 23.0931L32.5575 23.0906ZM21.0814 25.9009C21.1043 25.9009 21.3162 26.0081 21.5536 26.1383C22.133 26.4599 22.6537 26.8122 23.1132 27.195C23.131 27.2104 22.8937 27.4044 22.5848 27.6264C21.7246 28.2467 20.4126 29.2371 19.6545 29.842C18.853 30.4802 18.8275 30.498 18.9168 30.3602C19.5166 29.4438 19.8178 28.9231 20.1344 28.2594C20.4151 27.6698 20.6934 26.9704 20.8925 26.3604C20.9767 26.1077 21.0609 25.9009 21.0839 25.9009H21.0814ZM24.1393 28.3003C24.1801 28.2952 24.2388 28.3718 24.4864 28.7393C25.0046 29.5127 25.4002 30.544 25.5023 31.3863L25.5228 31.5675L24.2822 32.0474C22.0539 32.9127 20.0016 33.7653 18.6182 34.3983C18.2302 34.577 17.5461 34.9037 17.0994 35.1258C16.6527 35.3478 16.2877 35.524 16.2877 35.5163C16.2877 35.5061 16.5685 35.2968 16.9105 35.0466C19.629 33.0735 21.9747 30.9115 23.7411 28.7495C23.93 28.5173 24.101 28.3182 24.124 28.3054C24.1291 28.3003 24.1342 28.3003 24.1418 28.3003H24.1393ZM22.7277 28.65C22.7635 28.6857 21.7246 29.8624 21.0252 30.5746C19.2742 32.3639 17.5359 33.7653 15.3841 35.1283C15.1161 35.2993 14.8685 35.4525 14.8379 35.4729C14.7791 35.5086 14.8557 35.4193 15.8027 34.3906C16.3975 33.7423 16.8544 33.2037 17.37 32.5324C17.7095 32.0908 17.7758 32.027 18.2761 31.6671C19.6213 30.6971 22.692 28.6143 22.7277 28.65Z" fill="black"/>
</svg>
