<svg xmlns="http://www.w3.org/2000/svg" width="77" height="77" fill="none" viewBox="0 0 77 77"><path stroke="#fff" stroke-linecap="round" d="M10.72 48.44C7.312 47.703.5 44.25.5 36.31c.568-6.065 6.056-9.556 9.084-9.372-1.893-4.594-3.18-15.547 6.812-22.603C22.641-.626 35.7-1.177 42.512 7.092c2.271-1.103 17.6-6.064 19.87 11.577 3.975 1.654 4.543 4.742 4.543 8.27 1.703 0 11.355 4.41 8.516 14.333-2.839 6.615-8.516 6.615-9.652 7.167"/><path stroke="#fff" d="m64.383 44.194-3.522-.479a1.658 1.658 0 0 1-.834-.37 1.584 1.584 0 0 1-.498-.746 20.284 20.284 0 0 0-1.332-3.084 1.62 1.62 0 0 1 .127-1.737l2.136-2.746a1.562 1.562 0 0 0-.145-2.091l-5.129-4.98a1.675 1.675 0 0 0-2.154-.142l-2.828 2.073a1.718 1.718 0 0 1-1.77.124 21.779 21.779 0 0 0-3.194-1.294 1.634 1.634 0 0 1-.77-.482 1.56 1.56 0 0 1-.38-.81l-.493-3.403a1.573 1.573 0 0 0-.542-.988 1.663 1.663 0 0 0-1.078-.395H34.69c-.397 0-.78.14-1.078.395-.298.255-.49.605-.542.988l-.474 3.402c-.053.3-.19.58-.397.807a1.683 1.683 0 0 1-.776.482c-1.097.35-2.165.782-3.194 1.293a1.722 1.722 0 0 1-1.77-.123l-2.827-2.069a1.654 1.654 0 0 0-2.135.142l-5.146 4.98a1.562 1.562 0 0 0-.146 2.091l2.135 2.746a1.62 1.62 0 0 1 .127 1.737c-.53.991-.974 2.022-1.331 3.084a1.577 1.577 0 0 1-.494.758 1.65 1.65 0 0 1-.838.375l-3.504.461a1.68 1.68 0 0 0-1.017.541 1.591 1.591 0 0 0-.407 1.054v7.035c0 .385.145.757.407 1.047.262.29.623.476 1.017.526l3.503.479c.312.044.603.174.84.375.235.202.407.465.492.758a20.231 20.231 0 0 0 1.332 3.084 1.587 1.587 0 0 1-.127 1.719l-2.135 2.764a1.562 1.562 0 0 0 .146 2.091l5.146 4.98a1.654 1.654 0 0 0 2.135.142l2.827-2.068a1.717 1.717 0 0 1 1.77-.124 21.79 21.79 0 0 0 3.194 1.294c.3.088.568.256.774.485.207.228.343.509.394.808l.474 3.403c.052.382.244.733.542.987.298.255.682.395 1.078.395h7.283c.396 0 .78-.14 1.078-.395.298-.254.49-.605.542-.987l.493-3.403c.044-.3.175-.58.38-.81.203-.23.47-.397.77-.483a21.815 21.815 0 0 0 3.194-1.293 1.717 1.717 0 0 1 1.77.124l2.828 2.073a1.676 1.676 0 0 0 2.154-.142l5.138-4.979a1.563 1.563 0 0 0 .146-2.091l-2.135-2.764a1.587 1.587 0 0 1-.127-1.72c.529-.99.974-2.022 1.331-3.083.089-.292.26-.554.497-.755.235-.2.525-.332.835-.379l3.523-.478c.39-.054.747-.243 1.005-.532.258-.289.4-.659.4-1.041v-7.058a1.588 1.588 0 0 0-.406-1.04 1.677 1.677 0 0 0-1-.538Z"/><path fill="#fff" stroke="#fff" stroke-width=".4" d="M29.342 63.876a.28.28 0 0 1-.194-.078l-4.155-4.034a.263.263 0 0 1 0-.376l8.708-8.455c.223-.215.524-.336.839-.336.315 0 .616.12.84.336l.577.561 1.142-1.108-5.128-4.978-.111.036a4.968 4.968 0 0 1-2.636.126 4.873 4.873 0 0 1-2.31-1.237 4.657 4.657 0 0 1-1.296-2.231 4.56 4.56 0 0 1 .105-2.56.268.268 0 0 1 .075-.113.28.28 0 0 1 .379.007l3.125 3.035 1.989-.517.533-1.93-3.126-3.035a.268.268 0 0 1-.072-.25.263.263 0 0 1 .065-.119.274.274 0 0 1 .116-.073 4.95 4.95 0 0 1 3.714.287c.681.341 1.269.834 1.715 1.44.445.604.737 1.303.85 2.038a4.564 4.564 0 0 1-.2 2.191l-.038.109 5.129 4.979 6.747-6.553.888-1.628a.273.273 0 0 1 .08-.091l3.006-2.132a.281.281 0 0 1 .355.028l1.32 1.282a.262.262 0 0 1 .027.346l-2.195 2.917a.27.27 0 0 1-.094.079l-1.675.859-6.75 6.552 5.128 4.977.112-.037a4.968 4.968 0 0 1 2.634-.125 4.872 4.872 0 0 1 2.31 1.238 4.656 4.656 0 0 1 1.295 2.231c.21.846.174 1.732-.106 2.56a.262.262 0 0 1-.074.113.274.274 0 0 1-.186.07.28.28 0 0 1-.194-.078l-3.125-3.035-1.99.517-.532 1.931 3.126 3.035a.265.265 0 0 1 .072.25.264.264 0 0 1-.065.118.276.276 0 0 1-.116.073 4.952 4.952 0 0 1-3.715-.287 4.796 4.796 0 0 1-1.713-1.44 4.618 4.618 0 0 1-.85-2.039 4.564 4.564 0 0 1 .2-2.191l.037-.108-5.128-4.98-1.141 1.109.578.561c.222.217.347.51.347.815 0 .305-.125.598-.347.815l-8.707 8.455a.273.273 0 0 1-.194.078Zm5.2-12.748a.653.653 0 0 0-.453.18l-8.515 8.268 3.769 3.659 8.513-8.27a.614.614 0 0 0 0-.878l-2.862-2.778a.635.635 0 0 0-.454-.18h.002Zm6.758-1.502-2.105 2.044 5.255 5.103a.263.263 0 0 1 .06.288 4.043 4.043 0 0 0-.285 2.122c.098.72.388 1.4.842 1.977a4.264 4.264 0 0 0 1.743 1.309c.689.28 1.441.382 2.183.292l.386-.046-2.917-2.832a.266.266 0 0 1-.07-.258l.614-2.227a.276.276 0 0 1 .194-.188l2.294-.597a.279.279 0 0 1 .265.069l2.916 2.832.048-.375a4.046 4.046 0 0 0-.302-2.119 4.173 4.173 0 0 0-1.349-1.692 4.35 4.35 0 0 0-2.036-.817c-.74-.095-1.494 0-2.185.276a.283.283 0 0 1-.297-.059l-5.256-5.102h.002Zm9.53-11.874-2.766 1.96-.874 1.61a.264.264 0 0 1-.048.062L36.344 51.868l.933.91 10.798-10.485a.259.259 0 0 1 .063-.046l1.658-.85 2.024-2.684-.99-.961Zm-18.794 7.08a.278.278 0 0 1 .193.077l5.255 5.103 2.106-2.044-5.255-5.103a.262.262 0 0 1-.06-.288 4.043 4.043 0 0 0 .284-2.122 4.089 4.089 0 0 0-.842-1.977 4.264 4.264 0 0 0-1.743-1.309 4.395 4.395 0 0 0-2.183-.292l-.386.046 2.917 2.832a.265.265 0 0 1 .071.256l-.614 2.228a.277.277 0 0 1-.194.188l-2.293.595a.28.28 0 0 1-.265-.069l-2.916-2.832-.05.377c-.09.72.014 1.45.303 2.119.29.668.755 1.251 1.348 1.691a4.35 4.35 0 0 0 2.036.817c.74.095 1.493 0 2.184-.274a.28.28 0 0 1 .104-.02Z"/></svg>