<svg xmlns="http://www.w3.org/2000/svg" width="72" height="63" fill="none" viewBox="0 0 72 63"><path fill="#fff" stroke="#fff" stroke-width=".6" d="M32.415 62H23.26a.247.247 0 0 1-.185-.087.322.322 0 0 1-.077-.211v-7.683l-.508-.152a19.013 19.013 0 0 1-4.785-2.256l-.457-.297-4.779 5.428a.264.264 0 0 1-.085.065.235.235 0 0 1-.2 0 .264.264 0 0 1-.086-.065l-6.47-7.349a.322.322 0 0 1-.057-.324.3.3 0 0 1 .057-.097l4.782-5.433-.273-.517a24.902 24.902 0 0 1-1.984-5.437l-.138-.577H1.261a.248.248 0 0 1-.184-.087.303.303 0 0 1-.058-.1.335.335 0 0 1-.019-.117V26.297c0-.039.007-.077.02-.113a.302.302 0 0 1 .056-.097.248.248 0 0 1 .185-.088h6.763l.138-.577a24.895 24.895 0 0 1 1.974-5.444l.26-.52-4.769-5.426a.302.302 0 0 1-.057-.096.334.334 0 0 1 .057-.325l6.471-7.358a.25.25 0 0 1 .186-.087.25.25 0 0 1 .186.087l4.785 5.434.455-.298a19.052 19.052 0 0 1 4.78-2.256l.508-.156v-7.68a.332.332 0 0 1 .077-.21.248.248 0 0 1 .186-.087h9.155c.07 0 .135.031.184.087.025.027.044.06.058.096.013.036.02.075.02.114v7.68l.507.156a19.063 19.063 0 0 1 4.785 2.256l.456.297 4.78-5.433a.249.249 0 0 1 .185-.087c.07 0 .136.031.185.087l6.475 7.354a.321.321 0 0 1 .076.21.321.321 0 0 1-.076.211l-4.78 5.433.26.52a24.916 24.916 0 0 1 1.986 5.437l.136.577h6.763c.07 0 .136.032.185.088a.321.321 0 0 1 .077.21V36.7c0 .079-.028.155-.077.21a.247.247 0 0 1-.185.088h-6.763l-.138.577a24.901 24.901 0 0 1-1.985 5.448l-.26.518 4.778 5.433a.331.331 0 0 1 0 .42l-6.474 7.358a.247.247 0 0 1-.185.088.247.247 0 0 1-.185-.088l-4.782-5.433-.455.297a18.966 18.966 0 0 1-4.785 2.252l-.508.156v7.679a.336.336 0 0 1-.02.114.303.303 0 0 1-.056.096.249.249 0 0 1-.183.088Zm-15.2-11.364c.047 0 .095.014.136.042a18.702 18.702 0 0 0 5.932 2.804h.023c.06.011.115.047.155.101a.32.32 0 0 1 .062.193v7.622h8.63v-7.625c0-.067.021-.131.058-.184a.26.26 0 0 1 .145-.103 18.815 18.815 0 0 0 5.932-2.791l.017-.014a.239.239 0 0 1 .336.034l4.745 5.394 6.104-6.938-4.746-5.39a.339.339 0 0 1-.037-.369 24.406 24.406 0 0 0 2.467-6.745v-.016a.309.309 0 0 1 .09-.177.24.24 0 0 1 .168-.068h6.707v-9.812h-6.696a.247.247 0 0 1-.162-.066.312.312 0 0 1-.093-.164 24.391 24.391 0 0 0-2.456-6.75l-.012-.018a.325.325 0 0 1 .03-.381l4.745-5.394-6.103-6.935-4.745 5.387a.252.252 0 0 1-.188.085.237.237 0 0 1-.136-.042 18.473 18.473 0 0 0-5.903-2.79l-.047-.012a.257.257 0 0 1-.157-.101.327.327 0 0 1-.063-.193V1.595h-8.63V9.22c0 .067-.021.132-.058.184a.258.258 0 0 1-.145.103 18.83 18.83 0 0 0-5.933 2.792l-.016.013a.234.234 0 0 1-.15.054.246.246 0 0 1-.186-.086L12.29 6.887l-6.11 6.935 4.746 5.391a.332.332 0 0 1 .037.367 24.417 24.417 0 0 0-2.467 6.747v.022a.31.31 0 0 1-.09.177.242.242 0 0 1-.169.068H1.523v9.809h6.714a.244.244 0 0 1 .162.066c.046.042.078.1.091.166a24.578 24.578 0 0 0 2.456 6.745l.012.02a.33.33 0 0 1-.03.381L6.18 49.178l6.103 6.938 4.746-5.392a.25.25 0 0 1 .184-.088ZM64.208 62a.237.237 0 0 1-.119-.031.272.272 0 0 1-.092-.09l-6.482-9.91-.017-.025a.312.312 0 0 1-.076-.153.34.34 0 0 1 .012-.175.296.296 0 0 1 .097-.138.24.24 0 0 1 .148-.051h2.93V13.074a.32.32 0 0 1 .076-.21.248.248 0 0 1 .185-.088h6.679c.07 0 .136.03.185.087a.332.332 0 0 1 .077.21v38.354h2.93a.239.239 0 0 1 .135.047c.04.03.073.072.094.122a.303.303 0 0 1-.02.297L64.305 61.97a.214.214 0 0 1-.097.03Zm-6.014-9.971 6.013 9.182 6.013-9.182h-1.37c-.13 0-.276 0-.392.009-.168 0-.294.01-.406.01a1.587 1.587 0 0 1-.695-.105c-.043-.024-.072-.042-.072-.213V13.372H61.13v38.362c0 .17-.029.187-.071.213a1.58 1.58 0 0 1-.697.105c-.147 0-.301 0-.404-.01-.103-.01-.261-.01-.393-.01l-1.37-.003ZM27.979 48.22c-3.897.023-7.643-1.717-10.42-4.84-2.57-2.936-4.092-6.858-4.273-11.004-.181-4.146.992-8.222 3.291-11.436 2.3-3.215 5.562-5.339 9.154-5.961 3.593-.622 7.26.302 10.29 2.593 2.416 1.839 4.29 4.469 5.375 7.545a18.534 18.534 0 0 1 .891 9.659c-.564 3.248-1.978 6.224-4.055 8.535-1.335 1.56-2.93 2.797-4.692 3.64a12.759 12.759 0 0 1-5.561 1.269Zm-.018-32.852c-3.66.02-7.181 1.6-9.876 4.43-1.396 1.503-2.509 3.316-3.269 5.328a18.061 18.061 0 0 0-1.153 6.372c0 2.192.393 4.36 1.153 6.373.76 2.012 1.873 3.825 3.27 5.328 2.695 2.828 6.218 4.405 9.878 4.423a12.292 12.292 0 0 0 5.18-1.14c2.612-1.209 4.848-3.28 6.422-5.95 1.575-2.67 2.415-5.815 2.415-9.034 0-3.22-.84-6.365-2.415-9.034-1.574-2.67-3.81-4.742-6.421-5.95a12.302 12.302 0 0 0-5.184-1.146Z"/><path fill="#fff" d="M27.928 42.999v-2.574c-.919-.07-1.75-.304-2.496-.702-.728-.416-1.335-.85-1.82-1.3l.468-.572c.468.433 1.057.858 1.768 1.274.728.398 1.56.598 2.496.598 1.144 0 2.02-.312 2.626-.936.607-.642.91-1.456.91-2.444 0-.919-.182-1.656-.546-2.21a4.428 4.428 0 0 0-1.43-1.404 13.227 13.227 0 0 0-1.82-1.014 20.952 20.952 0 0 1-1.846-1.014 4.632 4.632 0 0 1-1.404-1.378c-.364-.572-.546-1.3-.546-2.184 0-1.075.347-1.976 1.04-2.704.693-.728 1.56-1.136 2.6-1.222v-2.574h.78v2.548c.85.052 1.543.251 2.08.598a7.565 7.565 0 0 1 1.456 1.222l-.52.52c-.485-.503-.97-.893-1.456-1.17-.485-.295-1.144-.442-1.976-.442-.936 0-1.699.312-2.288.936-.59.606-.884 1.352-.884 2.236 0 .797.182 1.447.546 1.95.364.502.832.918 1.404 1.248.59.329 1.205.641 1.846.936.641.294 1.248.641 1.82 1.04.59.398 1.066.918 1.43 1.56.364.624.546 1.447.546 2.47 0 1.23-.39 2.21-1.17 2.938-.763.728-1.707 1.135-2.834 1.222v2.548h-.78Z"/><path fill="#fff" d="M27.928 42.999h-.1v.1h.1v-.1Zm0-2.574h.1v-.093l-.092-.007-.008.1Zm-2.496-.702-.05.087h.003l.047-.087Zm-1.82-1.3-.077-.064-.06.073.069.064.068-.073Zm.468-.572.068-.074-.078-.072-.067.082.077.064Zm1.768 1.274-.05.086.002.001.048-.087Zm5.122-.338.072.07v-.002l-.072-.068Zm.364-4.654-.084.053v.002l.084-.055Zm-1.43-1.404-.055.083.003.002.052-.085Zm-1.82-1.014-.044.09h.002l.042-.09ZM26.238 30.7l-.054.084h.002l.052-.084Zm-1.404-1.378-.084.053v.002l.084-.055Zm.494-4.888-.072-.07.072.07Zm2.6-1.222.008.1.092-.008v-.092h-.1Zm0-2.574v-.1h-.1v.1h.1Zm.78 0h.1v-.1h-.1v.1Zm0 2.548h-.1v.094l.094.006.006-.1Zm2.08.598-.054.084.054-.084Zm1.456 1.222.07.07.069-.068-.066-.07-.073.068Zm-.52.52-.072.07.07.072.073-.072-.071-.07Zm-1.456-1.17-.052.085.002.002.05-.087Zm-4.264.494.072.07v-.002l-.072-.068Zm-.338 4.186-.081.058.081-.058Zm1.404 1.248-.05.086.001.001.049-.087Zm1.846.936.042-.091-.042.09Zm1.82 1.04-.057.082h.001l.056-.082Zm1.43 1.56-.087.049v.001l.087-.05Zm-.624 5.408-.068-.073h-.001l.069.073Zm-2.834 1.222-.008-.1-.092.007v.093h.1Zm0 2.548v.1h.1v-.1h-.1Zm-.68 0v-2.574h-.2v2.574h.2Zm-.092-2.674c-.907-.068-1.725-.299-2.457-.69l-.094.176c.758.406 1.604.643 2.535.713l.015-.199Zm-2.454-.69c-.723-.412-1.323-.841-1.802-1.286l-.136.147c.492.457 1.105.895 1.838 1.313l.1-.173Zm-1.793-1.149.468-.572-.154-.127-.468.572.154.127Zm.323-.562c.475.44 1.07.868 1.785 1.287l.101-.173c-.706-.413-1.289-.833-1.75-1.26l-.136.146Zm1.788 1.288c.744.408 1.593.61 2.544.61v-.2c-.921 0-1.736-.195-2.448-.585l-.096.175Zm2.544.61c1.162 0 2.067-.317 2.698-.966l-.144-.139c-.582.6-1.428.906-2.554.906v.2Zm2.699-.967c.626-.662.937-1.502.937-2.512h-.2c0 .965-.296 1.754-.883 2.375l.146.137Zm.937-2.512c0-.931-.184-1.69-.562-2.265l-.168.11c.35.533.53 1.248.53 2.155h.2Zm-.562-2.264a4.528 4.528 0 0 0-1.462-1.435l-.104.17a4.328 4.328 0 0 1 1.398 1.372l.168-.107Zm-1.459-1.434a13.336 13.336 0 0 0-1.833-1.021l-.084.181c.637.293 1.239.629 1.806 1.007l.111-.166Zm-1.831-1.02a20.83 20.83 0 0 1-1.837-1.01l-.105.17c.592.367 1.21.706 1.854 1.02l.088-.18Zm-1.836-1.009a4.532 4.532 0 0 1-1.374-1.348l-.168.11a4.73 4.73 0 0 0 1.434 1.407l.108-.169Zm-1.374-1.347c-.35-.552-.53-1.26-.53-2.13h-.2c0 .897.185 1.645.562 2.237l.168-.107Zm-.53-2.13c0-1.051.338-1.927 1.012-2.635l-.144-.138c-.713.748-1.068 1.674-1.068 2.773h.2Zm1.012-2.635c.676-.71 1.52-1.107 2.536-1.192l-.016-.199c-1.064.089-1.954.506-2.664 1.253l.144.138Zm2.628-1.291v-2.574h-.2v2.574h.2Zm-.1-2.474h.78v-.2h-.78v.2Zm.68-.1v2.548h.2v-2.548h-.2Zm.094 2.648c.838.05 1.513.247 2.032.582l.108-.168c-.555-.359-1.267-.561-2.128-.614l-.012.2Zm2.032.582c.53.342 1.009.744 1.437 1.206l.146-.136a7.67 7.67 0 0 0-1.475-1.238l-.108.168Zm1.44 1.067-.52.52.14.141.52-.52-.14-.141Zm-.378.521c-.49-.508-.983-.904-1.478-1.187l-.1.174c.476.271.954.655 1.434 1.152l.144-.139Zm-1.476-1.186c-.507-.307-1.186-.456-2.028-.456v.2c.822 0 1.46.145 1.924.427l.104-.17Zm-2.028-.456c-.96 0-1.75.321-2.36.967l.145.137c.568-.602 1.304-.904 2.215-.904v-.2Zm-2.36.966c-.608.626-.912 1.397-.912 2.306h.2c0-.86.285-1.58.856-2.167l-.144-.139Zm-.912 2.306c0 .812.186 1.484.565 2.008l.162-.117c-.349-.481-.527-1.11-.527-1.891h-.2Zm.565 2.008c.373.515.852.94 1.435 1.276l.1-.173a4.342 4.342 0 0 1-1.373-1.22l-.162.117Zm1.436 1.277c.592.33 1.21.644 1.853.94l.084-.182a26.11 26.11 0 0 1-1.84-.933l-.097.175Zm1.853.94c.636.292 1.238.636 1.805 1.03l.114-.163a11.874 11.874 0 0 0-1.835-1.05l-.084.182Zm1.806 1.031c.576.39 1.042.899 1.399 1.527l.174-.099a4.685 4.685 0 0 0-1.461-1.593l-.112.166Zm1.4 1.528c.352.604.532 1.408.532 2.42h.2c0-1.034-.184-1.876-.56-2.52l-.172.1Zm.532 2.42c0 1.207-.382 2.158-1.138 2.865l.136.146c.804-.75 1.202-1.758 1.202-3.011h-.2Zm-1.139 2.865c-.745.711-1.667 1.11-2.773 1.195l.016.2c1.148-.089 2.114-.505 2.895-1.25l-.138-.145Zm-2.865 1.295v2.548h.2V40.45h-.2Zm.1 2.448h-.78v.2h.78v-.2Z"/></svg>