<svg xmlns="http://www.w3.org/2000/svg" width="72" height="72" fill="none" viewBox="0 0 72 72"><path fill="#fff" d="M11.204 36.516c0 .83-.694 1.504-1.55 1.504-.856 0-1.55-.674-1.55-1.504s.694-1.504 1.55-1.504c.856 0 1.55.673 1.55 1.504Z"/><path stroke="#fff" d="M46.353 36.516c0 5.27-4.403 9.542-9.835 9.542-5.433 0-9.836-4.272-9.836-9.542s4.404-9.541 9.836-9.541 9.835 4.271 9.835 9.541Z"/><path fill="#fff" stroke="#fff" stroke-width=".6" d="M36.33 71.5v-.299a3.642 3.642 0 0 1-2.33-.848 3.617 3.617 0 0 1-1.243-2.154 3.608 3.608 0 0 1 2.373-4.023l.915-.318V51.364l-1.243-.12a15.067 15.067 0 0 1-6.12-1.96l-.725-.416-5.332 3.325c-.317.2-.577.473-.756.797-.18.323-.273.685-.273 1.052v3.19l.916.317a3.625 3.625 0 0 1 1.92 1.575c.434.74.593 1.604.448 2.445a3.62 3.62 0 0 1-1.242 2.154 3.613 3.613 0 0 1-2.331.847 3.613 3.613 0 0 1-2.332-.847 3.619 3.619 0 0 1-1.241-2.154 3.609 3.609 0 0 1 2.369-4.02l.921-.327v-3.186a2.761 2.761 0 0 1 1.31-2.357l5.02-3.138-1.325-1.2a15.144 15.144 0 0 1-3.371-4.404l-.703-1.378-6.534 4.319c-.45.3-.984.46-1.53.46H8.37l-.328.91a3.63 3.63 0 0 1-6.184 1.124A3.621 3.621 0 0 1 1 46.038c0-.85.303-1.674.857-2.332a3.63 3.63 0 0 1 4.597-.785 3.616 3.616 0 0 1 1.587 1.909l.328.91h5.519c.438 0 .866-.129 1.227-.37l6.68-4.404-.252-.937a15.09 15.09 0 0 1-.442-2.403l-.126-1.229h-6.339a.287.287 0 0 1-.2-.083.313.313 0 0 1 0-.431.278.278 0 0 1 .2-.082h6.339l.123-1.226c.355-3.74 2.118-7.222 4.953-9.78 2.777-2.509 6.43-3.906 10.224-3.91h.055c.567 0 1.135.032 1.699.093h.032a.283.283 0 0 1 .195.094.306.306 0 0 1-.022.432.283.283 0 0 1-.189.073h-.093a15.523 15.523 0 0 0-1.617-.099h-.005a14.902 14.902 0 0 0-8.77 2.88c-2.545 1.889-4.408 4.511-5.322 7.49a14.613 14.613 0 0 0 .219 9.154c1.052 2.933 3.035 5.466 5.664 7.236l.067.043c2.4 1.59 5.24 2.44 8.146 2.44 2.906 0 5.745-.85 8.146-2.44l.069-.045c2.15-1.44 3.876-3.4 5.005-5.686a14.52 14.52 0 0 0 1.48-7.396 14.603 14.603 0 0 0-2.438-7.152 14.716 14.716 0 0 0-5.712-4.992l-.015-.006a.293.293 0 0 1-.155-.174.305.305 0 0 1 .087-.333.29.29 0 0 1 .18-.068h.028a.264.264 0 0 1 .11.032l.016.009a15.232 15.232 0 0 1 5.792 4.962 15.124 15.124 0 0 1 2.637 7.148l.131 1.223h19.416l-.073-1.426a33.313 33.313 0 0 0-.179-2.189l-.11-.895-5.487-1.59a.29.29 0 0 1-.123-.08.301.301 0 0 1-.074-.138 29 29 0 0 0-3.704-8.88.3.3 0 0 1-.045-.152.293.293 0 0 1 .036-.154l2.742-4.968-.563-.702a34.958 34.958 0 0 0-5.558-5.522l-.727-.576-5.017 2.73a.295.295 0 0 1-.132.032h-.008a.289.289 0 0 1-.14-.04 29.477 29.477 0 0 0-8.954-3.677.284.284 0 0 1-.131-.07.3.3 0 0 1-.082-.133L41.18 1.929l-.91-.106a34.893 34.893 0 0 0-7.87 0l-.909.106-1.607 5.447a.295.295 0 0 1-.211.205 29.427 29.427 0 0 0-8.948 3.68.287.287 0 0 1-.283.009l-5.027-2.736-.723.571a34.95 34.95 0 0 0-5.558 5.52l-.568.709 2.74 4.97a.31.31 0 0 1-.006.305 28.992 28.992 0 0 0-3.703 8.882.29.29 0 0 1-.2.211l-5.49 1.59-.102.897a34.509 34.509 0 0 0-.177 2.172l-.078 1.441h3.078a.281.281 0 0 1 .2.082.307.307 0 0 1 0 .431.277.277 0 0 1-.2.083H1.292a.282.282 0 0 1-.2-.083.305.305 0 0 1-.089-.212 35.15 35.15 0 0 1 .374-5.088.29.29 0 0 1 .072-.155.284.284 0 0 1 .136-.087l5.484-1.59.196-.743a29.792 29.792 0 0 1 3.069-7.356l.386-.66-2.742-4.956a.31.31 0 0 1 .023-.33 35.177 35.177 0 0 1 7.231-7.184.286.286 0 0 1 .149-.054h.02c.046 0 .091.011.132.034l5.014 2.73.68-.393a30.273 30.273 0 0 1 7.403-3.054l.753-.197 1.6-5.442a.303.303 0 0 1 .091-.142.285.285 0 0 1 .144-.066 35.48 35.48 0 0 1 10.224 0c.053.008.104.03.144.066a.307.307 0 0 1 .092.143l1.599 5.44.753.198a30.181 30.181 0 0 1 7.4 3.045l.68.392 5.011-2.731a.279.279 0 0 1 .133-.034h.02a.28.28 0 0 1 .149.055 35.108 35.108 0 0 1 7.232 7.183.311.311 0 0 1 .024.33l-2.74 4.964.385.662a29.808 29.808 0 0 1 3.074 7.36l.197.743 5.484 1.59c.053.015.1.045.135.087a.305.305 0 0 1 .073.156c.246 1.683.37 3.38.37 5.081a.313.313 0 0 1-.089.212.277.277 0 0 1-.198.083H51.686l-.122 1.225c-.08.811-.227 1.615-.437 2.404l-.253.937 6.674 4.406a2.22 2.22 0 0 0 1.237.374h5.516l.328-.91a3.63 3.63 0 0 1 6.184-1.124 3.62 3.62 0 0 1 .857 2.333 3.62 3.62 0 0 1-3.02 3.566 3.63 3.63 0 0 1-4.028-2.352l-.328-.907h-5.522c-.546-.001-1.08-.163-1.53-.464l-6.536-4.324-.703 1.378a15.118 15.118 0 0 1-3.371 4.403l-1.325 1.197 5.02 3.138a2.772 2.772 0 0 1 1.309 2.37v3.188l.916.318a3.61 3.61 0 0 1 1.127 6.179 3.617 3.617 0 0 1-2.332.846 3.617 3.617 0 0 1-3.57-3 3.616 3.616 0 0 1 .448-2.445 3.63 3.63 0 0 1 1.92-1.575l.918-.333v-3.18a2.174 2.174 0 0 0-1.03-1.85l-5.331-3.325-.727.416a15.068 15.068 0 0 1-6.12 1.96l-1.235.126v12.49l.916.317c.81.29 1.49.847 1.916 1.576.434.739.592 1.6.448 2.438a3.61 3.61 0 0 1-1.24 2.152 3.633 3.633 0 0 1-2.327.849l-.003.308Zm0-6.928c-.607 0-1.199.178-1.699.51a3.015 3.015 0 0 0-1.12 1.355 2.989 2.989 0 0 0 .658 3.278c.423.422.968.711 1.563.829.594.117 1.21.056 1.768-.173a3.031 3.031 0 0 0 1.367-1.113 2.989 2.989 0 0 0-.38-3.8 3.047 3.047 0 0 0-.986-.653 3.129 3.129 0 0 0-1.171-.233Zm15.016-6.63a3.07 3.07 0 0 0-1.698.512 3.025 3.025 0 0 0-1.12 1.355 2.989 2.989 0 0 0 .659 3.278 3.05 3.05 0 0 0 2.16.887c.402 0 .8-.079 1.17-.231a3.028 3.028 0 0 0 1.368-1.114 2.987 2.987 0 0 0-.378-3.799 3.044 3.044 0 0 0-.988-.654 3.128 3.128 0 0 0-1.173-.233Zm-30.033 0a3.07 3.07 0 0 0-1.699.512 3.026 3.026 0 0 0-1.12 1.355 2.989 2.989 0 0 0 .66 3.278 3.05 3.05 0 0 0 2.159.887c.402 0 .8-.079 1.171-.231a3.028 3.028 0 0 0 1.367-1.114 2.987 2.987 0 0 0-.378-3.799 3.045 3.045 0 0 0-.988-.654 3.128 3.128 0 0 0-1.172-.233Zm46.721-14.914c-.607 0-1.2.178-1.7.511a3.012 3.012 0 0 0-1.12 1.35 2.998 2.998 0 0 0 .658 3.278c.424.423.97.712 1.564.83.594.117 1.21.057 1.767-.173a3.03 3.03 0 0 0 1.369-1.114 2.99 2.99 0 0 0-.378-3.799 3.049 3.049 0 0 0-.989-.651 3.124 3.124 0 0 0-1.17-.232Zm-63.406 0c-.607 0-1.2.178-1.7.511a3.012 3.012 0 0 0-1.118 1.35c-.23.551-.29 1.155-.173 1.737a2.99 2.99 0 0 0 .83 1.55 3.05 3.05 0 0 0 1.564.83c.594.116 1.21.056 1.769-.173a3.039 3.039 0 0 0 1.367-1.114 2.992 2.992 0 0 0-.378-3.8 3.049 3.049 0 0 0-.988-.655 3.125 3.125 0 0 0-1.173-.236Z"/></svg>