<svg xmlns="http://www.w3.org/2000/svg" width="77" height="77" fill="none" viewBox="0 0 77 77"><path fill="#fff" stroke="#fff" stroke-width=".5" d="M62.472 75.936H3.892c-.766 0-1.5-.291-2.043-.81A2.717 2.717 0 0 1 1 73.17V16.96a2.714 2.714 0 0 1 .85-1.953 2.951 2.951 0 0 1 2.041-.806h7.736V3.766a2.718 2.718 0 0 1 .85-1.957A2.955 2.955 0 0 1 14.52 1H73.1c.766.001 1.5.292 2.044.81A2.73 2.73 0 0 1 76 3.767v56.21a2.714 2.714 0 0 1-.851 1.953 2.951 2.951 0 0 1-2.041.805h-7.752v10.435c0 .734-.305 1.437-.846 1.956a2.95 2.95 0 0 1-2.038.81ZM1.818 21.604V73.17c.001.526.22 1.03.609 1.402.389.372.915.58 1.464.58h58.581c.467-.002.92-.156 1.285-.435a1.99 1.99 0 0 0 .73-1.105h.06V21.604H1.817ZM14.52 1.784c-.55 0-1.077.208-1.466.58-.39.37-.61.875-.61 1.402v10.44H62.47c.764-.001 1.497.29 2.037.807.54.517.845 1.219.847 1.951v44.983h7.752a2.115 2.115 0 0 0 1.463-.576c.389-.37.609-.873.611-1.399v-.442h-.008V3.763a1.948 1.948 0 0 0-.61-1.402 2.118 2.118 0 0 0-1.463-.58l-58.58.003ZM3.884 14.986a2.115 2.115 0 0 0-1.463.576c-.39.37-.609.873-.612 1.399v3.856h62.268v-.443h.453v-3.41c0-.26-.054-.517-.158-.758a1.978 1.978 0 0 0-.45-.642 2.074 2.074 0 0 0-.67-.428c-.25-.1-.52-.15-.791-.15H3.884Zm29.29 55.705H8.28a.418.418 0 0 1-.288-.115.384.384 0 0 1 .131-.64c.05-.02.103-.029.157-.028h24.894c.108 0 .212.04.289.114.076.074.12.173.12.277a.384.384 0 0 1-.12.277.418.418 0 0 1-.29.115Zm-10.797-5.825H8.28a.418.418 0 0 1-.289-.115.384.384 0 0 1 .132-.64.42.42 0 0 1 .157-.029h14.1c.109 0 .213.041.29.115a.384.384 0 0 1 0 .554.417.417 0 0 1-.29.115h-.003Zm23.37-5.886c-.474 0-.937-.137-1.328-.394a2.27 2.27 0 0 1-.863-1.045 2.165 2.165 0 0 1-.095-1.33c.11-.443.356-.843.707-1.149l7.66-6.683-7.66-6.683a2.229 2.229 0 0 1-.77-1.563 2.13 2.13 0 0 1 .133-.869c.105-.278.266-.534.475-.751a2.406 2.406 0 0 1 1.629-.737h.126c.58-.002 1.14.207 1.565.586l9.558 8.342c.242.212.435.47.567.758a2.172 2.172 0 0 1 .003 1.823 2.256 2.256 0 0 1-.567.754l-9.56 8.354a2.4 2.4 0 0 1-1.58.587Zm-.072-20.423a1.579 1.579 0 0 0-.838.289 1.481 1.481 0 0 0-.53.686c-.103.274-.118.57-.045.853.073.282.232.538.456.734l8.314 7.263-8.313 7.259a1.45 1.45 0 0 0-.458.746c-.07.287-.049.588.062.863.112.275.307.511.56.678.255.167.555.256.863.255.38.003.748-.131 1.031-.375l9.566-8.345c.159-.137.285-.305.372-.493a1.408 1.408 0 0 0-.001-1.188 1.494 1.494 0 0 0-.368-.494l-9.56-8.349a1.552 1.552 0 0 0-1.031-.382h-.08ZM28.887 58.98c-.306 0-.609-.058-.891-.172a2.349 2.349 0 0 1-.767-.488c-.22-.21-.393-.46-.511-.735a2.125 2.125 0 0 1 0-1.703l7.148-16.704c.253-.527.709-.94 1.271-1.152a2.439 2.439 0 0 1 1.749.012c.56.22 1.009.639 1.254 1.169.246.53.268 1.13.063 1.676l-7.14 16.704c-.177.413-.48.766-.867 1.014a2.42 2.42 0 0 1-1.309.379Zm7.15-20.427a1.57 1.57 0 0 0-.859.246 1.476 1.476 0 0 0-.566.666l-7.149 16.704c-.15.36-.147.762.008 1.12.155.359.45.645.823.797h.005c.18.07.373.107.568.106.305-.002.603-.088.857-.25.255-.161.454-.39.575-.659l7.153-16.7c.154-.36.152-.765-.005-1.124a1.477 1.477 0 0 0-.562-.657 1.571 1.571 0 0 0-.848-.246v-.003ZM20.608 58.98a2.377 2.377 0 0 1-1.58-.59l-9.562-8.342a2.266 2.266 0 0 1-.566-.756 2.181 2.181 0 0 1 0-1.822c.132-.287.325-.544.566-.756l9.552-8.359a2.418 2.418 0 0 1 1.694-.582 2.399 2.399 0 0 1 1.629.734c.209.218.37.473.475.751.104.278.15.574.133.87v.004a2.181 2.181 0 0 1-.218.855c-.13.269-.315.51-.543.71l-7.66 6.683 7.66 6.682c.23.198.416.438.547.705.132.267.207.557.221.853v.004c.017.296-.029.592-.133.87a2.198 2.198 0 0 1-.476.752c-.22.232-.49.417-.789.544-.3.126-.623.19-.95.19ZM20.6 38.56a1.549 1.549 0 0 0-1.03.381l-9.557 8.354a1.462 1.462 0 0 0-.372.493 1.408 1.408 0 0 0 0 1.187c.085.186.21.353.365.492l9.569 8.352c.28.244.647.378 1.026.375.208.002.415-.036.606-.114.192-.077.365-.191.51-.336.143-.144.254-.315.326-.502a1.4 1.4 0 0 0 .09-.587 1.41 1.41 0 0 0-.144-.556 1.466 1.466 0 0 0-.356-.46l-8.314-7.26 8.315-7.263c.15-.13.27-.288.355-.464.084-.176.13-.367.137-.56a1.411 1.411 0 0 0-.097-.581 1.456 1.456 0 0 0-.327-.498 1.53 1.53 0 0 0-.504-.335 1.584 1.584 0 0 0-.602-.117h.004Zm4.21-6.3H8.284a.432.432 0 0 1-.288-.117.398.398 0 0 1-.125-.275.374.374 0 0 1 .12-.278.408.408 0 0 1 .29-.113h16.527c.108 0 .212.041.289.115.077.073.12.173.12.277a.383.383 0 0 1-.12.277.417.417 0 0 1-.289.114Zm-7.165-5.833H8.28a.418.418 0 0 1-.288-.114.384.384 0 0 1 .131-.64c.05-.02.103-.03.157-.03h9.363c.109 0 .213.042.29.115a.383.383 0 0 1 0 .554.417.417 0 0 1-.29.115h.002Zm42.472-7.797a.774.774 0 0 1-.535-.212.712.712 0 0 1 .244-1.186.776.776 0 0 1 .291-.053c.2 0 .393.076.535.212.142.136.222.321.222.514 0 .192-.08.377-.222.513a.773.773 0 0 1-.535.212Zm-5.005 0a.773.773 0 0 1-.535-.213.704.704 0 0 1-.093-.916.75.75 0 0 1 .339-.266.786.786 0 0 1 .823.158.697.697 0 0 1 .163.79.732.732 0 0 1-.278.325.78.78 0 0 1-.42.122Zm-4.99 0a.773.773 0 0 1-.535-.213.711.711 0 0 1-.002-1.028.75.75 0 0 1 .537-.21c.2 0 .393.076.535.212.142.136.222.321.222.514 0 .192-.08.377-.222.513a.774.774 0 0 1-.535.212Zm20.34-12.72a.776.776 0 0 1-.538-.21.718.718 0 0 1-.22-.516.71.71 0 0 1 .222-.513.773.773 0 0 1 .535-.212c.2 0 .393.076.534.212a.71.71 0 0 1 .002 1.03.75.75 0 0 1-.538.21h.002Zm-4.999 0a.776.776 0 0 1-.537-.21.717.717 0 0 1-.219-.516c0-.192.08-.376.222-.512a.773.773 0 0 1 .534-.213c.2 0 .393.077.535.213a.71.71 0 0 1 .221.513.71.71 0 0 1-.221.513.773.773 0 0 1-.535.212Zm-4.997 0a.776.776 0 0 1-.538-.21.716.716 0 0 1-.219-.516c0-.192.08-.377.222-.513a.773.773 0 0 1 .535-.213c.2 0 .393.077.535.213a.71.71 0 0 1 .002 1.03.752.752 0 0 1-.54.21h.003Z"/></svg>