<svg xmlns="http://www.w3.org/2000/svg" width="70" height="70" fill="none" viewBox="0 0 70 70"><path fill="#fff" d="M44.515 66.807a.417.417 0 0 1-.155-.026.429.429 0 0 1-.243-.214.35.35 0 0 1 0-.301.388.388 0 0 1 .158-.18.476.476 0 0 1 .403-.04c.106.044.189.123.23.22a.353.353 0 0 1-.008.298.381.381 0 0 1-.15.173.467.467 0 0 1-.235.07Z"/><path fill="#fff" d="M59.885 70h-.024l-17.358-.135a2.417 2.417 0 0 1-.84-.156 2.173 2.173 0 0 1-.704-.43c-.416-.378-.644-.882-.637-1.406l.028-2.983c.002-.523.24-1.024.663-1.394.2-.178.44-.32.703-.416.263-.097.546-.147.831-.148l1.746.013-.004-8.167a6.656 6.656 0 0 1 .405-3.167 7.425 7.425 0 0 1 1.864-2.739c.496-.398 1.123-.87 1.73-1.327l.083-.064a50.079 50.079 0 0 0 6.293-5.33.435.435 0 0 1 .059-.055c.695-.567 1.609-.884 2.56-.888.465-.002.926.077 1.355.234.43.156.818.387 1.143.677.098.087.181.178.257.249l.893.952.183-1.22c.04-.26.059-.523.057-.786l-.047-10.699c-.022-5.877 3.233-6.38 4.23-6.396h.063c.99.013 1.94.343 2.67.928.729.585 1.186 1.383 1.284 2.244l.624 19.704a6.132 6.132 0 0 1-.546 2.772c-.398.882-1 1.682-1.767 2.352l-9.783 8.733v2.1l2.035.016c.29.002.575.055.84.156.265.1.505.247.704.43.416.377.645.882.637 1.405l-.029 2.983c-.001.523-.24 1.025-.663 1.395-.2.178-.44.32-.704.416a2.43 2.43 0 0 1-.834.147Zm-17.331-5.842a.951.951 0 0 0-.332.058.86.86 0 0 0-.279.166.706.706 0 0 0-.248.519l-.029 2.981a.658.658 0 0 0 .06.288.739.739 0 0 0 .18.245.85.85 0 0 0 .279.17c.104.04.218.061.332.061l17.35.133h.02a.94.94 0 0 0 .325-.059.848.848 0 0 0 .273-.164.719.719 0 0 0 .248-.52l.029-2.982a.7.7 0 0 0-.236-.523.852.852 0 0 0-.273-.164.946.946 0 0 0-.325-.06l-17.362-.147-.012-.002Zm14.729-21.724a2.67 2.67 0 0 0-1.596.533l-.038.028-.033.034a51.568 51.568 0 0 1-6.38 5.4l-.013.011c-.675.507-1.275.96-1.772 1.36a6.031 6.031 0 0 0-1.543 2.312 5.414 5.414 0 0 0-.274 2.666l.01 8.172 10.904.084v-2.34c0-.163.073-.32.204-.437l9.988-8.914a5.614 5.614 0 0 0 1.461-1.927c.329-.724.481-1.5.447-2.278l-.624-19.712c-.097-.546-.412-1.045-.89-1.408a2.909 2.909 0 0 0-1.72-.573h-.037c-1.832.025-2.918 1.954-2.904 5.168l.047 10.705c.014 1.578-.612 3.109-1.766 4.322l-.834.91-.027.025c-1.086 1.092-2.191 2.047-3.361 3.057l-.075.066c-.505.434-1.042.897-1.581 1.38a.662.662 0 0 1-.216.131.738.738 0 0 1-.513 0 .663.663 0 0 1-.215-.13.59.59 0 0 1-.204-.438.59.59 0 0 1 .203-.438c.517-.462 1.034-.908 1.533-1.338l.122-.105.03-.026c1.138-.983 2.214-1.912 3.256-2.952l.034-.039c.403-.372.623-.868.61-1.38-.011-.513-.253-1.001-.673-1.36a2.189 2.189 0 0 0-.713-.424 2.426 2.426 0 0 0-.847-.145ZM25.49 66.807a.477.477 0 0 1-.247-.066.389.389 0 0 1-.16-.179.355.355 0 0 1 .003-.302.433.433 0 0 1 .405-.24.468.468 0 0 1 .235.072c.068.043.12.104.15.174a.352.352 0 0 1-.001.301.431.431 0 0 1-.384.24Z"/><path fill="#fff" d="M10.14 70h-.021c-.286 0-.569-.05-.832-.147a2.191 2.191 0 0 1-.702-.416c-.423-.371-.662-.872-.666-1.395l-.028-2.981c-.006-.522.222-1.024.637-1.4.2-.184.439-.33.705-.43.265-.101.552-.154.841-.156l2.035-.016v-2.107l-9.785-8.734a6.901 6.901 0 0 1-1.77-2.35 6.126 6.126 0 0 1-.55-2.773l.631-19.704c.099-.86.556-1.66 1.285-2.244.729-.585 1.679-.915 2.669-.928h.06c1 .014 4.257.52 4.23 6.396l-.044 10.706c-.002.264.017.528.057.79l.19 1.22.892-.956a3.455 3.455 0 0 1 1.394-.925 3.899 3.899 0 0 1 1.353-.233c.95.004 1.864.322 2.558.888a.59.59 0 0 1 .067.058 50.088 50.088 0 0 0 6.29 5.33l.038.029c.61.464 1.257.945 1.772 1.359a7.433 7.433 0 0 1 1.862 2.735 6.663 6.663 0 0 1 .409 3.162l-.012 8.172 1.72-.014h.011c.288 0 .573.05.838.146.266.097.507.24.708.419.424.37.663.872.666 1.395l.028 2.98c.007.524-.221 1.028-.637 1.404-.2.184-.439.33-.704.432a2.432 2.432 0 0 1-.842.156L10.139 70Zm17.314-5.842-17.372.135a.946.946 0 0 0-.325.06.854.854 0 0 0-.273.166.745.745 0 0 0-.184.245.662.662 0 0 0-.062.288l.028 2.981a.708.708 0 0 0 .255.526c.16.14.378.218.604.219l17.362-.143c.114 0 .227-.02.332-.06.105-.04.2-.098.278-.17a.708.708 0 0 0 .24-.533l-.036-2.967a.702.702 0 0 0-.242-.52.918.918 0 0 0-.586-.227h-.019ZM4.597 25.445a2.914 2.914 0 0 0-1.723.573c-.479.362-.795.861-.892 1.408l-.626 19.712a4.976 4.976 0 0 0 .445 2.278c.328.724.825 1.38 1.459 1.927l9.988 8.914c.13.118.204.275.204.439v2.347l10.906-.093.012-8.172a5.42 5.42 0 0 0-.274-2.664 6.035 6.035 0 0 0-1.541-2.311c-.433-.355-.936-.728-1.518-1.167l-.146-.11-.112-.086a51.67 51.67 0 0 1-6.391-5.41l-.033-.033-.039-.029a2.674 2.674 0 0 0-1.597-.533 2.421 2.421 0 0 0-.842.146 2.183 2.183 0 0 0-.71.423c-.42.358-.66.845-.673 1.358-.011.511.207 1.007.61 1.38l.034.039c1.018 1.018 2.07 1.933 3.189 2.9l.073.063c.494.427 1.08.933 1.672 1.46.13.118.202.275.202.438 0 .163-.072.32-.202.437a.667.667 0 0 1-.215.13.738.738 0 0 1-.513 0 .667.667 0 0 1-.216-.13c-.48-.428-1.007-.889-1.654-1.445l-.014-.009c-1.17-1.01-2.275-1.963-3.353-3.052l-.85-.925C8.1 44.432 7.473 42.9 7.486 41.32l.046-10.706c.012-3.21-1.074-5.143-2.908-5.17h-.028ZM38.967 41.025a7.44 7.44 0 0 1-2.585-.477 6.695 6.695 0 0 1-2.164-1.321c-.844-.777-1.448-1.728-1.754-2.765a5.527 5.527 0 0 1 .006-3.16l.09-.294-9.804-8.74-.348.084a7.671 7.671 0 0 1-4.395-.25 6.935 6.935 0 0 1-2.217-1.306c-.907-.799-1.541-1.801-1.834-2.896a5.343 5.343 0 0 1 .177-3.306.597.597 0 0 1 .183-.257.723.723 0 0 1 .454-.162c.089 0 .176.016.257.047a.67.67 0 0 1 .215.13l4.082 3.642 2.34-.56.618-2.06-4.069-3.637a.617.617 0 0 1-.176-.27.555.555 0 0 1-.007-.31.594.594 0 0 1 .16-.271.718.718 0 0 1 .29-.17 7.768 7.768 0 0 1 2.168-.317 7.448 7.448 0 0 1 2.583.474A6.706 6.706 0 0 1 25.4 14.19c.845.776 1.449 1.728 1.755 2.765a5.525 5.525 0 0 1-.005 3.16l-.09.295 9.802 8.747.348-.086a7.668 7.668 0 0 1 4.393.25c.83.304 1.584.749 2.217 1.308.906.8 1.54 1.801 1.833 2.896a5.342 5.342 0 0 1-.177 3.305.597.597 0 0 1-.182.256.721.721 0 0 1-.711.116.67.67 0 0 1-.215-.13l-4.082-3.643-2.336.558-.61 2.067 4.07 3.635c.083.076.143.169.175.27a.552.552 0 0 1 .005.312.587.587 0 0 1-.159.27.71.71 0 0 1-.288.17 7.769 7.769 0 0 1-2.177.314ZM22.913 22.942c.089 0 .177.016.259.047.081.03.155.075.217.13l10.432 9.31a.606.606 0 0 1 .19.317.555.555 0 0 1-.04.356 4.388 4.388 0 0 0-.287 2.783c.21.932.723 1.792 1.476 2.478.747.679 1.71 1.146 2.765 1.342l1.96.355-3.783-3.376a.622.622 0 0 1-.18-.28.56.56 0 0 1-.001-.32l.826-2.754a.59.59 0 0 1 .174-.272.72.72 0 0 1 .306-.16l3.084-.737a.73.73 0 0 1 .643.158l3.82 3.408-.407-1.758c-.212-.93-.729-1.786-1.488-2.464a5.562 5.562 0 0 0-1.779-1.05 6.152 6.152 0 0 0-2.105-.371c-.698 0-1.39.12-2.035.355a.71.71 0 0 1-.246.043.755.755 0 0 1-.258-.047.682.682 0 0 1-.218-.13L25.788 21a.607.607 0 0 1-.19-.317.554.554 0 0 1 .04-.356c.399-.885.5-1.85.29-2.783-.21-.932-.72-1.793-1.473-2.48-.748-.677-1.71-1.143-2.765-1.338l-1.96-.355 3.783 3.376a.616.616 0 0 1 .178.279.555.555 0 0 1 0 .32l-.825 2.753a.59.59 0 0 1-.174.272.719.719 0 0 1-.306.16l-3.085.737a.724.724 0 0 1-.166.02.72.72 0 0 1-.468-.183l-3.826-3.399.407 1.757c.215.929.736 1.783 1.498 2.457.507.45 1.112.807 1.779 1.051.667.244 1.382.37 2.105.37.698.001 1.39-.12 2.035-.355a.726.726 0 0 1 .248-.044Z"/><path fill="#fff" d="M35.048 44.478c-.884 0-1.767-.041-2.645-.124-3.941-.373-7.72-1.573-11.016-3.496l-1.371-.802.598 1.875a.546.546 0 0 1-.056.464.69.69 0 0 1-.591.32.744.744 0 0 1-.409-.126.595.595 0 0 1-.238-.315l-1.221-3.836a.562.562 0 0 1-.015-.277.6.6 0 0 1 .12-.256.642.642 0 0 1 .227-.178.738.738 0 0 1 .293-.07l4.476-.143h.028a.73.73 0 0 1 .47.177c.125.11.195.258.196.413a.56.56 0 0 1-.175.434.735.735 0 0 1-.474.2l-2.804.089 1.536.913c3.155 1.872 6.788 3.039 10.58 3.397.834.079 1.672.118 2.511.12 5.406.005 10.642-1.654 14.784-4.688 4.88-3.538 7.961-8.615 8.574-14.128.54-4.424-.528-8.884-3.052-12.749a.558.558 0 0 1-.073-.466.64.64 0 0 1 .32-.38.74.74 0 0 1 .67 0 .626.626 0 0 1 .243.219c2.673 4.093 3.805 8.817 3.237 13.502-.655 5.84-3.927 11.216-9.103 14.958-4.376 3.206-9.908 4.96-15.62 4.953ZM14.054 33.715a.74.74 0 0 1-.338-.08.626.626 0 0 1-.244-.22c-2.672-4.093-3.804-8.817-3.235-13.502.558-5.41 3.4-10.443 7.973-14.124C22.784 2.11 28.761.045 34.98 0c4.859.003 9.607 1.264 13.645 3.623l1.373.804-.61-1.878a.546.546 0 0 1 .055-.463.69.69 0 0 1 .592-.32.748.748 0 0 1 .408.126.6.6 0 0 1 .24.315l1.232 3.834c.028.09.032.184.014.276a.605.605 0 0 1-.346.434.738.738 0 0 1-.292.071l-4.477.144H46.8a.735.735 0 0 1-.473-.176.561.561 0 0 1-.198-.415.561.561 0 0 1 .175-.434.736.736 0 0 1 .474-.2l2.803-.09-1.536-.914C43.718 2.16 38.52.943 33.297 1.28c-5.222.338-10.158 2.211-14.004 5.315-4.049 3.266-6.713 7.632-7.56 12.388-.846 4.756.175 9.622 2.899 13.807a.558.558 0 0 1 .072.467.641.641 0 0 1-.32.379.717.717 0 0 1-.33.08Z"/><path fill="#fff" d="M41.481 21.68c-1.509-.017-2.948-.556-4.002-1.5-1.054-.942-1.636-2.212-1.62-3.53-.016-1.316.567-2.586 1.62-3.528 1.055-.943 2.494-1.482 4.002-1.5 1.509.018 2.948.557 4.002 1.5 1.054.942 1.637 2.212 1.62 3.529.017 1.317-.566 2.587-1.62 3.53-1.053.943-2.493 1.482-4.002 1.5Zm0-8.83c-1.143.011-2.234.417-3.035 1.13-.801.712-1.246 1.672-1.237 2.67-.01 1 .435 1.96 1.236 2.673.8.713 1.893 1.119 3.036 1.13 1.144-.011 2.236-.417 3.037-1.13.8-.713 1.245-1.674 1.236-2.672.01-.999-.435-1.96-1.236-2.672-.801-.712-1.893-1.118-3.037-1.128Z"/><path fill="#fff" d="M42.898 26.62H40.06a.738.738 0 0 1-.384-.11.6.6 0 0 1-.242-.283l-.54-1.244-.283-.078a10.274 10.274 0 0 1-1.627-.6l-.267-.127-1.383.55a.716.716 0 0 1-.525.002.684.684 0 0 1-.218-.13l-2.006-1.791a.61.61 0 0 1-.191-.327.56.56 0 0 1 .048-.364l.61-1.223-.131-.224a8.142 8.142 0 0 1-.674-1.451l-.085-.247-1.406-.483a.692.692 0 0 1-.315-.23.561.561 0 0 1-.117-.343V15.39a.561.561 0 0 1 .118-.345.694.694 0 0 1 .318-.229l1.408-.483.083-.247c.175-.5.4-.986.674-1.451l.134-.224-.61-1.222a.558.558 0 0 1-.05-.366.608.608 0 0 1 .194-.327l2.004-1.791a.682.682 0 0 1 .218-.13.723.723 0 0 1 .525.003l1.383.548.267-.124c.52-.243 1.065-.444 1.628-.6l.282-.077.54-1.244a.599.599 0 0 1 .238-.283.737.737 0 0 1 .382-.113H42.9a.74.74 0 0 1 .383.109c.112.07.197.168.243.282l.541 1.243.283.078c.563.156 1.108.356 1.628.6l.267.124 1.375-.54a.729.729 0 0 1 .523-.005c.081.03.155.075.216.13l2.008 1.788c.099.09.165.204.19.328a.565.565 0 0 1-.048.365l-.61 1.22.132.226c.273.465.499.95.674 1.45l.085.248 1.406.484c.13.046.241.126.32.228.077.103.118.223.117.346v2.53c.001.122-.04.243-.118.345a.694.694 0 0 1-.319.228l-1.406.484-.085.247c-.174.5-.4.985-.674 1.45l-.13.225.61 1.222a.561.561 0 0 1 .049.365.61.61 0 0 1-.191.326l-2.008 1.788a.68.68 0 0 1-.218.13.716.716 0 0 1-.523-.006l-1.384-.549-.266.126c-.52.244-1.065.445-1.628.6l-.275.084-.54 1.244a.6.6 0 0 1-.244.283.74.74 0 0 1-.386.11Zm-6.127-3.744c.124 0 .245.031.35.089a8.86 8.86 0 0 0 2.425.888.72.72 0 0 1 .29.136.6.6 0 0 1 .184.24l.501 1.16h1.917l.502-1.155a.594.594 0 0 1 .184-.239.714.714 0 0 1 .29-.135 8.831 8.831 0 0 0 2.426-.899.735.735 0 0 1 .356-.085c.092 0 .184.017.268.05l1.286.51 1.345-1.201-.56-1.128a.566.566 0 0 1 .043-.58 6.96 6.96 0 0 0 1.001-2.156.576.576 0 0 1 .148-.26.695.695 0 0 1 .27-.169l1.285-.45V15.81l-1.302-.446a.701.701 0 0 1-.268-.169.582.582 0 0 1-.149-.259 6.966 6.966 0 0 0-1.001-2.157.563.563 0 0 1-.045-.58l.562-1.127-1.337-1.19-1.286.499a.745.745 0 0 1-.61-.037 8.892 8.892 0 0 0-2.426-.889.721.721 0 0 1-.295-.137.599.599 0 0 1-.185-.243l-.502-1.16H40.52l-.5 1.158a.599.599 0 0 1-.184.24.72.72 0 0 1-.29.135c-.859.18-1.678.48-2.426.888a.728.728 0 0 1-.348.096.735.735 0 0 1-.268-.051l-1.297-.5-1.344 1.2.56 1.128a.561.561 0 0 1-.044.58 6.895 6.895 0 0 0-1 2.154.581.581 0 0 1-.149.26.7.7 0 0 1-.269.17l-1.302.446v1.685l1.302.447a.693.693 0 0 1 .27.17.576.576 0 0 1 .147.258 6.92 6.92 0 0 0 1.016 2.148.564.564 0 0 1 .045.58l-.562 1.128 1.33 1.2 1.286-.51a.732.732 0 0 1 .277-.049Z"/></svg>