<svg xmlns="http://www.w3.org/2000/svg" width="71" height="71" fill="none" viewBox="0 0 71 71"><path fill="#fff" d="M59.404 65.631h-1.431v-1.41h1.431v1.41ZM54.77 65.631H53.34v-1.41h1.431v1.41ZM50.136 65.631h-1.431v-1.41h1.431v1.41Z"/><path fill="#fff" d="M58.689 70.185H12.353A5.396 5.396 0 0 1 8.57 68.64a5.236 5.236 0 0 1-1.568-3.725v-6.282L.052 65.48V48.657l7.37-7.265h16.7l-.646-.724a37.607 37.607 0 0 1-4.82-6.767l-.126-.227H6.034l-.105.291a2.996 2.996 0 0 1-1.102 1.44c-.51.358-1.118.551-1.743.555a3.056 3.056 0 0 1-2.144-.875 2.965 2.965 0 0 1-.888-2.113c0-.792.319-1.552.888-2.112a3.056 3.056 0 0 1 2.144-.875 3.068 3.068 0 0 1 1.743.553c.509.357.894.86 1.102 1.44l.105.291h11.76l-.29-.621a37.183 37.183 0 0 1-2.402-6.767l-.083-.333H8.35l-.105.291a2.996 2.996 0 0 1-1.323 1.58 3.07 3.07 0 0 1-2.047.368 3.042 3.042 0 0 1-1.805-1.018 2.96 2.96 0 0 1-.714-1.925c0-.704.253-1.386.714-1.924.461-.539 1.1-.9 1.805-1.018a3.07 3.07 0 0 1 2.047.367 2.996 2.996 0 0 1 1.323 1.58l.105.292h6.354l-.096-.523c-.419-2.234-.636-4.5-.65-6.771v-.428H6.034l-.105.29a2.996 2.996 0 0 1-1.102 1.44c-.51.356-1.118.55-1.743.553a3.056 3.056 0 0 1-2.144-.875 2.965 2.965 0 0 1-.888-2.113c0-.792.319-1.552.888-2.112a3.056 3.056 0 0 1 2.144-.875 3.067 3.067 0 0 1 1.743.554c.51.357.894.86 1.102 1.44l.105.29h7.913V6.023h7.584a19.185 19.185 0 0 0 7.3-1.42 18.956 18.956 0 0 0 6.182-4.08l.507-.498.505.497a18.956 18.956 0 0 0 6.18 4.08 19.185 19.185 0 0 0 7.297 1.42h7.584v7.987h7.918l.105-.29a2.998 2.998 0 0 1 1.324-1.581 3.072 3.072 0 0 1 2.047-.37c.706.12 1.346.48 1.807 1.02a2.96 2.96 0 0 1 .714 1.926 2.96 2.96 0 0 1-.714 1.926c-.461.538-1.101.9-1.806 1.018a3.072 3.072 0 0 1-2.048-.368 2.999 2.999 0 0 1-1.324-1.583l-.105-.29h-7.92v.433a38.074 38.074 0 0 1-.65 6.771l-.096.524h6.353l.104-.292a2.997 2.997 0 0 1 1.325-1.582 3.071 3.071 0 0 1 2.047-.368c.705.12 1.345.48 1.806 1.019a2.96 2.96 0 0 1 .715 1.926 2.96 2.96 0 0 1-.715 1.926c-.46.538-1.1.9-1.806 1.018a3.072 3.072 0 0 1-2.047-.368 2.998 2.998 0 0 1-1.325-1.581l-.104-.292h-6.67l-.083.333a37.327 37.327 0 0 1-2.402 6.767l-.293.62h11.761l.105-.291a2.996 2.996 0 0 1 1.324-1.58 3.07 3.07 0 0 1 2.046-.368c.705.119 1.344.48 1.805 1.018.46.538.714 1.22.714 1.924a2.96 2.96 0 0 1-.714 1.925c-.461.538-1.1.899-1.805 1.018a3.07 3.07 0 0 1-2.046-.368 2.996 2.996 0 0 1-1.324-1.58l-.105-.291H52.51l-.126.226a37.48 37.48 0 0 1-4.818 6.767l-.647.725h16.7l7.37 7.26v16.828l-6.95-6.848v6.282a5.236 5.236 0 0 1-1.57 3.723 5.397 5.397 0 0 1-3.78 1.544ZM8.432 57.642v7.282c0 1.024.413 2.007 1.148 2.732a3.954 3.954 0 0 0 2.773 1.133h46.336a3.952 3.952 0 0 0 2.769-1.132 3.834 3.834 0 0 0 1.148-2.728v-7.287H8.432Zm55.605-13.838v12.84l5.52 5.437V49.245l-5.52-5.441Zm-57.041 0-5.513 5.44v12.842l5.52-5.44V43.803h-.007Zm1.43-.997v13.418h54.18v-13.42h-17.1l-.13.123a38.687 38.687 0 0 1-9.537 6.65l-.32.159-.322-.157a38.73 38.73 0 0 1-9.535-6.652l-.13-.122-17.107.001Zm6.958-35.375v8.282a35.84 35.84 0 0 0 5.342 18.936 36.582 36.582 0 0 0 14.59 13.405l.204.104.204-.104a36.59 36.59 0 0 0 14.588-13.406 35.849 35.849 0 0 0 5.344-18.935V7.432h-6.154A20.594 20.594 0 0 1 35.818 2.27l-.298-.262-.296.262a20.596 20.596 0 0 1-13.686 5.163h-6.154Zm52.572 23.963c-.316 0-.624.092-.886.265a1.576 1.576 0 0 0-.587.704 1.549 1.549 0 0 0 .345 1.712 1.617 1.617 0 0 0 1.737.34c.292-.118.54-.32.716-.578a1.554 1.554 0 0 0-.198-1.983 1.607 1.607 0 0 0-1.127-.46Zm-64.872 0c-.315 0-.623.092-.885.265a1.576 1.576 0 0 0-.588.704 1.549 1.549 0 0 0 .346 1.712 1.617 1.617 0 0 0 1.737.34c.292-.118.54-.32.716-.578a1.554 1.554 0 0 0-.198-1.983 1.607 1.607 0 0 0-1.128-.46Zm62.554-9.128c-.315 0-.623.092-.885.265a1.576 1.576 0 0 0-.588.704 1.55 1.55 0 0 0 .346 1.712 1.616 1.616 0 0 0 1.738.34c.29-.119.54-.32.715-.578.175-.258.269-.562.269-.873a1.567 1.567 0 0 0-.47-1.108 1.615 1.615 0 0 0-1.125-.462Zm-60.23 0c-.315 0-.623.092-.885.265a1.576 1.576 0 0 0-.588.704 1.549 1.549 0 0 0 .346 1.712 1.617 1.617 0 0 0 1.737.34c.292-.119.54-.32.716-.578.175-.258.269-.562.269-.873a1.568 1.568 0 0 0-.472-1.11c-.3-.294-.706-.46-1.13-.46h.007Zm62.547-9.13c-.315 0-.623.092-.885.265a1.576 1.576 0 0 0-.587.704 1.549 1.549 0 0 0 .345 1.712 1.617 1.617 0 0 0 1.737.34c.292-.119.54-.32.716-.578.175-.258.269-.562.269-.873a1.567 1.567 0 0 0-.47-1.107 1.615 1.615 0 0 0-1.124-.463Zm-64.87 0c-.316 0-.624.092-.886.265a1.576 1.576 0 0 0-.588.704 1.549 1.549 0 0 0 .346 1.712 1.617 1.617 0 0 0 1.737.34c.292-.119.54-.32.716-.578.175-.258.269-.562.269-.873a1.567 1.567 0 0 0-.47-1.107 1.615 1.615 0 0 0-1.125-.463Z"/><path fill="#fff" stroke="#fff" stroke-width=".5" d="M39.971 37.56H29.745a.277.277 0 0 1-.189-.073.24.24 0 0 1-.078-.176.24.24 0 0 1 .078-.176.276.276 0 0 1 .189-.073h10.23c.07 0 .138.026.188.073.05.046.078.11.078.176 0 .066-.028.129-.078.176a.277.277 0 0 1-.188.072h-.004Zm5.723-3.717H25.238a.276.276 0 0 1-.188-.073.24.24 0 0 1-.078-.176.24.24 0 0 1 .078-.175.276.276 0 0 1 .188-.073h20.456c.067 0 .131.022.18.064.05.042.08.099.087.16v.024a.237.237 0 0 1-.078.176.282.282 0 0 1-.189.073Zm-5.719-7.132h-10.23a.276.276 0 0 1-.188-.073.24.24 0 0 1-.078-.176c0-.066.028-.13.078-.176a.276.276 0 0 1 .189-.073h10.23c.07 0 .138.026.188.073a.24.24 0 0 1 .078.176.24.24 0 0 1-.078.176.276.276 0 0 1-.189.073Zm5.72-3.715H25.237a.277.277 0 0 1-.188-.073.24.24 0 0 1-.078-.176.24.24 0 0 1 .078-.176.277.277 0 0 1 .188-.073h20.456c.067 0 .13.023.18.064.05.042.08.099.087.16v.024a.237.237 0 0 1-.078.177.268.268 0 0 1-.189.073Zm-5.665-7.133H29.801a.277.277 0 0 1-.188-.073.24.24 0 0 1-.078-.176.24.24 0 0 1 .078-.176.276.276 0 0 1 .189-.073H40.03c.07 0 .139.026.189.073a.24.24 0 0 1 .078.176.24.24 0 0 1-.078.176.277.277 0 0 1-.189.073Zm5.718-3.716H25.292a.276.276 0 0 1-.189-.073.24.24 0 0 1-.078-.176.24.24 0 0 1 .078-.176.276.276 0 0 1 .189-.073h20.456c.066 0 .13.023.18.065.049.041.08.099.086.16v.024a.234.234 0 0 1-.078.176.267.267 0 0 1-.188.073Z"/></svg>