<svg xmlns="http://www.w3.org/2000/svg" width="72" height="77" fill="none" viewBox="0 0 72 77"><path fill="#fff" d="m25.43 6.556-.728-.441c-1.308-.793-.1-2.736 1.215-1.95 4.752 2.864 4.543 1.965 1.355 6.407-.882 1.234-2.787-.084-1.896-1.318l.24-.336a31.598 31.598 0 0 0-13.05 8.343c-1.029 1.097-2.755-.434-1.702-1.554a33.96 33.96 0 0 1 14.566-9.15Zm44.053 49.692c-1.447 2.583-4.76 3.52-7.368 2.095a5.311 5.311 0 0 1-2.647-5.928l-6.315-3.382v4.388a1.15 1.15 0 0 1-1.161 1.143H37v11.048c2.438.525 4.265 2.659 4.265 5.211 0 2.941-2.43 5.341-5.425 5.341-2.996 0-5.426-2.392-5.426-5.34 0-2.553 1.827-4.687 4.264-5.212V54.564H19.68a1.15 1.15 0 0 1-1.16-1.143v-3.87l-6.239 3.634c.511 3.192-1.965 6.18-5.34 6.18-3.614 0-6.23-3.407-5.224-6.828 1.27-4.327 7.128-5.257 9.705-1.508l7.097-4.137V30.526l-7.724-4.13a5.497 5.497 0 0 1-3.877 1.593c-4.102 0-6.726-4.373-4.737-7.916 1.44-2.583 4.737-3.52 7.36-2.096a5.317 5.317 0 0 1 2.485 6.484l6.493 3.475v-3.863a1.15 1.15 0 0 1 1.161-1.143h14.984V10.716c-2.438-.525-4.264-2.659-4.264-5.211 0-2.94 2.43-5.34 5.425-5.34 2.995 0 5.425 2.391 5.425 5.34 0 2.552-1.826 4.686-4.264 5.211v12.221h14.991c.643 0 1.161.51 1.161 1.143v3.01l6.277-3.657c-.519-2.24.526-4.64 2.694-5.806 2.615-1.417 5.92-.48 7.367 2.095 1.99 3.558-.642 7.916-4.744 7.916a5.473 5.473 0 0 1-4.342-2.125l-7.252 4.22v16.701l7.337 3.924a5.497 5.497 0 0 1 6.873-1.371c2.423 1.188 3.66 4.54 2.136 7.253v.008Zm-7.801-33.432c.456.274.634.769.526 1.234a3.134 3.134 0 0 0 4.025.922c1.493-.816 2.043-2.675 1.215-4.153-1.688-3.002-6.378-1.386-5.766 1.997ZM32.728 5.505c0 1.684 1.393 3.055 3.104 3.055 1.71 0 3.103-1.371 3.103-3.055 0-1.684-1.393-3.055-3.103-3.055-1.71 0-3.104 1.371-3.104 3.055ZM5.431 25.337c1.501.808 3.39.275 4.218-1.203.828-1.479.278-3.338-1.223-4.153-3.792-1.867-6.478 3.452-2.995 5.356Zm1.494 25.638c-1.347 0-2.585.861-2.972 2.202-.759 2.583 2.043 4.846 4.473 3.528 2.794-1.524 1.71-5.73-1.501-5.73Zm28.907 22.911c1.71 0 3.103-1.371 3.103-3.055 0-1.684-1.393-3.056-3.103-3.056-1.71 0-3.104 1.372-3.104 3.056 0 1.683 1.393 3.055 3.104 3.055Zm-14.984-21.6h29.975V25.223h-8.862v8.587c0 .952-1.122 1.485-1.88.891l-4.25-3.33c-4.65 3.643-4.419 3.574-4.968 3.574a1.15 1.15 0 0 1-1.161-1.143v-8.587h-8.854V52.286Zm11.176-27.063v6.217l3.088-2.415a1.189 1.189 0 0 1 1.447 0l3.088 2.415v-6.217h-7.623Zm35.424 29.928c1.13-2.02-.356-4.526-2.71-4.526-3.227 0-4.287 4.221-1.508 5.73 1.493.815 3.39.274 4.218-1.204Zm-23.01 11.047c-2.67 4.709-2.995 3.878 2.028 6.233 1.385.647 2.384-1.417.998-2.065l-.534-.251a33.786 33.786 0 0 0 14.194-9.28c1.03-1.128-.704-2.652-1.725-1.524a31.51 31.51 0 0 1-13.312 8.67l.379-.67c.75-1.318-1.277-2.43-2.028-1.113ZM56.04 17.056c5.51.578 4.79 1.173 5.023-4.275.061-1.516-2.253-1.592-2.322-.099l-.039.99a33.989 33.989 0 0 0-14.86-7.77c-1.494-.359-2.035 1.866-.542 2.224a31.61 31.61 0 0 1 13.18 6.682c-1.895-.198-1.872 2.103-.433 2.255l-.007-.008ZM15.198 61.443c1.532 0 1.54-2.286 0-2.286-5.526-.007-4.883-.663-4.543 4.77.093 1.508 2.415 1.371 2.314-.145l-.039-.556c6.215 5.585 13.947 7.787 15.023 7.787 1.362 0 1.602-1.936.279-2.256A31.561 31.561 0 0 1 14.4 61.436h.79l.007.008Zm55.06-17.714-.93.518c.921-5.212.573-10.309-.781-14.964-.426-1.455-2.655-.823-2.23.632 1.185 4.061 1.533 8.435.883 12.976-.758-1.547-2.794-.442-2.144.883 2.4 4.892 1.494 4.648 6.347 1.943 1.339-.746.193-2.735-1.146-1.988ZM2.35 32.568c-.905 4.983-.657 9.89.604 14.53.395 1.462 2.64.868 2.245-.595-1.177-4.32-1.401-8.914-.55-13.592l.395.632c.812 1.288 2.778.084 1.973-1.204-1.973-3.131-1.919-3.063-2.027-3.184a1.174 1.174 0 0 0-1.27-.298c-.224.084-.224.107-3.22 2.202-1.253.877.094 2.743 1.347 1.867l.511-.358H2.35ZM40.09 47.615h6.23c1.532 0 1.532-2.285 0-2.285h-6.23c-1.533 0-1.533 2.285 0 2.285Z"/></svg>