<svg xmlns="http://www.w3.org/2000/svg" width="79" height="65" fill="none" viewBox="0 0 79 65"><path fill="#fff" stroke="#fff" stroke-width=".1" d="M32.68 26.337c0-2.168-.704-4.287-2.024-6.09s-3.195-3.209-5.39-4.039a13.085 13.085 0 0 0-6.94-.625c-2.33.423-4.47 1.466-6.151 2.999-1.68 1.532-2.825 3.485-3.29 5.612a10.076 10.076 0 0 0 .682 6.334c.909 2.003 2.448 3.715 4.422 4.92 1.975 1.206 4.297 1.85 6.673 1.85 3.185-.003 6.24-1.158 8.492-3.213 2.253-2.055 3.52-4.841 3.525-7.748Zm-21.827 0c0-1.772.576-3.504 1.655-4.977 1.079-1.473 2.612-2.621 4.406-3.3a10.692 10.692 0 0 1 5.672-.508c1.904.346 3.653 1.2 5.026 2.453 1.372 1.254 2.306 2.85 2.684 4.588a8.233 8.233 0 0 1-.56 5.176c-.745 1.637-2.004 3.036-3.619 4.02a10.498 10.498 0 0 1-5.455 1.506c-2.601-.003-5.095-.948-6.934-2.628-1.84-1.679-2.873-3.956-2.875-6.33Zm10.901 7.122v-.542a4.256 4.256 0 0 0 2.264-1.37 3.632 3.632 0 0 0 .876-2.347c0-.849-.308-1.674-.876-2.346a4.256 4.256 0 0 0-2.264-1.37v-3.577c.289.168.527.4.692.673.165.274.252.58.252.893 0 .265.116.52.321.708.206.188.485.293.777.293.29 0 .57-.105.776-.293a.96.96 0 0 0 .321-.708 3.649 3.649 0 0 0-.88-2.344 4.273 4.273 0 0 0-2.259-1.373v-.544a.959.959 0 0 0-.321-.708 1.153 1.153 0 0 0-.776-.293c-.291 0-.57.105-.776.293a.96.96 0 0 0-.322.708v.544a4.259 4.259 0 0 0-2.251 1.375 3.637 3.637 0 0 0-.87 2.342c0 .847.305 1.67.87 2.341a4.258 4.258 0 0 0 2.251 1.375v3.572a1.94 1.94 0 0 1-.68-.673 1.735 1.735 0 0 1-.247-.888.96.96 0 0 0-.322-.708 1.153 1.153 0 0 0-.775-.294c-.292 0-.57.106-.777.294a.96.96 0 0 0-.321.708c.002.846.308 1.668.873 2.34a4.268 4.268 0 0 0 2.25 1.376v.543c0 .265.115.52.32.708.207.188.486.293.777.293.29 0 .57-.105.776-.293a.959.959 0 0 0 .321-.708Zm.944-4.259c0 .312-.087.62-.252.893a1.939 1.939 0 0 1-.692.672v-3.13c.29.167.528.398.694.672.165.273.253.58.254.893h-.004Zm-4.066-5.73c0-.31.085-.615.247-.888.162-.273.396-.504.68-.673v3.122c-.283-.17-.516-.4-.677-.673a1.737 1.737 0 0 1-.246-.885l-.004-.003Zm37.209 17.07H40.337V4.425c0-1.129-.49-2.211-1.364-3.01-.874-.799-2.059-1.249-3.295-1.25H5.659c-1.236.001-2.421.451-3.295 1.25C1.491 2.214 1 3.296 1 4.425v49.35c0 1.129.49 2.211 1.364 3.01.874.8 2.059 1.25 3.295 1.252h15.08v4.123c.001.532.233 1.041.645 1.417.412.376.97.587 1.553.587h32.904a2.31 2.31 0 0 0 1.552-.588c.411-.375.643-.885.643-1.416V42.545c0-.532-.232-1.041-.643-1.417a2.31 2.31 0 0 0-1.552-.587Zm0 2.004v2.598H22.937v-2.598h32.904Zm-32.904 4.602h32.9v3.405h-32.9v-3.405Zm6.882-44.98-1.387 3.886H12.905l-1.387-3.886H29.82ZM5.659 56.033a2.596 2.596 0 0 1-1.743-.664 2.16 2.16 0 0 1-.721-1.594V4.425c0-.598.259-1.171.72-1.594a2.596 2.596 0 0 1 1.744-.664h3.55l1.855 5.198c.071.202.21.377.398.502.187.124.413.19.645.19h17.121c.232 0 .458-.066.646-.19.187-.125.326-.3.397-.502l1.858-5.2h3.549c.655.002 1.282.241 1.744.665.462.423.721.997.72 1.595V40.54H22.937a2.31 2.31 0 0 0-1.553.587 1.922 1.922 0 0 0-.644 1.416v6.87h-6.497c-.291 0-.57.106-.776.294a.96.96 0 0 0-.322.708c0 .266.116.52.322.708.206.188.485.293.776.293h6.497v4.617H5.66Zm17.278 6.127v-9.602h32.904v9.603H22.938Zm30.257-8.376h-5.607a1.19 1.19 0 0 0-.42.076 1.11 1.11 0 0 0-.356.217 1.002 1.002 0 0 0-.237.325.927.927 0 0 0-.084.383v5.117c0 .266.116.52.321.708.206.188.485.294.776.294h5.607c.291 0 .57-.106.776-.294a.96.96 0 0 0 .322-.708v-5.117a.927.927 0 0 0-.084-.383 1.002 1.002 0 0 0-.238-.325 1.109 1.109 0 0 0-.356-.217 1.19 1.19 0 0 0-.42-.076ZM52.097 58.9h-3.412v-3.114h3.412V58.9ZM78 20.988v-7.006a1.975 1.975 0 0 0-.663-1.455 2.373 2.373 0 0 0-1.596-.602h-5.135v-2.67a1.742 1.742 0 0 0-.585-1.283 2.093 2.093 0 0 0-1.407-.531h-22.8a2.083 2.083 0 0 0-1.399.534c-.37.34-.578.8-.577 1.28v25.4c0 .544.235 1.066.655 1.451.42.386.991.604 1.587.606h29.658c.597 0 1.17-.218 1.594-.603.423-.386.661-.909.663-1.454V27.65L78 20.988ZM66.4 21.99h9.374l-.014 4.659H66.4v-4.66ZM46.034 9.444h22.378v2.48H46.033v-2.48Zm0 25.212.047-20.727h29.658l.063.053-.018 6.005h-10.48c-.291 0-.57.106-.776.294a.96.96 0 0 0-.322.708v.302h-3.892l-2.84-1.91c.026-.137.041-.276.046-.415.008-.68-.24-1.34-.701-1.873a3.302 3.302 0 0 0-1.837-1.053 3.53 3.53 0 0 0-2.153.236 3.11 3.11 0 0 0-1.51 1.42 2.728 2.728 0 0 0-.195 1.972 2.968 2.968 0 0 0 1.208 1.644 3.468 3.468 0 0 0 2.073.583 3.424 3.424 0 0 0 2.013-.737l2.884 1.94c.19.126.417.195.651.195h4.253v1.578h-2.966c-.175 0-.348.038-.504.112-.155.073-.29.18-.392.31L58.54 27.61a3.459 3.459 0 0 0-.783-.098c-.635 0-1.256.173-1.785.495-.528.323-.94.781-1.182 1.317a2.695 2.695 0 0 0-.182 1.694c.124.569.43 1.091.88 1.501a3.32 3.32 0 0 0 1.645.802c.624.113 1.27.055 1.857-.167a3.168 3.168 0 0 0 1.441-1.08c.353-.483.542-1.05.541-1.63a2.734 2.734 0 0 0-.615-1.71l1.45-1.861h2.399v.773c0 .266.116.52.322.708.206.188.485.294.776.294h10.454l-.02 6.062-29.704-.055Zm8.27-14.76c-.2-.001-.397-.056-.565-.158a.953.953 0 0 1-.374-.418.854.854 0 0 1-.057-.537.908.908 0 0 1 .28-.475c.142-.13.323-.218.52-.254.199-.036.403-.017.59.054.185.07.344.19.456.342a.872.872 0 0 1 .17.517.891.891 0 0 1-.299.657c-.191.174-.45.271-.72.271Zm4.473 10.552a.875.875 0 0 1-.17.519 1.006 1.006 0 0 1-.458.345c-.186.07-.392.09-.59.054a1.055 1.055 0 0 1-.524-.255.91.91 0 0 1-.28-.477.856.856 0 0 1 .058-.539.956.956 0 0 1 .376-.418c.168-.103.366-.157.568-.157.134-.002.268.021.392.067.124.047.237.115.332.201a.92.92 0 0 1 .221.303c.051.113.077.235.075.357Z"/></svg>