<svg xmlns="http://www.w3.org/2000/svg" width="79" height="70" fill="none" viewBox="0 0 79 70"><path fill="#fff" stroke="#fff" stroke-width=".2" d="M73.599 69.645H5.089V33.516l-.42-.299C1.671 31.08 1.098 28.795 1 24.774L9.316.164h60.376L78 24.774c-.095 4.083-.731 6.54-3.944 8.632l-.455.297v35.936l-.002.006ZM35.774 60.66v6.663h35.508v-6.663H35.774Zm-14.138-18.27v24.935H33.46V42.393l-11.823-.002Zm-14.23 18.27v6.663h11.915v-6.663H7.406Zm28.37-8.716v6.398h35.506v-6.396l-35.506-.002Zm-28.37 0v6.398h11.915v-6.396l-11.915-.002Zm11.915-11.872h16.455v9.553h35.506V34.663l-1.087.102a8.535 8.535 0 0 1-4.526-.8 8.623 8.623 0 0 1-2.99-2.372l-.769-.953-.77.953a8.648 8.648 0 0 1-2.99 2.373 8.56 8.56 0 0 1-7.416 0 8.648 8.648 0 0 1-2.99-2.373l-.77-.953-.771.953a8.65 8.65 0 0 1-2.99 2.373 8.564 8.564 0 0 1-7.418 0 8.65 8.65 0 0 1-2.99-2.373l-.769-.953-.77.953a8.663 8.663 0 0 1-2.992 2.368 8.575 8.575 0 0 1-7.414 0 8.663 8.663 0 0 1-2.991-2.368l-.773-.963-.77.953a8.654 8.654 0 0 1-3.497 2.598 8.568 8.568 0 0 1-4.306.554l-1.119-.147v15.038h11.917v-9.553Zm43.633-13.984.216 1.184a6.399 6.399 0 0 0 2.183 3.716 6.282 6.282 0 0 0 4.024 1.461 6.282 6.282 0 0 0 4.024-1.461 6.399 6.399 0 0 0 2.183-3.716l.216-1.184H62.954Zm-14.937 0 .216 1.184a6.4 6.4 0 0 0 2.184 3.713 6.284 6.284 0 0 0 4.024 1.46 6.283 6.283 0 0 0 4.024-1.46 6.4 6.4 0 0 0 2.184-3.713l.216-1.184H48.017Zm-14.937 0 .216 1.184a6.399 6.399 0 0 0 2.182 3.716 6.282 6.282 0 0 0 4.025 1.461 6.282 6.282 0 0 0 4.024-1.461 6.399 6.399 0 0 0 2.183-3.716l.216-1.184H33.08Zm-14.937 0 .216 1.184a6.247 6.247 0 0 0 2.165 3.761 6.13 6.13 0 0 0 4.073 1.414 6.094 6.094 0 0 0 4.045-1.428 6.21 6.21 0 0 0 2.133-3.755l.216-1.184-12.848.008Zm-14.937 0 .216 1.184a6.247 6.247 0 0 0 2.165 3.761 6.13 6.13 0 0 0 4.073 1.414 6.09 6.09 0 0 0 4.045-1.427 6.206 6.206 0 0 0 2.13-3.756l.217-1.184-12.846.008ZM58.083 2.485l4.736 21.279h12.403l-7.185-21.28h-9.954Zm-11.84 0 1.56 21.279h12.66L55.73 2.484h-9.487Zm-11.631 0-1.566 21.279h12.437l-1.562-21.28h-9.31Zm-11.804 0L18.07 23.768h12.664l1.564-21.28h-9.489v-.003Zm-11.84 0L3.781 23.768h11.922l4.744-21.28-9.48-.003Z"/><path stroke="#fff" stroke-width="1.1" d="M44.188 37.723h7.511v7.511h-7.511zM57.336 37.723h7.511v7.511h-7.511z"/></svg>