<svg width="60" height="60" viewBox="0 0 60 60" fill="none" xmlns="http://www.w3.org/2000/svg">
<path d="M41.0125 14.1248C40.725 14.1248 40.53 14.1598 40.3275 14.2073V14.2398H40.3625C40.4975 14.4998 40.7275 14.6898 40.8975 14.9223C41.0325 15.1898 41.1475 15.4573 41.2825 15.7223L41.3175 15.6848C41.5525 15.5198 41.6675 15.2548 41.6675 14.8523C41.5675 14.7348 41.5525 14.6173 41.4675 14.5023C41.3675 14.3348 41.1525 14.2523 41.0175 14.1198L41.0125 14.1248ZM14.425 47.1098H12.1075C12.0325 43.2048 11.8 39.5348 11.4325 36.0848H11.4125L7.8875 47.1098H6.125L2.625 36.0848H2.6C2.3425 39.3923 2.18 43.0673 2.1125 47.1098H0C0.1375 42.1948 0.48 37.5848 1.025 33.2848H3.9L7.2375 43.4448H7.2575L10.625 33.2848H13.3625C13.9675 38.3223 14.3225 42.9348 14.4325 47.1098H14.425ZM24.4675 36.9098C23.5225 42.0223 22.2775 45.7423 20.7375 48.0598C19.5325 49.8498 18.2125 50.7423 16.78 50.7423C16.3975 50.7423 15.93 50.6273 15.365 50.3973V49.1623C15.64 49.2048 15.965 49.2273 16.33 49.2273C17 49.2273 17.5375 49.0398 17.9475 48.6723C18.44 48.2223 18.685 47.7173 18.685 47.1598C18.685 46.7723 18.4925 45.9848 18.11 44.7998L15.575 36.9098H17.85L19.6675 42.8098C20.0775 44.1498 20.25 45.0848 20.18 45.6173C21.18 42.9573 21.875 40.0498 22.2675 36.9098H24.4675ZM55.28 47.1098H48.705V33.2848H50.9175V45.4098H55.28V47.1098ZM46.98 47.4473L44.44 46.1973C44.665 46.0073 44.8825 45.8023 45.0775 45.5723C46.16 44.3073 46.6975 42.4273 46.6975 39.9398C46.6975 35.3648 44.9025 33.0748 41.31 33.0748C39.55 33.0748 38.175 33.6548 37.185 34.8173C36.11 36.0873 35.57 37.9573 35.57 40.4298C35.57 42.8598 36.045 44.6448 37.005 45.7798C37.88 46.8048 39.1975 47.3173 40.9625 47.3173C41.6225 47.3173 42.2275 47.2348 42.775 47.0723L46.0875 49.0023L46.9875 47.4473H46.98ZM38.75 44.3423C38.1875 43.4423 37.9075 41.9923 37.9075 40.0023C37.9075 36.5198 38.9675 34.7773 41.0825 34.7773C42.19 34.7773 43.0075 35.1948 43.525 36.0273C44.085 36.9323 44.365 38.3673 44.365 40.3348C44.365 43.8448 43.305 45.6048 41.19 45.6048C40.0775 45.6048 39.265 45.1873 38.745 44.3548L38.75 44.3423ZM34.605 43.2798C34.605 44.4548 34.175 45.4198 33.315 46.1698C32.455 46.9198 31.3075 47.2948 29.855 47.2948C28.4975 47.2948 27.195 46.8648 25.9225 46.0073L26.515 44.8173C27.61 45.3673 28.5975 45.6373 29.49 45.6373C30.32 45.6373 30.9725 45.4548 31.4475 45.0873C31.9175 44.7198 32.1975 44.2023 32.1975 43.5498C32.1975 42.7248 31.6225 42.0248 30.5775 41.4373C29.6075 40.9048 27.67 39.7948 27.67 39.7948C26.615 39.0273 26.09 38.2048 26.09 36.8523C26.09 35.7273 26.4825 34.8273 27.265 34.1398C28.0525 33.4448 29.065 33.1023 30.315 33.1023C31.595 33.1023 32.765 33.4423 33.815 34.1273L33.2825 35.3173C32.3825 34.9373 31.495 34.7423 30.6225 34.7423C29.915 34.7423 29.3675 34.9123 28.9875 35.2573C28.605 35.5973 28.3675 36.0323 28.3675 36.5673C28.3675 37.3873 28.9525 38.0923 30.0325 38.6923C31.015 39.2298 33 40.3673 33 40.3673C34.0825 41.1298 34.62 41.9423 34.62 43.2873L34.605 43.2798ZM58.06 28.6498C56.7225 28.6148 55.685 28.7498 54.8175 29.1198C54.5675 29.2198 54.1675 29.2198 54.1325 29.5373C54.27 29.6698 54.29 29.8873 54.4075 30.0723C54.6075 30.4073 54.9525 30.8548 55.2725 31.0898C55.6225 31.3648 55.9725 31.6298 56.34 31.8648C56.99 32.2648 57.7275 32.5023 58.365 32.9048C58.7275 33.1398 59.0975 33.4373 59.465 33.6873C59.6475 33.8123 59.765 34.0373 60 34.1173V34.0673C59.885 33.9173 59.85 33.6998 59.7375 33.5323C59.57 33.3648 59.4025 33.2148 59.2375 33.0498C58.7525 32.3998 58.15 31.8323 57.5 31.3623C56.965 30.9973 55.795 30.4873 55.575 29.8748L55.5425 29.8398C55.9075 29.8073 56.3425 29.6748 56.6925 29.5748C57.26 29.4248 57.78 29.4573 58.3675 29.3098C58.6325 29.2423 58.9 29.1598 59.1675 29.0748V28.9248C58.8675 28.6248 58.6425 28.2173 58.3325 27.9373C57.4825 27.1998 56.54 26.4823 55.5725 25.8798C55.0475 25.5448 54.3825 25.3298 53.83 25.0448C53.63 24.9448 53.295 24.8948 53.18 24.7273C52.88 24.3623 52.705 23.8773 52.4925 23.4423C52.0125 22.5223 51.5425 21.5048 51.125 20.5348C50.825 19.8798 50.6425 19.2273 50.275 18.6273C48.55 15.7848 46.6825 14.0623 43.81 12.3773C43.1925 12.0273 42.4525 11.8773 41.67 11.6923C41.2525 11.6723 40.835 11.6423 40.42 11.6248C40.145 11.5073 39.88 11.1898 39.645 11.0373C38.695 10.4373 36.235 9.13733 35.535 10.8573C35.085 11.9423 36.2025 13.0123 36.59 13.5623C36.8775 13.9448 37.24 14.3823 37.44 14.8123C37.5575 15.1023 37.59 15.3998 37.7075 15.7023C37.9725 16.4373 38.225 17.2573 38.575 17.9448C38.7575 18.2948 38.9575 18.6623 39.1925 18.9773C39.3275 19.1598 39.5575 19.2448 39.61 19.5448C39.375 19.8848 39.36 20.3798 39.225 20.7948C38.625 22.6873 38.86 25.0273 39.71 26.4198C39.9775 26.8348 40.615 27.7548 41.4675 27.4023C42.2175 27.1023 42.0525 26.1523 42.2675 25.3148C42.3175 25.1148 42.285 24.9823 42.3875 24.8473V24.8848C42.6225 25.3548 42.8575 25.8023 43.0725 26.2723C43.5875 27.0923 44.4875 27.9423 45.24 28.5098C45.64 28.8098 45.9575 29.3298 46.4575 29.5148V29.4648H46.42C46.3125 29.3198 46.17 29.2498 46.035 29.1323C45.735 28.8323 45.3975 28.4648 45.16 28.1323C44.46 27.1898 43.8425 26.1573 43.2925 25.0873C43.0175 24.5623 42.7875 23.9973 42.5675 23.4798C42.4675 23.2798 42.4675 22.9798 42.3 22.8798C42.05 23.2448 41.6825 23.5623 41.5 24.0123C41.1825 24.7323 41.15 25.6173 41.03 26.5373C40.9625 26.5548 40.995 26.5373 40.9625 26.5723C40.4275 26.4423 40.245 25.8873 40.045 25.4223C39.545 24.2348 39.4625 22.3273 39.895 20.9598C40.0125 20.6098 40.5125 19.5048 40.3125 19.1698C40.2075 18.8523 39.8775 18.6698 39.695 18.4123C39.4775 18.1023 39.245 17.6998 39.095 17.3448C38.695 16.4098 38.495 15.3748 38.06 14.4398C37.86 14.0073 37.51 13.5548 37.225 13.1573C36.9075 12.7073 36.5575 12.3898 36.305 11.8573C36.2225 11.6748 36.105 11.3723 36.2375 11.1723C36.2725 11.0373 36.3425 10.9848 36.4725 10.9473C36.6925 10.7673 37.31 11.0023 37.5275 11.1023C38.145 11.3523 38.665 11.5873 39.1825 11.9373C39.4175 12.1023 39.67 12.4198 39.97 12.5023H40.32C40.855 12.6198 41.4575 12.5373 41.9575 12.6848C42.845 12.9698 43.645 13.3848 44.3625 13.8348C46.5525 15.2248 48.3525 17.1973 49.575 19.5498C49.775 19.9348 49.8625 20.2873 50.045 20.6873C50.395 21.5123 50.8275 22.3448 51.1825 23.1423C51.5325 23.9298 51.87 24.7323 52.3725 25.3848C52.6225 25.7348 53.6275 25.9173 54.0775 26.0998C54.41 26.2498 54.9275 26.3873 55.2275 26.5698C55.8025 26.9198 56.3625 27.3198 56.9025 27.7048C57.1775 27.8948 58.01 28.3123 58.06 28.6498Z" fill="black"/>
</svg>
