<svg width="60" height="60" viewBox="0 0 60 60" fill="none" xmlns="http://www.w3.org/2000/svg">
<path d="M46.771 23.5769V22.891C46.771 19.8605 44.3142 17.4038 41.284 17.4038H36.4826C33.0733 17.4038 30.3095 20.1676 30.3095 23.5769C30.3095 26.9862 33.0733 29.75 36.4826 29.75H40.598C44.0071 29.75 46.771 32.5138 46.771 35.9231C46.771 39.3324 44.0071 42.0961 40.598 42.0961H36.4826C33.0733 42.0961 30.3095 39.3324 30.3095 35.9231M22.0787 15.3462V37.0092C22.0787 40.1269 20.3173 42.9768 17.5289 44.3711L13.848 46.2115M5.61719 42.0961V17.4038L30.3095 3L55.0018 17.4038V42.0961L30.3095 56.5L5.61719 42.0961Z" stroke="black" stroke-width="3"/>
</svg>
