<svg xmlns="http://www.w3.org/2000/svg" width="70" height="68" fill="none" viewBox="0 0 70 68"><path fill="#fff" fill-rule="evenodd" d="M3.803 39.908a.51.51 0 0 0-.508.514v2.055c0 .662-.53 1.2-1.185 1.2a1.192 1.192 0 0 1-1.185-1.2v-2.055c0-1.608 1.288-2.912 2.878-2.912h2.03c.655 0 1.185.537 1.185 1.199s-.53 1.199-1.184 1.199H3.803Zm4.908-1.2c0-.661.53-1.198 1.185-1.198h4.062c.654 0 1.184.537 1.184 1.199s-.53 1.199-1.184 1.199H9.896a1.192 1.192 0 0 1-1.185-1.2Zm8.124 0c0-.661.53-1.198 1.185-1.198h4.062c.654 0 1.185.537 1.185 1.199s-.53 1.199-1.185 1.199H18.02a1.192 1.192 0 0 1-1.185-1.2Zm13.032 6.681c.655 0 1.185.537 1.185 1.2v4.11c0 .662-.53 1.2-1.185 1.2a1.192 1.192 0 0 1-1.184-1.2v-4.11c0-.663.53-1.2 1.184-1.2Zm-27.757 0c.654 0 1.185.537 1.185 1.2v4.11c0 .662-.53 1.2-1.185 1.2a1.192 1.192 0 0 1-1.185-1.2v-4.11c0-.663.53-1.2 1.185-1.2Zm0 8.222c.654 0 1.185.537 1.185 1.2v4.11c0 .662-.53 1.2-1.185 1.2a1.192 1.192 0 0 1-1.185-1.2v-4.11c0-.663.53-1.2 1.185-1.2Zm27.757 0c.655 0 1.185.537 1.185 1.2v4.11c0 .662-.53 1.2-1.185 1.2a1.192 1.192 0 0 1-1.184-1.2v-4.11c0-.663.53-1.2 1.184-1.2Zm0 8.222c.655 0 1.185.537 1.185 1.2v2.055c0 1.608-1.288 2.912-2.877 2.912h-2.031a1.192 1.192 0 0 1-1.185-1.2c0-.662.53-1.198 1.185-1.198h2.03a.51.51 0 0 0 .509-.514v-2.056c0-.662.53-1.199 1.184-1.199Zm-27.757 0c.654 0 1.185.537 1.185 1.2v2.055a.51.51 0 0 0 .508.514h2.03c.655 0 1.185.536 1.185 1.199 0 .662-.53 1.199-1.184 1.199H3.803c-1.59 0-2.878-1.304-2.878-2.912v-2.056c0-.662.53-1.199 1.185-1.199Zm6.6 4.968c0-.663.531-1.2 1.186-1.2h4.062c.654 0 1.184.537 1.184 1.2 0 .662-.53 1.199-1.184 1.199H9.896a1.192 1.192 0 0 1-1.185-1.2Zm8.125 0c0-.663.53-1.2 1.185-1.2h4.062c.654 0 1.185.537 1.185 1.2 0 .662-.53 1.199-1.185 1.199H18.02a1.192 1.192 0 0 1-1.185-1.2ZM10.575 3.623a.34.34 0 0 0-.339.343V7.5c0 .757-.606 1.37-1.354 1.37A1.362 1.362 0 0 1 7.528 7.5V3.966c0-1.703 1.364-3.083 3.047-3.083h3.49c.748 0 1.355.613 1.355 1.37 0 .757-.607 1.37-1.354 1.37h-3.491Zm9.118-1.37c0-.757.606-1.37 1.354-1.37h6.982c.748 0 1.354.613 1.354 1.37 0 .757-.606 1.37-1.354 1.37h-6.982a1.362 1.362 0 0 1-1.354-1.37Zm13.964 0c0-.757.606-1.37 1.354-1.37h6.981c.748 0 1.354.613 1.354 1.37 0 .757-.606 1.37-1.354 1.37h-6.981a1.362 1.362 0 0 1-1.354-1.37Zm13.963 0c0-.757.606-1.37 1.354-1.37h6.982c.747 0 1.354.613 1.354 1.37 0 .757-.607 1.37-1.354 1.37h-6.982a1.362 1.362 0 0 1-1.354-1.37Zm13.963 0c0-.757.606-1.37 1.354-1.37h3.491c1.683 0 3.047 1.38 3.047 3.083V7.5c0 .757-.607 1.37-1.354 1.37a1.362 1.362 0 0 1-1.355-1.37V3.966a.34.34 0 0 0-.338-.343h-3.49a1.362 1.362 0 0 1-1.355-1.37Zm-52.7 10.941c.747 0 1.353.614 1.353 1.37v7.067c0 .756-.606 1.37-1.354 1.37a1.362 1.362 0 0 1-1.354-1.37v-7.066c0-.757.607-1.37 1.354-1.37Zm59.238 0c.747 0 1.354.614 1.354 1.37v7.067c0 .756-.607 1.37-1.354 1.37a1.362 1.362 0 0 1-1.355-1.37v-7.066c0-.757.607-1.37 1.355-1.37ZM8.882 27.326c.748 0 1.354.613 1.354 1.37v7.066c0 .757-.606 1.37-1.354 1.37a1.362 1.362 0 0 1-1.354-1.37v-7.066c0-.757.607-1.37 1.354-1.37Zm59.239 0c.747 0 1.354.613 1.354 1.37v7.066c0 .757-.607 1.37-1.354 1.37a1.362 1.362 0 0 1-1.355-1.37v-7.066c0-.757.607-1.37 1.355-1.37Zm0 14.131c.747 0 1.354.614 1.354 1.37v7.067c0 .756-.607 1.37-1.354 1.37a1.362 1.362 0 0 1-1.355-1.37v-7.066c0-.757.607-1.37 1.355-1.37Zm0 14.132c.747 0 1.354.614 1.354 1.37v3.533c0 1.703-1.364 3.083-3.047 3.083h-3.49a1.362 1.362 0 0 1-1.355-1.37c0-.757.606-1.37 1.354-1.37h3.491a.34.34 0 0 0 .338-.343V56.96c0-.757.607-1.37 1.355-1.37Zm-34.464 6.616c0-.757.606-1.37 1.354-1.37h6.981c.748 0 1.354.613 1.354 1.37 0 .757-.606 1.37-1.354 1.37h-6.981a1.362 1.362 0 0 1-1.354-1.37Zm13.963 0c0-.757.606-1.37 1.354-1.37h6.982c.747 0 1.354.613 1.354 1.37 0 .757-.607 1.37-1.354 1.37h-6.982a1.362 1.362 0 0 1-1.354-1.37Z" clip-rule="evenodd"/><path fill="#fff" fill-rule="evenodd" d="m55.275 14.183-4.313-2.06 12.026-4.936-5.208 12.806-1.544-4.678L14.815 55.36l4.29 2.059-12.056 4.942 5.213-12.788 1.537 4.659 41.476-40.05Z" clip-rule="evenodd"/><path fill="#fff" d="m50.962 12.122-.094-.231-.522.214.509.243.108-.226Zm4.313 2.061.174.18.259-.25-.325-.156-.108.226Zm7.714-6.996.231.094.224-.552-.55.226.095.232ZM57.78 19.993l-.237.078.213.646.256-.63-.232-.094Zm-1.544-4.678.237-.079-.125-.378-.286.277.174.18ZM14.815 55.36l-.174-.18-.258.25.324.155.108-.225Zm4.29 2.059.094.231.52-.213-.507-.244-.108.226ZM7.048 62.362l-.232-.095-.225.552.552-.226-.095-.231Zm5.213-12.788.238-.078-.213-.645-.256.629.231.094Zm1.537 4.659-.237.078.124.378.287-.276-.174-.18Zm37.056-41.885 4.312 2.06.216-.45-4.313-2.062-.215.452Zm12.039-5.393-12.026 4.936.19.462 12.025-4.935-.19-.463Zm-4.882 13.132L63.22 7.281l-.463-.189L57.549 19.9l.463.188Zm-2.014-4.694 1.545 4.678.475-.156-1.545-4.679-.475.157ZM14.988 55.54 56.41 15.494l-.348-.36-41.421 40.047.347.36Zm4.224 1.653-4.29-2.059-.216.451 4.29 2.06.216-.452ZM7.144 62.593l12.055-4.942-.19-.463L6.954 62.13l.19.463Zm4.887-13.114L6.817 62.267l.463.189 5.214-12.788-.463-.188Zm2.005 4.676-1.536-4.66-.475.157 1.537 4.66.475-.157Zm41.065-40.152-41.475 40.05.347.36 41.476-40.05-.348-.36Z"/></svg>