<svg xmlns="http://www.w3.org/2000/svg" width="72" height="72" fill="none" viewBox="0 0 72 72"><path fill="#fff" stroke="#fff" stroke-width=".5" d="M16.393 64.55a4.91 4.91 0 0 1-4.904-4.904V32.619H5.42c-1.837-.014-3.399-1.059-4.082-2.727a4.422 4.422 0 0 1 .95-4.817l10.98-10.98c1.723-1.725 4.28-1.739 6.216-.034a.865.865 0 0 1 .037.034l9.486 9.486a.799.799 0 0 1-1.13 1.13l-9.467-9.467c-1.077-.936-2.73-1.303-4.013-.02l-10.98 10.98c-.974.976-.95 2.232-.601 3.083.441 1.077 1.417 1.726 2.61 1.735h6.863c.44 0 .798.358.798.799v27.825a3.31 3.31 0 0 0 3.307 3.306 3.31 3.31 0 0 0 3.307-3.306v-1.237a.799.799 0 1 1 1.597 0v1.237a4.91 4.91 0 0 1-4.904 4.903ZM62.79 32.78a.799.799 0 0 1-.8-.8V15.71c0-.44.358-.798.8-.798h5.247c.827-.007 1.508-.458 1.814-1.207.243-.594.261-1.472-.418-2.151l-8.368-8.368c-.757-.655-1.912-.912-2.804-.02l-8.388 8.388c-.679.679-.66 1.556-.418 2.15.308.75.988 1.201 1.82 1.208h5.242c.441 0 .799.357.799.798v9.51a.799.799 0 1 1-1.598 0v-8.71H51.27c-1.481-.012-2.74-.856-3.292-2.201a3.565 3.565 0 0 1 .767-3.885l8.388-8.387c1.367-1.37 3.473-1.384 5.006-.035a.742.742 0 0 1 .037.035l8.387 8.387a3.568 3.568 0 0 1 .768 3.886c-.55 1.344-1.81 2.186-3.286 2.2h-4.456v15.47a.799.799 0 0 1-.799.8Z"/><path fill="#fff" stroke="#fff" stroke-width=".5" d="M41.688 71c-14.187 0-25.73-11.542-25.73-25.73 0-14.187 11.543-25.729 25.73-25.729 14.188 0 25.73 11.542 25.73 25.73 0 2.16-.269 4.307-.799 6.383a.799.799 0 0 1-.625.588c.22.204.316.524.22.829a25.875 25.875 0 0 1-5.608 9.638.799.799 0 1 1-1.174-1.083 24.269 24.269 0 0 0 5.259-9.04.799.799 0 0 1 .613-.542.798.798 0 0 1-.232-.785 24.23 24.23 0 0 0 .749-5.988c0-13.307-10.826-24.133-24.133-24.133-13.306 0-24.132 10.826-24.132 24.133 0 13.307 10.826 24.133 24.132 24.133 4.764 0 9.372-1.387 13.325-4.011a.8.8 0 0 1 .884 1.33 25.614 25.614 0 0 1-14.209 4.278Z"/><path fill="#fff" d="M41.384 61.575c-9.279 0-16.827-7.548-16.827-16.827 0-9.278 7.549-16.826 16.827-16.826 9.278 0 16.826 7.548 16.826 16.826 0 .518-.025-.634-.074-.104a.626.626 0 0 1-1.246-.115c.046-.492.07.698.07.22 0-8.589-6.988-15.576-15.576-15.576-8.589 0-15.576 6.987-15.576 15.576 0 8.588 6.987 15.575 15.576 15.575 3.83 0 7.51-1.404 10.366-3.952a.626.626 0 0 1 .833.934 16.798 16.798 0 0 1-11.2 4.269Z"/><path fill="#fff" d="M41.384 32.65a.626.626 0 0 1-.625-.626v-3.477a.625.625 0 1 1 1.25 0v3.477c0 .345-.28.625-.625.625ZM47.746 34.352a.626.626 0 0 1-.541-.939l1.738-3.01a.625.625 0 1 1 1.084.625l-1.738 3.01a.625.625 0 0 1-.543.314ZM52.405 39.014a.625.625 0 0 1-.314-1.167l3.011-1.738a.625.625 0 1 1 .626 1.084l-3.011 1.738a.622.622 0 0 1-.312.084ZM49.485 59.404a.625.625 0 0 1-.543-.313l-1.738-3.01a.626.626 0 1 1 1.084-.626l1.738 3.01a.625.625 0 0 1-.541.939ZM41.384 61.575a.626.626 0 0 1-.625-.626v-3.477a.625.625 0 1 1 1.25 0v3.477c0 .345-.28.626-.625.626ZM33.282 59.404a.626.626 0 0 1-.541-.938l1.739-3.012a.626.626 0 0 1 1.083.626l-1.738 3.01a.626.626 0 0 1-.543.313ZM27.354 53.48a.625.625 0 0 1-.314-1.168l3.01-1.738a.625.625 0 1 1 .626 1.084l-3.01 1.738a.621.621 0 0 1-.312.084ZM28.659 45.372h-3.476a.624.624 0 0 1-.626-.624c0-.345.28-.627.626-.627h3.476a.626.626 0 0 1 0 1.251ZM30.363 39.014a.622.622 0 0 1-.312-.084l-3.01-1.738a.625.625 0 1 1 .625-1.083l3.01 1.738a.625.625 0 0 1-.313 1.167ZM35.022 34.351a.625.625 0 0 1-.542-.313l-1.739-3.01a.625.625 0 1 1 1.084-.626l1.738 3.011a.625.625 0 0 1-.541.938Z"/><path fill="#fff" d="M41.384 30.911a.626.626 0 0 1-.625-.625v-1.739a.625.625 0 1 1 1.25 0v1.739c0 .345-.28.625-.625.625ZM45.128 31.402a.626.626 0 0 1-.605-.788l.45-1.678a.625.625 0 1 1 1.208.324l-.45 1.678a.626.626 0 0 1-.603.464ZM51.61 35.148a.626.626 0 0 1-.442-1.068l1.23-1.229a.626.626 0 0 1 .884.885l-1.23 1.229a.624.624 0 0 1-.441.183ZM55.353 41.633a.626.626 0 0 1-.161-1.23l1.679-.45a.626.626 0 0 1 .323 1.209l-1.678.45a.626.626 0 0 1-.163.021ZM45.577 61.02a.626.626 0 0 1-.604-.464l-.45-1.68a.626.626 0 0 1 1.208-.323l.45 1.679a.626.626 0 0 1-.604.788ZM37.191 61.02a.626.626 0 0 1-.605-.788l.45-1.679a.626.626 0 0 1 1.21.324l-.45 1.679a.626.626 0 0 1-.605.464ZM29.928 56.834a.625.625 0 0 1-.442-1.068l1.229-1.229a.625.625 0 1 1 .885.885l-1.23 1.229a.623.623 0 0 1-.442.183ZM25.734 49.57a.626.626 0 0 1-.161-1.23l1.678-.45a.626.626 0 0 1 .324 1.209l-1.679.45a.632.632 0 0 1-.162.02ZM27.414 41.633a.632.632 0 0 1-.163-.021l-1.678-.45a.626.626 0 0 1 .323-1.209l1.68.45a.626.626 0 0 1-.162 1.23ZM31.157 35.148a.623.623 0 0 1-.442-.183l-1.229-1.23a.625.625 0 1 1 .885-.884l1.229 1.23a.625.625 0 0 1-.443 1.067ZM37.64 31.402a.626.626 0 0 1-.603-.463l-.45-1.68a.626.626 0 1 1 1.208-.323l.45 1.679a.626.626 0 0 1-.604.787ZM41.384 47.278a2.53 2.53 0 0 1-2.528-2.528 2.53 2.53 0 0 1 2.528-2.528 2.53 2.53 0 0 1 2.527 2.528 2.53 2.53 0 0 1-2.527 2.528Zm0-3.805c-.704 0-1.277.573-1.277 1.277s.573 1.276 1.277 1.276c.703 0 1.276-.572 1.276-1.276 0-.704-.572-1.277-1.276-1.277Z"/><path fill="#fff" d="M41.384 43.478a.625.625 0 0 1-.625-.626v-7.87a.626.626 0 1 1 1.25 0v7.87c0 .346-.28.626-.625.626ZM46.271 53.836a.625.625 0 0 1-.542-.313l-3.936-6.816a.625.625 0 1 1 1.084-.626l3.935 6.816a.626.626 0 0 1-.541.939Z"/><path stroke="#fff" stroke-width=".5" d="M41.384 61.575c-9.279 0-16.827-7.548-16.827-16.827m16.827 16.827c4.137 0 8.114-1.516 11.2-4.27a.626.626 0 0 0-.834-.933 15.548 15.548 0 0 1-10.366 3.952c-8.589 0-15.576-6.987-15.576-15.575 0-8.589 6.987-15.576 15.576-15.576 8.588 0 15.575 6.987 15.575 15.576 0 .478-.023-.712-.069-.22a.626.626 0 0 0 1.246.115c.05-.53.074.622.074.104 0-9.278-7.548-16.826-16.826-16.826m0 33.653a.626.626 0 0 1-.625-.626v-3.477a.625.625 0 1 1 1.25 0v3.477c0 .345-.28.626-.625.626ZM24.557 44.748c0-9.278 7.549-16.826 16.827-16.826M24.557 44.748c0 .346.28.624.626.624h3.476a.626.626 0 0 0 0-1.25h-3.476a.627.627 0 0 0-.626.626Zm16.827-16.826a.625.625 0 0 0-.625.625m.625-.625c.345 0 .626.28.626.625m-1.251 0v3.477a.626.626 0 1 0 1.25 0v-3.477m-1.25 0v1.739a.626.626 0 1 0 1.25 0v-1.739m5.737 5.805a.626.626 0 0 1-.541-.939l1.738-3.01a.625.625 0 1 1 1.084.625l-1.738 3.01a.625.625 0 0 1-.543.314Zm4.659 4.663a.625.625 0 0 1-.314-1.168l3.011-1.738a.625.625 0 1 1 .626 1.084l-3.011 1.738a.622.622 0 0 1-.312.084Zm-2.92 20.389a.625.625 0 0 1-.543-.313l-1.738-3.01a.626.626 0 1 1 1.084-.626l1.738 3.01a.625.625 0 0 1-.541.939Zm-16.203 0a.626.626 0 0 1-.541-.938l1.739-3.012a.626.626 0 0 1 1.083.626l-1.738 3.01a.626.626 0 0 1-.543.313Zm-5.928-5.925a.625.625 0 0 1-.314-1.167l3.01-1.738a.625.625 0 1 1 .626 1.084l-3.01 1.738a.621.621 0 0 1-.312.084Zm3.009-14.465a.622.622 0 0 1-.312-.084l-3.01-1.738a.625.625 0 1 1 .625-1.083l3.01 1.738a.625.625 0 0 1-.313 1.167Zm4.659-4.663a.625.625 0 0 1-.542-.313l-1.739-3.01a.625.625 0 1 1 1.084-.626l1.738 3.011a.625.625 0 0 1-.541.938Zm10.106-2.949a.626.626 0 0 1-.605-.788l.45-1.678a.625.625 0 1 1 1.208.324l-.45 1.678a.626.626 0 0 1-.603.464Zm6.483 3.746a.626.626 0 0 1-.442-1.068l1.228-1.229a.626.626 0 0 1 .885.885l-1.23 1.229a.624.624 0 0 1-.441.183Zm3.742 6.485a.626.626 0 0 1-.161-1.23l1.679-.45a.626.626 0 0 1 .323 1.209l-1.678.45a.626.626 0 0 1-.163.021ZM45.577 61.02a.626.626 0 0 1-.604-.463l-.45-1.68a.626.626 0 0 1 1.208-.323l.45 1.679a.626.626 0 0 1-.604.788Zm-8.386 0a.626.626 0 0 1-.605-.788l.45-1.678a.626.626 0 0 1 1.21.324l-.45 1.679a.626.626 0 0 1-.605.464Zm-7.263-4.185a.625.625 0 0 1-.442-1.068l1.229-1.229a.625.625 0 1 1 .885.885l-1.23 1.229a.623.623 0 0 1-.442.183Zm-4.194-7.264a.626.626 0 0 1-.161-1.23l1.678-.45a.626.626 0 0 1 .324 1.209l-1.679.45a.632.632 0 0 1-.162.02Zm1.68-7.937a.632.632 0 0 1-.163-.021l-1.678-.45a.626.626 0 0 1 .323-1.209l1.68.45a.626.626 0 0 1-.162 1.23Zm3.743-6.485a.623.623 0 0 1-.442-.183l-1.229-1.23a.625.625 0 1 1 .885-.884l1.229 1.23a.625.625 0 0 1-.443 1.067Zm6.484-3.746a.626.626 0 0 1-.604-.463l-.45-1.68a.626.626 0 1 1 1.208-.323l.45 1.679a.626.626 0 0 1-.604.787Zm3.743 15.876a2.53 2.53 0 0 1-2.528-2.528 2.53 2.53 0 0 1 2.528-2.528 2.53 2.53 0 0 1 2.527 2.528 2.53 2.53 0 0 1-2.527 2.528Zm0-3.805c-.704 0-1.277.573-1.277 1.277s.573 1.276 1.277 1.276c.703 0 1.276-.572 1.276-1.276 0-.704-.572-1.277-1.276-1.277Zm0 .005a.625.625 0 0 1-.625-.626v-7.87a.626.626 0 1 1 1.25 0v7.87c0 .346-.28.626-.625.626Zm4.887 10.358a.625.625 0 0 1-.542-.313l-3.936-6.816a.625.625 0 1 1 1.084-.626l3.935 6.816a.626.626 0 0 1-.541.939Z"/><path fill="#fff" stroke="#fff" stroke-width=".5" d="M57.737 70.994a3.084 3.084 0 0 1-3.081-3.08v-13.49h-3.02c-1.17-.009-2.162-.674-2.597-1.736a2.812 2.812 0 0 1 .605-3.063l6.104-6.104c1.08-1.08 2.737-1.095 3.94-.034a.707.707 0 0 1 .038.034l6.103 6.104a2.813 2.813 0 0 1 .606 3.064c-.434 1.06-1.426 1.725-2.59 1.735h-3.027v13.49a3.084 3.084 0 0 1-3.081 3.08Zm-2.282-18.167c.44 0 .798.357.798.799v14.288c0 .818.666 1.483 1.484 1.483s1.483-.665 1.483-1.483V53.626c0-.442.358-.8.799-.8h3.819a1.17 1.17 0 0 0 1.119-.742c.15-.368.162-.91-.257-1.33l-6.084-6.084c-.44-.377-1.153-.605-1.738-.02l-6.104 6.105c-.42.418-.408.96-.257 1.327.09.222.382.74 1.125.745h3.813Z"/></svg>