<svg xmlns="http://www.w3.org/2000/svg" width="57" height="71" fill="none" viewBox="0 0 57 71"><path fill="#fff" d="M56.169 13.5a1.275 1.275 0 0 0-1.166-1.142 48.827 48.827 0 0 1-13.45-3.728 47.491 47.491 0 0 1-12.218-7.413 1.275 1.275 0 0 0-1.72 0 47.325 47.325 0 0 1-12.219 7.42 48.828 48.828 0 0 1-13.449 3.721 1.275 1.275 0 0 0-1.166 1.135c-.102 1-2.435 24.36 3.276 35.77 6.826 13.626 23.188 21.294 23.883 21.62a1.274 1.274 0 0 0 1.07 0c.695-.326 17.056-7.994 23.883-21.62 5.71-11.41 3.378-34.77 3.276-35.764ZM50.61 48.114c-5.736 11.473-19.28 18.752-22.136 20.186-2.856-1.428-16.374-8.675-22.136-20.186-4.742-9.452-3.493-28.682-3.11-33.335a53.538 53.538 0 0 0 13.161-3.824A51.87 51.87 0 0 0 28.475 3.83a51.868 51.868 0 0 0 12.11 7.152 53.539 53.539 0 0 0 13.162 3.824c.357 4.595 1.606 23.857-3.136 33.31Z"/><path fill="#fff" d="M38.035 28.291h-1.912v-5.099a7.649 7.649 0 0 0-15.297 0v5.1h-1.913a3.187 3.187 0 0 0-3.186 3.186V48.05a3.186 3.186 0 0 0 3.186 3.187h19.122a3.187 3.187 0 0 0 3.187-3.187V31.478a3.187 3.187 0 0 0-3.187-3.187Zm-14.66-5.099a5.1 5.1 0 0 1 10.198 0v5.1H23.375v-5.1ZM38.672 48.05a.638.638 0 0 1-.637.638H18.913a.638.638 0 0 1-.637-.638V31.478a.638.638 0 0 1 .637-.637h19.122a.637.637 0 0 1 .637.637V48.05Z"/><path fill="#fff" d="M28.476 33.39A5.1 5.1 0 0 0 27.2 43.424v1.44a1.275 1.275 0 1 0 2.55 0v-1.44a5.1 5.1 0 0 0-1.275-10.032Zm0 7.65a2.55 2.55 0 1 1 0-5.1 2.55 2.55 0 0 1 0 5.1Z"/></svg>