<svg xmlns="http://www.w3.org/2000/svg" width="63" height="73" fill="none" viewBox="0 0 63 73"><path fill="#fff" d="M36.62 58.117H26.312a4.026 4.026 0 0 1-2.83-1.204 4.015 4.015 0 0 1-1.15-2.848v-.513a28.839 28.839 0 0 0-5.473-16.976 17.138 17.138 0 0 1-3.37-10.191 17.78 17.78 0 0 1 5.387-12.49 17.83 17.83 0 0 1 12.648-5.042 17.803 17.803 0 0 1 12.623 5.051 17.754 17.754 0 0 1 5.362 12.48 17.089 17.089 0 0 1-3.192 10.011 29.572 29.572 0 0 0-5.655 17.283v.387c0 1.072-.425 2.1-1.183 2.86a4.06 4.06 0 0 1-2.859 1.192Zm-5.096-47.36a15.922 15.922 0 0 0-11.304 4.479 15.878 15.878 0 0 0-4.833 11.143 15.242 15.242 0 0 0 3.014 9.067 30.76 30.76 0 0 1 5.835 18.099v.513a2.123 2.123 0 0 0 2.076 2.152H36.62a2.181 2.181 0 0 0 2.146-2.152v-.386a31.461 31.461 0 0 1 6.01-18.387 15.201 15.201 0 0 0 2.837-8.906 15.853 15.853 0 0 0-4.81-11.134 15.897 15.897 0 0 0-11.28-4.488Z"/><path fill="#fff" d="M36.273 72H26.66a.95.95 0 0 1-.923-.726l-1.541-6.296-.727-.253a24.482 24.482 0 0 1-2.767-1.158l-.697-.342-5.53 3.347a.957.957 0 0 1-1.168-.14l-6.795-6.788a.949.949 0 0 1-.142-1.166l3.37-5.538-.34-.694c-.436-.897-.818-1.82-1.143-2.763l-.252-.733-6.279-1.532A.951.951 0 0 1 1 46.295v-7.584a.95.95 0 0 1 .95-.951h17.665v1.895H2.903v5.886l6.1 1.49a.948.948 0 0 1 .69.662 22.449 22.449 0 0 0 1.984 4.792.947.947 0 0 1-.02.954l-3.27 5.379 5.734 5.74 5.371-3.256a.969.969 0 0 1 .958-.018 22.62 22.62 0 0 0 4.788 2.005.957.957 0 0 1 .663.689l1.495 6.122h8.116l1.492-6.1a.954.954 0 0 1 .664-.691 22.543 22.543 0 0 0 4.8-1.986.97.97 0 0 1 .957.02l5.387 3.262 5.738-5.73-3.243-5.365a.952.952 0 0 1-.018-.956 22.43 22.43 0 0 0 1.999-4.782.954.954 0 0 1 .69-.662l6.12-1.493v-5.962H43.45V37.76h17.598a.955.955 0 0 1 .952.95v7.646a.947.947 0 0 1-.727.922l-6.302 1.538-.252.73a24.448 24.448 0 0 1-1.153 2.758l-.342.696 3.359 5.522a.95.95 0 0 1-.14 1.165l-6.798 6.786a.949.949 0 0 1-1.167.14l-5.548-3.365-.694.34c-.899.437-1.824.82-2.77 1.146l-.732.252-1.535 6.28a.95.95 0 0 1-.926.734ZM29.614 34.386a.944.944 0 0 1-.597-.212l-4.939-4.006 1.2-1.475 4.242 3.437 8.335-9.05 1.4 1.285-8.938 9.713a.938.938 0 0 1-.703.308Z"/><path fill="#fff" d="M40.774 48.488H22.22v-1.895h18.554v1.895ZM32.452 6.431h-1.905V1h1.905v5.431ZM12.927 13.308 9.022 9.407l1.346-1.344 3.904 3.9-1.345 1.345ZM9.126 30.814h-5.44V28.92h5.44v1.895ZM59.314 30.655h-5.44V28.76h5.44v1.895ZM49.241 11.463l3.139-3.497 1.345 1.344-3.138 3.497-1.346-1.344Z"/><path stroke="#fff" stroke-width=".4" d="M36.62 58.117H26.312a4.026 4.026 0 0 1-2.83-1.204 4.015 4.015 0 0 1-1.15-2.848v-.513a28.839 28.839 0 0 0-5.473-16.976 17.138 17.138 0 0 1-3.37-10.191 17.78 17.78 0 0 1 5.387-12.49 17.83 17.83 0 0 1 12.648-5.042 17.803 17.803 0 0 1 12.623 5.051 17.754 17.754 0 0 1 5.362 12.48 17.089 17.089 0 0 1-3.192 10.011 29.572 29.572 0 0 0-5.655 17.283v.387c0 1.072-.425 2.1-1.183 2.86a4.06 4.06 0 0 1-2.859 1.192Zm-5.096-47.36a15.922 15.922 0 0 0-11.304 4.479 15.878 15.878 0 0 0-4.833 11.143 15.242 15.242 0 0 0 3.014 9.067 30.76 30.76 0 0 1 5.835 18.099v.513a2.123 2.123 0 0 0 2.076 2.152H36.62a2.181 2.181 0 0 0 2.146-2.152v-.386a31.461 31.461 0 0 1 6.01-18.387 15.201 15.201 0 0 0 2.837-8.906 15.853 15.853 0 0 0-4.81-11.134 15.897 15.897 0 0 0-11.28-4.488Z"/><path stroke="#fff" stroke-width=".4" d="M36.273 72H26.66a.95.95 0 0 1-.923-.726l-1.541-6.296-.727-.253a24.482 24.482 0 0 1-2.767-1.158l-.697-.342-5.53 3.347a.957.957 0 0 1-1.168-.14l-6.795-6.788a.949.949 0 0 1-.142-1.166l3.37-5.538-.34-.694c-.436-.897-.818-1.82-1.143-2.763l-.252-.733-6.279-1.532A.951.951 0 0 1 1 46.295v-7.584a.95.95 0 0 1 .95-.951h17.665v1.895H2.903v5.886l6.1 1.49a.948.948 0 0 1 .69.662 22.449 22.449 0 0 0 1.984 4.792.947.947 0 0 1-.02.954l-3.27 5.379 5.734 5.74 5.371-3.256a.969.969 0 0 1 .958-.018 22.62 22.62 0 0 0 4.788 2.005.957.957 0 0 1 .663.689l1.495 6.122h8.116l1.492-6.1a.954.954 0 0 1 .664-.691 22.543 22.543 0 0 0 4.8-1.986.97.97 0 0 1 .957.02l5.387 3.262 5.738-5.73-3.243-5.365a.952.952 0 0 1-.018-.956 22.43 22.43 0 0 0 1.999-4.782.954.954 0 0 1 .69-.662l6.12-1.493v-5.962H43.45V37.76h17.598a.955.955 0 0 1 .952.95v7.646a.947.947 0 0 1-.727.922l-6.302 1.538-.252.73a24.448 24.448 0 0 1-1.153 2.758l-.342.696 3.359 5.522a.95.95 0 0 1-.14 1.165l-6.798 6.786a.949.949 0 0 1-1.167.14l-5.548-3.365-.694.34c-.899.437-1.824.82-2.77 1.146l-.732.252-1.535 6.28a.95.95 0 0 1-.926.734ZM29.614 34.386a.944.944 0 0 1-.597-.212l-4.939-4.006 1.2-1.475 4.242 3.437 8.335-9.05 1.4 1.285-8.938 9.713a.938.938 0 0 1-.703.308Z"/><path stroke="#fff" stroke-width=".4" d="M40.774 48.488H22.22v-1.895h18.554v1.895ZM32.452 6.431h-1.905V1h1.905v5.431ZM12.927 13.308 9.022 9.407l1.346-1.344 3.904 3.9-1.345 1.345ZM9.126 30.814h-5.44V28.92h5.44v1.895ZM59.314 30.655h-5.44V28.76h5.44v1.895ZM49.241 11.463l3.139-3.497 1.345 1.344-3.138 3.497-1.346-1.344Z"/></svg>