<svg xmlns="http://www.w3.org/2000/svg" width="72" height="71" fill="none" viewBox="0 0 72 71"><path fill="#fff" stroke="#fff" stroke-width=".2" d="M36.17 34.285a1.132 1.132 0 0 1 1.129 1.126h2.258a3.369 3.369 0 0 0-2.258-3.172v-1.334H35.04v1.334A3.365 3.365 0 0 0 33.988 38a3.383 3.383 0 0 0 2.182.79 1.132 1.132 0 0 1 1.043.696 1.124 1.124 0 0 1-.822 1.536 1.132 1.132 0 0 1-1.16-.478 1.125 1.125 0 0 1-.19-.626h-2.258a3.369 3.369 0 0 0 2.258 3.171v1.213h2.258v-1.213a3.377 3.377 0 0 0 1.792-1.472 3.364 3.364 0 0 0-.739-4.288 3.384 3.384 0 0 0-2.182-.791 1.132 1.132 0 0 1-1.046-.694 1.125 1.125 0 0 1 1.046-1.558Z"/><path fill="#fff" stroke="#fff" stroke-width=".2" d="M24.879 34.728h3.387v14.765a1.125 1.125 0 0 0 1.129 1.126h13.548a1.13 1.13 0 0 0 1.13-1.126V34.728h3.386a1.131 1.131 0 0 0 1.034-.674 1.125 1.125 0 0 0-.202-1.215L37.001 20.57a1.128 1.128 0 0 0-1.286-.27 1.129 1.129 0 0 0-.378.27l-11.29 12.27a1.125 1.125 0 0 0 .832 1.888Zm11.29-11.73 8.72 9.477h-1.946a1.13 1.13 0 0 0-1.129 1.126v14.765h-11.29V33.601a1.125 1.125 0 0 0-1.13-1.126h-1.946l8.721-9.478Z"/><path fill="#fff" stroke="#fff" stroke-width=".2" d="M36 12.269c-4.689 0-9.273 1.387-13.172 3.986a23.667 23.667 0 0 0-8.732 10.616 23.605 23.605 0 0 0-1.35 13.668 23.638 23.638 0 0 0 6.49 12.111 23.727 23.727 0 0 0 12.14 6.474c4.598.913 9.366.444 13.698-1.346a23.698 23.698 0 0 0 10.64-8.712 23.617 23.617 0 0 0 3.996-13.142 23.654 23.654 0 0 0-6.952-16.72 23.764 23.764 0 0 0-16.757-6.935Zm0 45.057c-4.242 0-8.39-1.255-11.917-3.607a21.412 21.412 0 0 1-7.901-9.605 21.357 21.357 0 0 1-1.22-12.366 21.387 21.387 0 0 1 5.87-10.958 21.497 21.497 0 0 1 23.378-4.64 21.441 21.441 0 0 1 9.627 7.883 21.367 21.367 0 0 1 3.615 11.89 21.402 21.402 0 0 1-6.29 15.127 21.501 21.501 0 0 1-15.161 6.276Z"/><path fill="#fff" stroke="#fff" stroke-width=".2" d="M69.23 28.285h-2.2a2.153 2.153 0 0 1-2.004-1.564 30.302 30.302 0 0 0-1.987-4.773 2.142 2.142 0 0 1 .31-2.523l1.563-1.561a1.125 1.125 0 0 0 .138-1.426 34.977 34.977 0 0 0-9.527-9.505 1.13 1.13 0 0 0-1.43.138l-1.564 1.56A2.155 2.155 0 0 1 50 8.94a30.379 30.379 0 0 0-4.783-1.982 2.15 2.15 0 0 1-1.566-2V2.765a1.125 1.125 0 0 0-.913-1.106 34.802 34.802 0 0 0-13.474 0 1.13 1.13 0 0 0-.913 1.106v2.194a2.143 2.143 0 0 1-1.566 2A30.398 30.398 0 0 0 22 8.938a2.157 2.157 0 0 1-2.53-.308l-1.564-1.56a1.13 1.13 0 0 0-1.429-.138 34.978 34.978 0 0 0-9.528 9.505 1.124 1.124 0 0 0 .139 1.426l1.564 1.561a2.144 2.144 0 0 1 .309 2.524 30.25 30.25 0 0 0-1.987 4.772 2.146 2.146 0 0 1-2.004 1.564h-2.2a1.13 1.13 0 0 0-1.107.91 34.424 34.424 0 0 0 0 13.443 1.126 1.126 0 0 0 1.108.91H4.97a2.153 2.153 0 0 1 2.004 1.564 30.265 30.265 0 0 0 1.987 4.772 2.143 2.143 0 0 1-.31 2.524l-1.563 1.56a1.126 1.126 0 0 0-.139 1.426 34.98 34.98 0 0 0 9.528 9.506 1.132 1.132 0 0 0 1.429-.138l1.565-1.56a2.153 2.153 0 0 1 2.53-.309 30.324 30.324 0 0 0 4.783 1.983 2.15 2.15 0 0 1 1.566 2v2.193a1.124 1.124 0 0 0 .913 1.106c4.448.881 9.026.881 13.474 0a1.13 1.13 0 0 0 .913-1.106v-2.194a2.142 2.142 0 0 1 1.566-1.999A30.333 30.333 0 0 0 50 62.893a2.156 2.156 0 0 1 2.53.309l1.564 1.56a1.131 1.131 0 0 0 1.43.138 34.97 34.97 0 0 0 9.526-9.506 1.124 1.124 0 0 0-.138-1.425l-1.564-1.561a2.145 2.145 0 0 1-.309-2.524 30.26 30.26 0 0 0 1.987-4.772 2.145 2.145 0 0 1 2.004-1.563h2.2a1.13 1.13 0 0 0 1.107-.91 34.424 34.424 0 0 0 0-13.444 1.127 1.127 0 0 0-1.108-.91Zm-.944 13.01H67.03a4.405 4.405 0 0 0-2.593.888 4.388 4.388 0 0 0-1.563 2.247 27.946 27.946 0 0 1-1.838 4.415 4.38 4.38 0 0 0 .716 5.156l.897.896a32.67 32.67 0 0 1-7.625 7.607l-.897-.895a4.404 4.404 0 0 0-5.168-.715 28.095 28.095 0 0 1-4.426 1.835 4.398 4.398 0 0 0-2.252 1.559 4.382 4.382 0 0 0-.89 2.587v1.254a32.375 32.375 0 0 1-10.783 0v-1.254a4.381 4.381 0 0 0-.889-2.587 4.398 4.398 0 0 0-2.252-1.56 28.08 28.08 0 0 1-4.426-1.834 4.407 4.407 0 0 0-5.167.715l-.898.895a32.689 32.689 0 0 1-7.625-7.607l.897-.895a4.385 4.385 0 0 0 .716-5.157 27.897 27.897 0 0 1-1.838-4.415 4.387 4.387 0 0 0-1.563-2.247 4.405 4.405 0 0 0-2.593-.887H3.713a32 32 0 0 1 0-10.759H4.97a4.405 4.405 0 0 0 2.593-.887 4.388 4.388 0 0 0 1.563-2.246 27.966 27.966 0 0 1 1.838-4.416 4.378 4.378 0 0 0-.716-5.156l-.897-.895a32.69 32.69 0 0 1 7.625-7.608l.897.895a4.403 4.403 0 0 0 5.168.715 28.108 28.108 0 0 1 4.426-1.835 4.398 4.398 0 0 0 2.252-1.559 4.381 4.381 0 0 0 .89-2.587V3.704a32.374 32.374 0 0 1 10.783 0v1.254c.012.935.324 1.841.889 2.587a4.399 4.399 0 0 0 2.252 1.56 28.127 28.127 0 0 1 4.425 1.833 4.408 4.408 0 0 0 5.168-.714l.898-.895a32.688 32.688 0 0 1 7.624 7.608l-.896.894a4.384 4.384 0 0 0-.717 5.156 27.945 27.945 0 0 1 1.839 4.417 4.388 4.388 0 0 0 1.563 2.246 4.405 4.405 0 0 0 2.593.887h1.257c.607 3.561.607 7.198 0 10.759Z"/></svg>