<svg width="60" height="60" viewBox="0 0 60 60" fill="none" xmlns="http://www.w3.org/2000/svg">
<path d="M17.5294 25.2969H15.165L13.8769 31.9175H15.9769C17.3625 31.9175 18.3975 31.655 19.0819 31.1281C19.755 30.6106 20.2144 29.7312 20.4487 28.5106C20.6812 27.3387 20.5744 26.5081 20.1469 26.0206C19.7062 25.5425 18.8363 25.2969 17.5294 25.2969ZM30 14C13.4269 14 0 21.0706 0 29.78C0 38.4894 13.4269 45.56 30 45.56C46.5731 45.56 60 38.4894 60 29.78C60 21.0706 46.5731 14 30 14ZM21.8456 32.6319C21.2006 33.2563 20.4113 33.725 19.56 34.0063C18.72 34.2706 17.6475 34.4169 16.3481 34.4169H13.3875L12.5775 38.6169H9.12937L12.2063 22.8069H18.8269C20.82 22.8069 22.275 23.3244 23.1919 24.3688C24.1013 25.4131 24.3844 26.8794 24.0112 28.7544C23.8762 29.4969 23.6119 30.2094 23.2519 30.875C22.89 31.5069 22.4325 32.0956 21.8438 32.6319H21.8456ZM31.9144 34.4169L33.2719 27.4175C33.4275 26.6244 33.3694 26.0806 33.0938 25.7844C32.8312 25.5013 32.2537 25.355 31.3762 25.355H28.6519L26.895 34.4169H23.4675L26.5425 18.5975H29.9606L29.1413 22.8069H32.1881C34.1138 22.8069 35.43 23.1388 36.1537 23.8025C36.8869 24.4775 37.1006 25.5594 36.8194 27.0556L35.3813 34.4188L31.9144 34.4169ZM50.8969 28.7544C50.7619 29.4969 50.5069 30.2094 50.1375 30.875C49.785 31.5069 49.3181 32.0956 48.7406 32.6319C48.0863 33.2469 47.3063 33.725 46.4456 34.0063C45.6056 34.2706 44.5312 34.4169 43.2337 34.4169H40.2844L39.465 38.6169H36.0169L39.0938 22.8069H45.7144C47.7075 22.8069 49.1625 23.3244 50.0794 24.38C50.9888 25.415 51.27 26.8794 50.8969 28.7544ZM44.415 25.2969H42.06L40.7719 31.9175H42.8625C44.2575 31.9175 45.2925 31.655 45.9675 31.1281C46.65 30.6106 47.1094 29.7312 47.3456 28.5106C47.5781 27.3387 47.4712 26.5081 47.0306 26.0206C46.6031 25.5425 45.7238 25.2969 44.415 25.2969Z" fill="black"/>
</svg>
