<svg width="60" height="60" viewBox="0 0 60 60" fill="none" xmlns="http://www.w3.org/2000/svg">
<g clip-path="url(#clip0_5768_9473)">
<path d="M35.597 0.45L37.8358 0.95L39.6517 1.6L41.1194 2.35L42.2388 3.15L43.0846 4L43.7065 4.85L44.1045 5.675L44.3532 6.425L44.4527 7.075L44.5025 7.575L44.4776 7.9V21.25L44.3532 22.825L44.0299 24.2L43.5075 25.35L42.8607 26.3L42.1144 27.075L41.2935 27.7L40.4229 28.175L39.5522 28.525L38.7313 28.775L37.9851 28.95L37.3383 29.05L36.8159 29.1H21.9652L20.2488 29.225L18.7811 29.575L17.5373 30.125L16.5174 30.8L15.6965 31.6L15.0249 32.475L14.5274 33.375L14.1542 34.3L13.9055 35.175L13.7313 35.975L13.6318 36.65L13.5821 37.175V44.825H8.03483L7.51244 44.75L6.81592 44.575L6.0199 44.275L5.14925 43.825L4.25373 43.175L3.35821 42.275L2.48756 41.125L1.69154 39.65L0.995025 37.825L0.472637 35.625L0.124378 33L0 29.925L0.149254 26.875L0.547264 24.275L1.14428 22.1L1.9403 20.325L2.83582 18.9L3.83085 17.8L4.87562 16.975L5.9204 16.375L6.91542 15.975L7.81095 15.725L8.60697 15.6L9.20398 15.575H9.60199L9.75124 15.6H30.0498V13.525H15.5224L15.4975 6.65L15.4478 5.725L15.5721 4.875L15.8458 4.1L16.2687 3.4L16.8905 2.75L17.6617 2.175L18.607 1.675L19.7015 1.225L20.9701 0.85L22.4129 0.55L24.005 0.3L25.7711 0.15L27.6866 0.05L29.7761 0L32.9353 0.125L35.597 0.45ZM19.9254 5.4L19.3532 6.225L19.1542 7.25L19.3532 8.275L19.9254 9.125L20.7463 9.675L21.7662 9.9L22.7861 9.675L23.607 9.125L24.1791 8.275L24.3781 7.25L24.1791 6.225L23.607 5.4L22.7861 4.85L21.7662 4.625L20.7463 4.85L19.9254 5.4ZM52.4876 15.275L53.1841 15.425L53.9801 15.725L54.8507 16.175L55.7463 16.85L56.6418 17.725L57.5124 18.9L58.3085 20.375L59.005 22.2L59.5274 24.4L59.8756 27L60 30.075L59.8507 33.15L59.4527 35.75L58.8557 37.9L58.0597 39.675L57.1642 41.1L56.1692 42.225L55.1244 43.05L54.0796 43.65L53.0846 44.05L52.1891 44.275L51.393 44.4L50.796 44.45L50.398 44.425H29.9502V46.475H44.4776L44.5025 53.375L44.5522 54.275L44.4279 55.125L44.1542 55.9L43.7313 56.625L43.1095 57.25L42.3383 57.85L41.393 58.35L40.2985 58.775L39.0299 59.15L37.5871 59.475L35.995 59.7L34.2289 59.875L32.3134 59.975L30.2239 60L27.0647 59.9L24.403 59.55L22.1642 59.05L20.3483 58.425L18.8806 57.675L17.7612 56.85L16.9154 56L16.2935 55.15L15.8955 54.325L15.6468 53.575L15.5473 52.95L15.4975 52.45L15.5224 52.125V38.775L15.6468 37.175L15.9701 35.825L16.4925 34.675L17.1393 33.725L17.8856 32.925L18.7065 32.325L19.5771 31.825L20.4478 31.475L21.2687 31.225L22.0149 31.075L22.6617 30.975L23.1841 30.925L23.5075 30.9H38.0348L39.7512 30.775L41.2189 30.425L42.4627 29.9L43.4826 29.2L44.3035 28.4L44.9751 27.525L45.4726 26.625L45.8458 25.725L46.0945 24.85L46.2687 24.05L46.3682 23.35L46.4179 22.825V15.175H51.6169L51.9652 15.2L52.4876 15.275ZM36.393 50.9L35.8209 51.725L35.6219 52.75L35.8209 53.775L36.393 54.6L37.2139 55.175L38.2338 55.375L39.2537 55.175L40.0746 54.6L40.6468 53.775L40.8458 52.75L40.6468 51.725L40.0746 50.9L39.2537 50.325L38.2338 50.125L37.2139 50.325L36.393 50.9Z" fill="black"/>
</g>
<defs>
<clipPath id="clip0_5768_9473">
<rect width="60" height="60" fill="white"/>
</clipPath>
</defs>
</svg>
