<svg xmlns="http://www.w3.org/2000/svg" width="72" height="72" fill="none" viewBox="0 0 72 72"><path fill="#fff" stroke="#fff" stroke-width=".3" d="M64.571 71H7.43A6.436 6.436 0 0 1 1 64.572a.476.476 0 0 1 .476-.477h3.095V25.287a4.047 4.047 0 0 1 4.048-4.048h8.333a.476.476 0 1 1 0 .953H8.62a3.095 3.095 0 0 0-3.095 3.095v38.808h3.81V26.477a.476.476 0 0 1 .476-.476h7.142a.476.476 0 1 1 0 .952h-6.666v37.142h51.428V26.953h-6.666a.476.476 0 0 1 0-.952h7.142a.476.476 0 0 1 .477.476v37.618h3.809V25.287a3.096 3.096 0 0 0-3.095-3.095h-8.334a.476.476 0 0 1 0-.953h8.334a4.048 4.048 0 0 1 4.047 4.048v38.808h3.096a.476.476 0 0 1 .476.477A6.436 6.436 0 0 1 64.57 71ZM1.894 65.048l.231.894a5.476 5.476 0 0 0 5.304 4.106H64.57a5.475 5.475 0 0 0 5.303-4.109l.23-.892H1.895ZM16.952 17.428a.476.476 0 0 1-.476-.476V5.524H9.088l-.14.534a4.048 4.048 0 0 1-3.9 3.037 4.048 4.048 0 0 1 0-8.095 4.048 4.048 0 0 1 3.9 3.037l.14.534h7.864a.476.476 0 0 1 .476.477v11.904a.476.476 0 0 1-.476.476ZM5.048 1.952a3.095 3.095 0 1 0 0 6.19 3.095 3.095 0 0 0 0-6.19ZM36 15.047a.476.476 0 0 1-.477-.476V9.088l-.534-.14a4.04 4.04 0 0 1-3.037-3.9 4.047 4.047 0 1 1 8.095 0 4.039 4.039 0 0 1-3.037 3.9l-.534.14v5.483a.476.476 0 0 1-.477.476Zm0-13.095a3.095 3.095 0 1 0 0 6.19 3.095 3.095 0 0 0 0-6.19ZM55.048 17.428a.476.476 0 0 1-.477-.476V5.048a.476.476 0 0 1 .477-.477h7.864l.14-.534A4.047 4.047 0 0 1 66.951 1a4.047 4.047 0 0 1 0 8.095 4.048 4.048 0 0 1-3.9-3.037l-.14-.534h-7.388v11.428a.476.476 0 0 1-.476.476ZM66.952 1.952a3.095 3.095 0 1 0 0 6.19 3.095 3.095 0 0 0 0-6.19Z"/><path fill="#fff" d="M41.706 40.601c-4.992 4.117-12.467 3.327-16.663-1.76-4.196-5.089-3.548-12.577 1.444-16.694 4.992-4.117 12.468-3.327 16.664 1.76 4.196 5.088 3.548 12.577-1.445 16.694ZM27.194 23.003c-4.529 3.735-5.116 10.528-1.31 15.145 3.808 4.616 10.589 5.333 15.118 1.598 4.529-3.735 5.116-10.53 1.31-15.145-3.808-4.616-10.59-5.333-15.118-1.598Z"/><path fill="#fff" d="m38.734 26.958-1.224 1.01a.55.55 0 0 1-.773-.082.55.55 0 0 1 .068-.774l1.223-1.01c.005-.024-.01-.192-.154-.367a.55.55 0 0 1-.05-.072l-1.004-1.698a.547.547 0 0 1 .188-.752.554.554 0 0 1 .753.203l.983 1.664c.503.64.501 1.457-.01 1.878ZM44.06 32.114a.548.548 0 0 1-.71-.018l-1.477-1.31a.537.537 0 0 1-.061-.062c-.144-.175-.307-.221-.35-.212l-1.469 1.216a.55.55 0 0 1-.773-.081.55.55 0 0 1 .068-.775l1.486-1.226c.511-.421 1.315-.267 1.847.348l1.446 1.282a.554.554 0 0 1-.006.838ZM30.234 33.968l-1.223 1.01c-.511.42-1.314.266-1.847-.349l-1.446-1.281a.554.554 0 0 1-.056-.778.547.547 0 0 1 .774-.042l1.476 1.308c.022.02.043.041.061.064.144.174.307.22.35.21l1.205-.998a.55.55 0 0 1 .774.081.55.55 0 0 1-.068.775ZM33.058 41.188a.554.554 0 0 1-.824-.153l-.983-1.664c-.502-.64-.5-1.458.01-1.88l1.408-1.16a.55.55 0 0 1 .773.08.55.55 0 0 1-.067.775l-1.408 1.161c-.004.025.01.193.154.368a.537.537 0 0 1 .05.072l1.004 1.699a.548.548 0 0 1-.117.702ZM29.73 27.682a.534.534 0 0 1-.221.11c-.346.078-.71.079-1.053 0a2.5 2.5 0 0 1-1.329-.816.55.55 0 0 1 .056-.775l.006-.005a.55.55 0 0 1 .768.075c.112.131.355.364.724.449.183.04.379.04.566-.002a.56.56 0 0 1 .664.415.544.544 0 0 1-.181.55ZM31.392 26.311a.544.544 0 0 1-.574.073.559.559 0 0 1-.28-.731c.077-.176.115-.368.108-.556a1.36 1.36 0 0 0-.302-.795c-.192-.24-.162-.602.078-.773a.55.55 0 0 1 .772.092c.196.244.527.757.549 1.46.012.352-.059.71-.202 1.033a.525.525 0 0 1-.149.197Z"/><path fill="#fff" d="m36.558 27.06-7.104 5.859a.54.54 0 0 1-.448.112.564.564 0 0 1-.38-.274c-1.277-2.244-.783-5.044 1.172-6.657 1.956-1.613 4.799-1.564 6.759.116a.561.561 0 0 1 .196.426.54.54 0 0 1-.195.418Zm-7.268 4.555 6.02-4.963c-1.502-.926-3.431-.83-4.806.304s-1.837 3.01-1.214 4.66Z"/><path fill="#fff" d="M38.402 36.533c-2.223 1.833-5.552 1.481-7.42-.784l-1.827-2.216a5.371 5.371 0 0 1-.53-.776.547.547 0 0 1 .123-.694l3.552-2.93a.55.55 0 0 1 .773.082l5.396 6.543a.55.55 0 0 1-.067.775Zm-8.58-3.92c.057.08.114.155.174.227l1.827 2.216c1.36 1.648 3.695 2.017 5.43.94l-4.667-5.66-2.763 2.278Z"/><path fill="#fff" d="M38.402 36.533a.55.55 0 0 1-.773-.082l-5.396-6.543a.55.55 0 0 1 .067-.774l3.552-2.93a.548.548 0 0 1 .705.012c.252.216.469.435.66.668l1.829 2.216c1.868 2.265 1.58 5.6-.644 7.433Zm-4.976-6.89 4.667 5.66c1.389-1.499 1.472-3.862.112-5.51l-1.828-2.216a3.981 3.981 0 0 0-.189-.213l-2.762 2.279Z"/><path stroke="#fff" stroke-width=".2" d="M28.625 32.757c.082.143.22.243.38.274a.54.54 0 0 0 .449-.112l7.104-5.859a.54.54 0 0 0 .195-.418.561.561 0 0 0-.196-.426m-7.932 6.54c-1.276-2.244-.782-5.043 1.173-6.656 1.956-1.613 4.799-1.564 6.759.116m-7.932 6.54c.164.29.337.544.53.777l1.827 2.216c1.868 2.265 5.197 2.617 7.42.784m-9.777-3.776a.547.547 0 0 1 .123-.694l3.552-2.93m4.257-2.917a.548.548 0 0 0-.705-.012l-3.552 2.93m4.257-2.918c.252.216.469.435.66.668l1.829 2.216c1.868 2.265 1.58 5.6-.644 7.433m0 0a.55.55 0 0 0 .067-.775l-5.396-6.543a.55.55 0 0 0-.773-.081m6.102 7.399a.55.55 0 0 1-.773-.082l-5.396-6.543a.55.55 0 0 1 .067-.774M41.707 40.6c-4.993 4.117-12.468 3.327-16.664-1.76-4.196-5.089-3.548-12.577 1.444-16.694 4.992-4.117 12.468-3.327 16.664 1.76 4.196 5.088 3.548 12.577-1.445 16.694ZM27.192 23.003c-4.529 3.735-5.116 10.528-1.31 15.145 3.808 4.616 10.589 5.333 15.118 1.598 4.529-3.735 5.116-10.53 1.31-15.145-3.808-4.616-10.59-5.333-15.118-1.598Zm11.541 3.955-1.224 1.01a.55.55 0 0 1-.773-.082.55.55 0 0 1 .068-.774l1.223-1.01c.005-.024-.01-.192-.154-.367a.55.55 0 0 1-.05-.072l-1.004-1.698a.547.547 0 0 1 .188-.752.554.554 0 0 1 .753.203l.983 1.664c.503.64.501 1.457-.01 1.878Zm5.327 5.156a.548.548 0 0 1-.712-.018l-1.476-1.31a.537.537 0 0 1-.061-.062c-.144-.175-.307-.221-.35-.212l-1.469 1.216a.55.55 0 0 1-.773-.081.55.55 0 0 1 .068-.775l1.486-1.226c.511-.421 1.315-.267 1.847.348l1.446 1.282a.554.554 0 0 1-.006.838Zm-13.827 1.854-1.223 1.01c-.511.42-1.314.266-1.847-.349l-1.446-1.281a.554.554 0 0 1-.056-.778.547.547 0 0 1 .774-.042l1.476 1.308c.022.02.043.041.061.064.144.174.307.22.35.21l1.205-.998a.55.55 0 0 1 .774.081.55.55 0 0 1-.068.775Zm2.824 7.22a.554.554 0 0 1-.824-.153l-.983-1.664c-.502-.64-.5-1.458.01-1.88l1.408-1.16a.55.55 0 0 1 .773.08.55.55 0 0 1-.067.775l-1.408 1.161c-.004.025.01.193.154.368a.537.537 0 0 1 .05.072l1.004 1.699a.548.548 0 0 1-.117.702ZM29.73 27.681a.534.534 0 0 1-.221.11c-.346.078-.71.079-1.053 0a2.5 2.5 0 0 1-1.329-.816.55.55 0 0 1 .056-.775l.006-.005a.55.55 0 0 1 .768.075c.112.131.355.364.724.449.183.04.379.04.566-.002a.56.56 0 0 1 .664.415.544.544 0 0 1-.181.55Zm1.662-1.37a.544.544 0 0 1-.574.072.559.559 0 0 1-.28-.731c.077-.176.115-.368.108-.556a1.36 1.36 0 0 0-.302-.795c-.192-.24-.162-.602.078-.773a.55.55 0 0 1 .772.092c.196.244.527.757.549 1.46.012.352-.059.71-.202 1.033a.525.525 0 0 1-.149.197Zm-2.102 5.303 6.02-4.963c-1.502-.926-3.431-.83-4.806.304s-1.837 3.01-1.214 4.66Zm.533.999c.056.079.113.154.173.226l1.827 2.216c1.36 1.648 3.695 2.017 5.43.94l-4.667-5.66-2.763 2.278Zm3.603-2.971 4.667 5.66c1.389-1.499 1.472-3.862.112-5.51l-1.828-2.216a3.981 3.981 0 0 0-.189-.213l-2.762 2.279Z"/><path stroke="#fff" stroke-linecap="round" stroke-linejoin="round" stroke-width=".8" d="m44.613 43.01 11.16 14.743c.492.594 1.131 1.982-.254 2.773-.439.25-1.78.098-2.187-.59l-11.16-14.742m7.259-11.717c-1.154 8.345-8.855 14.175-17.2 13.02-8.345-1.153-14.175-8.854-13.02-17.199 1.154-8.345 8.854-14.174 17.2-13.02 8.344 1.154 14.174 8.855 13.02 17.2Z"/></svg>