<svg xmlns="http://www.w3.org/2000/svg" width="72" height="72" fill="none" viewBox="0 0 72 72"><path fill="#fff" stroke="#fff" stroke-width=".5" d="M35.993 71a4.955 4.955 0 0 1-.701-9.858l.375-.055v-5.056a.332.332 0 0 1 .665 0v5.056l.375.055A4.955 4.955 0 0 1 35.993 71Zm0-9.244a4.29 4.29 0 1 0 4.29 4.29 4.296 4.296 0 0 0-4.286-4.288l-.004-.002Zm-21.25.448a4.927 4.927 0 0 1-3.508-1.456 4.957 4.957 0 0 1 6.477-7.471l.305.228 3.582-3.577a.333.333 0 0 1 .542.108.331.331 0 0 1-.072.361l-3.577 3.577.227.304a4.959 4.959 0 0 1-3.972 7.925h-.004Zm.006-9.247a4.29 4.29 0 0 0-2.722 7.604 4.289 4.289 0 1 0 2.722-7.604Zm42.494 9.24h-.01a4.909 4.909 0 0 1-3.492-1.448 4.991 4.991 0 0 1-.464-6.471l.226-.304-3.577-3.577a.332.332 0 0 1 .47-.469l3.576 3.577.304-.227a4.954 4.954 0 0 1 6.984 6.863 4.951 4.951 0 0 1-4.017 2.056Zm0-9.243a4.292 4.292 0 1 0-.005 8.583 4.292 4.292 0 0 0 .005-8.582v-.001Zm-17.395.326a.332.332 0 0 1-.332-.332v-20.8a.332.332 0 1 1 .665 0v20.8a.332.332 0 0 1-.333.332Zm-3.852 0a.332.332 0 0 1-.333-.332V39.852a.332.332 0 1 1 .665 0v13.096a.332.332 0 0 1-.332.332Zm-3.852 0a.333.333 0 0 1-.332-.332v-20.8a.332.332 0 0 1 .663 0v20.8a.332.332 0 0 1-.331.332Zm10.785-4.055a.333.333 0 0 1-.159-.624 14.31 14.31 0 0 0 0-25.203.332.332 0 0 1 .315-.584 14.974 14.974 0 0 1 0 26.372.33.33 0 0 1-.153.04h-.003Zm-13.87 0a.336.336 0 0 1-.157-.04 14.975 14.975 0 0 1 0-26.372.33.33 0 0 1 .45.136.332.332 0 0 1-.135.45 14.311 14.311 0 0 0 0 25.203.332.332 0 0 1-.155.623h-.003Zm13.87-6.73a.332.332 0 0 1-.333-.332V30.607a1.983 1.983 0 0 0-1.979-1.978h-9.243a1.984 1.984 0 0 0-1.979 1.979v11.555a.332.332 0 0 1-.664 0V30.61a2.65 2.65 0 0 1 2.643-2.645h9.245a2.652 2.652 0 0 1 2.645 2.644v11.555a.332.332 0 0 1-.333.332h-.002Zm23.109-1.541a4.978 4.978 0 0 1-4.894-4.246l-.055-.375h-5.06a.333.333 0 0 1 0-.665h5.058l.054-.375a4.955 4.955 0 1 1 4.899 5.661h-.002Zm.004-9.244a4.291 4.291 0 1 0 4.29 4.29 4.296 4.296 0 0 0-4.287-4.29h-.003ZM5.954 40.954c-.124 0-.245 0-.36-.012a4.955 4.955 0 0 1 .36-9.896 4.978 4.978 0 0 1 4.898 4.247l.055.375h5.058a.332.332 0 0 1 0 .665h-5.057l-.055.375a4.977 4.977 0 0 1-4.9 4.246Zm0-9.244a4.291 4.291 0 1 0 4.29 4.29 4.296 4.296 0 0 0-4.294-4.29h.004Zm30.043-6.161a3.414 3.414 0 0 1-.669-6.76 3.414 3.414 0 0 1 4.083 3.34 3.419 3.419 0 0 1-3.414 3.42Zm0-6.163a2.75 2.75 0 1 0 1.942.802 2.753 2.753 0 0 0-1.942-.804v.002Zm14.164 2.785a.331.331 0 0 1-.235-.567l3.577-3.576-.226-.304a4.957 4.957 0 0 1 6.23-7.381 4.957 4.957 0 0 1-3.095 9.3 4.958 4.958 0 0 1-2.135-.918l-.304-.228-3.576 3.577a.331.331 0 0 1-.236.094v.003Zm7.082-11.702a4.288 4.288 0 1 0 .001 8.575 4.288 4.288 0 0 0 0-8.575Zm-35.41 11.7a.33.33 0 0 1-.235-.098l-3.577-3.577-.304.23a4.948 4.948 0 0 1-2.957.986h-.065a4.956 4.956 0 1 1 4.018-1.988l-.226.304 3.58 3.578a.33.33 0 0 1-.233.566l-.001-.002Zm-7.082-11.7a4.258 4.258 0 0 0-3.033 1.255 4.28 4.28 0 0 0 0 6.07 4.292 4.292 0 1 0 3.033-7.325Zm21.246 5.834a.333.333 0 0 1-.333-.333v-5.058l-.375-.054a4.955 4.955 0 1 1 1.416 0l-.375.054v5.058a.33.33 0 0 1-.333.333Zm0-14.642a4.291 4.291 0 1 0 4.29 4.29 4.302 4.302 0 0 0-4.29-4.286V1.66Z"/></svg>