<svg xmlns="http://www.w3.org/2000/svg" width="72" height="58" fill="none" viewBox="0 0 72 58"><path fill="#fff" stroke="#fff" stroke-width=".6" d="M32.415 57H23.26a.256.256 0 0 1-.185-.08.282.282 0 0 1-.077-.194v-7.053l-.508-.14a19.816 19.816 0 0 1-4.785-2.07l-.457-.273-4.779 4.983a.253.253 0 0 1-.371 0l-6.47-6.746a.282.282 0 0 1 0-.387l4.782-4.988-.273-.474a21.691 21.691 0 0 1-1.984-4.992l-.138-.53H1.261a.257.257 0 0 1-.184-.08.273.273 0 0 1-.077-.199v-9.553a.283.283 0 0 1 .076-.193.258.258 0 0 1 .185-.081h6.763l.138-.53a21.677 21.677 0 0 1 1.974-4.998l.26-.476-4.769-4.982a.274.274 0 0 1-.077-.193.284.284 0 0 1 .077-.194l6.471-6.755a.26.26 0 0 1 .186-.08.26.26 0 0 1 .186.08l4.785 4.99.455-.275a19.86 19.86 0 0 1 4.78-2.07l.508-.143V1.273a.283.283 0 0 1 .077-.193.257.257 0 0 1 .186-.08h9.155c.07 0 .135.029.184.08a.273.273 0 0 1 .079.193v7.05l.506.144c1.673.474 3.28 1.17 4.785 2.07l.456.273 4.78-4.988c.05-.05.116-.079.185-.079.07 0 .136.028.185.08l6.475 6.75a.281.281 0 0 1 0 .387l-4.78 4.988.26.477a21.703 21.703 0 0 1 1.986 4.991l.136.53h6.763c.07 0 .136.03.185.081.049.051.077.12.077.193v9.552a.282.282 0 0 1-.077.194.256.256 0 0 1-.185.08h-6.763l-.138.53a21.69 21.69 0 0 1-1.985 5.002l-.26.475 4.778 4.988a.271.271 0 0 1 .077.193.282.282 0 0 1-.077.193l-6.474 6.755a.256.256 0 0 1-.185.08.256.256 0 0 1-.185-.08l-4.782-4.988-.455.272a19.77 19.77 0 0 1-4.785 2.067l-.508.143v7.05a.286.286 0 0 1-.076.193.258.258 0 0 1-.183.081Zm-15.2-10.432c.047 0 .095.013.136.038a19.487 19.487 0 0 0 5.932 2.574h.023c.06.01.115.044.155.093.04.05.062.112.062.177v6.997h8.63v-7c0-.061.021-.12.058-.168a.261.261 0 0 1 .145-.095 19.605 19.605 0 0 0 5.932-2.563l.017-.012a.253.253 0 0 1 .336.031l4.745 4.952 6.104-6.37-4.746-4.947a.289.289 0 0 1-.037-.339 21.269 21.269 0 0 0 2.467-6.192v-.015a.276.276 0 0 1 .09-.163.253.253 0 0 1 .168-.062h6.707v-9.008h-6.696a.26.26 0 0 1-.162-.06.281.281 0 0 1-.093-.151 21.25 21.25 0 0 0-2.456-6.196l-.012-.018a.28.28 0 0 1 .03-.35l4.745-4.951-6.103-6.367-4.745 4.946a.263.263 0 0 1-.324.04 19.248 19.248 0 0 0-5.903-2.563l-.047-.01a.26.26 0 0 1-.157-.093.284.284 0 0 1-.063-.177v-7h-8.63v7c0 .062-.021.121-.058.17a.258.258 0 0 1-.145.094 19.628 19.628 0 0 0-5.933 2.562l-.016.013a.256.256 0 0 1-.336-.03l-4.746-4.95-6.11 6.366 4.746 4.95a.284.284 0 0 1 .037.337 21.276 21.276 0 0 0-2.467 6.193v.02a.277.277 0 0 1-.09.162.254.254 0 0 1-.169.063H1.523v9.005h6.714c.06.001.116.023.162.061a.276.276 0 0 1 .091.152 21.412 21.412 0 0 0 2.456 6.192l.012.018a.283.283 0 0 1-.03.35L6.18 45.23l6.103 6.369 4.746-4.95a.26.26 0 0 1 .184-.08ZM64.208 57a.254.254 0 0 1-.211-.11l-6.482-9.099-.017-.022a.288.288 0 0 1-.064-.302.274.274 0 0 1 .097-.127.254.254 0 0 1 .148-.047h2.93V12.084a.28.28 0 0 1 .076-.193.257.257 0 0 1 .185-.08h6.679c.07 0 .136.028.185.08a.273.273 0 0 1 .077.192v35.21h2.93a.254.254 0 0 1 .135.044c.04.027.073.066.094.112a.258.258 0 0 1-.02.272l-6.645 9.252a.228.228 0 0 1-.097.027Zm-6.014-9.154 6.013 8.43 6.013-8.43h-1.37c-.13 0-.276 0-.392.009-.168 0-.294.008-.406.008a1.717 1.717 0 0 1-.695-.096c-.043-.022-.072-.038-.072-.195V12.358H61.13v35.218c0 .155-.029.172-.071.195-.224.08-.46.113-.697.096-.147 0-.301 0-.404-.009-.103-.008-.261-.008-.393-.008l-1.37-.004ZM27.979 44.35c-3.897.021-7.643-1.576-10.42-4.442-2.57-2.696-4.092-6.297-4.273-10.103-.181-3.806.992-7.548 3.291-10.499 2.3-2.95 5.562-4.9 9.154-5.472 3.593-.571 7.26.277 10.29 2.38 2.416 1.689 4.29 4.103 5.375 6.927a15.707 15.707 0 0 1 .891 8.867c-.564 2.982-1.978 5.714-4.055 7.836a14.28 14.28 0 0 1-4.692 3.342 13.71 13.71 0 0 1-5.561 1.164Zm-.018-30.159c-3.66.019-7.181 1.469-9.876 4.067a14.783 14.783 0 0 0-3.269 4.891A15.38 15.38 0 0 0 13.663 29c0 2.012.393 4.003 1.153 5.85a14.782 14.782 0 0 0 3.27 4.892c2.695 2.596 6.218 4.044 9.878 4.06 1.775.005 3.534-.35 5.18-1.046 2.612-1.11 4.848-3.012 6.422-5.463A15.361 15.361 0 0 0 41.981 29c0-2.955-.84-5.843-2.415-8.294-1.574-2.45-3.81-4.353-6.421-5.462a13.231 13.231 0 0 0-5.184-1.052Z"/><path fill="#fff" d="M27.928 40.86v-2.574c-.919-.07-1.75-.303-2.496-.702-.728-.416-1.335-.85-1.82-1.3l.468-.572c.468.433 1.057.858 1.768 1.274.728.399 1.56.598 2.496.598 1.144 0 2.02-.312 2.626-.936.607-.641.91-1.456.91-2.444 0-.919-.182-1.655-.546-2.21a4.428 4.428 0 0 0-1.43-1.404 13.248 13.248 0 0 0-1.82-1.014 20.952 20.952 0 0 1-1.846-1.014 4.63 4.63 0 0 1-1.404-1.378c-.364-.572-.546-1.3-.546-2.184 0-1.075.347-1.976 1.04-2.704.693-.728 1.56-1.135 2.6-1.222V18.5h.78v2.548c.85.052 1.543.251 2.08.598a7.568 7.568 0 0 1 1.456 1.222l-.52.52c-.485-.503-.97-.893-1.456-1.17-.485-.295-1.144-.442-1.976-.442-.936 0-1.699.312-2.288.936-.59.607-.884 1.352-.884 2.236 0 .797.182 1.447.546 1.95.364.503.832.919 1.404 1.248.59.33 1.205.641 1.846.936a11.77 11.77 0 0 1 1.82 1.04c.59.399 1.066.919 1.43 1.56.364.624.546 1.447.546 2.47 0 1.23-.39 2.21-1.17 2.938-.763.728-1.707 1.135-2.834 1.222v2.548h-.78Z"/><path fill="#fff" d="M27.928 40.86h-.1v.1h.1v-.1Zm0-2.574h.1v-.093l-.092-.007-.008.1Zm-2.496-.702-.05.087.003.001.047-.088Zm-1.82-1.3-.077-.063-.06.072.069.064.068-.073Zm.468-.572.068-.073-.078-.073-.067.083.077.063Zm1.768 1.274-.05.086.002.002.048-.088Zm5.122-.338.072.07v-.001l-.072-.069Zm.364-4.654-.084.054.084-.054Zm-1.43-1.404-.055.083.003.002.052-.085Zm-1.82-1.014-.044.09h.002l.042-.09Zm-1.846-1.014-.054.084.002.001.052-.085Zm-1.404-1.378-.084.054.084-.054Zm.494-4.888-.072-.069.072.069Zm2.6-1.222.008.1.092-.008v-.092h-.1Zm0-2.574v-.1h-.1v.1h.1Zm.78 0h.1v-.1h-.1v.1Zm0 2.548h-.1v.094l.094.006.006-.1Zm2.08.598-.054.084.054-.084Zm1.456 1.222.07.07.069-.067-.066-.07-.073.067Zm-.52.52-.072.07.07.073.073-.072-.071-.071Zm-1.456-1.17-.052.085.002.002.05-.087Zm-4.264.494.072.07v-.001l-.072-.069Zm-.338 4.186-.081.059.081-.059Zm1.404 1.248-.05.087h.001l.049-.087Zm1.846.936.042-.09-.042.09Zm1.82 1.04-.057.082h.001l.056-.082Zm1.43 1.56-.087.05.087-.05Zm-.624 5.408-.068-.073h-.001l.069.073Zm-2.834 1.222-.008-.1-.092.007v.093h.1Zm0 2.548v.1h.1v-.1h-.1Zm-.68 0v-2.574h-.2v2.574h.2Zm-.092-2.674c-.907-.068-1.725-.299-2.457-.69l-.094.176c.758.406 1.604.643 2.535.714l.015-.2Zm-2.454-.689c-.723-.413-1.323-.842-1.802-1.286l-.136.146c.492.457 1.105.895 1.838 1.314l.1-.174Zm-1.793-1.15.468-.572-.154-.126-.468.572.154.126Zm.323-.562c.475.44 1.07.869 1.785 1.287l.101-.172c-.706-.414-1.289-.834-1.75-1.261l-.136.146Zm1.788 1.289c.744.407 1.593.61 2.544.61v-.2c-.921 0-1.736-.196-2.448-.586l-.096.176Zm2.544.61c1.162 0 2.067-.317 2.698-.966l-.144-.14c-.582.6-1.428.906-2.554.906v.2Zm2.699-.967c.626-.662.937-1.503.937-2.513h-.2c0 .966-.296 1.755-.883 2.375l.146.138Zm.937-2.513c0-.93-.184-1.689-.562-2.265l-.168.11c.35.533.53 1.249.53 2.155h.2Zm-.562-2.264a4.529 4.529 0 0 0-1.462-1.435l-.104.17a4.328 4.328 0 0 1 1.398 1.373l.168-.108Zm-1.459-1.433a13.347 13.347 0 0 0-1.833-1.022l-.084.182c.637.292 1.239.628 1.806 1.006l.111-.166Zm-1.831-1.02c-.639-.311-1.251-.648-1.837-1.01l-.105.17c.592.366 1.21.706 1.854 1.019l.088-.18Zm-1.836-1.01a4.53 4.53 0 0 1-1.374-1.348l-.168.11c.372.567.85 1.036 1.434 1.407l.108-.168Zm-1.374-1.347c-.35-.551-.53-1.26-.53-2.13h-.2c0 .897.185 1.645.562 2.238l.168-.108Zm-.53-2.13c0-1.05.338-1.927 1.012-2.635l-.144-.138c-.713.748-1.068 1.675-1.068 2.773h.2Zm1.012-2.635c.676-.71 1.52-1.107 2.536-1.191l-.016-.2c-1.064.089-1.954.507-2.664 1.253l.144.138Zm2.628-1.291V18.5h-.2v2.574h.2Zm-.1-2.474h.78v-.2h-.78v.2Zm.68-.1v2.548h.2V18.5h-.2Zm.094 2.648c.838.051 1.513.247 2.032.582l.108-.168c-.555-.359-1.267-.561-2.128-.614l-.012.2Zm2.032.582a7.47 7.47 0 0 1 1.437 1.206l.146-.136a7.667 7.667 0 0 0-1.475-1.238l-.108.168Zm1.44 1.067-.52.52.14.142.52-.52-.14-.142Zm-.378.521c-.49-.507-.983-.904-1.478-1.187l-.1.174c.476.271.954.655 1.434 1.152l.144-.139Zm-1.476-1.186c-.507-.307-1.186-.456-2.028-.456v.2c.822 0 1.46.146 1.924.427l.104-.17Zm-2.028-.456c-.96 0-1.75.321-2.36.967l.145.138c.568-.602 1.304-.905 2.215-.905v-.2Zm-2.36.966c-.608.627-.912 1.397-.912 2.306h.2c0-.86.285-1.58.856-2.166l-.144-.14Zm-.912 2.306c0 .812.186 1.485.565 2.009l.162-.118c-.349-.481-.527-1.109-.527-1.891h-.2Zm.565 2.009c.373.514.852.94 1.435 1.276l.1-.174a4.34 4.34 0 0 1-1.373-1.22l-.162.118Zm1.436 1.276c.592.331 1.21.644 1.853.94l.084-.182a26.11 26.11 0 0 1-1.84-.932l-.097.174Zm1.853.94c.636.292 1.238.636 1.805 1.031l.114-.164a11.874 11.874 0 0 0-1.835-1.049l-.084.182Zm1.806 1.032c.576.39 1.042.898 1.399 1.526l.174-.098a4.684 4.684 0 0 0-1.461-1.594l-.112.166Zm1.4 1.527c.352.604.532 1.408.532 2.42h.2c0-1.033-.184-1.876-.56-2.52l-.172.1Zm.532 2.42c0 1.208-.382 2.159-1.138 2.865l.136.146c.804-.75 1.202-1.757 1.202-3.011h-.2Zm-1.139 2.866c-.745.71-1.667 1.11-2.773 1.194l.016.2c1.148-.089 2.114-.505 2.895-1.25l-.138-.144Zm-2.865 1.294v2.548h.2v-2.548h-.2Zm.1 2.448h-.78v.2h.78v-.2Z"/></svg>