<svg xmlns="http://www.w3.org/2000/svg" width="71" height="59" fill="none" viewBox="0 0 71 59"><path fill="#fff" stroke="#fff" stroke-width=".3" d="M28.37 58c-.759 0-1.473-.021-2.047-.038h-.098a45.018 45.018 0 0 0-1.209-.023 7.511 7.511 0 0 0-1.052.057.4.4 0 0 1-.346-.309L22.15 51.66l-.384-.135a23.713 23.713 0 0 1-2.831-1.21l-.369-.188-5.266 3.23a.395.395 0 0 1-.492-.061l-7.16-7.266a.41.41 0 0 1-.062-.5l3.167-5.363-.182-.373a22.433 22.433 0 0 1-1.153-2.853l-.13-.4-5.98-1.47a.403.403 0 0 1-.222-.145.414.414 0 0 1-.087-.253V24.337c0-.092.03-.181.086-.253a.403.403 0 0 1 .222-.145l5.96-1.471.131-.397c.33-.982.722-1.94 1.175-2.868l.181-.373-3.168-5.335a.416.416 0 0 1 .06-.5l7.148-7.279a.406.406 0 0 1 .497-.058l5.235 3.228.37-.19a21.866 21.866 0 0 1 2.858-1.212l.388-.134 1.465-6.037a.41.41 0 0 1 .143-.226.4.4 0 0 1 .25-.087h5.066a.4.4 0 0 1 .285.12.413.413 0 0 1 .119.29v31.818l18.096 15.397a.41.41 0 0 1 .144.281.412.412 0 0 1-.093.299C41.09 57.09 33.51 58 28.37 58Zm1.105-23.702v22.893l.788-.04c6.084-.316 11.806-3.03 15.947-7.567l.537-.585-17.272-14.701Zm-10.92 14.948c.066 0 .13.015.19.046a23.019 23.019 0 0 0 3.863 1.656.404.404 0 0 1 .267.291l1.446 5.942h4.347V43.274l-.691-.057a13.488 13.488 0 0 1-8.881-4.389 13.891 13.891 0 0 1-3.596-9.34c0-3.461 1.284-6.796 3.596-9.34a13.488 13.488 0 0 1 8.88-4.389l.692-.057V1.815H24.32L22.876 7.77a.415.415 0 0 1-.274.293 21.072 21.072 0 0 0-3.885 1.652.394.394 0 0 1-.405-.01L13.15 6.521 6.44 13.347l3.123 5.259a.42.42 0 0 1 .013.403 22.461 22.461 0 0 0-1.599 3.92.416.416 0 0 1-.29.28l-5.88 1.45v9.696l5.894 1.452a.407.407 0 0 1 .292.278c.399 1.35.929 2.657 1.582 3.9a.418.418 0 0 1-.01.407l-3.124 5.29 6.709 6.812 5.196-3.186a.397.397 0 0 1 .208-.062Zm10.113-32.743-.82.08a12.705 12.705 0 0 0-8.223 4.192 13.08 13.08 0 0 0-3.314 8.715 13.08 13.08 0 0 0 3.314 8.714 12.705 12.705 0 0 0 8.222 4.193l.821.08V16.503Z"/><path fill="#fff" stroke="#fff" stroke-width=".5" d="M67.137 46.448a3.715 3.715 0 0 1-1.56-.206 3.81 3.81 0 0 1-1.348-.837l-8.16-7.885-.287.109c-.133.05-.272.083-.414.095a1.572 1.572 0 0 1-1.13-.36l-1.935-1.596-.3.196a12.817 12.817 0 0 1-7.798 2.067 12.927 12.927 0 0 1-7.508-3.016 13.623 13.623 0 0 1-4.396-6.968 13.961 13.961 0 0 1 .366-8.3 13.472 13.472 0 0 1 4.992-6.514 12.832 12.832 0 0 1 7.742-2.282 12.904 12.904 0 0 1 7.582 2.81 13.592 13.592 0 0 1 4.575 6.844l.093.318.319.044c.224.033.444.09.656.169l.382.139L63.1 14.28l-.318-.284a3.404 3.404 0 0 1-1.045-1.677 3.488 3.488 0 0 1 .048-1.991c.198-.65.58-1.223 1.099-1.645a3.229 3.229 0 0 1 1.805-.721 3.235 3.235 0 0 1 1.629.29c.51.235.956.601 1.294 1.062a3.417 3.417 0 0 1 .398 3.453 3.432 3.432 0 0 1-1.109 1.425 3.284 3.284 0 0 1-1.657.641c-.439.034-.88-.02-1.298-.16l-.375-.122-4.098 7.003.3.286c.461.437.794.999.96 1.622a3.54 3.54 0 0 1-.02 1.9 3.441 3.441 0 0 1-.997 1.596 3.28 3.28 0 0 1-1.667.804l-.32.05-.084.325c-.08.306-.175.62-.283.93l-.12.346 1.934 1.59c.201.165.36.376.465.617.105.242.15.506.134.77l-.019.293 9.302 6.55.02.01c.066.048.129.1.188.154l.013.01c.389.322.711.718.95 1.169.239.45.388.945.44 1.455a4.09 4.09 0 0 1-.13 1.583 4.01 4.01 0 0 1-.722 1.403c-.33.412-.738.752-1.198.997-.46.246-.965.393-1.482.433Zm-7.611-13.253-3.063 3.946 8.131 7.858c.334.32.729.565 1.16.72.43.154.886.214 1.34.177a3.286 3.286 0 0 0 1.3-.392 3.384 3.384 0 0 0 1.665-2.172 3.51 3.51 0 0 0 .052-1.434 3.278 3.278 0 0 0-.444-1.243 3.174 3.174 0 0 0-.892-.952l-9.25-6.508Zm-2.483-3.234-.276.567a13.9 13.9 0 0 1-3.47 4.482c-.022.018-.038.034-.048.043l-.475.395 1.798 1.483c.214.174.483.259.755.236a1 1 0 0 0 .568-.234l.015-.012.028-.02.02-.02.032-.03h.004a.817.817 0 0 0 .062-.07l2.946-3.797a1.124 1.124 0 0 0 .2-.963 1.096 1.096 0 0 0-.364-.577l-1.795-1.483ZM43.997 11.546a12.18 12.18 0 0 0-4.909 1.46 12.556 12.556 0 0 0-3.927 3.37 13.149 13.149 0 0 0-2.407 5.087 13.398 13.398 0 0 0-.08 5.663 13.212 13.212 0 0 0 2.261 5.163 12.733 12.733 0 0 0 4.175 3.682 12.244 12.244 0 0 0 10.702.54 12.58 12.58 0 0 0 4.495-3.246 13.083 13.083 0 0 0 2.728-4.911l.152-.514-.504-.135a3.345 3.345 0 0 1-1.986-1.506 3.53 3.53 0 0 1-.442-2.5l.08-.412-4.655-2.034-.23.345c-.276.42-.639.77-1.062 1.026-.424.256-.898.41-1.387.453a3.269 3.269 0 0 1-1.498-.237l-.38-.153-2.193 3.514.29.294c.465.455.79 1.041.933 1.686.144.644.1 1.317-.127 1.935a3.404 3.404 0 0 1-1.106 1.575 3.245 3.245 0 0 1-1.761.694l-.025.528-.028.002c-.133.01-.265.01-.398 0l-.001-.017v-.005a.522.522 0 0 1 .111-.317.494.494 0 0 1 .278-.176l-.03.002a3.32 3.32 0 0 1-1.576-.333 3.435 3.435 0 0 1-1.254-1.041 3.402 3.402 0 0 1-.401-3.44A3.33 3.33 0 0 1 39.6 25.76c.8-.344 1.7-.348 2.502-.01l.38.151 2.193-3.513-.29-.295a3.691 3.691 0 0 1-.33-.37 3.501 3.501 0 0 1-.643-1.565 3.541 3.541 0 0 1 .161-1.69 3.44 3.44 0 0 1 .926-1.404c.417-.38.921-.647 1.464-.774a3.235 3.235 0 0 1 1.646.043 3.315 3.315 0 0 1 1.426.851c.399.403.694.902.858 1.451.164.55.191 1.134.08 1.697l-.08.411 4.654 2.036.23-.347a3.291 3.291 0 0 1 1.835-1.367l.502-.146-.165-.512c-.892-2.755-2.652-5.125-5-6.73a12.323 12.323 0 0 0-7.952-2.13Zm-3.332 14.52c-.37.02-.731.117-1.062.287-.332.17-.626.408-.864.7a2.814 2.814 0 0 0-.522.997c-.106.365-.138.75-.094 1.129.016.38.108.754.27 1.096.161.343.39.648.67.896s.607.434.96.547c.352.112.724.15 1.09.108.37-.02.732-.118 1.063-.288.331-.17.625-.409.863-.7.238-.292.416-.632.521-.997.106-.366.138-.75.095-1.13a2.856 2.856 0 0 0-.27-1.094 2.778 2.778 0 0 0-.67-.894 2.678 2.678 0 0 0-.958-.546 2.618 2.618 0 0 0-1.09-.11l-.002-.001Zm16.688-4.595a2.91 2.91 0 0 0-1.107.328 2.627 2.627 0 0 0-1.327 1.32 2.753 2.753 0 0 0-.14 1.897c.168.667.55 1.256 1.085 1.669.535.413 1.19.627 1.858.605a2.751 2.751 0 0 0 1.483-.612c.511-.387.876-.945 1.033-1.58a2.97 2.97 0 0 0-.115-1.723 2.84 2.84 0 0 0-1.076-1.428 2.697 2.697 0 0 0-1.691-.473l-.003-.003Zm-10.864-4.71a2.74 2.74 0 0 0-1.706.771 2.9 2.9 0 0 0-.852 1.709c-.063.418-.034.845.087 1.25.12.404.33.774.61 1.083.304.327.674.58 1.084.743.41.162.85.228 1.287.193.5-.036.98-.218 1.384-.525.404-.307.715-.725.897-1.208a2.965 2.965 0 0 0-.346-2.87 2.77 2.77 0 0 0-1.077-.899 2.675 2.675 0 0 0-1.365-.243l-.003-.003Zm18.244-8.246a2.735 2.735 0 0 0-1.467.577 2.733 2.733 0 0 0-1.015 1.458 2.82 2.82 0 0 0 .08 1.795 2.95 2.95 0 0 0 1.1 1.466c.51.355 1.116.531 1.73.503a2.767 2.767 0 0 0 1.487-.61 2.888 2.888 0 0 0 1.004-1.506 2.976 2.976 0 0 0-.074-1.828 2.876 2.876 0 0 0-1.123-1.417 2.735 2.735 0 0 0-1.722-.438Z"/></svg>