<svg xmlns="http://www.w3.org/2000/svg" width="72" height="72" fill="none" viewBox="0 0 72 72"><path fill="#fff" stroke="#fff" stroke-width=".3" d="M36.014 61.21a.504.504 0 0 1-.257-.068l-2.508-1.501-.044-.025h-.009c-7.176-4.073-12.514-8.823-15.865-14.11l-.007-.011c-2.98-4.53-4.882-9.595-5.58-14.859V30.6c-.748-8.578.65-13.899 3.676-21.278a.445.445 0 0 1 .175-.205.5.5 0 0 1 .512-.013l.835.47.38.212c4.248 2.4 6.591 3.722 9.486 3.722 2.416 0 5.13-.972 9.002-2.647a.5.5 0 0 1 .424.004c.375.184.733.366 1.079.542 2.27 1.151 4.23 2.145 7.151 2.145 3.365 0 6.526-1.716 9.575-3.374.687-.373 1.3-.706 1.902-1.016a.5.5 0 0 1 .503.024c.08.052.14.126.173.211.17.445.344.895.515 1.33l.028.071v.008a37.455 37.455 0 0 1 2.582 8.63l.006.041c3.062 16.183-4.786 31.184-20.995 40.125l-2.47 1.536a.496.496 0 0 1-.27.073Zm-19.92-51.087-.359.91c-2.719 6.165-3.769 12.853-3.059 19.48v.04c.686 5.14 2.547 10.084 5.459 14.506l.017.025c3.267 5.154 8.492 9.793 15.53 13.789l2.332 1.387 2.159-1.345.028-.019.022-.013a47.284 47.284 0 0 0 10.327-7.585 37.723 37.723 0 0 0 7.048-9.385 33.457 33.457 0 0 0 3.505-10.728 34.877 34.877 0 0 0-.287-11.59v-.024a36.063 36.063 0 0 0-2.555-8.508l-.355-.892-1.233.674c-3.235 1.76-6.58 3.58-10.211 3.58-3.125 0-5.068-.977-7.756-2.33l-.708-.357-.39.172c-4.12 1.755-6.692 2.473-8.885 2.473-2.926 0-5.35-1.289-9.73-3.757l-.898-.503Z"/><path fill="#fff" stroke="#fff" stroke-width=".3" d="M36.015 55.459a.503.503 0 0 1-.245-.064C24.92 49.246 18.467 40.56 17.11 30.273a30.902 30.902 0 0 1 1.253-13.855.445.445 0 0 1 .174-.21.502.502 0 0 1 .502-.025 18.862 18.862 0 0 0 8.689 2.165 17.654 17.654 0 0 0 8.053-1.906.503.503 0 0 1 .237-.057c.084 0 .166.02.24.058a17.439 17.439 0 0 0 7.98 1.906 18.444 18.444 0 0 0 8.585-2.165.496.496 0 0 1 .502.022c.08.052.14.126.174.21a31.09 31.09 0 0 1 1.284 13.845c-.562 4.494-2.163 8.825-4.694 12.697-3.47 5.103-8.206 9.366-13.816 12.435a.529.529 0 0 1-.258.066ZM19.062 17.21l-.251.932a31.559 31.559 0 0 0-.752 12.132c1.34 9.882 7.224 17.951 17.495 23.972l.458.272.458-.272c10.252-6.06 16.096-14.164 17.377-24.088.51-4.015.243-8.082-.79-12.01l-.252-.933-.942.406a19.115 19.115 0 0 1-7.605 1.599 18.893 18.893 0 0 1-7.859-1.707l-.387-.181-.387.179a19.195 19.195 0 0 1-7.926 1.702 19.522 19.522 0 0 1-7.695-1.602l-.942-.401ZM67.584 20.13a3.605 3.605 0 0 1-2.433-.968 3.083 3.083 0 0 1-.984-2.274c0-.84.36-1.644 1-2.238a3.57 3.57 0 0 1 2.417-.931 3.697 3.697 0 0 1 2.38.964A3.178 3.178 0 0 1 71 16.888a3.21 3.21 0 0 1-1.02 2.24 3.735 3.735 0 0 1-2.396 1.001Zm0-5.541a2.59 2.59 0 0 0-1.75.677 2.215 2.215 0 0 0-.724 1.622 2.276 2.276 0 0 0 .717 1.65 2.656 2.656 0 0 0 1.757.72 2.75 2.75 0 0 0 1.73-.744 2.367 2.367 0 0 0 .743-1.626 2.302 2.302 0 0 0-.749-1.599 2.678 2.678 0 0 0-1.724-.7Z"/><path fill="#fff" stroke="#fff" stroke-width=".3" d="M67.59 25.821h-7.638a.492.492 0 0 1-.333-.127.42.42 0 0 1-.139-.307.42.42 0 0 1 .14-.307.492.492 0 0 1 .332-.127h7.166v-5.348a.42.42 0 0 1 .139-.307.492.492 0 0 1 .333-.128c.124 0 .244.046.333.128a.42.42 0 0 1 .138.307v5.78a.42.42 0 0 1-.138.309.492.492 0 0 1-.333.127ZM4.262 20.13h-.056a3.613 3.613 0 0 1-2.286-1.039A3.106 3.106 0 0 1 1 16.893a3.047 3.047 0 0 1 .92-2.232 3.557 3.557 0 0 1 2.342-1.008c.462-.005.92.075 1.348.236.427.161.816.4 1.142.702.327.302.585.66.76 1.056a3 3 0 0 1 .258 1.246 3 3 0 0 1-.259 1.246 3.202 3.202 0 0 1-.76 1.055c-.326.302-.715.54-1.142.7-.427.161-.885.242-1.347.237Zm0-5.612a2.564 2.564 0 0 0-1.678.75 2.197 2.197 0 0 0-.64 1.62 2.28 2.28 0 0 0 .65 1.588c.42.437 1 .716 1.63.782h.1a2.647 2.647 0 0 0 1.775-.708 2.266 2.266 0 0 0 .725-1.657c0-.634-.271-1.244-.754-1.694a2.56 2.56 0 0 0-.832-.508 2.717 2.717 0 0 0-.98-.171l.004-.002Z"/><path fill="#fff" stroke="#fff" stroke-width=".3" d="M12 25.821H4.446a.492.492 0 0 1-.332-.127.42.42 0 0 1-.14-.307v-5.782a.42.42 0 0 1 .14-.307.492.492 0 0 1 .332-.128c.125 0 .245.046.333.128a.42.42 0 0 1 .139.307v5.346H12c.124 0 .244.045.333.127a.421.421 0 0 1 .138.307.42.42 0 0 1-.138.308.492.492 0 0 1-.333.128ZM63.277 56.597a3.564 3.564 0 0 1-2.414-.925 3.048 3.048 0 0 1-1.003-2.232 3.089 3.089 0 0 1 1.015-2.221c.638-.59 1.5-.926 2.402-.936.45-.005.896.073 1.313.23.416.157.795.39 1.113.684.318.294.57.644.74 1.029.17.385.255.798.25 1.214.01.417-.071.832-.24 1.22-.168.387-.419.739-.738 1.034-.32.295-.7.527-1.119.682a3.58 3.58 0 0 1-1.319.22Zm0-5.444a2.613 2.613 0 0 0-1.738.679 2.238 2.238 0 0 0-.736 1.608 2.21 2.21 0 0 0 .727 1.615c.464.429 1.092.67 1.747.671.328.01.654-.041.96-.152.304-.111.581-.279.813-.493.232-.214.414-.47.534-.752.12-.282.177-.584.166-.887.006-.302-.054-.601-.175-.881-.12-.28-.3-.535-.529-.75a2.495 2.495 0 0 0-.813-.493 2.646 2.646 0 0 0-.956-.165Z"/><path fill="#fff" stroke="#fff" stroke-width=".3" d="M63.279 51.163a.492.492 0 0 1-.333-.127.42.42 0 0 1-.14-.307v-5.264H54.36a.492.492 0 0 1-.333-.127.42.42 0 0 1-.14-.307.42.42 0 0 1 .14-.308.492.492 0 0 1 .332-.127h8.92c.125 0 .245.046.334.127a.42.42 0 0 1 .138.308v5.698a.42.42 0 0 1-.139.307.492.492 0 0 1-.332.127ZM8.627 56.6a3.619 3.619 0 0 1-2.459-.908 3.096 3.096 0 0 1-1.048-2.25c.007-.423.106-.84.29-1.228.185-.387.451-.737.784-1.028a3.495 3.495 0 0 1 1.152-.668c.428-.15.884-.218 1.342-.203a3.568 3.568 0 0 1 2.422.906 3.052 3.052 0 0 1 1.024 2.223c0 .409-.088.813-.258 1.19-.17.378-.42.72-.735 1.007-.33.306-.721.548-1.153.713a3.775 3.775 0 0 1-1.36.246Zm-.03-5.414c-.659-.01-1.296.22-1.771.644a2.228 2.228 0 0 0-.763 1.613 2.29 2.29 0 0 0 .782 1.623 2.671 2.671 0 0 0 1.782.662 2.671 2.671 0 0 0 1.783-.662 2.29 2.29 0 0 0 .781-1.624 2.232 2.232 0 0 0-.748-1.596 2.605 2.605 0 0 0-1.74-.661l-.106.001Z"/><path fill="#fff" stroke="#fff" stroke-width=".3" d="M8.628 51.194a.492.492 0 0 1-.332-.127.42.42 0 0 1-.14-.307v-5.73a.42.42 0 0 1 .14-.308.492.492 0 0 1 .332-.128h8.948c.125 0 .245.046.333.128a.42.42 0 0 1 .139.308.42.42 0 0 1-.14.307.492.492 0 0 1-.332.127H9.105v5.295a.408.408 0 0 1-.037.168.436.436 0 0 1-.104.142.477.477 0 0 1-.336.125ZM66.247 38.373a3.664 3.664 0 0 1-2.428-.996 3.14 3.14 0 0 1-.99-2.28 3.008 3.008 0 0 1 1.027-2.181c.64-.573 1.5-.887 2.39-.874.453-.02.904.044 1.329.187.425.144.814.364 1.146.649.332.284.599.627.786 1.008.187.381.29.793.302 1.211.002.43-.09.857-.27 1.254-.178.397-.441.757-.773 1.06-.33.305-.723.548-1.155.713-.433.165-.896.25-1.364.249Zm0-5.46a2.566 2.566 0 0 0-1.715.627 2.2 2.2 0 0 0-.759 1.556c-.007.62.247 1.219.709 1.668.462.45 1.095.714 1.765.738a2.727 2.727 0 0 0 1.849-.702c.491-.451.77-1.064.772-1.705a2.151 2.151 0 0 0-.234-.876 2.31 2.31 0 0 0-.582-.723 2.522 2.522 0 0 0-.84-.46c-.31-.1-.638-.142-.965-.124Z"/><path fill="#fff" stroke="#fff" stroke-width=".3" d="M63.302 35.522h-4.549a.492.492 0 0 1-.332-.127.42.42 0 0 1-.14-.307.42.42 0 0 1 .14-.308.492.492 0 0 1 .332-.128h4.549c.124 0 .244.046.333.128a.42.42 0 0 1 .138.308.42.42 0 0 1-.139.307.492.492 0 0 1-.332.127ZM36.013 7.257a3.518 3.518 0 0 1-1.298-.186A3.327 3.327 0 0 1 33.6 6.43a3.04 3.04 0 0 1-.752-.996 2.837 2.837 0 0 1-.269-1.19 2.863 2.863 0 0 1 .207-1.252c.163-.4.413-.764.737-1.07a3.35 3.35 0 0 1 1.14-.702 3.56 3.56 0 0 1 1.35-.217c.455.001.906.087 1.324.25.42.165.799.405 1.116.706.318.301.568.658.735 1.05.167.391.248.81.238 1.23A2.993 2.993 0 0 1 38.394 6.4a3.497 3.497 0 0 1-2.38.857Zm0-5.382a2.567 2.567 0 0 0-.986.154c-.314.116-.598.291-.833.515a2.197 2.197 0 0 0-.531.785 2.061 2.061 0 0 0-.138.917c.001.294.068.585.196.855s.314.512.548.713c.233.2.508.354.808.452.3.098.619.138.936.118a2.545 2.545 0 0 0 1.706-.607c.462-.4.737-.95.767-1.535a2.22 2.22 0 0 0-.18-.919 2.368 2.368 0 0 0-.547-.783 2.59 2.59 0 0 0-1.746-.67v.005Z"/><path fill="#fff" stroke="#fff" stroke-width=".3" d="M36.014 11.621a.492.492 0 0 1-.334-.127.42.42 0 0 1-.138-.308v-4.36a.42.42 0 0 1 .139-.308.492.492 0 0 1 .333-.127c.124 0 .244.045.333.127a.42.42 0 0 1 .138.308v4.359a.42.42 0 0 1-.138.308.492.492 0 0 1-.333.128ZM61.194 7.374a3.401 3.401 0 0 1-2.207-.786l-.03-.026-.033-.023a2.99 2.99 0 0 1-.857-.938 2.758 2.758 0 0 1-.365-1.18 2.585 2.585 0 0 1 .155-1.159 2.75 2.75 0 0 1 .656-.998l.039-.039c.316-.35.712-.63 1.16-.822.447-.191.934-.29 1.427-.288a3.49 3.49 0 0 1 2.29.824l.009.008c.356.29.645.646.85 1.042.206.397.323.828.345 1.267.014.363-.05.725-.192 1.063a2.659 2.659 0 0 1-.63.906l-.04.04a3.33 3.33 0 0 1-1.155.82c-.445.192-.93.29-1.422.29Zm-.05-5.39h-.153a2.62 2.62 0 0 0-.964.246c-.3.141-.566.338-.78.579l-.007.007-.032.033a1.877 1.877 0 0 0-.461.694c-.098.26-.133.536-.104.81.023.298.114.587.268.85.154.262.368.49.626.668l.01.006a.28.28 0 0 1 .032.025l.009.01c.43.382 1.006.593 1.602.589.36 0 .717-.074 1.042-.216.326-.141.614-.348.844-.605l.008-.01.006-.005.017-.015c.193-.175.344-.385.445-.617.1-.232.148-.48.14-.73a2.302 2.302 0 0 0-.26-.94 2.478 2.478 0 0 0-.634-.771 2.487 2.487 0 0 0-1.653-.607Z"/><path fill="#fff" stroke="#fff" stroke-width=".3" d="M56.127 9.968a.49.49 0 0 1-.31-.106.425.425 0 0 1-.16-.298.415.415 0 0 1 .113-.315l3.132-3.321a.502.502 0 0 1 .665-.043.416.416 0 0 1 .047.614L56.481 9.82a.496.496 0 0 1-.354.147ZM10.787 7.399c-.5 0-.993-.103-1.444-.3a3.351 3.351 0 0 1-1.167-.844l-.028-.032c-.3-.287-.531-.629-.68-1.003A2.684 2.684 0 0 1 7.28 4.05a2.84 2.84 0 0 1 .374-1.18c.212-.366.502-.687.854-.944a3.85 3.85 0 0 1 2.337-.81c.485 0 .965.099 1.403.29a3.26 3.26 0 0 1 1.135.82l.039.04c.562.634.835 1.446.761 2.263a3.085 3.085 0 0 1-1.154 2.117.658.658 0 0 1-.07.057 3.757 3.757 0 0 1-2.173.697Zm.074-5.416a2.908 2.908 0 0 0-1.747.614 2.21 2.21 0 0 0-.62.676 2.04 2.04 0 0 0-.274.849c-.015.282.033.563.142.826.11.264.276.503.49.703l.015.014.005.006c.226.266.515.482.844.63.329.148.69.225 1.055.226a2.864 2.864 0 0 0 1.505-.438l.091-.059.072-.077c.462-.39.747-.926.8-1.502a2.177 2.177 0 0 0-.516-1.604l-.028-.027-.006-.006a2.35 2.35 0 0 0-.813-.606 2.533 2.533 0 0 0-1.015-.225Z"/><path fill="#fff" stroke="#fff" stroke-width=".3" d="M15.855 9.954a.5.5 0 0 1-.343-.14l-3.169-3.168a.417.417 0 0 1-.124-.312.422.422 0 0 1 .15-.302.5.5 0 0 1 .664.022l3.166 3.174a.403.403 0 0 1 .083.477.436.436 0 0 1-.107.137.49.49 0 0 1-.32.112ZM36.015 71a3.573 3.573 0 0 1-2.423-.92 3.055 3.055 0 0 1-1.011-2.236c-.014-.426.065-.85.231-1.248.167-.397.417-.76.737-1.066a3.48 3.48 0 0 1 1.126-.72 3.702 3.702 0 0 1 1.34-.258c.92.029 1.793.39 2.431 1.005.638.615.99 1.437.984 2.29a3.173 3.173 0 0 1-1.04 2.196 3.69 3.69 0 0 1-2.375.957Zm0-5.58a2.683 2.683 0 0 0-.981.191c-.31.125-.589.305-.821.532a2.301 2.301 0 0 0-.53.787c-.119.293-.171.604-.156.916-.002.302.062.601.186.88.125.28.308.533.54.745.231.213.507.38.81.494.302.113.625.17.952.166a2.672 2.672 0 0 0 1.721-.693c.46-.424.728-.993.753-1.592 0-.323-.069-.643-.203-.941a2.44 2.44 0 0 0-.58-.797 2.528 2.528 0 0 0-1.691-.688Z"/><path fill="#fff" stroke="#fff" stroke-width=".3" d="M36.014 65.41a.492.492 0 0 1-.333-.128.42.42 0 0 1-.139-.307v-4.204a.42.42 0 0 1 .139-.308.492.492 0 0 1 .333-.128c.124 0 .244.046.333.128a.42.42 0 0 1 .138.308v4.204a.42.42 0 0 1-.139.307.492.492 0 0 1-.332.127ZM5.563 38.347a3.58 3.58 0 0 1-1.317-.24 3.368 3.368 0 0 1-1.108-.701 3.166 3.166 0 0 1-.99-2.31 2.89 2.89 0 0 1 .279-1.21c.18-.382.442-.725.77-1.01a3.388 3.388 0 0 1 1.137-.65 3.582 3.582 0 0 1 1.321-.185c.442-.005.88.073 1.289.23.408.157.777.389 1.086.682.303.294.538.643.69 1.024.154.381.221.787.199 1.193v.025c.017.4-.052.8-.203 1.177a3.006 3.006 0 0 1-.677 1.014c-.297.294-.653.53-1.048.695a3.499 3.499 0 0 1-1.257.266h-.171Zm.092-5.435a2.549 2.549 0 0 0-.97.112c-.312.1-.598.258-.84.465a2.203 2.203 0 0 0-.565.739c-.131.28-.197.582-.195.887-.007.308.052.614.174.9.123.287.305.548.537.768.233.22.51.396.817.516.306.12.635.182.968.183H5.732a2.48 2.48 0 0 0 .903-.197c.284-.122.538-.295.748-.51.21-.214.37-.465.473-.739a2 2 0 0 0 .122-.85v-.03a1.99 1.99 0 0 0-.133-.853 2.117 2.117 0 0 0-.486-.735 2.338 2.338 0 0 0-.777-.49 2.485 2.485 0 0 0-.923-.166h-.004Z"/><path fill="#fff" stroke="#fff" stroke-width=".3" d="M8.466 35.6H8.45a.495.495 0 0 1-.328-.124.424.424 0 0 1-.144-.3.396.396 0 0 1 .032-.166.47.47 0 0 1 .251-.24.502.502 0 0 1 .18-.035l4.78-.083h.013c.12.003.235.048.32.127a.403.403 0 0 1 .104.463.47.47 0 0 1-.25.239.5.5 0 0 1-.179.037l-4.764.082ZM32.422 42.336a2.965 2.965 0 0 1-1.169-.235 2.762 2.762 0 0 1-.953-.669l-5.479-5.27a2.538 2.538 0 0 1-.587-.844 2.38 2.38 0 0 1-.19-.989 2.38 2.38 0 0 1 .232-.98c.146-.308.358-.587.622-.82a2.889 2.889 0 0 1 1.926-.715c.374-.001.745.068 1.09.203.344.136.655.334.914.584l3.63 3.489 12.296-11.4c.257-.239.562-.43.899-.56.337-.13.698-.197 1.063-.197a2.91 2.91 0 0 1 1.967.748c.523.48.82 1.13.826 1.812.002.338-.068.672-.207.984a2.536 2.536 0 0 1-.601.833l-.105.098-5.842 5.42-8.284 7.686-.068.062c-.26.242-.568.433-.908.563-.34.13-.704.197-1.072.197Zm-5.599-9.657a1.94 1.94 0 0 0-1.016.282 1.733 1.733 0 0 0-.677.756 1.56 1.56 0 0 0-.12.973c.066.328.236.63.489.869l1.894 1.822 2.155 2.07c1.145 1.105 1.396 1.343 1.45 1.396l.007.008c.174.191.39.345.635.451.245.106.511.16.781.161.434 0 .854-.142 1.187-.399l.045-.034.039-.04.009-.008c.065-.063.491-.458 2.541-2.359l.027-.022.145-.135 4.831-4.48 6.786-6.295c.343-.32.534-.752.533-1.202-.004-.45-.2-.881-.546-1.199a1.924 1.924 0 0 0-1.3-.495c-.241 0-.479.044-.7.13a1.825 1.825 0 0 0-.591.37l-12.64 11.716a.472.472 0 0 1-.333.128.503.503 0 0 1-.343-.134l-3.963-3.813a1.843 1.843 0 0 0-.605-.383 1.962 1.962 0 0 0-.72-.134Z"/></svg>