<svg xmlns="http://www.w3.org/2000/svg" width="72" height="65" fill="none" viewBox="0 0 72 65"><path fill="#fff" stroke="#fff" stroke-width=".6" d="M65.858 64H17.852c-1.363-.002-2.67-.592-3.633-1.642-.964-1.05-1.507-2.472-1.509-3.957v-2.804H5.535a4.215 4.215 0 0 1-1.735-.376 4.53 4.53 0 0 1-1.472-1.07C1.478 53.223 1 51.967 1 50.656v-23.16c.006-1.308.486-2.56 1.335-3.485.85-.925 2-1.447 3.2-1.454h7.178V6.6c.002-1.484.544-2.907 1.507-3.957.963-1.05 2.27-1.64 3.632-1.643h48.006c1.363.002 2.67.592 3.634 1.642.964 1.05 1.506 2.473 1.508 3.958V58.4c-.002 1.485-.544 2.908-1.508 3.957-.964 1.05-2.27 1.64-3.634 1.642Zm-52.664-8.422v2.803c.001 1.345.492 2.635 1.365 3.586.874.951 2.057 1.486 3.292 1.488h48.007c1.235-.002 2.419-.537 3.292-1.488.873-.951 1.365-2.24 1.367-3.586V16.534H13.194v6.027h13.953c1.203 0 2.356.52 3.207 1.446.85.927 1.328 2.183 1.328 3.493v23.14c0 1.31-.478 2.566-1.328 3.493-.85.926-2.004 1.447-3.207 1.447l-13.953-.002ZM5.535 23.082c-1.074.002-2.103.467-2.862 1.294-.76.827-1.187 1.948-1.188 3.117v23.148a4.643 4.643 0 0 0 1.083 2.99c.692.813 1.64 1.313 2.655 1.4l.466.039.021-.51c.225-5.539 3.02-9.57 7.476-10.784l.976-.266-.83-.62a5.699 5.699 0 0 1-1.783-2.231 6.258 6.258 0 0 1-.544-2.898c.051-1 .338-1.97.835-2.815a5.543 5.543 0 0 1 1.997-2.003 4.986 4.986 0 0 1 2.644-.675c.92.027 1.817.313 2.606.83a5.62 5.62 0 0 1 1.895 2.117c.454.872.693 1.857.694 2.86a6.178 6.178 0 0 1-.61 2.712 5.628 5.628 0 0 1-1.71 2.082l-.843.614.983.272c4.456 1.23 7.251 5.263 7.477 10.785l.02.509.467-.039c1.015-.087 1.963-.587 2.656-1.4a4.645 4.645 0 0 0 1.083-2.991V27.494c-.001-1.17-.429-2.292-1.188-3.119-.76-.827-1.79-1.292-2.863-1.293H5.535ZM16.34 43.901c-5.963 0-9.85 4.074-10.147 10.632l-.023.519h20.323l-.022-.517c-.278-6.559-4.156-10.634-10.13-10.634Zm.041-11.097c-1.252.006-2.457.522-3.376 1.448a5.325 5.325 0 0 0-1.12 1.75 5.704 5.704 0 0 0-.394 2.09c0 .718.134 1.43.395 2.09.26.66.64 1.255 1.12 1.75.918.927 2.123 1.445 3.375 1.452a4.436 4.436 0 0 0 1.838-.406 4.776 4.776 0 0 0 1.552-1.145 5.334 5.334 0 0 0 1.053-1.714c.244-.642.37-1.329.37-2.023 0-.694-.126-1.382-.37-2.023a5.333 5.333 0 0 0-1.053-1.714c-.442-.49-.97-.88-1.552-1.148a4.44 4.44 0 0 0-1.838-.407Zm1.471-31.277c-1.235.001-2.418.536-3.292 1.487-.873.951-1.364 2.24-1.365 3.586v9.408h57.322V6.6c-.001-1.345-.493-2.635-1.366-3.586-.873-.95-2.057-1.486-3.292-1.487H17.852ZM63.27 55.37h-9.54c-.368 0-.721-.16-.983-.443l-.008-.008a1.455 1.455 0 0 1-.3-.486 1.552 1.552 0 0 1-.097-.575v-5.982c.005-.404.155-.79.417-1.077a1.37 1.37 0 0 1 .989-.454h4.554v-3.334h-4.535a1.37 1.37 0 0 1-.989-.455 1.625 1.625 0 0 1-.417-1.077V35.5c0-.401.147-.786.406-1.071l.008-.009c.26-.28.61-.435.975-.433h4.482l-.024-3.334h-4.5c-.372 0-.729-.162-.992-.45a1.604 1.604 0 0 1-.412-1.081v-5.98c0-.402.146-.787.405-1.072l.008-.008a1.37 1.37 0 0 1 .45-.323c.169-.075.349-.112.53-.11h9.537c.37.003.725.166.985.453.26.287.406.675.404 1.078v5.98c.002.404-.143.792-.404 1.079-.26.287-.614.45-.985.453H58.7l.025 3.334h4.55c.368 0 .721.16.981.444.26.283.407.668.408 1.069v5.98c.002.404-.144.791-.404 1.078-.26.288-.614.45-.985.453h-4.528l.026 3.335h4.498c.368 0 .721.16.983.441l.008.01c.256.283.4.664.397 1.061v5.98c0 .198-.035.395-.105.578-.07.184-.172.35-.301.491-.13.14-.282.252-.45.328a1.29 1.29 0 0 1-.532.115v.002Zm-9.558-8.48a.9.9 0 0 0-.648.299c-.172.187-.27.44-.274.706v5.98c.002.266.1.52.272.709a.891.891 0 0 0 .65.296h9.54a.826.826 0 0 0 .353-.075.892.892 0 0 0 .298-.221c.173-.188.27-.443.272-.709v-5.98c-.002-.266-.1-.52-.272-.709a.891.891 0 0 0-.65-.296h-9.54Zm0-12.358a.891.891 0 0 0-.65.296c-.173.188-.27.443-.272.709v5.98c0 .266.098.522.27.71a.888.888 0 0 0 .652.295h9.54a.852.852 0 0 0 .35-.079.916.916 0 0 0 .295-.219 1.01 1.01 0 0 0 .196-.325c.045-.121.067-.251.066-.382V35.55a1.036 1.036 0 0 0-.052-.38.972.972 0 0 0-.186-.326.918.918 0 0 0-.304-.232.85.85 0 0 0-.363-.081h-9.541Zm0-12.378a.892.892 0 0 0-.65.297.981.981 0 0 0-.203.323c-.047.122-.07.253-.069.385v5.98c.002.265.1.517.273.702a.878.878 0 0 0 .65.286h9.54a.881.881 0 0 0 .638-.292c.17-.185.266-.434.268-.696v-5.966a1.05 1.05 0 0 0-.055-.377.986.986 0 0 0-.185-.324.913.913 0 0 0-.302-.235.844.844 0 0 0-.363-.083h-9.541Zm-7.14 33.063h-9.591a.232.232 0 0 1-.17-.077.275.275 0 0 1-.071-.186c0-.07.025-.136.07-.186a.232.232 0 0 1 .17-.077h9.593c.063 0 .125.028.17.077.045.05.07.116.07.186 0 .07-.025.137-.07.186a.232.232 0 0 1-.17.077Zm0-7.078h-9.591a.232.232 0 0 1-.171-.077.276.276 0 0 1-.07-.186c0-.07.025-.137.07-.186a.232.232 0 0 1 .17-.078h9.593c.064 0 .125.028.17.078.046.049.071.116.071.186 0 .07-.025.137-.07.186a.232.232 0 0 1-.172.077Zm0-7.098h-9.591a.232.232 0 0 1-.171-.077.276.276 0 0 1-.07-.186c0-.07.025-.137.07-.186a.232.232 0 0 1 .17-.077h9.593c.064 0 .125.028.17.077.046.05.071.116.071.186 0 .07-.025.137-.07.186a.232.232 0 0 1-.172.077Zm0-7.097h-9.591a.232.232 0 0 1-.17-.077.275.275 0 0 1-.071-.186c0-.07.025-.136.07-.186a.232.232 0 0 1 .17-.077h9.593c.063 0 .125.028.17.077.045.05.07.116.07.186 0 .07-.025.137-.07.186a.232.232 0 0 1-.17.077Zm0-7.097h-9.591a.232.232 0 0 1-.171-.077.276.276 0 0 1-.07-.186c0-.07.025-.137.07-.186a.232.232 0 0 1 .17-.077h9.593c.064 0 .125.027.17.077.046.05.071.116.071.186 0 .07-.025.137-.07.186a.232.232 0 0 1-.172.077ZM35.466 11.244a1.97 1.97 0 0 1-.826-.156 2.112 2.112 0 0 1-.705-.493 2.329 2.329 0 0 1-.476-.753 2.488 2.488 0 0 1-.01-1.79c.107-.284.265-.542.466-.759.2-.216.438-.387.7-.503a1.97 1.97 0 0 1 .823-.168c.42 0 .829.136 1.177.39.349.254.62.614.781 1.036.16.422.204.886.123 1.334-.081.448-.282.86-.577 1.184a2.05 2.05 0 0 1-.675.503 1.903 1.903 0 0 1-.8.175Zm-.025-4.119a1.58 1.58 0 0 0-1.166.516 1.877 1.877 0 0 0-.213 2.255c.18.293.437.522.737.656.3.135.63.17.947.101.319-.069.61-.239.84-.489.153-.16.275-.352.359-.564.083-.213.127-.441.128-.673a1.88 1.88 0 0 0-.473-1.27 1.583 1.583 0 0 0-1.16-.535v.003Zm-7.762 4.116a1.968 1.968 0 0 1-.826-.157 2.111 2.111 0 0 1-.706-.493 2.328 2.328 0 0 1-.475-.752 2.49 2.49 0 0 1-.01-1.79c.107-.284.265-.542.466-.759.2-.217.438-.388.7-.503a1.97 1.97 0 0 1 .823-.168c.42 0 .83.136 1.178.39s.62.614.78 1.036c.161.422.204.886.123 1.334-.08.448-.281.86-.577 1.184-.191.215-.42.387-.674.504a1.908 1.908 0 0 1-.802.177v-.003Zm-.006-4.116a1.58 1.58 0 0 0-1.165.517c-.311.333-.488.787-.492 1.262 0 .354.098.7.279.993.18.294.438.523.738.658s.631.169.95.099c.318-.07.61-.242.84-.492.3-.335.469-.785.47-1.253a1.887 1.887 0 0 0-.464-1.256l-.007-.007a1.616 1.616 0 0 0-.526-.385 1.503 1.503 0 0 0-.623-.136Zm-7.778 4.116a1.967 1.967 0 0 1-.84-.141 2.104 2.104 0 0 1-.72-.49 2.322 2.322 0 0 1-.488-.757 2.489 2.489 0 0 1-.011-1.813c.11-.287.273-.547.477-.765.205-.217.449-.387.715-.5.267-.112.552-.164.838-.153.419 0 .829.136 1.177.39.348.254.62.614.78 1.036.162.422.204.886.123 1.334-.08.448-.281.86-.577 1.184a2.05 2.05 0 0 1-.673.502 1.905 1.905 0 0 1-.801.176v-.003Zm-.005-4.116a1.58 1.58 0 0 0-1.167.519c-.31.334-.487.789-.49 1.265 0 .355.097.702.278.997.181.294.44.524.74.659.302.135.634.169.953.098.32-.071.612-.244.84-.497.3-.335.468-.785.468-1.254 0-.468-.167-.918-.467-1.254l-.006-.007a1.62 1.62 0 0 0-.526-.388 1.506 1.506 0 0 0-.623-.138Zm44.179 4.11h-15.76c-.497 0-.973-.216-1.324-.599a2.141 2.141 0 0 1-.55-1.443 2.562 2.562 0 0 1 .063-1.056c.094-.342.259-.657.48-.92a1.832 1.832 0 0 1 1.332-.592H64.07c.496 0 .971.216 1.322.598.351.381.55.9.55 1.44a2.56 2.56 0 0 1-.062 1.059 2.42 2.42 0 0 1-.482.922c-.354.38-.831.592-1.328.591Zm-15.76-4.088c-.369 0-.722.16-.983.444-.261.284-.408.67-.409 1.072v.17c-.032.256-.012.517.06.764a1.8 1.8 0 0 0 .352.664c.26.284.613.445.981.448H64.07c.369 0 .723-.16.984-.445.26-.284.408-.67.408-1.072v-.17a1.912 1.912 0 0 0-.058-.758 1.806 1.806 0 0 0-.347-.66 1.345 1.345 0 0 0-.45-.342 1.245 1.245 0 0 0-.54-.116l-15.757.001Z"/></svg>