<svg width="60" height="60" viewBox="0 0 60 60" fill="none" xmlns="http://www.w3.org/2000/svg">
<g clip-path="url(#clip0_5770_9546)">
<path d="M59.9805 35.5572C59.9548 36.1293 59.1985 36.7699 57.6429 37.582C54.4397 39.2489 37.8537 46.0818 34.3248 47.9116C33.0628 48.8093 31.488 49.3471 29.791 49.3471C28.4176 49.3471 27.1277 48.9957 26.0029 48.3787L26.0436 48.4001C23.2496 47.0674 5.6051 39.9367 2.42545 38.4176C0.837765 37.6677 0.0278541 37.0185 0 36.4185V42.4822C0 43.0864 0.835622 43.7313 2.42545 44.4812C5.6051 46.0003 23.256 53.131 26.0436 54.4637C27.1234 55.0572 28.4112 55.4065 29.7803 55.4065C31.4837 55.4065 33.0606 54.8665 34.3484 53.9473L34.3248 53.9645C37.8537 52.124 54.4397 45.3061 57.6429 43.6349C59.2713 42.7864 59.9913 42.1351 59.9913 41.5308C59.9913 40.9266 59.9913 35.5508 59.9913 35.5508L59.9805 35.5572Z" fill="black"/>
<path d="M59.9784 25.6719C59.9506 26.244 59.1963 26.8825 57.6429 27.6945C54.4397 29.3615 37.8537 36.1943 34.3248 38.0241C33.0606 38.9261 31.4837 39.4639 29.7803 39.4639C28.4112 39.4639 27.1234 39.1147 26.0029 38.5019L26.0436 38.5233C23.2496 37.1799 5.6051 30.0493 2.42545 28.5301C0.837765 27.7802 0.0278541 27.131 0 26.5311V32.5947C0 33.1989 0.835623 33.8438 2.42545 34.5938C5.6051 36.1129 23.2539 43.2435 26.0436 44.5762C27.1277 45.1719 28.4176 45.5233 29.791 45.5233C31.4901 45.5233 33.0628 44.9855 34.3505 44.0727L34.3269 44.0899C37.8558 42.2493 54.4419 35.4272 57.6451 33.7603C59.2735 32.9097 59.9934 32.2604 59.9934 31.6519C59.9934 31.0434 59.9934 25.6719 59.9934 25.6719H59.9784Z" fill="black"/>
<path d="M59.9805 15.418C60.0105 14.8074 59.2135 14.2739 57.6086 13.6825C54.4997 12.5405 37.9994 5.97764 34.8454 4.82062C33.7141 4.30211 32.3943 4 31.0016 4C29.4289 4 27.9462 4.38567 26.6413 5.06703L26.6928 5.04131C22.9839 6.37402 5.42938 13.2583 2.30758 14.4796C0.745608 15.0945 -0.0193076 15.6623 0.00854647 16.2665V22.3301C0.00854647 22.9343 0.844169 23.5793 2.43399 24.3292C5.61364 25.8483 23.2624 32.9811 26.0521 34.3138C27.132 34.9073 28.4197 35.2544 29.7888 35.2544C31.4922 35.2544 33.0692 34.7145 34.3591 33.7974L34.3355 33.8146C37.8644 31.9741 54.4504 25.152 57.6536 23.485C59.282 22.6344 60.002 21.9852 60.002 21.3767C60.002 20.7682 60.002 15.3966 60.002 15.3966H59.9827L59.9805 15.418ZM21.484 21.1688L35.3854 19.0348L31.1858 25.1927L21.484 21.1688ZM52.2328 15.6237L43.1202 19.2233L34.9033 15.9601L44.0009 12.3627L52.2242 15.613L52.2328 15.6237ZM28.0962 9.65652L26.7506 7.17751L30.9459 8.81661L34.9011 7.52247L33.832 10.085L37.8622 11.5849L32.6642 12.1248L31.5008 14.9338L29.6174 11.812L23.6181 11.2721L28.0983 9.65652H28.0962ZM17.7537 13.1533C21.859 13.1533 25.1822 14.4431 25.1822 16.033C25.1822 17.6228 21.8419 18.9126 17.7537 18.9126C13.6656 18.9126 10.3103 17.6206 10.3103 16.033C10.3103 14.4453 13.6378 13.1533 17.7537 13.1533Z" fill="black"/>
</g>
<defs>
<clipPath id="clip0_5770_9546">
<rect width="60" height="60" fill="white"/>
</clipPath>
</defs>
</svg>
