<svg width="60" height="60" viewBox="0 0 60 60" fill="none" xmlns="http://www.w3.org/2000/svg">
<path d="M36.9394 41.7855C35.4215 43.9439 33.7674 46.0033 31.9872 47.951C36.7268 52.5518 41.1377 54.7062 43.5812 53.2917C46.0304 51.88 46.3678 46.9844 44.7548 40.5807C42.3368 41.1193 39.709 41.5275 36.9394 41.7855ZM33.2259 42.0321C31.0762 42.1211 28.9238 42.1211 26.7741 42.0321C27.8428 43.4268 28.9228 44.7194 30 45.8987C31.0772 44.7194 32.1544 43.4268 33.2259 42.0321ZM47.513 19.6547C55.0676 21.8204 60 25.4205 60 29.7662C60 34.1118 55.0676 37.712 47.513 39.8777C49.4123 47.5031 48.7631 53.5751 45.0014 55.7465C41.2369 57.9208 35.6525 55.4489 30 49.992C24.3475 55.4489 18.7631 57.9208 14.9986 55.7465C11.2369 53.5751 10.5849 47.5031 12.487 39.8777C4.93244 37.712 0 34.1118 0 29.7662C0 25.4205 4.93244 21.8204 12.487 19.6547C10.5877 12.0293 11.2369 5.95725 14.9986 3.78585C18.7631 1.6116 24.3475 4.08349 30 9.54036C35.6525 4.08349 41.2369 1.6116 45.0014 3.78585C48.7631 5.95725 49.4151 12.0293 47.513 19.6547ZM44.7548 18.9517C46.3706 12.5452 46.0304 7.65242 43.584 6.24073C41.1377 4.82619 36.7268 6.98059 31.99 11.5814C33.6653 13.4041 35.3321 15.4763 36.9394 17.7469C39.7118 18.002 42.3368 18.4102 44.7548 18.9517ZM15.2452 40.5807C13.6294 46.9872 13.9696 51.88 16.416 53.2917C18.8623 54.7062 23.2732 52.5518 28.01 47.951C26.2307 46.0032 24.5776 43.9438 23.0606 41.7855C20.4325 41.5505 17.822 41.1481 15.2452 40.5807ZM26.7741 17.5003C28.9238 17.4113 31.0762 17.4113 33.2259 17.5003C32.2069 16.1664 31.1305 14.8773 30 13.6365C28.9228 14.8158 27.8456 16.1056 26.7741 17.5003ZM23.0606 17.7469C24.5794 15.5884 26.2345 13.529 28.0157 11.5814C23.2732 6.98059 18.8595 4.82619 16.4188 6.24073C13.9696 7.65242 13.6322 12.548 15.2452 18.9517C17.6632 18.4131 20.291 18.0049 23.0606 17.7469ZM35.369 39.0641C37.3869 36.1028 39.1806 32.9949 40.7351 29.7662C39.1806 26.5375 37.3869 23.4295 35.369 20.4683C31.7947 20.2007 28.2053 20.2007 24.631 20.4683C22.6131 23.4295 20.8194 26.5375 19.2649 29.7662C20.8194 32.9949 22.6131 36.1028 24.631 39.0641C28.2053 39.3317 31.7947 39.3317 35.369 39.0641ZM39.0088 38.6928C40.7522 38.466 42.4105 38.174 43.9696 37.831C43.4597 36.2316 42.8809 34.6549 42.2347 33.1055C41.2369 35.0107 40.1606 36.8737 39.0088 38.6899V38.6928ZM20.9912 20.8368C19.2478 21.0636 17.5895 21.3555 16.0304 21.6985C16.5123 23.218 17.0906 24.7997 17.7653 26.424C18.7631 24.5189 19.8394 22.653 20.9912 20.8368ZM16.0304 37.8282C17.5895 38.1712 19.2478 38.4603 20.9912 38.6899C19.8394 36.8737 18.7631 35.0107 17.7653 33.1055C17.0906 34.727 16.5123 36.3088 16.0304 37.8282ZM13.2581 37.1337C13.9979 34.7695 14.9589 32.2919 16.1211 29.7634C14.9589 27.2348 13.9979 24.7572 13.2581 22.393C6.90258 24.1988 2.83473 26.94 2.83473 29.7634C2.83473 32.5868 6.90258 35.3279 13.2581 37.1337ZM43.9696 21.6985C42.4105 21.3555 40.7522 21.0664 39.0088 20.8368C40.1606 22.653 41.2369 24.516 42.2347 26.4212C42.9094 24.7997 43.4877 23.218 43.9696 21.6985ZM46.7419 22.393C46.0021 24.7572 45.0411 27.2348 43.8789 29.7634C45.0411 32.2919 46.0021 34.7695 46.7419 37.1337C53.0974 35.3279 57.1653 32.5868 57.1653 29.7634C57.1653 26.94 53.0974 24.1988 46.7419 22.393ZM30 35.0955C29.3001 35.0955 28.6071 34.9576 27.9606 34.6898C27.314 34.422 26.7265 34.0294 26.2316 33.5346C25.7367 33.0397 25.3442 32.4522 25.0764 31.8056C24.8085 31.159 24.6707 30.466 24.6707 29.7662C24.6707 29.0663 24.8085 28.3733 25.0764 27.7268C25.3442 27.0802 25.7367 26.4927 26.2316 25.9978C26.7265 25.5029 27.314 25.1104 27.9606 24.8426C28.6071 24.5747 29.3001 24.4369 30 24.4369C31.4134 24.4369 32.7689 24.9984 33.7684 25.9978C34.7678 26.9972 35.3293 28.3528 35.3293 29.7662C35.3293 31.1796 34.7678 32.5351 33.7684 33.5346C32.7689 34.534 31.4134 35.0955 30 35.0955Z" fill="black"/>
</svg>
