<svg xmlns="http://www.w3.org/2000/svg" width="72" height="65" fill="none" viewBox="0 0 72 65"><path fill="#fff" stroke="#fff" stroke-width=".5" d="M68.108 64H53.835a2.903 2.903 0 0 1-2.9-2.899V27.794a2.906 2.906 0 0 1 2.9-2.9h14.273a2.902 2.902 0 0 1 2.892 2.9V61.1a2.906 2.906 0 0 1-2.892 2.9Zm-16.133-7.137V61.1a1.861 1.861 0 0 0 1.858 1.86h14.275a1.859 1.859 0 0 0 1.86-1.86v-4.238H51.974Zm0-23.794v22.754h17.986V33.067l-17.986.002Zm1.86-7.138a1.858 1.858 0 0 0-1.86 1.863v4.238h17.986v-4.238a1.86 1.86 0 0 0-1.86-1.86l-14.266-.003Zm7.134 34.497a.517.517 0 0 1-.366-.152.502.502 0 0 1-.144-.265.527.527 0 0 1 .18-.504.517.517 0 0 1 .696.035.52.52 0 0 1-.366.89v-.004ZM45.49 56.186H22.94a.522.522 0 0 1-.412-.837l6.29-8.189H3.78A2.781 2.781 0 0 1 1 44.385V3.782A2.784 2.784 0 0 1 3.78 1h60.872a2.78 2.78 0 0 1 2.778 2.78v20.74h-1.039V3.78a1.74 1.74 0 0 0-1.739-1.74H3.778A1.738 1.738 0 0 0 2.039 3.78v40.606a1.742 1.742 0 0 0 1.74 1.738h46.787v1.04H39.611l6.291 8.19a.519.519 0 0 1-.413.836l.001-.005Zm-15.357-9.024-6.136 7.986h20.438l-6.136-7.986h-8.166ZM60.96 50.91a6.466 6.466 0 0 1-4.519-1.842l-.038-.059-.062-.044a6.441 6.441 0 0 1-1.841-4.53 6.426 6.426 0 0 1 1.84-4.52l.063-.04.04-.065a6.486 6.486 0 0 1 9.055 0l.042.06.053.036a6.477 6.477 0 0 1-4.633 10.997v.007Zm4.247-9.974-3.72 3.72v5.259l.837-.218a5.434 5.434 0 0 0 4.049-5.629 5.442 5.442 0 0 0-.73-2.375l-.438-.745.002-.012Zm-4.758 4.76-2.985 2.986.744.44c.439.258.911.453 1.404.58l.837.215v-4.22Zm-3.722-4.757-.438.745a5.443 5.443 0 0 0-.748 2.753 5.317 5.317 0 0 0 .753 2.77l.442.735 3.497-3.5-3.506-3.503Zm4.24-1.907c-.965 0-1.913.252-2.75.73l-.764.434 3.515 3.516 3.514-3.516-.761-.434a5.552 5.552 0 0 0-2.755-.73Zm-10.4-.896H8.283a2.776 2.776 0 0 1-2.776-2.768V8.29a2.784 2.784 0 0 1 2.778-2.782h51.86A2.78 2.78 0 0 1 62.92 8.29v16.23h-1.039V8.29a1.742 1.742 0 0 0-1.74-1.74H8.285a1.738 1.738 0 0 0-1.739 1.74v27.083a1.737 1.737 0 0 0 1.739 1.725h42.281v1.038h.002Zm-14.56-5.07a11.209 11.209 0 0 1-7.91-3.263l-.019-.018h-.008l-.015-.015a11.205 11.205 0 0 1 0-15.812l.018-.02.009-.008.015-.014.011-.013a11.192 11.192 0 0 1 15.803 0l.017.016.012.01.01.012.017.017a11.221 11.221 0 0 1 2.403 12.22 11.219 11.219 0 0 1-10.353 6.912l-.01-.023Zm7.556-18.061-7.045 7.05v9.98l.755-.095a10.152 10.152 0 0 0 8.135-6.2 10.171 10.171 0 0 0-1.378-10.14l-.467-.595Zm-8.09 8.09-6.312 6.316.597.467a10.12 10.12 0 0 0 4.962 2.062l.754.095v-8.94Zm-7.045-8.09-.465.596a10.13 10.13 0 0 0 0 12.479l.465.594 6.831-6.834-6.831-6.835Zm7.566-3.35c-2.26.004-4.453.76-6.236 2.15l-.594.468 6.83 6.836 6.843-6.838-.596-.467a10.162 10.162 0 0 0-6.244-2.152l-.003.004Z"/></svg>