<svg xmlns="http://www.w3.org/2000/svg" width="71" height="81" fill="none" viewBox="0 0 71 81"><g clip-path="url(#clip0_1491_13263)"><path fill="#95BF46" d="M62.06 15.906c-.056-.405-.41-.63-.704-.654-.293-.025-6.484-.484-6.484-.484s-4.3-4.27-4.773-4.743c-.472-.472-1.394-.329-1.752-.223-.053.015-.94.29-2.407.743-1.436-4.135-3.972-7.934-8.432-7.934-.123 0-.25.005-.376.012C35.863.945 34.292.216 32.935.216c-10.39 0-15.354 12.992-16.91 19.594-4.037 1.251-6.905 2.14-7.271 2.256-2.254.707-2.325.778-2.621 2.902C5.91 26.576.014 72.188.014 72.188L45.959 80.8l24.895-5.387s-8.74-59.101-8.794-59.506ZM43.4 11.33l-3.887 1.204c.001-.275.003-.544.003-.84 0-2.569-.357-4.638-.929-6.278 2.298.288 3.829 2.904 4.814 5.914Zm-7.664-5.405c.64 1.602 1.055 3.9 1.055 7.001 0 .159-.002.304-.003.45l-8.03 2.488c1.547-5.969 4.445-8.851 6.978-9.939ZM32.65 3.003c.449 0 .9.153 1.333.45-3.33 1.568-6.899 5.515-8.406 13.398l-6.347 1.966c1.766-6.013 5.958-15.814 13.42-15.814Z"/><path fill="#5E8E3E" d="M61.356 15.252c-.292-.024-6.484-.483-6.484-.483s-4.3-4.27-4.773-4.743c-.176-.176-.414-.266-.664-.305l-3.474 71.078 24.893-5.387s-8.74-59.1-8.794-59.506c-.056-.405-.41-.629-.704-.654Z"/><path fill="#fff" d="m37.508 29.012-3.07 9.133s-2.689-1.435-5.986-1.435c-4.833 0-5.076 3.034-5.076 3.798 0 4.172 10.871 5.77 10.871 15.541 0 7.688-4.874 12.638-11.447 12.638-7.887 0-11.92-4.91-11.92-4.91l2.112-6.98s4.146 3.56 7.644 3.56c2.286 0 3.216-1.8 3.216-3.115 0-5.441-8.919-5.684-8.919-14.625 0-7.526 5.4-14.808 16.3-14.808 4.2 0 6.275 1.203 6.275 1.203Z"/></g><defs><clipPath id="clip0_1491_13263"><path fill="#fff" d="M0 0h71v81H0z"/></clipPath></defs></svg>