<svg width="60" height="60" viewBox="0 0 60 60" fill="none" xmlns="http://www.w3.org/2000/svg">
<path d="M38.7225 59.9475L56.7625 56.045C56.7625 56.045 50.2525 12 50.2 11.72C50.165 11.455 49.9425 11.25 49.6725 11.24C49.4225 11.24 44.85 10.9 44.85 10.9C44.85 10.9 41.6625 7.715 41.2525 7.3725C41.1675 7.295 41.0675 7.2325 40.9575 7.19L40.95 7.1875L38.665 59.9375H38.7225V59.9475ZM29.655 28.2625C28.36 27.6225 26.84 27.235 25.23 27.2025H25.22C21.6025 27.2025 21.47 29.4675 21.47 30.055C21.47 33.135 29.57 34.3425 29.57 41.6275C29.57 47.3775 25.97 51.0275 21.055 51.0275C20.955 51.03 20.84 51.0325 20.7225 51.0325C17.37 51.0325 14.3475 49.625 12.21 47.37L12.205 47.365L13.82 42.15C15.37 43.51 17.3125 44.4575 19.455 44.8075L19.52 44.815C19.5425 44.815 19.57 44.8175 19.5975 44.8175C20.89 44.8175 21.94 43.7775 21.9575 42.4875V42.485C21.9575 38.4375 15.3225 38.25 15.3225 31.5875C15.2275 26 19.24 20.5475 27.38 20.5475C27.535 20.54 27.715 20.535 27.895 20.535C29.4075 20.535 30.8425 20.8725 32.1275 21.4775L32.0675 21.4525L29.705 28.2525L29.655 28.2775V28.2625ZM28.305 2.075C28.6825 2.0775 29.03 2.2025 29.31 2.415L29.305 2.4125C26.8575 3.575 24.1575 6.5 23.0475 12.3925C21.4075 12.925 19.815 13.405 18.325 13.8375C19.63 9.375 22.7575 2.1 28.305 2.1V2.075ZM31.38 9.4475V9.785C29.495 10.365 27.4225 10.995 25.395 11.625C25.93 8.4075 27.8825 5.7325 30.5775 4.225L30.63 4.1975C31.125 5.6075 31.4125 7.235 31.4125 8.9275C31.4125 9.11 31.41 9.2925 31.4025 9.4725V9.4475H31.38ZM32.7275 3.8625C34.4625 4.0475 35.58 6.03 36.3 8.25C35.4275 8.535 34.4625 8.8275 33.405 9.165V8.535C33.4075 8.4375 33.41 8.3225 33.41 8.205C33.41 6.6525 33.16 5.155 32.7 3.7575L32.7275 3.8575V3.8625ZM40.2075 7.085C40.1575 7.085 40.0575 7.1375 40.0125 7.1375C39.9675 7.1375 39.29 7.325 38.2275 7.6625C37.17 4.58 35.2875 1.7375 31.9575 1.7375H31.67C30.96 0.74 29.835 0.075 28.5525 0H28.5425C20.7775 0 17.0675 9.6925 15.905 14.615C12.92 15.5275 10.7475 16.205 10.505 16.3C8.8175 16.8325 8.77 16.88 8.575 18.475C8.3875 19.63 4 53.6325 4 53.6325L37.9025 60L40.22 7.085H40.2075Z" fill="black"/>
</svg>
