<svg xmlns="http://www.w3.org/2000/svg" width="62" height="60" fill="none" viewBox="0 0 62 60"><path fill="#fff" stroke="#fff" stroke-width=".3" d="M55.12 28.295a3.126 3.126 0 0 1-1.116-2.168 2.535 2.535 0 0 1 .645-1.899c3.075-3.35 4.36-7.9 3.525-12.469C57.106 5.914 52.34 1.217 46.576.332c-4.114-.63-8.094.531-11.212 3.273-2.26 1.99-5.293 2.288-7.54.737-3.397-2.338-7.532-3.174-11.646-2.345-6.073 1.225-10.93 6.22-12.082 12.44-1.362 7.354 2.394 14.58 8.853 17.556l-.14.05h-5.49C3.835 32.043 1 35.06 1 38.773c0 3.713 2.836 6.73 6.318 6.73h.702v12.753c0 .39.316.709.702.709h4.213a.707.707 0 0 0 .702-.709V45.81l17.2 6.362c3.229 4.42 8.29 6.971 13.626 6.971.765 0 1.53-.05 2.303-.156 7.49-1.034 13.584-7.375 14.483-15.07.701-5.993-1.594-11.83-6.136-15.614l.007-.007ZM33.3 51.575l-4.212-1.558V27.792a.668.668 0 0 0-.049-.24l4.262-1.58v25.603ZM27.685 49.5l-14.04-5.193V33.254l14.04-5.193v21.446-.007ZM2.411 38.773c0-2.933 2.204-5.313 4.914-5.313h4.915v10.627H7.325c-2.71 0-4.914-2.38-4.914-5.314Zm9.829 18.775H9.43V45.575h2.809v11.973Zm47.626-13.801c-.822 7.07-6.41 12.887-13.283 13.836-4.837.666-9.625-.999-13.023-4.4l.204.079a.69.69 0 0 0 .639-.085.708.708 0 0 0 .302-.581v-7.843c2.766-.376 4.914-2.905 4.914-5.972 0-3.068-2.148-5.597-4.914-5.973v-7.843a.708.708 0 0 0-.948-.666l-18.829 6.965C8.203 29.01 4.145 21.926 5.48 14.7 6.525 9.039 10.934 4.497 16.452 3.385c3.735-.75 7.49 0 10.58 2.126 2.787 1.92 6.5 1.58 9.252-.844 2.801-2.465 6.375-3.506 10.074-2.94 5.174.794 9.464 5.023 10.426 10.287.758 4.13-.4 8.233-3.174 11.25-.73.794-1.088 1.843-1.018 2.955a4.539 4.539 0 0 0 1.622 3.167c4.17 3.479 6.276 8.849 5.638 14.36h.014Zm-25.161-9.508c1.986.369 3.51 2.26 3.51 4.534 0 2.275-1.524 4.166-3.51 4.535v-9.069Z"/><path fill="#fff" stroke="#fff" stroke-width=".3" d="M52.346 13.17c0-4.535-3.658-8.219-8.144-8.219-4.486 0-8.143 3.691-8.143 8.218 0 4.528 3.657 8.219 8.143 8.219 4.486 0 8.144-3.691 8.144-8.219Zm-14.89 0c0-3.755 3.025-6.802 6.74-6.802 3.713 0 6.739 3.054 6.739 6.801 0 3.748-3.026 6.802-6.74 6.802-3.714 0-6.74-3.054-6.74-6.802Z"/><path fill="#fff" stroke="#fff" stroke-width=".3" d="M48.045 13.216a.693.693 0 0 0-.387-.63l-5.616-2.834a.705.705 0 0 0-.68.028.71.71 0 0 0-.33.602v5.668a.71.71 0 0 0 .33.602.69.69 0 0 0 .687.029l5.617-2.834a.708.708 0 0 0 .386-.63h-.007Zm-5.617 1.686V11.53l3.342 1.686-3.342 1.686ZM25.923 11.92c.084-1.092.056-2.912-.877-4.053-.534-.652-1.3-.992-2.219-.992-1.053 0-1.874.298-2.443.893-.983 1.034-.92 2.628-.863 3.903v.085c.042.943-.225 1.828-.688 2.317a1.648 1.648 0 0 1-.281.227.701.701 0 0 0-.695-.687h-3.51a.707.707 0 0 0-.702.708v9.21c0 .39.315.709.702.709h3.51a.707.707 0 0 0 .702-.709h8.417c.05 0 .091 0 .14-.014.99-.198 2.675-.978 2.675-2.614v-6.136a.66.66 0 0 0-.028-.205c-.295-.97-1.453-2.614-3.84-2.643ZM15.05 22.83v-7.793h2.106v7.793h-2.106Zm13.338-1.92c0 .78-1.214 1.14-1.488 1.211h-8.34v-6.305a2.719 2.719 0 0 0 1.291-.758c.738-.78 1.13-1.998 1.082-3.351v-.085c-.042-1.013-.099-2.267.47-2.87.295-.304.758-.46 1.425-.46.506 0 .864.149 1.137.482.78.942.597 3.046.464 3.783a.725.725 0 0 0 .182.623c.155.163.38.241.604.213 2.275-.34 3.005 1.105 3.166 1.502v6.015h.007ZM54.188 41.258c-.913 0-1.735.404-2.282 1.048a3.002 3.002 0 0 0-2.282-1.041c-1.643 0-2.983 1.318-2.983 2.933 0 2.621 1.65 4.138 4.893 6.17a.69.69 0 0 0 .372.107.69.69 0 0 0 .372-.106c3.243-2.033 4.893-3.55 4.893-6.171 0-1.615-1.34-2.933-2.983-2.933v-.007Zm1.58 2.933c0 1.707-.914 2.84-3.862 4.732-2.949-1.891-3.861-3.025-3.861-4.732 0-.836.709-1.516 1.58-1.516.87 0 1.579.68 1.579 1.516 0 .39.316.708.702.708a.707.707 0 0 0 .702-.708c0-.836.709-1.516 1.58-1.516.87 0 1.58.68 1.58 1.516ZM46.118 37.71h-2.99a.707.707 0 0 0-.702.71c0 .39.316.708.702.708h2.99a.707.707 0 0 0 .703-.709.707.707 0 0 0-.703-.708ZM43.338 27.99l-2.113 2.133a.71.71 0 0 0 0 .999c.14.142.316.205.498.205.183 0 .358-.07.499-.205l2.113-2.133a.71.71 0 0 0 0-.999.695.695 0 0 0-.99 0h-.007ZM42.223 45.002a.695.695 0 0 0-.99 0 .71.71 0 0 0 0 1l2.113 2.132c.14.141.316.205.498.205.183 0 .358-.07.499-.205a.71.71 0 0 0 0-1l-2.113-2.132h-.007Z"/></svg>