<svg width="60" height="60" viewBox="0 0 60 60" fill="none" xmlns="http://www.w3.org/2000/svg">
<g clip-path="url(#clip0_5773_9573)">
<path d="M58.7613 0H19.6641V19.6031H38.9018C39.5871 19.6031 40.1431 20.1591 40.1431 20.8444V39.8166H60.0027V1.24363C60.0033 0.914009 59.8727 0.59768 59.6399 0.364388C59.407 0.131097 59.0909 0 58.7613 0Z" fill="black"/>
<path d="M18.962 0.695312V20.2984H0.620732C0.368698 20.2979 0.141861 20.1454 0.0463738 19.9122C-0.0491129 19.6789 0.00563894 19.4111 0.185007 19.234L18.962 0.695312ZM40.5009 59.0711C40.3223 59.2465 40.056 59.2977 39.8251 59.2011C39.5943 59.1045 39.4438 58.8789 39.4434 58.6286V40.5119H59.3029L40.5009 59.0688V59.0711Z" fill="black"/>
<path d="M18.9609 20.3008H38.8227C39.1631 20.3008 39.4423 20.5776 39.4423 20.9203V40.5143H20.2046C19.519 40.5143 18.9632 39.9586 18.9632 39.273V20.3008H18.9609Z" fill="black"/>
</g>
<defs>
<clipPath id="clip0_5773_9573">
<rect width="60" height="60" fill="white"/>
</clipPath>
</defs>
</svg>
