<svg xmlns="http://www.w3.org/2000/svg" width="90" height="90" fill="none" viewBox="0 0 90 90"><path fill="#fff" stroke="#fff" stroke-width=".2" d="M53.86 55.109h-2.499a4.35 4.35 0 0 1-3.09-1.278 4.36 4.36 0 0 1-1.284-3.096v-2.523a3.522 3.522 0 0 0-.313-1.462 3.517 3.517 0 0 0-.895-1.197 11.073 11.073 0 0 1-3.01-4.249 11.08 11.08 0 0 1-.726-5.158 10.794 10.794 0 0 1 2.971-6.506 10.8 10.8 0 0 1 6.39-3.205c.408-.046.817-.069 1.227-.067a10.377 10.377 0 0 1 6.959 2.679 10.971 10.971 0 0 1 2.715 3.761c.63 1.431.946 2.98.927 4.544a10.953 10.953 0 0 1-1.023 4.523 10.97 10.97 0 0 1-2.797 3.705 3.45 3.45 0 0 0-1.178 2.632v2.523a4.354 4.354 0 0 1-1.282 3.096 4.35 4.35 0 0 1-3.092 1.278Zm-5.73-3.75.54.937a3.11 3.11 0 0 0 2.692 1.563h2.498a3.107 3.107 0 0 0 1.556-.422 3.104 3.104 0 0 0 1.136-1.141l.54-.936h-8.961Zm.107-3.748v2.5h8.747v-2.5h-8.747Zm1.158-11.224c-.152 0-.303.03-.443.089-.2.08-.372.215-.5.388a1.17 1.17 0 0 0-.215.597v1.153a1.161 1.161 0 0 0 .461.912l4.288 3.211c.077.058.14.133.184.22a.637.637 0 0 1 .065.28v3.124h4.124l.172-.344c.265-.531.631-1.005 1.078-1.395a9.692 9.692 0 0 0 2.469-3.279 9.705 9.705 0 0 0 .905-4.005 9.712 9.712 0 0 0-.82-4.024 9.701 9.701 0 0 0-2.4-3.33 9.134 9.134 0 0 0-6.136-2.367h-.009c-.36 0-.719.02-1.076.062h-.016a9.653 9.653 0 0 0-5.608 2.865 9.649 9.649 0 0 0-2.63 5.72 9.8 9.8 0 0 0 .638 4.567 9.8 9.8 0 0 0 2.661 3.768c.454.4.827.882 1.098 1.423l.177.34h4.124v-2.809l-4.04-3.028a2.427 2.427 0 0 1-.709-.846 2.418 2.418 0 0 1-.25-1.065v-1.099c0-.473.14-.935.404-1.328a2.388 2.388 0 0 1 1.073-.882c.29-.123.6-.187.915-.19a2.405 2.405 0 0 1 1.692.701l.734.733a1.137 1.137 0 0 0 1.244.247 1.14 1.14 0 0 0 .37-.248l.732-.732a2.39 2.39 0 0 1 4.083 1.696v1.102a2.394 2.394 0 0 1-.952 1.917l-1.297.957-.75-1 1.294-.97a1.155 1.155 0 0 0 .455-.904v-1.15a1.163 1.163 0 0 0-1.344-1.053c-.212.033-.41.123-.573.262l-.763.761a2.456 2.456 0 0 1-1.693.674 2.454 2.454 0 0 1-1.696-.677l-.726-.726-.039-.035a1.155 1.155 0 0 0-.753-.278l-.002-.005ZM53.237 23.874h-1.25v-2.5h1.25v2.5ZM68.232 37.62h-2.5v-1.25h2.5v1.25ZM39.491 37.62h-2.5v-1.25h2.5v1.25ZM42.891 28.157l-1.766-1.765.884-.884 1.767 1.767-.882.883h-.003ZM62.331 28.157l-.882-.882 1.767-1.767.883.884-1.765 1.765h-.003Z"/><path fill="#fff" stroke="#fff" stroke-width=".2" d="M52.607 61.173h-.039a23.04 23.04 0 0 1-16.305-6.76 23.106 23.106 0 0 1-2.887-29.172A23.155 23.155 0 0 1 45.87 15.96c2.18-.664 4.445-1 6.723-1 3.03-.005 6.03.59 8.83 1.75A23.106 23.106 0 0 1 75.26 42.56a23.106 23.106 0 0 1-22.653 18.613Zm0-44.975c-1.433 0-2.862.142-4.268.421a21.792 21.792 0 0 0-11.191 5.982 21.807 21.807 0 0 0-4.761 23.84 21.802 21.802 0 0 0 4.761 7.088 21.799 21.799 0 0 0 11.196 5.985 21.869 21.869 0 1 0 4.262-43.316Z"/><path fill="#fff" stroke="#fff" stroke-width=".2" d="M17.62 82c-.495 0-.97-.197-1.32-.546l-7.07-7.069a1.874 1.874 0 0 1-.006-2.652L23.01 57.948a1.865 1.865 0 0 1 1.326-.548c.497 0 .974.197 1.326.548l.47.412 2.874-2.874-.307-.43a29.366 29.366 0 1 1 6.922 6.922l-.431-.306-2.895 2.901.442.443a1.874 1.874 0 0 1 0 2.65L18.945 81.453a1.865 1.865 0 0 1-1.326.547Zm6.717-23.617-14.67 14.67 7.954 7.954L32.294 66.34l-7.953-7.953-.005-.005ZM52.612 9.949c-1.842 0-3.68.182-5.486.541A28.094 28.094 0 0 0 26.61 48.833a28.26 28.26 0 0 0 20.516 16.809A28.117 28.117 0 1 0 52.612 9.95ZM29.765 56.493l-2.779 2.78 4.418 4.418 2.78-2.78-.515-.438a28.392 28.392 0 0 1-1.82-1.643 29.874 29.874 0 0 1-1.641-1.818l-.443-.519Z"/></svg>