<svg xmlns="http://www.w3.org/2000/svg" width="90" height="90" fill="none" viewBox="0 0 90 90"><path fill="#fff" d="M58.785 82.95H31.47a.621.621 0 0 1-.575-.864.62.62 0 0 1 .337-.338.622.622 0 0 1 .238-.048h27.315a.63.63 0 0 1 .626.625.62.62 0 0 1-.184.442.626.626 0 0 1-.442.183ZM79.725 64.994h-69.1a.618.618 0 0 1-.577-.386.63.63 0 0 1 .577-.864h69.1c.165 0 .324.067.442.183a.633.633 0 0 1 .135.682.625.625 0 0 1-.577.385ZM59.16 69.095h-1.938a.617.617 0 0 1-.577-.386.624.624 0 0 1 .138-.68.623.623 0 0 1 .439-.184h1.937a.622.622 0 0 1 .625.625.62.62 0 0 1-.385.578.618.618 0 0 1-.238.047ZM66.189 69.095h-1.94a.626.626 0 0 1-.574-.864.63.63 0 0 1 .575-.386h1.937a.629.629 0 0 1 .626.625.624.624 0 0 1-.624.625ZM73.22 69.095h-2.074a.617.617 0 0 1-.577-.386.624.624 0 0 1 .138-.68.63.63 0 0 1 .439-.184h2.073a.629.629 0 0 1 .58.865.625.625 0 0 1-.578.385Z"/><path fill="#fff" d="M37.118 82.95a.624.624 0 0 1-.612-.492.632.632 0 0 1 0-.279l2.334-9.75a.631.631 0 0 1 .279-.388.63.63 0 0 1 .862.204.63.63 0 0 1 .075.473l-2.328 9.757a.624.624 0 0 1-.22.345.635.635 0 0 1-.39.13ZM53.225 82.951a.627.627 0 0 1-.618-.5l-1.98-9.75a.619.619 0 0 1 .093-.47.629.629 0 0 1 .863-.18.624.624 0 0 1 .267.4l1.987 9.748c.02.091.02.185 0 .276a.628.628 0 0 1-.34.415.63.63 0 0 1-.27.06l-.002.001Z"/><path fill="#fff" d="M12.958 73.202a2.951 2.951 0 0 1-2.093-.87 2.934 2.934 0 0 1-.652-.99A2.94 2.94 0 0 1 10 70.176V30.823a3.047 3.047 0 0 1 3.04-3.116h7.543a.62.62 0 0 1 .577.386.624.624 0 0 1-.338.818.619.619 0 0 1-.24.047h-7.55a1.771 1.771 0 0 0-1.79 1.865v39.334a1.7 1.7 0 0 0 1.79 1.794H77.35a1.757 1.757 0 0 0 1.755-1.806V30.823a1.835 1.835 0 0 0-1.79-1.866H69.77a.622.622 0 0 1-.625-.626.624.624 0 0 1 .625-.625h7.538a3.057 3.057 0 0 1 2.158.926 3.061 3.061 0 0 1 .878 2.183v39.351a3 3 0 0 1-3 3.035l-64.387.001Z"/><path fill="#fff" d="M65.675 54.766h-41a4.698 4.698 0 0 1-3.34-1.385 4.698 4.698 0 0 1-1.383-3.336v-30.97a.62.62 0 0 1 .184-.442.629.629 0 0 1 .439-.183h49.2a.622.622 0 0 1 .625.625v30.97a4.724 4.724 0 0 1-4.725 4.721Zm3.47-35.066H21.203v30.345a3.451 3.451 0 0 0 1.016 2.452 3.451 3.451 0 0 0 2.452 1.02h41.005a3.472 3.472 0 0 0 3.466-3.47l.005-30.347Z"/><path fill="#fff" d="M20.575 19.705a.62.62 0 0 1-.624-.622v-6.358a4.701 4.701 0 0 1 1.384-3.34A4.7 4.7 0 0 1 24.67 8h41.005a4.692 4.692 0 0 1 3.338 1.385 4.69 4.69 0 0 1 1.383 3.34v6.352a.626.626 0 0 1-1.251-.003v-6.361a3.447 3.447 0 0 0-1.018-2.447 3.45 3.45 0 0 0-2.452-1.016H24.668a3.45 3.45 0 0 0-2.45 1.019 3.453 3.453 0 0 0-1.016 2.456v6.355a.63.63 0 0 1-.183.442.63.63 0 0 1-.444.183Z"/><path fill="#fff" d="M64.92 14.475h-3.485a.618.618 0 0 1-.577-.386.62.62 0 0 1 .002-.478.62.62 0 0 1 .337-.338.622.622 0 0 1 .238-.048h3.484a.622.622 0 0 1 .625.625.62.62 0 0 1-.385.578.619.619 0 0 1-.238.047ZM57.107 14.475h-3.484a.617.617 0 0 1-.577-.386.624.624 0 0 1 .138-.68.621.621 0 0 1 .439-.184h3.482a.622.622 0 0 1 .625.625.62.62 0 0 1-.385.578.62.62 0 0 1-.238.047ZM46.873 14.475H25.425a.617.617 0 0 1-.577-.386.624.624 0 0 1 .138-.68.621.621 0 0 1 .439-.184h21.448a.63.63 0 0 1 .626.625.617.617 0 0 1-.184.442.626.626 0 0 1-.442.183ZM64.796 49.108H25.55a.63.63 0 0 1-.577-.389.62.62 0 0 1-.046-.24v-8.7a.62.62 0 0 1 .184-.442.63.63 0 0 1 .439-.183h39.245a.622.622 0 0 1 .625.625v8.7a.623.623 0 0 1-.625.626v.003Zm-38.618-8.7v7.45H64.17v-7.454l-37.992.004ZM39.442 35.94a5.619 5.619 0 0 1-3.991-1.657 5.627 5.627 0 0 1-1.655-3.993v-5.744a.62.62 0 0 1 .385-.577.622.622 0 0 1 .863.577v5.736c-.012.581.092 1.16.307 1.7a4.382 4.382 0 0 0 4.086 2.785c.584 0 1.162-.117 1.7-.343a4.385 4.385 0 0 0 2.698-4.136v-5.742a.62.62 0 0 1 .386-.578.624.624 0 0 1 .819.339.621.621 0 0 1 .047.239v5.743a5.617 5.617 0 0 1-1.656 3.993 5.618 5.618 0 0 1-3.99 1.659ZM55.922 25.17H49.64a.626.626 0 0 1-.575-.864.63.63 0 0 1 .575-.386h6.28a.63.63 0 0 1 .578.387.621.621 0 0 1 0 .478.62.62 0 0 1-.577.386ZM55.922 35.94H49.64a.626.626 0 0 1-.623-.625.63.63 0 0 1 .623-.625h6.28a.622.622 0 0 1 .578.865.624.624 0 0 1-.577.385Z"/><path fill="#fff" d="M52.784 35.94a.622.622 0 0 1-.578-.385.62.62 0 0 1-.048-.24v-10.77a.62.62 0 0 1 .386-.577.622.622 0 0 1 .682.136.62.62 0 0 1 .183.442v10.77a.62.62 0 0 1-.183.442.629.629 0 0 1-.442.183Z"/></svg>