<svg xmlns="http://www.w3.org/2000/svg" width="90" height="90" fill="none" viewBox="0 0 90 90"><path fill="#fff" stroke="#fff" stroke-width=".4" d="M33.607 82.945c-10.351 0-12.007-.081-12.239-.115a5.64 5.64 0 0 1-4.2-4.221c-.1-.87-.168-14.81-.168-33.147 0-18.337.071-32.278.168-33.148a5.6 5.6 0 0 1 3.988-4.169C21.7 8.024 26.656 8 34.471 8H40.212l18.409.03.868.415a5.522 5.522 0 0 1 3.183 4.1c.068.473.14 6.067.14 17.231 0 11.335-.015 16.009-.163 16.582-.056.107-.146.234-.259.234a.632.632 0 0 1-.352-.167l-.162-.121-.03-16.759-.046-17.258-.476-.9a5.215 5.215 0 0 0-1.133-1.442c-1-.831-1.78-1.034-3.951-1.034-.242 0-.517 0-.839.008l-2.965.054-.448 2.184c-.469 2.379-1.088 3.334-2.644 4.088l-.863.426H31.2l-.723-.362a5.035 5.035 0 0 1-2.056-2.036v-.006a10.212 10.212 0 0 1-.551-1.813c-.081-.415-.172-.831-.238-1.135-.047-.215-.1-.471-.113-.545l-.009-.029-.222-.891-3.229.071c-3.186.061-3.784.173-4.967 1.569-.052.059-.1.109-.157.162-.581.575-.788.954-.888 4.5-.1 3.474-.1 10.227-.1 23.68v6.63c0 30.125.038 32.659.251 33.363a4.927 4.927 0 0 0 2.239 2.726l.752.4 18.4.045 2.666.006c3.1.007 5.447.013 7.42.013 8.993 0 9.4-.091 10.36-.92l.148-.125c.46-.41.844-.897 1.134-1.44l.474-.9.1-12.364H57.47c-2.114 0-3.87-.077-4.15-.131a3.162 3.162 0 0 1-1.627-1.194l-.64-.9H41.39l-9.848-.015-.217.833a3.814 3.814 0 0 1-2.694 1.7H27.34v2.462c0 1.837 0 2.073.623 2.7l.623.622h2.684c.808-.024 1.617.009 2.42.1a.384.384 0 0 1 .13.327.453.453 0 0 1-.21.392c-.796.103-1.598.14-2.4.113-2.708 0-3.241-.172-3.922-.853s-.888-1.223-.888-3.342v-2.4l-1.387-.154a3 3 0 0 1-2.813-3.035 2.978 2.978 0 0 1 1.724-2.726c.5-.244.65-.275 2.872-.275.941-.05 1.885.007 2.814.168h.013a3.618 3.618 0 0 1 1.677 1.515l.463.925h6.69l.054-3.9c.042-3.056.042-3.056.37-3.605v-.008c.18-.31.41-.588.68-.824.746-.533 1.182-.609 6.18-.609H50.9l.5-1.129a3.37 3.37 0 0 1 .762-1.048l.006-.005c.775-.663.915-.783 6.162-.783 1.2 0 2.646.007 4.321.014l8.615.044.642.352a3.055 3.055 0 0 1 1.558 2.251 3 3 0 0 1-.852 2.548c-.834.822-.866.854-5.167.9l-4.637.051v2.768h4.271c4.09 0 4.557.126 5.348.832a3.147 3.147 0 0 1 1.071 2.263 2.871 2.871 0 0 1-.875 2.118c-.849.849-1.087.942-5.4.942h-4.414v5.971c0 3.152-.084 5.736-.141 6.129a5.526 5.526 0 0 1-3.185 4.1l-.866.413-18.26.045c-2.799.013-4.945.013-6.752.013ZM26.45 61.378c-1.8 0-2.678.187-3.142 1.3a1.985 1.985 0 0 0 .571 2.439c.631.521.95.521 3.023.521h2.43l.712-.712a1.6 1.6 0 0 0 .63-1.633v-.027a2.755 2.755 0 0 0-.65-1.251c-.553-.575-.862-.582-2.872-.628h-.009a27.87 27.87 0 0 0-.693-.009Zm31.85-.291a37.952 37.952 0 0 0-4.534.139 1.615 1.615 0 0 0-1.444.907 2.3 2.3 0 0 0 .274 2.486l.551.644 8.912.046c1.123.006 2.207.009 3.223.009 5.6 0 5.839-.1 6.03-.177a2 2 0 0 0 1.2-1.5 2.16 2.16 0 0 0-.643-1.97l-.578-.534-8.762-.031a581.478 581.478 0 0 0-4.229-.019Zm-17.643-5.991-1.245 1.249v6.762H50.87l.594-1.209a2.907 2.907 0 0 1 1.994-1.622 38.73 38.73 0 0 1 4.19-.15h4.227v-2.79h-4.449c-3.412 0-3.758-.035-4.362-.257a3.072 3.072 0 0 1-1.527-1.3l-.373-.682-10.507-.001Zm17.353-2.951c-1.443-.047-2.887 0-4.324.139a1.57 1.57 0 0 0-1.373.907v.007a2.452 2.452 0 0 0 .111 2.263c.576.843 1.068.921 5.845.921 1.158 0 2.588-.007 4.243-.015h.032l8.846-.046.638-.723a1.625 1.625 0 0 0 .515-1.563 2.557 2.557 0 0 0-.64-1.262l-.56-.581-8.888-.031h-.657c-1.543-.016-2.76-.016-3.788-.016ZM28.4 8.893l.214 1.443c.3 2.085.745 3.355 2.249 4.1h.007c.788.376.788.376 9.044.376s8.255 0 9.048-.379c1.42-.69 1.861-1.913 2.264-4.228l.213-1.313-23.039.001Z"/><path fill="#fff" stroke="#fff" stroke-width=".4" d="M39.927 12.47c-.849.038-1.7.005-2.543-.1h-.005l-.03-.025a.291.291 0 0 1-.1-.23.506.506 0 0 1 .184-.39l.008-.008c.124-.109.133-.112.175-.122.28-.04.565-.056.848-.047.358 0 .832.008 1.514.021.826-.043 1.654.01 2.467.16a.47.47 0 0 1 .1.3.492.492 0 0 1-.1.337l-.014.013-.015.014c-.826.09-1.659.115-2.489.077ZM56.355 13.552a.558.558 0 0 1-.175-.031.378.378 0 0 1-.258-.256.44.44 0 0 1 .141-.4.359.359 0 0 1 .268-.13.517.517 0 0 1 .419.257.294.294 0 0 1-.021.324.439.439 0 0 1-.374.236ZM56.337 42.725h-.143c-.277-.123-1.286-1.462-3.5-4.4l-.117-.155a218.773 218.773 0 0 0-2.139-2.814c-1.02-1.317-1.024-1.318-1.245-1.392l-.1-.033h-.105c-.333 0-.486.189-.792.567a67.98 67.98 0 0 0-.713.9c-.621.8-1.419 1.845-2.247 2.946-1.61 2.124-2.853 3.679-3.2 4.065a.653.653 0 0 1-.144.016.465.465 0 0 1-.325-.11 1.116 1.116 0 0 1-.112-.122c.137-.402.343-.777.61-1.107.515-.763 1.376-1.914 2.631-3.583l3.679-4.88-3.205-4.221c-1.591-2.1-2.865-3.827-3.013-4.07l-.008-.01a.712.712 0 0 1-.083-.186.84.84 0 0 1 .161-.19l.008-.007a.537.537 0 0 1 .306-.178.693.693 0 0 1 .412.264v.005c.216.228 1.447 1.8 2.771 3.568l.645.854c1.428 1.888 1.8 2.38 1.926 2.515a.714.714 0 0 0 .536.238c.4 0 .7-.281 1.223-.911.394-.471.991-1.241 2-2.577a34.025 34.025 0 0 1 3.168-3.96h.072a.524.524 0 0 1 .377.2c.048.054.08.12.091.192a49.374 49.374 0 0 1-2.954 4.138l-3.278 4.328 3.681 4.833c2.238 2.954 3.381 4.51 3.52 4.74a.343.343 0 0 1-.009.345.432.432 0 0 1-.385.192ZM29.641 42.693a7.142 7.142 0 0 1-6.309-4.006c-.277-.589-.283-.73-.326-7.573l-.043-6.9.15-.157a.395.395 0 0 1 .283-.145.477.477 0 0 1 .327.167l.189.183v13.374l.421.877a6.374 6.374 0 0 0 2.9 2.736 3.99 3.99 0 0 0 2.071.454h.255a5.734 5.734 0 0 0 4.146-1.587l.176-.16a3.075 3.075 0 0 0 1.238-2.12c.187-1.972.26-3.954.217-5.935l.083-7.763.121-.1a.512.512 0 0 1 .32-.124.4.4 0 0 1 .289.13l.148.162-.088 13.876-.412.848a7.293 7.293 0 0 1-4.766 3.6 6.086 6.086 0 0 1-1.39.163ZM48.023 75.793c-.656 0-1.433 0-2.378-.01l-5.35-.044-.572-.35a3.641 3.641 0 0 1-1.478-2.234 3.278 3.278 0 0 1 1.685-3.1c.476-.227.673-.247 6.019-.247 5.518 0 5.53.006 6.147.3a3.088 3.088 0 0 1 1.399 3.924 3.855 3.855 0 0 1-1.872 1.642 26.58 26.58 0 0 1-3.6.12Zm-7.65-5.048-.548.548c-.284.29-.496.644-.618 1.032a2.3 2.3 0 0 0 1.116 2.33l.029.013c.207.085.52.213 5.762.213h5.426l.622-.626.005-.006a2.042 2.042 0 0 0 .039-2.925l-.6-.578H40.373Z"/></svg>