<svg xmlns="http://www.w3.org/2000/svg" width="90" height="90" fill="none" viewBox="0 0 90 90"><path fill="#fff" stroke="#fff" stroke-width=".2" d="M74.786 59.844a.607.607 0 0 1-.226-1.169 5.413 5.413 0 0 0 3.392-5.035V26.31H11.22v27.33a5.41 5.41 0 0 0 3.392 5.035.601.601 0 0 1 .33.789.602.602 0 0 1-.791.333A6.566 6.566 0 0 1 10 53.64V16.646A6.652 6.652 0 0 1 16.654 10h55.861a6.652 6.652 0 0 1 6.645 6.645v36.997a6.566 6.566 0 0 1-4.153 6.156.607.607 0 0 1-.221.046ZM16.653 11.21a5.44 5.44 0 0 0-5.434 5.434V25.1h66.737v-8.454a5.44 5.44 0 0 0-5.435-5.434H16.654Z"/><path fill="#fff" stroke="#fff" stroke-width=".2" d="M18.012 19.942a1.357 1.357 0 1 1 0-2.714 1.357 1.357 0 0 1 0 2.714ZM25.927 19.942a1.357 1.357 0 1 1 0-2.714 1.357 1.357 0 0 1 0 2.714ZM32.712 19.942a1.357 1.357 0 1 1 0-2.714 1.357 1.357 0 0 1 0 2.714ZM71.012 18.762H40.813a.606.606 0 0 1-.428-1.033.606.606 0 0 1 .428-.177h30.2a.606.606 0 0 1 0 1.21ZM75.541 79.16h-9.059a3.627 3.627 0 0 1-3.626-3.625V70.25a3.63 3.63 0 0 1 3.626-3.626h3.924V55.151a2.418 2.418 0 0 0-2.415-2.415H45.194v13.888h3.924a3.628 3.628 0 0 1 3.625 3.626v5.285a3.628 3.628 0 0 1-3.625 3.625h-9.06a3.625 3.625 0 0 1-3.624-3.625V70.25a3.629 3.629 0 0 1 3.625-3.626h3.924V52.736h-22.8a2.418 2.418 0 0 0-2.413 2.415v11.473h3.93a3.628 3.628 0 0 1 3.619 3.626v5.285a3.598 3.598 0 0 1-1.061 2.562 3.603 3.603 0 0 1-2.564 1.063h-9.06a3.6 3.6 0 0 1-2.563-1.063 3.601 3.601 0 0 1-1.062-2.562V70.25a3.629 3.629 0 0 1 3.625-3.626h3.924V55.151a3.63 3.63 0 0 1 3.625-3.625h22.8v-6.34h-7.699a3.629 3.629 0 0 1-3.625-3.625v-5.28a3.629 3.629 0 0 1 3.625-3.626h16.608a3.629 3.629 0 0 1 3.627 3.625v5.281a3.629 3.629 0 0 1-3.627 3.625h-7.698v6.34h22.798a3.629 3.629 0 0 1 3.625 3.625v11.473h3.924a3.618 3.618 0 0 1 3.626 3.626v5.285a3.626 3.626 0 0 1-3.626 3.625Zm-9.059-11.33a2.418 2.418 0 0 0-2.415 2.415v5.285a2.418 2.418 0 0 0 2.415 2.415h9.06a2.418 2.418 0 0 0 2.415-2.415v-5.28a2.418 2.418 0 0 0-2.416-2.42h-9.059Zm-26.424 0a2.418 2.418 0 0 0-2.416 2.415v5.285a2.418 2.418 0 0 0 2.416 2.415h9.06a2.416 2.416 0 0 0 2.417-2.41V70.25a2.417 2.417 0 0 0-2.416-2.42h-9.061Zm-26.425 0a2.418 2.418 0 0 0-2.414 2.415v5.285a2.416 2.416 0 0 0 2.414 2.415H22.7a2.417 2.417 0 0 0 2.41-2.41V70.25a2.418 2.418 0 0 0-2.41-2.42h-9.067Zm22.65-33.973a2.418 2.418 0 0 0-2.414 2.423v5.281a2.418 2.418 0 0 0 2.415 2.409h16.608a2.416 2.416 0 0 0 2.416-2.409v-5.28a2.417 2.417 0 0 0-2.416-2.419l-16.609-.005Z"/><path fill="#fff" stroke="#fff" stroke-width=".2" d="M40.809 60.285h-18.87a.606.606 0 0 1 0-1.21h18.87a.606.606 0 0 1 .428 1.032.606.606 0 0 1-.428.178ZM67.232 60.285h-18.87a.606.606 0 0 1 0-1.21h18.87a.606.606 0 0 1 .428 1.032.606.606 0 0 1-.428.178Z"/></svg>