<svg xmlns="http://www.w3.org/2000/svg" width="90" height="90" fill="none" viewBox="0 0 90 90"><path fill="#fff" stroke="#fff" stroke-width=".3" d="M55.407 69.797H34.395a.586.586 0 1 1 0-1.172h6.212v-5.626H9.058A3.062 3.062 0 0 1 6 59.941v-43.26a3.061 3.061 0 0 1 3.058-3.057h14.538l-.6.625c-.17.172-.329.355-.476.547H9.058a1.888 1.888 0 0 0-1.886 1.885v13.011h3.122a.586.586 0 0 1 0 1.172H7.172v3.772h6.83a.586.586 0 0 1 0 1.172h-6.83v3.772h3.122a.586.586 0 0 1 0 1.172H7.172v16.13h21.177a6.7 6.7 0 0 0 2.191.433c.117.008.237.012.357.012a6.736 6.736 0 0 0 2.319-.445h3.821c.075.4.188.793.338 1.172h-30.2v1.886a1.888 1.888 0 0 0 1.886 1.886h31.988a7.21 7.21 0 0 0 2.983.618h.123l2.727-.062c.917 0 1.825-.189 2.665-.556h6.189l1.085 1.173h-7.63v5.626h6.213a.586.586 0 0 1 0 1.172h.003Zm-13.628-6.8v5.626h6.243v-5.624H41.78l-.001-.002ZM83.802 56.405l-1.17-1.288V40.752h-3.124a.585.585 0 1 1 0-1.172h3.122v-3.773H75.8a.586.586 0 1 1 0-1.172h6.83v-3.772h-3.122a.586.586 0 1 1 0-1.172h3.122v-13.01a1.888 1.888 0 0 0-1.886-1.885h-13.6a8.183 8.183 0 0 0-.91-1.172h14.51a3.061 3.061 0 0 1 3.058 3.057v39.724Z"/><path fill="#fff" stroke="#fff" stroke-width=".3" d="M79.642 81.518a.6.6 0 0 1-.447-.191l-22.566-24.73-.069-.07a2.282 2.282 0 0 1 .154-3.217l1.131-1.018-2.415-2.318-.429.269a18.666 18.666 0 0 1-4.6 2.029l-.477.141.074 3.013a3.227 3.227 0 0 1-3.244 3.122l-2.726.062h-.174a3.176 3.176 0 0 1-3.245-2.964l-.074-3.012-.474-.123a19.343 19.343 0 0 1-4.667-1.854l-.445-.248-2.073 2.217a3 3 0 0 1-2.065.921h-.149a3.734 3.734 0 0 1-2.311-1l-1.97-1.911-.012-.01a3.219 3.219 0 0 1-.267-4.523l2.064-2.214-.265-.423a18.674 18.674 0 0 1-2.03-4.6l-.141-.477-3.035.074h-.082a3.22 3.22 0 0 1-3.018-3.257l-.062-2.719v-.023c-.05-.847.238-1.68.8-2.315a3.122 3.122 0 0 1 2.163-1.077l3.012-.074.122-.474a19.364 19.364 0 0 1 1.854-4.666l.249-.445-2.217-2.07a2.899 2.899 0 0 1-.854-2.217 3.727 3.727 0 0 1 1-2.311l1.91-1.971.011-.013a3.3 3.3 0 0 1 2.415-1.061c.777 0 1.528.285 2.11.8l2.277 2.056.417-.26a18.71 18.71 0 0 1 4.6-2.03l.474-.14-.074-3.013a3.212 3.212 0 0 1 3.135-3.123h.106L45.776 8h.174a3.183 3.183 0 0 1 3.187 2.964l.074 3.012.474.122a19.385 19.385 0 0 1 4.667 1.854l.445.249 2.07-2.218a3 3 0 0 1 2.065-.92h.149c.863.056 1.68.41 2.311 1l1.971 1.91.013.012a3.22 3.22 0 0 1 .267 4.523l-2.067 2.212.265.424a18.684 18.684 0 0 1 2.029 4.6l.141.477 3.023-.073h.042a3.2 3.2 0 0 1 3.068 3.243l.062 2.8v.024a3.2 3.2 0 0 1-2.963 3.39l-3.013.074-.122.474a19.365 19.365 0 0 1-1.854 4.667l-.249.445 2.152 2.008c.024.041.047.075.066.1v.014c.017.025.033.05.047.077l.36.72.627-.5c.421-.34.946-.527 1.488-.527a2.43 2.43 0 0 1 1.714.715l14.455 16.105a.61.61 0 0 1-.064.811.55.55 0 0 1-.365.129.602.602 0 0 1-.448-.192L67.506 46.711l-.022-.022a1.135 1.135 0 0 0-1.586-.013l-8.4 7.655-.022.021a1.064 1.064 0 0 0-.012 1.525l22.6 24.7a.568.568 0 0 1 .122.409.59.59 0 0 1-.189.4.55.55 0 0 1-.355.132ZM34.91 49.15a.6.6 0 0 1 .317.1 18.586 18.586 0 0 0 6.077 2.37.6.6 0 0 1 .476.539l.062 3.582.008.047a2.056 2.056 0 0 0 1.979 1.735c.086 0 .171-.006.256-.018h2.646c.046 0 .092.005.138.005a2.028 2.028 0 0 0 2.018-1.837v-.032l-.063-3.586v-.031a.548.548 0 0 1 .422-.529h.008a18.608 18.608 0 0 0 6.01-2.619.73.73 0 0 1 .377-.116.5.5 0 0 1 .358.151l2.8 2.653 5.213-4.759-.6-.6-2.538-2.416a.575.575 0 0 1-.088-.737 18.587 18.587 0 0 0 2.37-6.077.6.6 0 0 1 .539-.476l3.649-.125.042-.007a2.07 2.07 0 0 0 1.716-2.219l-.06-2.67a2.025 2.025 0 0 0-1.832-2.147h-.033l-3.585.063h-.066a.56.56 0 0 1-.494-.424v-.008a18.602 18.602 0 0 0-2.619-6.009.59.59 0 0 1 .035-.736l2.455-2.58.028-.041a2.036 2.036 0 0 0-.36-2.787l-1.941-1.88a2.201 2.201 0 0 0-1.568-.681 2.1 2.1 0 0 0-1.193.439l-.044.032-2.449 2.558a.6.6 0 0 1-.42.184.61.61 0 0 1-.318-.1 18.577 18.577 0 0 0-6.077-2.37.6.6 0 0 1-.475-.539l-.063-3.52-.008-.048a2.07 2.07 0 0 0-2.062-1.718c-.053 0-.106 0-.158.005l-2.67.061h-.129a2.028 2.028 0 0 0-2.02 1.833v.032l.063 3.586v.031a.549.549 0 0 1-.422.529h-.008a18.602 18.602 0 0 0-6.009 2.619.73.73 0 0 1-.378.116.499.499 0 0 1-.358-.151l-2.578-2.454-.04-.027a2.196 2.196 0 0 0-1.246-.4 1.901 1.901 0 0 0-1.543.757l-1.881 1.944a2.2 2.2 0 0 0-.68 1.568 1.73 1.73 0 0 0 .5 1.325l2.539 2.416a.577.577 0 0 1 .088.737 18.588 18.588 0 0 0-2.37 6.077.6.6 0 0 1-.539.476l-3.582.062-.047.008a2.07 2.07 0 0 0-1.716 2.236l.183 2.608a2.03 2.03 0 0 0 .467 1.411 1.978 1.978 0 0 0 1.366.719h.032l3.488-.064a.545.545 0 0 1 .535.419v.007a18.6 18.6 0 0 0 2.618 6.01.586.586 0 0 1-.035.735l-2.454 2.585-.028.04a2.08 2.08 0 0 0 .335 2.765l1.966 1.9a2.2 2.2 0 0 0 1.568.68 1.664 1.664 0 0 0 1.263-.5l2.416-2.538a.59.59 0 0 1 .421-.179Z"/><path fill="#fff" stroke="#fff" stroke-width=".3" d="M74.636 69.776a.598.598 0 0 1-.447-.191L61.821 55.98l-.024-.022a.523.523 0 0 1-.151-.39.544.544 0 0 1 .181-.391l.031-.03a.49.49 0 0 1 .351-.145.676.676 0 0 1 .5.24l12.36 13.6a.61.61 0 0 1-.066.81.55.55 0 0 1-.367.123ZM78.272 73.505a.588.588 0 0 1-.414-1 .588.588 0 0 1 .828 0 .588.588 0 0 1 0 .828.588.588 0 0 1-.414.172ZM53.059 56.79a5.164 5.164 0 0 1-.742 1.915h1.545a5.268 5.268 0 0 1-.803-1.916Z"/><path fill="#fff" d="M41.208 29.96V41h-1.12v-8.816L36.152 41h-.816L31.4 32.216V41h-1.12V29.96h1.184l4.272 9.568 4.272-9.568h1.2Zm11.405-.144L48.373 41h-1.28l-4.24-11.184h1.216l3.664 9.968 3.696-9.968h1.184Zm8.835 3.216c0 .96-.315 1.733-.944 2.32-.63.587-1.574.88-2.832.88h-2.256V41h-1.12V29.816h3.376c1.248 0 2.186.293 2.816.88.64.587.96 1.365.96 2.336Zm-3.776 2.24c1.749 0 2.624-.747 2.624-2.24 0-.747-.208-1.312-.624-1.696-.416-.384-1.083-.576-2-.576h-2.256v4.512h2.256Z"/></svg>