<svg xmlns="http://www.w3.org/2000/svg" width="90" height="90" fill="none" viewBox="0 0 90 90"><path fill="#fff" stroke="#fff" stroke-width=".4" d="M67.181 76.646H25.533a4.343 4.343 0 0 1-4.333-4.338v-5.036l-.409-.076a13.226 13.226 0 0 1 0-26l.41-.076V24.767a4.343 4.343 0 0 1 4.332-4.337h11.855l.08-.4a2.414 2.414 0 0 1 2.362-1.957h.5c.438.03.87-.104 1.215-.373.29-.246.476-.594.517-.972A4.356 4.356 0 0 1 46.372 13a4.35 4.35 0 0 1 4.265 3.739v.008a1.522 1.522 0 0 0 1.534 1.327h.7a2.416 2.416 0 0 1 2.362 1.953l.078.4h11.87a4.342 4.342 0 0 1 4.337 4.337v4.946l.333.118a13.23 13.23 0 0 1 0 24.922l-.333.118v17.44a4.342 4.342 0 0 1-4.337 4.338Zm-45.126-9.287v4.934a3.5 3.5 0 0 0 3.478 3.477h41.648a3.5 3.5 0 0 0 3.477-3.477V55.12l-.6.122a12.3 12.3 0 0 1-2.252.254l-.49.01v4.6a.4.4 0 0 1-.133.313l-11.21 11.21a.432.432 0 0 1-.313.133H28.991a3.6 3.6 0 0 1-3.59-3.594v-.92l-.56.067a11.786 11.786 0 0 1-2.251.079l-.535-.035ZM29.006 25.1a2.752 2.752 0 0 0-2.749 2.749v13.46l.372.1a13.22 13.22 0 0 1 0 25.548l-.373.1v.575a2.919 2.919 0 0 0 .815 2.445 2.728 2.728 0 0 0 1.933.811h26.257v-7.619a3.605 3.605 0 0 1 3.61-3.594h7.617v-4.191l-.448-.047a13.223 13.223 0 0 1 0-26.3l.448-.047v-.683a3.035 3.035 0 0 0-.814-2.493 2.724 2.724 0 0 0-1.935-.814h-8.42l-.019.48a2.4 2.4 0 0 1-2.4 2.32H39.845a2.408 2.408 0 0 1-2.4-2.306l-.015-.494h-8.424Zm29.848 35.43a2.744 2.744 0 0 0-2.749 2.733v7l9.757-9.738-7.008.005Zm-35.632-18.7a12.375 12.375 0 1 0 8.742 3.624 12.283 12.283 0 0 0-8.74-3.623l-.002-.001Zm44.2-11.908a12.374 12.374 0 1 0 8.736 3.624 12.29 12.29 0 0 0-8.738-3.622l.002-.002Zm-44.2 11.051c.537-.004 1.074.03 1.606.1l.57.078V27.869a3.6 3.6 0 0 1 3.593-3.594h8.438v-2.969h-11.9a3.5 3.5 0 0 0-3.478 3.478v16.3l.576-.084c.198-.022.397-.03.596-.025v-.002Zm32.062-19.682v2.969h8.44a3.6 3.6 0 0 1 3.593 3.594v1.219l.49.009c.757.015 1.511.1 2.252.254l.6.122v-4.691a3.5 3.5 0 0 0-3.477-3.477l-11.898.001Zm-15.21-2.364a1.726 1.726 0 0 0-1.328.463 1.7 1.7 0 0 0-.457 1.372v4.75a1.542 1.542 0 0 0 1.54 1.539h13.056a1.541 1.541 0 0 0 1.54-1.539v-5.039a1.541 1.541 0 0 0-1.54-1.539h-.228a2.666 2.666 0 0 1-2.066-.591c-.438-.38-.72-.91-.79-1.485v-.005a3.442 3.442 0 0 0-1.218-2.191 3.536 3.536 0 0 0-2.24-.8 3.4 3.4 0 0 0-2.269.86 3.453 3.453 0 0 0-1.157 2.141 2.39 2.39 0 0 1-2.372 2.075h-.235a2.2 2.2 0 0 0-.237-.011ZM76.37 63.2a1.556 1.556 0 1 1-.01-3.109 1.55 1.55 0 0 1 1.087 2.65 1.498 1.498 0 0 1-1.077.459Zm-.013-2.257a.709.709 0 0 0-.647.437.69.69 0 0 0 1.127.751.7.7 0 0 0 0-.986.679.679 0 0 0-.479-.199v-.003Zm-48.513-2.334a.413.413 0 0 1-.276-.1l-4.346-3.742L18.88 58.5a.415.415 0 0 1-.276.1.405.405 0 0 1-.313-.144.452.452 0 0 1-.059-.476.392.392 0 0 1 .095-.122l4.26-3.67-4.26-3.654a.416.416 0 0 1 .1-.708.434.434 0 0 1 .453.062l4.343 3.739 4.342-3.739a.413.413 0 0 1 .276-.1.409.409 0 0 1 .313.144l.007.008a.413.413 0 0 1 .1.309.399.399 0 0 1-.143.281l-4.25 3.67 4.252 3.664a.432.432 0 0 1-.101.707.408.408 0 0 1-.174.038Zm20.807-5.563h-9.986a.43.43 0 0 1 0-.86h9.986a.43.43 0 1 1 0 .86Zm0-4.217h-9.986a.43.43 0 0 1 0-.861h9.986a.43.43 0 0 1 0 .861ZM64.985 46.6a.432.432 0 0 1-.379-.22l-2.866-4.941a.438.438 0 0 1 .153-.591.47.47 0 0 1 .22-.057.389.389 0 0 1 .351.2l2.617 4.532 8.861-7.636a.413.413 0 0 1 .276-.1.4.4 0 0 1 .312.144l.008.009a.42.42 0 0 1-.043.589L65.26 46.5a.416.416 0 0 1-.274.1Zm-16.333-7.835H34.62a.43.43 0 0 1 0-.86h14.033a.43.43 0 1 1 0 .86Zm-35.88-1.98a2.25 2.25 0 0 1-2.272-2.264v-.005a2.192 2.192 0 0 1 .64-1.571 2.258 2.258 0 0 1 3.205 3.177 2.177 2.177 0 0 1-1.573.663Zm-.028-3.644a1.399 1.399 0 1 0 0 2.79 1.364 1.364 0 0 0 .97-.405 1.4 1.4 0 0 0 .414-1.011 1.4 1.4 0 0 0-1.384-1.374Zm35.908 1.423H31.38a.43.43 0 0 1 0-.861h17.273a.43.43 0 0 1 0 .861Zm-2.269-14.957A2.108 2.108 0 1 1 48.3 16.7a2.07 2.07 0 0 1-.454 2.291 2.031 2.031 0 0 1-1.463.616Zm-.02-3.372a1.25 1.25 0 0 0-1.25 1.245 1.244 1.244 0 1 0 1.251-1.246v.001Zm14.351 1.881a2.254 2.254 0 1 1-.03-4.509A2.222 2.222 0 0 1 62.764 15a2.216 2.216 0 0 1-.48 2.45 2.18 2.18 0 0 1-1.57.666Zm-.014-3.644a1.399 1.399 0 1 0 0 2.79 1.367 1.367 0 0 0 .97-.406l.008-.007a1.418 1.418 0 0 0-.008-1.971 1.366 1.366 0 0 0-.97-.406Zm-26.225 2.756a1.57 1.57 0 0 1-1.575-1.559 1.575 1.575 0 0 1 1.562-1.55 1.548 1.548 0 0 1 1.091 2.651 1.5 1.5 0 0 1-1.078.458Zm0-2.241a.708.708 0 0 0-.646.437.68.68 0 0 0 .156.751.7.7 0 0 0 .491.205.653.653 0 0 0 .516-.247.707.707 0 0 0-.037-.944.671.671 0 0 0-.478-.202h-.002Z"/></svg>