<svg width="60" height="60" viewBox="0 0 60 60" fill="none" xmlns="http://www.w3.org/2000/svg">
<g clip-path="url(#clip0_5773_9567)">
<path d="M60 30C60 13.44 46.56 0 30 0C13.44 0 0 13.44 0 30C0 46.56 13.44 60 30 60C46.56 60 60 46.56 60 30ZM30 3.03C44.91 3.03 56.97 15.09 56.97 30C56.97 44.91 44.91 56.97 30 56.97C15.09 56.97 3.03 44.91 3.03 30C3.03 15.09 15.09 3.03 30 3.03ZM24.03 44.46L14.88 19.83C16.35 19.74 18.03 19.59 18.03 19.59C19.32 19.44 19.17 16.56 17.85 16.62C17.85 16.62 13.98 16.92 11.46 16.92C11.01 16.92 10.47 16.92 9.9 16.89C14.22 10.38 21.6 6.09 30 6.09C36.27 6.09 41.97 8.46 46.23 12.36C44.43 12.12 41.88 13.41 41.88 16.62C41.88 18.6 43.02 20.28 44.25 22.26C45.18 23.88 45.75 25.92 45.75 28.89C45.75 32.91 41.94 42.33 41.94 42.33L33.81 19.83C35.25 19.74 36.06 19.35 36.06 19.35C37.35 19.2 37.2 16.05 35.91 16.11C35.91 16.11 32.01 16.44 29.49 16.44C27.15 16.44 23.16 16.11 23.16 16.11C21.87 16.05 21.72 19.29 23.01 19.35L25.53 19.59L28.89 28.71L24.03 44.46ZM42.09 50.91L49.92 30C49.92 30 51.93 24.93 51.09 18.57C52.98 21.99 53.91 25.83 53.91 30C53.91 38.88 49.23 46.74 42.09 50.91ZM8.04 20.31L19.5 51.75C11.49 47.85 6.09 39.51 6.09 30C6.09 26.52 6.69 23.31 8.04 20.31ZM30.39 33.9L37.26 52.65C35.01 53.46 32.55 53.91 30 53.91C27.84 53.91 25.77 53.58 23.82 53.01L30.39 33.9Z" fill="black"/>
</g>
<defs>
<clipPath id="clip0_5773_9567">
<rect width="60" height="60" fill="white"/>
</clipPath>
</defs>
</svg>
